<?xml version="1.0" encoding="utf-8" standalone="no"?>
<!DOCTYPE svg PUBLIC "-//W3C//DTD SVG 1.1//EN"
  "http://www.w3.org/Graphics/SVG/1.1/DTD/svg11.dtd">
<!-- Created with matplotlib (https://matplotlib.org/) -->
<svg height="1080pt" version="1.1" viewBox="0 0 1440 1080" width="1440pt" xmlns="http://www.w3.org/2000/svg" xmlns:xlink="http://www.w3.org/1999/xlink">
 <metadata>
  <rdf:RDF xmlns:cc="http://creativecommons.org/ns#" xmlns:dc="http://purl.org/dc/elements/1.1/" xmlns:rdf="http://www.w3.org/1999/02/22-rdf-syntax-ns#">
   <cc:Work>
    <dc:type rdf:resource="http://purl.org/dc/dcmitype/StillImage"/>
    <dc:date>2021-11-25T17:52:09.010379</dc:date>
    <dc:format>image/svg+xml</dc:format>
    <dc:creator>
     <cc:Agent>
      <dc:title>Matplotlib v3.3.4, https://matplotlib.org/</dc:title>
     </cc:Agent>
    </dc:creator>
   </cc:Work>
  </rdf:RDF>
 </metadata>
 <defs>
  <style type="text/css">*{stroke-linecap:butt;stroke-linejoin:round;}</style>
 </defs>
 <g id="figure_1">
  <g id="patch_1">
   <path d="M 0 1080 
L 1440 1080 
L 1440 0 
L 0 0 
z
" style="fill:#ffffff;"/>
  </g>
  <g id="axes_1">
   <g id="patch_2">
    <path d="M 180 945 
L 1296 945 
L 1296 129.6 
L 180 129.6 
z
" style="fill:#ffffff;"/>
   </g>
   <g id="matplotlib.axis_1">
    <g id="xtick_1">
     <g id="line2d_1">
      <defs>
       <path d="M 0 0 
L 0 3.5 
" id="md36870d687" style="stroke:#000000;stroke-width:0.8;"/>
      </defs>
      <g>
       <use style="stroke:#000000;stroke-width:0.8;" x="215.807487" xlink:href="#md36870d687" y="945"/>
      </g>
     </g>
     <g id="text_1">
      <!-- 0 -->
      <g transform="translate(208.153893 968.716563)scale(0.22 -0.22)">
       <defs>
        <path d="M 46 36.53125 
Q 46 50.203125 43.4375 55.78125 
Q 40.875 61.375 34.8125 61.375 
Q 28.765625 61.375 26.171875 55.78125 
Q 23.578125 50.203125 23.578125 36.53125 
Q 23.578125 22.703125 26.171875 17.03125 
Q 28.765625 11.375 34.8125 11.375 
Q 40.828125 11.375 43.40625 17.03125 
Q 46 22.703125 46 36.53125 
z
M 64.796875 36.375 
Q 64.796875 18.265625 56.984375 8.421875 
Q 49.171875 -1.421875 34.8125 -1.421875 
Q 20.40625 -1.421875 12.59375 8.421875 
Q 4.78125 18.265625 4.78125 36.375 
Q 4.78125 54.546875 12.59375 64.375 
Q 20.40625 74.21875 34.8125 74.21875 
Q 49.171875 74.21875 56.984375 64.375 
Q 64.796875 54.546875 64.796875 36.375 
z
" id="DejaVuSans-Bold-48"/>
       </defs>
       <use xlink:href="#DejaVuSans-Bold-48"/>
      </g>
     </g>
    </g>
    <g id="xtick_2">
     <g id="line2d_2">
      <g>
       <use style="stroke:#000000;stroke-width:0.8;" x="365.005348" xlink:href="#md36870d687" y="945"/>
      </g>
     </g>
     <g id="text_2">
      <!-- 10 -->
      <g transform="translate(349.69816 968.716563)scale(0.22 -0.22)">
       <defs>
        <path d="M 11.71875 12.984375 
L 28.328125 12.984375 
L 28.328125 60.109375 
L 11.28125 56.59375 
L 11.28125 69.390625 
L 28.21875 72.90625 
L 46.09375 72.90625 
L 46.09375 12.984375 
L 62.703125 12.984375 
L 62.703125 0 
L 11.71875 0 
z
" id="DejaVuSans-Bold-49"/>
       </defs>
       <use xlink:href="#DejaVuSans-Bold-49"/>
       <use x="69.580078" xlink:href="#DejaVuSans-Bold-48"/>
      </g>
     </g>
    </g>
    <g id="xtick_3">
     <g id="line2d_3">
      <g>
       <use style="stroke:#000000;stroke-width:0.8;" x="514.203209" xlink:href="#md36870d687" y="945"/>
      </g>
     </g>
     <g id="text_3">
      <!-- 20 -->
      <g transform="translate(498.896021 968.716563)scale(0.22 -0.22)">
       <defs>
        <path d="M 28.8125 13.8125 
L 60.890625 13.8125 
L 60.890625 0 
L 7.90625 0 
L 7.90625 13.8125 
L 34.515625 37.3125 
Q 38.09375 40.53125 39.796875 43.609375 
Q 41.5 46.6875 41.5 50 
Q 41.5 55.125 38.0625 58.25 
Q 34.625 61.375 28.90625 61.375 
Q 24.515625 61.375 19.28125 59.5 
Q 14.0625 57.625 8.109375 53.90625 
L 8.109375 69.921875 
Q 14.453125 72.015625 20.65625 73.109375 
Q 26.859375 74.21875 32.8125 74.21875 
Q 45.90625 74.21875 53.15625 68.453125 
Q 60.40625 62.703125 60.40625 52.390625 
Q 60.40625 46.4375 57.328125 41.28125 
Q 54.25 36.140625 44.390625 27.484375 
z
" id="DejaVuSans-Bold-50"/>
       </defs>
       <use xlink:href="#DejaVuSans-Bold-50"/>
       <use x="69.580078" xlink:href="#DejaVuSans-Bold-48"/>
      </g>
     </g>
    </g>
    <g id="xtick_4">
     <g id="line2d_4">
      <g>
       <use style="stroke:#000000;stroke-width:0.8;" x="663.40107" xlink:href="#md36870d687" y="945"/>
      </g>
     </g>
     <g id="text_4">
      <!-- 30 -->
      <g transform="translate(648.093882 968.716563)scale(0.22 -0.22)">
       <defs>
        <path d="M 46.578125 39.3125 
Q 53.953125 37.40625 57.78125 32.6875 
Q 61.625 27.984375 61.625 20.703125 
Q 61.625 9.859375 53.3125 4.21875 
Q 45.015625 -1.421875 29.109375 -1.421875 
Q 23.484375 -1.421875 17.84375 -0.515625 
Q 12.203125 0.390625 6.6875 2.203125 
L 6.6875 16.703125 
Q 11.96875 14.0625 17.15625 12.71875 
Q 22.359375 11.375 27.390625 11.375 
Q 34.859375 11.375 38.84375 13.953125 
Q 42.828125 16.546875 42.828125 21.390625 
Q 42.828125 26.375 38.75 28.9375 
Q 34.671875 31.5 26.703125 31.5 
L 19.1875 31.5 
L 19.1875 43.609375 
L 27.09375 43.609375 
Q 34.1875 43.609375 37.640625 45.828125 
Q 41.109375 48.046875 41.109375 52.59375 
Q 41.109375 56.78125 37.734375 59.078125 
Q 34.375 61.375 28.21875 61.375 
Q 23.6875 61.375 19.046875 60.34375 
Q 14.40625 59.328125 9.8125 57.328125 
L 9.8125 71.09375 
Q 15.375 72.65625 20.84375 73.4375 
Q 26.3125 74.21875 31.59375 74.21875 
Q 45.796875 74.21875 52.84375 69.546875 
Q 59.90625 64.890625 59.90625 55.515625 
Q 59.90625 49.125 56.53125 45.046875 
Q 53.171875 40.96875 46.578125 39.3125 
z
" id="DejaVuSans-Bold-51"/>
       </defs>
       <use xlink:href="#DejaVuSans-Bold-51"/>
       <use x="69.580078" xlink:href="#DejaVuSans-Bold-48"/>
      </g>
     </g>
    </g>
    <g id="xtick_5">
     <g id="line2d_5">
      <g>
       <use style="stroke:#000000;stroke-width:0.8;" x="812.59893" xlink:href="#md36870d687" y="945"/>
      </g>
     </g>
     <g id="text_5">
      <!-- 40 -->
      <g transform="translate(797.291743 968.716563)scale(0.22 -0.22)">
       <defs>
        <path d="M 36.8125 57.421875 
L 16.21875 26.90625 
L 36.8125 26.90625 
z
M 33.6875 72.90625 
L 54.59375 72.90625 
L 54.59375 26.90625 
L 64.984375 26.90625 
L 64.984375 13.28125 
L 54.59375 13.28125 
L 54.59375 0 
L 36.8125 0 
L 36.8125 13.28125 
L 4.5 13.28125 
L 4.5 29.390625 
z
" id="DejaVuSans-Bold-52"/>
       </defs>
       <use xlink:href="#DejaVuSans-Bold-52"/>
       <use x="69.580078" xlink:href="#DejaVuSans-Bold-48"/>
      </g>
     </g>
    </g>
    <g id="xtick_6">
     <g id="line2d_6">
      <g>
       <use style="stroke:#000000;stroke-width:0.8;" x="961.796791" xlink:href="#md36870d687" y="945"/>
      </g>
     </g>
     <g id="text_6">
      <!-- 50 -->
      <g transform="translate(946.489604 968.716563)scale(0.22 -0.22)">
       <defs>
        <path d="M 10.59375 72.90625 
L 57.328125 72.90625 
L 57.328125 59.078125 
L 25.59375 59.078125 
L 25.59375 47.796875 
Q 27.734375 48.390625 29.90625 48.703125 
Q 32.078125 49.03125 34.421875 49.03125 
Q 47.75 49.03125 55.171875 42.359375 
Q 62.59375 35.6875 62.59375 23.78125 
Q 62.59375 11.96875 54.515625 5.265625 
Q 46.4375 -1.421875 32.078125 -1.421875 
Q 25.875 -1.421875 19.796875 -0.21875 
Q 13.71875 0.984375 7.71875 3.421875 
L 7.71875 18.21875 
Q 13.671875 14.796875 19.015625 13.078125 
Q 24.359375 11.375 29.109375 11.375 
Q 35.9375 11.375 39.859375 14.71875 
Q 43.796875 18.0625 43.796875 23.78125 
Q 43.796875 29.546875 39.859375 32.859375 
Q 35.9375 36.1875 29.109375 36.1875 
Q 25.046875 36.1875 20.453125 35.125 
Q 15.875 34.078125 10.59375 31.890625 
z
" id="DejaVuSans-Bold-53"/>
       </defs>
       <use xlink:href="#DejaVuSans-Bold-53"/>
       <use x="69.580078" xlink:href="#DejaVuSans-Bold-48"/>
      </g>
     </g>
    </g>
    <g id="xtick_7">
     <g id="line2d_7">
      <g>
       <use style="stroke:#000000;stroke-width:0.8;" x="1110.994652" xlink:href="#md36870d687" y="945"/>
      </g>
     </g>
     <g id="text_7">
      <!-- 60 -->
      <g transform="translate(1095.687465 968.716563)scale(0.22 -0.22)">
       <defs>
        <path d="M 36.1875 35.984375 
Q 31.25 35.984375 28.78125 32.78125 
Q 26.3125 29.59375 26.3125 23.1875 
Q 26.3125 16.796875 28.78125 13.59375 
Q 31.25 10.40625 36.1875 10.40625 
Q 41.15625 10.40625 43.625 13.59375 
Q 46.09375 16.796875 46.09375 23.1875 
Q 46.09375 29.59375 43.625 32.78125 
Q 41.15625 35.984375 36.1875 35.984375 
z
M 59.421875 71 
L 59.421875 57.515625 
Q 54.78125 59.71875 50.671875 60.765625 
Q 46.578125 61.8125 42.671875 61.8125 
Q 34.28125 61.8125 29.59375 57.140625 
Q 24.90625 52.484375 24.125 43.3125 
Q 27.34375 45.703125 31.09375 46.890625 
Q 34.859375 48.09375 39.3125 48.09375 
Q 50.484375 48.09375 57.34375 41.546875 
Q 64.203125 35.015625 64.203125 24.421875 
Q 64.203125 12.703125 56.53125 5.640625 
Q 48.875 -1.421875 35.984375 -1.421875 
Q 21.78125 -1.421875 13.984375 8.171875 
Q 6.203125 17.78125 6.203125 35.40625 
Q 6.203125 53.46875 15.3125 63.796875 
Q 24.421875 74.125 40.28125 74.125 
Q 45.3125 74.125 50.046875 73.34375 
Q 54.78125 72.5625 59.421875 71 
z
" id="DejaVuSans-Bold-54"/>
       </defs>
       <use xlink:href="#DejaVuSans-Bold-54"/>
       <use x="69.580078" xlink:href="#DejaVuSans-Bold-48"/>
      </g>
     </g>
    </g>
    <g id="xtick_8">
     <g id="line2d_8">
      <g>
       <use style="stroke:#000000;stroke-width:0.8;" x="1260.192513" xlink:href="#md36870d687" y="945"/>
      </g>
     </g>
     <g id="text_8">
      <!-- 70 -->
      <g transform="translate(1244.885326 968.716563)scale(0.22 -0.22)">
       <defs>
        <path d="M 6.6875 72.90625 
L 61.625 72.90625 
L 61.625 62.3125 
L 33.203125 0 
L 14.890625 0 
L 41.796875 59.078125 
L 6.6875 59.078125 
z
" id="DejaVuSans-Bold-55"/>
       </defs>
       <use xlink:href="#DejaVuSans-Bold-55"/>
       <use x="69.580078" xlink:href="#DejaVuSans-Bold-48"/>
      </g>
     </g>
    </g>
   </g>
   <g id="matplotlib.axis_2">
    <g id="ytick_1">
     <g id="line2d_9">
      <defs>
       <path d="M 0 0 
L -3.5 0 
" id="mbdd65246d5" style="stroke:#000000;stroke-width:0.8;"/>
      </defs>
      <g>
       <use style="stroke:#000000;stroke-width:0.8;" x="180" xlink:href="#mbdd65246d5" y="909.115231"/>
      </g>
     </g>
     <g id="text_9">
      <!-- 0 -->
      <g transform="translate(157.692813 917.473512)scale(0.22 -0.22)">
       <use xlink:href="#DejaVuSans-Bold-48"/>
      </g>
     </g>
    </g>
    <g id="ytick_2">
     <g id="line2d_10">
      <g>
       <use style="stroke:#000000;stroke-width:0.8;" x="180" xlink:href="#mbdd65246d5" y="735.41245"/>
      </g>
     </g>
     <g id="text_10">
      <!-- 20 -->
      <g transform="translate(142.385625 743.770731)scale(0.22 -0.22)">
       <use xlink:href="#DejaVuSans-Bold-50"/>
       <use x="69.580078" xlink:href="#DejaVuSans-Bold-48"/>
      </g>
     </g>
    </g>
    <g id="ytick_3">
     <g id="line2d_11">
      <g>
       <use style="stroke:#000000;stroke-width:0.8;" x="180" xlink:href="#mbdd65246d5" y="561.709669"/>
      </g>
     </g>
     <g id="text_11">
      <!-- 40 -->
      <g transform="translate(142.385625 570.06795)scale(0.22 -0.22)">
       <use xlink:href="#DejaVuSans-Bold-52"/>
       <use x="69.580078" xlink:href="#DejaVuSans-Bold-48"/>
      </g>
     </g>
    </g>
    <g id="ytick_4">
     <g id="line2d_12">
      <g>
       <use style="stroke:#000000;stroke-width:0.8;" x="180" xlink:href="#mbdd65246d5" y="388.006887"/>
      </g>
     </g>
     <g id="text_12">
      <!-- 60 -->
      <g transform="translate(142.385625 396.365169)scale(0.22 -0.22)">
       <use xlink:href="#DejaVuSans-Bold-54"/>
       <use x="69.580078" xlink:href="#DejaVuSans-Bold-48"/>
      </g>
     </g>
    </g>
    <g id="ytick_5">
     <g id="line2d_13">
      <g>
       <use style="stroke:#000000;stroke-width:0.8;" x="180" xlink:href="#mbdd65246d5" y="214.304106"/>
      </g>
     </g>
     <g id="text_13">
      <!-- 80 -->
      <g transform="translate(142.385625 222.662387)scale(0.22 -0.22)">
       <defs>
        <path d="M 34.8125 32.625 
Q 29.546875 32.625 26.703125 29.734375 
Q 23.875 26.859375 23.875 21.484375 
Q 23.875 16.109375 26.703125 13.25 
Q 29.546875 10.40625 34.8125 10.40625 
Q 40.046875 10.40625 42.828125 13.25 
Q 45.609375 16.109375 45.609375 21.484375 
Q 45.609375 26.90625 42.828125 29.765625 
Q 40.046875 32.625 34.8125 32.625 
z
M 21.09375 38.8125 
Q 14.453125 40.828125 11.078125 44.96875 
Q 7.71875 49.125 7.71875 55.328125 
Q 7.71875 64.546875 14.59375 69.375 
Q 21.484375 74.21875 34.8125 74.21875 
Q 48.046875 74.21875 54.921875 69.40625 
Q 61.8125 64.59375 61.8125 55.328125 
Q 61.8125 49.125 58.421875 44.96875 
Q 55.03125 40.828125 48.390625 38.8125 
Q 55.8125 36.765625 59.59375 32.15625 
Q 63.375 27.546875 63.375 20.515625 
Q 63.375 9.671875 56.171875 4.125 
Q 48.96875 -1.421875 34.8125 -1.421875 
Q 20.609375 -1.421875 13.359375 4.125 
Q 6.109375 9.671875 6.109375 20.515625 
Q 6.109375 27.546875 9.890625 32.15625 
Q 13.671875 36.765625 21.09375 38.8125 
z
M 25.484375 53.421875 
Q 25.484375 49.078125 27.90625 46.734375 
Q 30.328125 44.390625 34.8125 44.390625 
Q 39.203125 44.390625 41.59375 46.734375 
Q 44 49.078125 44 53.421875 
Q 44 57.765625 41.59375 60.078125 
Q 39.203125 62.40625 34.8125 62.40625 
Q 30.328125 62.40625 27.90625 60.0625 
Q 25.484375 57.71875 25.484375 53.421875 
z
" id="DejaVuSans-Bold-56"/>
       </defs>
       <use xlink:href="#DejaVuSans-Bold-56"/>
       <use x="69.580078" xlink:href="#DejaVuSans-Bold-48"/>
      </g>
     </g>
    </g>
   </g>
   <g id="line2d_14">
    <path clip-path="url(#p4678ddb865)" d="M 230.727273 904.556335 
L 245.647059 904.556335 
L 260.566845 904.288143 
L 275.486631 904.288143 
L 290.406417 902.188192 
L 305.326203 902.188192 
L 320.245989 896.447294 
L 335.165775 891.489867 
L 350.085561 877.270125 
L 365.005348 871.695367 
L 379.925134 871.530141 
L 394.84492 869.88126 
L 409.764706 869.170644 
L 424.684492 869.170644 
L 439.604278 863.47381 
L 454.524064 862.252625 
L 469.44385 862.109019 
L 484.363636 859.941667 
L 499.283422 858.726796 
L 514.203209 855.544457 
L 529.122995 853.936383 
L 544.042781 853.936383 
L 558.962567 853.576119 
L 573.882353 853.159338 
L 588.802139 852.882067 
L 603.721925 852.859186 
L 618.641711 851.793303 
L 633.561497 851.498865 
L 648.481283 851.464853 
L 663.40107 850.68811 
L 678.320856 850.003698 
L 693.240642 849.942282 
L 708.160428 849.719029 
L 723.080214 849.580272 
L 738 849.57565 
L 752.919786 849.57565 
L 767.839572 849.508234 
L 782.759358 849.07831 
L 797.679144 848.708615 
L 812.59893 848.643279 
L 827.518717 848.125001 
L 842.438503 847.588166 
L 857.358289 847.273413 
L 872.278075 847.046046 
L 887.197861 846.354058 
L 902.117647 845.339046 
L 917.037433 845.339046 
L 931.957219 844.194368 
L 946.877005 843.828805 
L 961.796791 843.161639 
L 976.716578 843.161639 
L 991.636364 841.682048 
L 1006.55615 841.539498 
L 1021.475936 830.9853 
L 1036.395722 756.96717 
L 1051.315508 722.628114 
L 1066.235294 721.484774 
L 1081.15508 718.782979 
L 1096.074866 716.865339 
L 1110.994652 715.199166 
L 1125.914439 714.518693 
L 1140.834225 714.518693 
L 1155.754011 711.202002 
L 1170.673797 710.592569 
L 1185.593583 708.60702 
L 1200.513369 705.627818 
L 1215.433155 697.422955 
L 1230.352941 697.422955 
L 1245.272727 485.412749 
" style="fill:none;stroke:#1f77b4;stroke-linecap:square;stroke-width:1.5;"/>
    <defs>
     <path d="M 0 3 
C 0.795609 3 1.55874 2.683901 2.12132 2.12132 
C 2.683901 1.55874 3 0.795609 3 0 
C 3 -0.795609 2.683901 -1.55874 2.12132 -2.12132 
C 1.55874 -2.683901 0.795609 -3 0 -3 
C -0.795609 -3 -1.55874 -2.683901 -2.12132 -2.12132 
C -2.683901 -1.55874 -3 -0.795609 -3 0 
C -3 0.795609 -2.683901 1.55874 -2.12132 2.12132 
C -1.55874 2.683901 -0.795609 3 0 3 
z
" id="md42c5ae0c6" style="stroke:#1f77b4;"/>
    </defs>
    <g clip-path="url(#p4678ddb865)">
     <use style="fill:#1f77b4;stroke:#1f77b4;" x="230.727273" xlink:href="#md42c5ae0c6" y="904.556335"/>
     <use style="fill:#1f77b4;stroke:#1f77b4;" x="245.647059" xlink:href="#md42c5ae0c6" y="904.556335"/>
     <use style="fill:#1f77b4;stroke:#1f77b4;" x="260.566845" xlink:href="#md42c5ae0c6" y="904.288143"/>
     <use style="fill:#1f77b4;stroke:#1f77b4;" x="275.486631" xlink:href="#md42c5ae0c6" y="904.288143"/>
     <use style="fill:#1f77b4;stroke:#1f77b4;" x="290.406417" xlink:href="#md42c5ae0c6" y="902.188192"/>
     <use style="fill:#1f77b4;stroke:#1f77b4;" x="305.326203" xlink:href="#md42c5ae0c6" y="902.188192"/>
     <use style="fill:#1f77b4;stroke:#1f77b4;" x="320.245989" xlink:href="#md42c5ae0c6" y="896.447294"/>
     <use style="fill:#1f77b4;stroke:#1f77b4;" x="335.165775" xlink:href="#md42c5ae0c6" y="891.489867"/>
     <use style="fill:#1f77b4;stroke:#1f77b4;" x="350.085561" xlink:href="#md42c5ae0c6" y="877.270125"/>
     <use style="fill:#1f77b4;stroke:#1f77b4;" x="365.005348" xlink:href="#md42c5ae0c6" y="871.695367"/>
     <use style="fill:#1f77b4;stroke:#1f77b4;" x="379.925134" xlink:href="#md42c5ae0c6" y="871.530141"/>
     <use style="fill:#1f77b4;stroke:#1f77b4;" x="394.84492" xlink:href="#md42c5ae0c6" y="869.88126"/>
     <use style="fill:#1f77b4;stroke:#1f77b4;" x="409.764706" xlink:href="#md42c5ae0c6" y="869.170644"/>
     <use style="fill:#1f77b4;stroke:#1f77b4;" x="424.684492" xlink:href="#md42c5ae0c6" y="869.170644"/>
     <use style="fill:#1f77b4;stroke:#1f77b4;" x="439.604278" xlink:href="#md42c5ae0c6" y="863.47381"/>
     <use style="fill:#1f77b4;stroke:#1f77b4;" x="454.524064" xlink:href="#md42c5ae0c6" y="862.252625"/>
     <use style="fill:#1f77b4;stroke:#1f77b4;" x="469.44385" xlink:href="#md42c5ae0c6" y="862.109019"/>
     <use style="fill:#1f77b4;stroke:#1f77b4;" x="484.363636" xlink:href="#md42c5ae0c6" y="859.941667"/>
     <use style="fill:#1f77b4;stroke:#1f77b4;" x="499.283422" xlink:href="#md42c5ae0c6" y="858.726796"/>
     <use style="fill:#1f77b4;stroke:#1f77b4;" x="514.203209" xlink:href="#md42c5ae0c6" y="855.544457"/>
     <use style="fill:#1f77b4;stroke:#1f77b4;" x="529.122995" xlink:href="#md42c5ae0c6" y="853.936383"/>
     <use style="fill:#1f77b4;stroke:#1f77b4;" x="544.042781" xlink:href="#md42c5ae0c6" y="853.936383"/>
     <use style="fill:#1f77b4;stroke:#1f77b4;" x="558.962567" xlink:href="#md42c5ae0c6" y="853.576119"/>
     <use style="fill:#1f77b4;stroke:#1f77b4;" x="573.882353" xlink:href="#md42c5ae0c6" y="853.159338"/>
     <use style="fill:#1f77b4;stroke:#1f77b4;" x="588.802139" xlink:href="#md42c5ae0c6" y="852.882067"/>
     <use style="fill:#1f77b4;stroke:#1f77b4;" x="603.721925" xlink:href="#md42c5ae0c6" y="852.859186"/>
     <use style="fill:#1f77b4;stroke:#1f77b4;" x="618.641711" xlink:href="#md42c5ae0c6" y="851.793303"/>
     <use style="fill:#1f77b4;stroke:#1f77b4;" x="633.561497" xlink:href="#md42c5ae0c6" y="851.498865"/>
     <use style="fill:#1f77b4;stroke:#1f77b4;" x="648.481283" xlink:href="#md42c5ae0c6" y="851.464853"/>
     <use style="fill:#1f77b4;stroke:#1f77b4;" x="663.40107" xlink:href="#md42c5ae0c6" y="850.68811"/>
     <use style="fill:#1f77b4;stroke:#1f77b4;" x="678.320856" xlink:href="#md42c5ae0c6" y="850.003698"/>
     <use style="fill:#1f77b4;stroke:#1f77b4;" x="693.240642" xlink:href="#md42c5ae0c6" y="849.942282"/>
     <use style="fill:#1f77b4;stroke:#1f77b4;" x="708.160428" xlink:href="#md42c5ae0c6" y="849.719029"/>
     <use style="fill:#1f77b4;stroke:#1f77b4;" x="723.080214" xlink:href="#md42c5ae0c6" y="849.580272"/>
     <use style="fill:#1f77b4;stroke:#1f77b4;" x="738" xlink:href="#md42c5ae0c6" y="849.57565"/>
     <use style="fill:#1f77b4;stroke:#1f77b4;" x="752.919786" xlink:href="#md42c5ae0c6" y="849.57565"/>
     <use style="fill:#1f77b4;stroke:#1f77b4;" x="767.839572" xlink:href="#md42c5ae0c6" y="849.508234"/>
     <use style="fill:#1f77b4;stroke:#1f77b4;" x="782.759358" xlink:href="#md42c5ae0c6" y="849.07831"/>
     <use style="fill:#1f77b4;stroke:#1f77b4;" x="797.679144" xlink:href="#md42c5ae0c6" y="848.708615"/>
     <use style="fill:#1f77b4;stroke:#1f77b4;" x="812.59893" xlink:href="#md42c5ae0c6" y="848.643279"/>
     <use style="fill:#1f77b4;stroke:#1f77b4;" x="827.518717" xlink:href="#md42c5ae0c6" y="848.125001"/>
     <use style="fill:#1f77b4;stroke:#1f77b4;" x="842.438503" xlink:href="#md42c5ae0c6" y="847.588166"/>
     <use style="fill:#1f77b4;stroke:#1f77b4;" x="857.358289" xlink:href="#md42c5ae0c6" y="847.273413"/>
     <use style="fill:#1f77b4;stroke:#1f77b4;" x="872.278075" xlink:href="#md42c5ae0c6" y="847.046046"/>
     <use style="fill:#1f77b4;stroke:#1f77b4;" x="887.197861" xlink:href="#md42c5ae0c6" y="846.354058"/>
     <use style="fill:#1f77b4;stroke:#1f77b4;" x="902.117647" xlink:href="#md42c5ae0c6" y="845.339046"/>
     <use style="fill:#1f77b4;stroke:#1f77b4;" x="917.037433" xlink:href="#md42c5ae0c6" y="845.339046"/>
     <use style="fill:#1f77b4;stroke:#1f77b4;" x="931.957219" xlink:href="#md42c5ae0c6" y="844.194368"/>
     <use style="fill:#1f77b4;stroke:#1f77b4;" x="946.877005" xlink:href="#md42c5ae0c6" y="843.828805"/>
     <use style="fill:#1f77b4;stroke:#1f77b4;" x="961.796791" xlink:href="#md42c5ae0c6" y="843.161639"/>
     <use style="fill:#1f77b4;stroke:#1f77b4;" x="976.716578" xlink:href="#md42c5ae0c6" y="843.161639"/>
     <use style="fill:#1f77b4;stroke:#1f77b4;" x="991.636364" xlink:href="#md42c5ae0c6" y="841.682048"/>
     <use style="fill:#1f77b4;stroke:#1f77b4;" x="1006.55615" xlink:href="#md42c5ae0c6" y="841.539498"/>
     <use style="fill:#1f77b4;stroke:#1f77b4;" x="1021.475936" xlink:href="#md42c5ae0c6" y="830.9853"/>
     <use style="fill:#1f77b4;stroke:#1f77b4;" x="1036.395722" xlink:href="#md42c5ae0c6" y="756.96717"/>
     <use style="fill:#1f77b4;stroke:#1f77b4;" x="1051.315508" xlink:href="#md42c5ae0c6" y="722.628114"/>
     <use style="fill:#1f77b4;stroke:#1f77b4;" x="1066.235294" xlink:href="#md42c5ae0c6" y="721.484774"/>
     <use style="fill:#1f77b4;stroke:#1f77b4;" x="1081.15508" xlink:href="#md42c5ae0c6" y="718.782979"/>
     <use style="fill:#1f77b4;stroke:#1f77b4;" x="1096.074866" xlink:href="#md42c5ae0c6" y="716.865339"/>
     <use style="fill:#1f77b4;stroke:#1f77b4;" x="1110.994652" xlink:href="#md42c5ae0c6" y="715.199166"/>
     <use style="fill:#1f77b4;stroke:#1f77b4;" x="1125.914439" xlink:href="#md42c5ae0c6" y="714.518693"/>
     <use style="fill:#1f77b4;stroke:#1f77b4;" x="1140.834225" xlink:href="#md42c5ae0c6" y="714.518693"/>
     <use style="fill:#1f77b4;stroke:#1f77b4;" x="1155.754011" xlink:href="#md42c5ae0c6" y="711.202002"/>
     <use style="fill:#1f77b4;stroke:#1f77b4;" x="1170.673797" xlink:href="#md42c5ae0c6" y="710.592569"/>
     <use style="fill:#1f77b4;stroke:#1f77b4;" x="1185.593583" xlink:href="#md42c5ae0c6" y="708.60702"/>
     <use style="fill:#1f77b4;stroke:#1f77b4;" x="1200.513369" xlink:href="#md42c5ae0c6" y="705.627818"/>
     <use style="fill:#1f77b4;stroke:#1f77b4;" x="1215.433155" xlink:href="#md42c5ae0c6" y="697.422955"/>
     <use style="fill:#1f77b4;stroke:#1f77b4;" x="1230.352941" xlink:href="#md42c5ae0c6" y="697.422955"/>
     <use style="fill:#1f77b4;stroke:#1f77b4;" x="1245.272727" xlink:href="#md42c5ae0c6" y="485.412749"/>
    </g>
   </g>
   <g id="line2d_15">
    <path clip-path="url(#p4678ddb865)" d="M 230.727273 907.936364 
L 245.647059 906.503589 
L 260.566845 904.664415 
L 275.486631 902.564176 
L 290.406417 899.100673 
L 305.326203 893.530019 
L 320.245989 892.152523 
L 335.165775 884.870484 
L 350.085561 871.708757 
L 365.005348 870.559246 
L 379.925134 858.705535 
L 394.84492 857.814786 
L 409.764706 855.845751 
L 424.684492 852.230268 
L 439.604278 850.50865 
L 454.524064 847.412679 
L 469.44385 845.596656 
L 484.363636 844.243489 
L 499.283422 842.169893 
L 514.203209 840.419291 
L 529.122995 839.198537 
L 544.042781 837.555146 
L 558.962567 833.959868 
L 573.882353 832.311845 
L 588.802139 831.976187 
L 603.721925 831.016953 
L 618.641711 828.800913 
L 633.561497 827.067411 
L 648.481283 824.687741 
L 663.40107 823.29621 
L 678.320856 822.023351 
L 693.240642 821.146202 
L 708.160428 819.925807 
L 723.080214 817.462769 
L 738 815.950223 
L 752.919786 815.146429 
L 767.839572 814.380763 
L 782.759358 812.002906 
L 797.679144 810.448481 
L 812.59893 807.413361 
L 827.518717 805.965337 
L 842.438503 804.367289 
L 857.358289 802.988868 
L 872.278075 799.842473 
L 887.197861 796.173312 
L 902.117647 794.887636 
L 917.037433 791.172197 
L 931.957219 781.112107 
L 946.877005 771.713847 
L 961.796791 764.569963 
L 976.716578 743.295295 
L 991.636364 737.741547 
L 1006.55615 696.133671 
L 1021.475936 659.309712 
L 1036.395722 651.728602 
L 1051.315508 643.313884 
L 1066.235294 635.065316 
L 1081.15508 629.776813 
L 1096.074866 628.500396 
L 1110.994652 626.06294 
L 1125.914439 622.392861 
L 1140.834225 620.796421 
L 1155.754011 612.471722 
L 1170.673797 610.953842 
L 1185.593583 591.437097 
L 1200.513369 574.772879 
L 1215.433155 531.261171 
L 1230.352941 477.273628 
L 1245.272727 166.663636 
" style="fill:none;stroke:#ff0000;stroke-linecap:square;stroke-width:1.5;"/>
    <defs>
     <path d="M 0 3 
C 0.795609 3 1.55874 2.683901 2.12132 2.12132 
C 2.683901 1.55874 3 0.795609 3 0 
C 3 -0.795609 2.683901 -1.55874 2.12132 -2.12132 
C 1.55874 -2.683901 0.795609 -3 0 -3 
C -0.795609 -3 -1.55874 -2.683901 -2.12132 -2.12132 
C -2.683901 -1.55874 -3 -0.795609 -3 0 
C -3 0.795609 -2.683901 1.55874 -2.12132 2.12132 
C -1.55874 2.683901 -0.795609 3 0 3 
z
" id="m2b9922e4cc" style="stroke:#ff0000;"/>
    </defs>
    <g clip-path="url(#p4678ddb865)">
     <use style="fill:#ff0000;stroke:#ff0000;" x="230.727273" xlink:href="#m2b9922e4cc" y="907.936364"/>
     <use style="fill:#ff0000;stroke:#ff0000;" x="245.647059" xlink:href="#m2b9922e4cc" y="906.503589"/>
     <use style="fill:#ff0000;stroke:#ff0000;" x="260.566845" xlink:href="#m2b9922e4cc" y="904.664415"/>
     <use style="fill:#ff0000;stroke:#ff0000;" x="275.486631" xlink:href="#m2b9922e4cc" y="902.564176"/>
     <use style="fill:#ff0000;stroke:#ff0000;" x="290.406417" xlink:href="#m2b9922e4cc" y="899.100673"/>
     <use style="fill:#ff0000;stroke:#ff0000;" x="305.326203" xlink:href="#m2b9922e4cc" y="893.530019"/>
     <use style="fill:#ff0000;stroke:#ff0000;" x="320.245989" xlink:href="#m2b9922e4cc" y="892.152523"/>
     <use style="fill:#ff0000;stroke:#ff0000;" x="335.165775" xlink:href="#m2b9922e4cc" y="884.870484"/>
     <use style="fill:#ff0000;stroke:#ff0000;" x="350.085561" xlink:href="#m2b9922e4cc" y="871.708757"/>
     <use style="fill:#ff0000;stroke:#ff0000;" x="365.005348" xlink:href="#m2b9922e4cc" y="870.559246"/>
     <use style="fill:#ff0000;stroke:#ff0000;" x="379.925134" xlink:href="#m2b9922e4cc" y="858.705535"/>
     <use style="fill:#ff0000;stroke:#ff0000;" x="394.84492" xlink:href="#m2b9922e4cc" y="857.814786"/>
     <use style="fill:#ff0000;stroke:#ff0000;" x="409.764706" xlink:href="#m2b9922e4cc" y="855.845751"/>
     <use style="fill:#ff0000;stroke:#ff0000;" x="424.684492" xlink:href="#m2b9922e4cc" y="852.230268"/>
     <use style="fill:#ff0000;stroke:#ff0000;" x="439.604278" xlink:href="#m2b9922e4cc" y="850.50865"/>
     <use style="fill:#ff0000;stroke:#ff0000;" x="454.524064" xlink:href="#m2b9922e4cc" y="847.412679"/>
     <use style="fill:#ff0000;stroke:#ff0000;" x="469.44385" xlink:href="#m2b9922e4cc" y="845.596656"/>
     <use style="fill:#ff0000;stroke:#ff0000;" x="484.363636" xlink:href="#m2b9922e4cc" y="844.243489"/>
     <use style="fill:#ff0000;stroke:#ff0000;" x="499.283422" xlink:href="#m2b9922e4cc" y="842.169893"/>
     <use style="fill:#ff0000;stroke:#ff0000;" x="514.203209" xlink:href="#m2b9922e4cc" y="840.419291"/>
     <use style="fill:#ff0000;stroke:#ff0000;" x="529.122995" xlink:href="#m2b9922e4cc" y="839.198537"/>
     <use style="fill:#ff0000;stroke:#ff0000;" x="544.042781" xlink:href="#m2b9922e4cc" y="837.555146"/>
     <use style="fill:#ff0000;stroke:#ff0000;" x="558.962567" xlink:href="#m2b9922e4cc" y="833.959868"/>
     <use style="fill:#ff0000;stroke:#ff0000;" x="573.882353" xlink:href="#m2b9922e4cc" y="832.311845"/>
     <use style="fill:#ff0000;stroke:#ff0000;" x="588.802139" xlink:href="#m2b9922e4cc" y="831.976187"/>
     <use style="fill:#ff0000;stroke:#ff0000;" x="603.721925" xlink:href="#m2b9922e4cc" y="831.016953"/>
     <use style="fill:#ff0000;stroke:#ff0000;" x="618.641711" xlink:href="#m2b9922e4cc" y="828.800913"/>
     <use style="fill:#ff0000;stroke:#ff0000;" x="633.561497" xlink:href="#m2b9922e4cc" y="827.067411"/>
     <use style="fill:#ff0000;stroke:#ff0000;" x="648.481283" xlink:href="#m2b9922e4cc" y="824.687741"/>
     <use style="fill:#ff0000;stroke:#ff0000;" x="663.40107" xlink:href="#m2b9922e4cc" y="823.29621"/>
     <use style="fill:#ff0000;stroke:#ff0000;" x="678.320856" xlink:href="#m2b9922e4cc" y="822.023351"/>
     <use style="fill:#ff0000;stroke:#ff0000;" x="693.240642" xlink:href="#m2b9922e4cc" y="821.146202"/>
     <use style="fill:#ff0000;stroke:#ff0000;" x="708.160428" xlink:href="#m2b9922e4cc" y="819.925807"/>
     <use style="fill:#ff0000;stroke:#ff0000;" x="723.080214" xlink:href="#m2b9922e4cc" y="817.462769"/>
     <use style="fill:#ff0000;stroke:#ff0000;" x="738" xlink:href="#m2b9922e4cc" y="815.950223"/>
     <use style="fill:#ff0000;stroke:#ff0000;" x="752.919786" xlink:href="#m2b9922e4cc" y="815.146429"/>
     <use style="fill:#ff0000;stroke:#ff0000;" x="767.839572" xlink:href="#m2b9922e4cc" y="814.380763"/>
     <use style="fill:#ff0000;stroke:#ff0000;" x="782.759358" xlink:href="#m2b9922e4cc" y="812.002906"/>
     <use style="fill:#ff0000;stroke:#ff0000;" x="797.679144" xlink:href="#m2b9922e4cc" y="810.448481"/>
     <use style="fill:#ff0000;stroke:#ff0000;" x="812.59893" xlink:href="#m2b9922e4cc" y="807.413361"/>
     <use style="fill:#ff0000;stroke:#ff0000;" x="827.518717" xlink:href="#m2b9922e4cc" y="805.965337"/>
     <use style="fill:#ff0000;stroke:#ff0000;" x="842.438503" xlink:href="#m2b9922e4cc" y="804.367289"/>
     <use style="fill:#ff0000;stroke:#ff0000;" x="857.358289" xlink:href="#m2b9922e4cc" y="802.988868"/>
     <use style="fill:#ff0000;stroke:#ff0000;" x="872.278075" xlink:href="#m2b9922e4cc" y="799.842473"/>
     <use style="fill:#ff0000;stroke:#ff0000;" x="887.197861" xlink:href="#m2b9922e4cc" y="796.173312"/>
     <use style="fill:#ff0000;stroke:#ff0000;" x="902.117647" xlink:href="#m2b9922e4cc" y="794.887636"/>
     <use style="fill:#ff0000;stroke:#ff0000;" x="917.037433" xlink:href="#m2b9922e4cc" y="791.172197"/>
     <use style="fill:#ff0000;stroke:#ff0000;" x="931.957219" xlink:href="#m2b9922e4cc" y="781.112107"/>
     <use style="fill:#ff0000;stroke:#ff0000;" x="946.877005" xlink:href="#m2b9922e4cc" y="771.713847"/>
     <use style="fill:#ff0000;stroke:#ff0000;" x="961.796791" xlink:href="#m2b9922e4cc" y="764.569963"/>
     <use style="fill:#ff0000;stroke:#ff0000;" x="976.716578" xlink:href="#m2b9922e4cc" y="743.295295"/>
     <use style="fill:#ff0000;stroke:#ff0000;" x="991.636364" xlink:href="#m2b9922e4cc" y="737.741547"/>
     <use style="fill:#ff0000;stroke:#ff0000;" x="1006.55615" xlink:href="#m2b9922e4cc" y="696.133671"/>
     <use style="fill:#ff0000;stroke:#ff0000;" x="1021.475936" xlink:href="#m2b9922e4cc" y="659.309712"/>
     <use style="fill:#ff0000;stroke:#ff0000;" x="1036.395722" xlink:href="#m2b9922e4cc" y="651.728602"/>
     <use style="fill:#ff0000;stroke:#ff0000;" x="1051.315508" xlink:href="#m2b9922e4cc" y="643.313884"/>
     <use style="fill:#ff0000;stroke:#ff0000;" x="1066.235294" xlink:href="#m2b9922e4cc" y="635.065316"/>
     <use style="fill:#ff0000;stroke:#ff0000;" x="1081.15508" xlink:href="#m2b9922e4cc" y="629.776813"/>
     <use style="fill:#ff0000;stroke:#ff0000;" x="1096.074866" xlink:href="#m2b9922e4cc" y="628.500396"/>
     <use style="fill:#ff0000;stroke:#ff0000;" x="1110.994652" xlink:href="#m2b9922e4cc" y="626.06294"/>
     <use style="fill:#ff0000;stroke:#ff0000;" x="1125.914439" xlink:href="#m2b9922e4cc" y="622.392861"/>
     <use style="fill:#ff0000;stroke:#ff0000;" x="1140.834225" xlink:href="#m2b9922e4cc" y="620.796421"/>
     <use style="fill:#ff0000;stroke:#ff0000;" x="1155.754011" xlink:href="#m2b9922e4cc" y="612.471722"/>
     <use style="fill:#ff0000;stroke:#ff0000;" x="1170.673797" xlink:href="#m2b9922e4cc" y="610.953842"/>
     <use style="fill:#ff0000;stroke:#ff0000;" x="1185.593583" xlink:href="#m2b9922e4cc" y="591.437097"/>
     <use style="fill:#ff0000;stroke:#ff0000;" x="1200.513369" xlink:href="#m2b9922e4cc" y="574.772879"/>
     <use style="fill:#ff0000;stroke:#ff0000;" x="1215.433155" xlink:href="#m2b9922e4cc" y="531.261171"/>
     <use style="fill:#ff0000;stroke:#ff0000;" x="1230.352941" xlink:href="#m2b9922e4cc" y="477.273628"/>
     <use style="fill:#ff0000;stroke:#ff0000;" x="1245.272727" xlink:href="#m2b9922e4cc" y="166.663636"/>
    </g>
   </g>
   <g id="patch_3">
    <path d="M 180 945 
L 180 129.6 
" style="fill:none;stroke:#000000;stroke-linecap:square;stroke-linejoin:miter;stroke-width:0.8;"/>
   </g>
   <g id="patch_4">
    <path d="M 1296 945 
L 1296 129.6 
" style="fill:none;stroke:#000000;stroke-linecap:square;stroke-linejoin:miter;stroke-width:0.8;"/>
   </g>
   <g id="patch_5">
    <path d="M 180 945 
L 1296 945 
" style="fill:none;stroke:#000000;stroke-linecap:square;stroke-linejoin:miter;stroke-width:0.8;"/>
   </g>
   <g id="patch_6">
    <path d="M 180 129.6 
L 1296 129.6 
" style="fill:none;stroke:#000000;stroke-linecap:square;stroke-linejoin:miter;stroke-width:0.8;"/>
   </g>
   <g id="text_14">
    <!-- Dimensionality -->
    <g transform="translate(639.426938 123.6)scale(0.264 -0.264)">
     <defs>
      <path d="M 19.671875 64.796875 
L 19.671875 8.109375 
L 31.59375 8.109375 
Q 46.6875 8.109375 53.6875 14.9375 
Q 60.6875 21.78125 60.6875 36.53125 
Q 60.6875 51.171875 53.6875 57.984375 
Q 46.6875 64.796875 31.59375 64.796875 
z
M 9.8125 72.90625 
L 30.078125 72.90625 
Q 51.265625 72.90625 61.171875 64.09375 
Q 71.09375 55.28125 71.09375 36.53125 
Q 71.09375 17.671875 61.125 8.828125 
Q 51.171875 0 30.078125 0 
L 9.8125 0 
z
" id="DejaVuSans-68"/>
      <path d="M 9.421875 54.6875 
L 18.40625 54.6875 
L 18.40625 0 
L 9.421875 0 
z
M 9.421875 75.984375 
L 18.40625 75.984375 
L 18.40625 64.59375 
L 9.421875 64.59375 
z
" id="DejaVuSans-105"/>
      <path d="M 52 44.1875 
Q 55.375 50.25 60.0625 53.125 
Q 64.75 56 71.09375 56 
Q 79.640625 56 84.28125 50.015625 
Q 88.921875 44.046875 88.921875 33.015625 
L 88.921875 0 
L 79.890625 0 
L 79.890625 32.71875 
Q 79.890625 40.578125 77.09375 44.375 
Q 74.3125 48.1875 68.609375 48.1875 
Q 61.625 48.1875 57.5625 43.546875 
Q 53.515625 38.921875 53.515625 30.90625 
L 53.515625 0 
L 44.484375 0 
L 44.484375 32.71875 
Q 44.484375 40.625 41.703125 44.40625 
Q 38.921875 48.1875 33.109375 48.1875 
Q 26.21875 48.1875 22.15625 43.53125 
Q 18.109375 38.875 18.109375 30.90625 
L 18.109375 0 
L 9.078125 0 
L 9.078125 54.6875 
L 18.109375 54.6875 
L 18.109375 46.1875 
Q 21.1875 51.21875 25.484375 53.609375 
Q 29.78125 56 35.6875 56 
Q 41.65625 56 45.828125 52.96875 
Q 50 49.953125 52 44.1875 
z
" id="DejaVuSans-109"/>
      <path d="M 56.203125 29.59375 
L 56.203125 25.203125 
L 14.890625 25.203125 
Q 15.484375 15.921875 20.484375 11.0625 
Q 25.484375 6.203125 34.421875 6.203125 
Q 39.59375 6.203125 44.453125 7.46875 
Q 49.3125 8.734375 54.109375 11.28125 
L 54.109375 2.78125 
Q 49.265625 0.734375 44.1875 -0.34375 
Q 39.109375 -1.421875 33.890625 -1.421875 
Q 20.796875 -1.421875 13.15625 6.1875 
Q 5.515625 13.8125 5.515625 26.8125 
Q 5.515625 40.234375 12.765625 48.109375 
Q 20.015625 56 32.328125 56 
Q 43.359375 56 49.78125 48.890625 
Q 56.203125 41.796875 56.203125 29.59375 
z
M 47.21875 32.234375 
Q 47.125 39.59375 43.09375 43.984375 
Q 39.0625 48.390625 32.421875 48.390625 
Q 24.90625 48.390625 20.390625 44.140625 
Q 15.875 39.890625 15.1875 32.171875 
z
" id="DejaVuSans-101"/>
      <path d="M 54.890625 33.015625 
L 54.890625 0 
L 45.90625 0 
L 45.90625 32.71875 
Q 45.90625 40.484375 42.875 44.328125 
Q 39.84375 48.1875 33.796875 48.1875 
Q 26.515625 48.1875 22.3125 43.546875 
Q 18.109375 38.921875 18.109375 30.90625 
L 18.109375 0 
L 9.078125 0 
L 9.078125 54.6875 
L 18.109375 54.6875 
L 18.109375 46.1875 
Q 21.34375 51.125 25.703125 53.5625 
Q 30.078125 56 35.796875 56 
Q 45.21875 56 50.046875 50.171875 
Q 54.890625 44.34375 54.890625 33.015625 
z
" id="DejaVuSans-110"/>
      <path d="M 44.28125 53.078125 
L 44.28125 44.578125 
Q 40.484375 46.53125 36.375 47.5 
Q 32.28125 48.484375 27.875 48.484375 
Q 21.1875 48.484375 17.84375 46.4375 
Q 14.5 44.390625 14.5 40.28125 
Q 14.5 37.15625 16.890625 35.375 
Q 19.28125 33.59375 26.515625 31.984375 
L 29.59375 31.296875 
Q 39.15625 29.25 43.1875 25.515625 
Q 47.21875 21.78125 47.21875 15.09375 
Q 47.21875 7.46875 41.1875 3.015625 
Q 35.15625 -1.421875 24.609375 -1.421875 
Q 20.21875 -1.421875 15.453125 -0.5625 
Q 10.6875 0.296875 5.421875 2 
L 5.421875 11.28125 
Q 10.40625 8.6875 15.234375 7.390625 
Q 20.0625 6.109375 24.8125 6.109375 
Q 31.15625 6.109375 34.5625 8.28125 
Q 37.984375 10.453125 37.984375 14.40625 
Q 37.984375 18.0625 35.515625 20.015625 
Q 33.0625 21.96875 24.703125 23.78125 
L 21.578125 24.515625 
Q 13.234375 26.265625 9.515625 29.90625 
Q 5.8125 33.546875 5.8125 39.890625 
Q 5.8125 47.609375 11.28125 51.796875 
Q 16.75 56 26.8125 56 
Q 31.78125 56 36.171875 55.265625 
Q 40.578125 54.546875 44.28125 53.078125 
z
" id="DejaVuSans-115"/>
      <path d="M 30.609375 48.390625 
Q 23.390625 48.390625 19.1875 42.75 
Q 14.984375 37.109375 14.984375 27.296875 
Q 14.984375 17.484375 19.15625 11.84375 
Q 23.34375 6.203125 30.609375 6.203125 
Q 37.796875 6.203125 41.984375 11.859375 
Q 46.1875 17.53125 46.1875 27.296875 
Q 46.1875 37.015625 41.984375 42.703125 
Q 37.796875 48.390625 30.609375 48.390625 
z
M 30.609375 56 
Q 42.328125 56 49.015625 48.375 
Q 55.71875 40.765625 55.71875 27.296875 
Q 55.71875 13.875 49.015625 6.21875 
Q 42.328125 -1.421875 30.609375 -1.421875 
Q 18.84375 -1.421875 12.171875 6.21875 
Q 5.515625 13.875 5.515625 27.296875 
Q 5.515625 40.765625 12.171875 48.375 
Q 18.84375 56 30.609375 56 
z
" id="DejaVuSans-111"/>
      <path d="M 34.28125 27.484375 
Q 23.390625 27.484375 19.1875 25 
Q 14.984375 22.515625 14.984375 16.5 
Q 14.984375 11.71875 18.140625 8.90625 
Q 21.296875 6.109375 26.703125 6.109375 
Q 34.1875 6.109375 38.703125 11.40625 
Q 43.21875 16.703125 43.21875 25.484375 
L 43.21875 27.484375 
z
M 52.203125 31.203125 
L 52.203125 0 
L 43.21875 0 
L 43.21875 8.296875 
Q 40.140625 3.328125 35.546875 0.953125 
Q 30.953125 -1.421875 24.3125 -1.421875 
Q 15.921875 -1.421875 10.953125 3.296875 
Q 6 8.015625 6 15.921875 
Q 6 25.140625 12.171875 29.828125 
Q 18.359375 34.515625 30.609375 34.515625 
L 43.21875 34.515625 
L 43.21875 35.40625 
Q 43.21875 41.609375 39.140625 45 
Q 35.0625 48.390625 27.6875 48.390625 
Q 23 48.390625 18.546875 47.265625 
Q 14.109375 46.140625 10.015625 43.890625 
L 10.015625 52.203125 
Q 14.9375 54.109375 19.578125 55.046875 
Q 24.21875 56 28.609375 56 
Q 40.484375 56 46.34375 49.84375 
Q 52.203125 43.703125 52.203125 31.203125 
z
" id="DejaVuSans-97"/>
      <path d="M 9.421875 75.984375 
L 18.40625 75.984375 
L 18.40625 0 
L 9.421875 0 
z
" id="DejaVuSans-108"/>
      <path d="M 18.3125 70.21875 
L 18.3125 54.6875 
L 36.8125 54.6875 
L 36.8125 47.703125 
L 18.3125 47.703125 
L 18.3125 18.015625 
Q 18.3125 11.328125 20.140625 9.421875 
Q 21.96875 7.515625 27.59375 7.515625 
L 36.8125 7.515625 
L 36.8125 0 
L 27.59375 0 
Q 17.1875 0 13.234375 3.875 
Q 9.28125 7.765625 9.28125 18.015625 
L 9.28125 47.703125 
L 2.6875 47.703125 
L 2.6875 54.6875 
L 9.28125 54.6875 
L 9.28125 70.21875 
z
" id="DejaVuSans-116"/>
      <path d="M 32.171875 -5.078125 
Q 28.375 -14.84375 24.75 -17.8125 
Q 21.140625 -20.796875 15.09375 -20.796875 
L 7.90625 -20.796875 
L 7.90625 -13.28125 
L 13.1875 -13.28125 
Q 16.890625 -13.28125 18.9375 -11.515625 
Q 21 -9.765625 23.484375 -3.21875 
L 25.09375 0.875 
L 2.984375 54.6875 
L 12.5 54.6875 
L 29.59375 11.921875 
L 46.6875 54.6875 
L 56.203125 54.6875 
z
" id="DejaVuSans-121"/>
     </defs>
     <use xlink:href="#DejaVuSans-68"/>
     <use x="77.001953" xlink:href="#DejaVuSans-105"/>
     <use x="104.785156" xlink:href="#DejaVuSans-109"/>
     <use x="202.197266" xlink:href="#DejaVuSans-101"/>
     <use x="263.720703" xlink:href="#DejaVuSans-110"/>
     <use x="327.099609" xlink:href="#DejaVuSans-115"/>
     <use x="379.199219" xlink:href="#DejaVuSans-105"/>
     <use x="406.982422" xlink:href="#DejaVuSans-111"/>
     <use x="468.164062" xlink:href="#DejaVuSans-110"/>
     <use x="531.542969" xlink:href="#DejaVuSans-97"/>
     <use x="592.822266" xlink:href="#DejaVuSans-108"/>
     <use x="620.605469" xlink:href="#DejaVuSans-105"/>
     <use x="648.388672" xlink:href="#DejaVuSans-116"/>
     <use x="687.597656" xlink:href="#DejaVuSans-121"/>
    </g>
   </g>
   <g id="legend_1">
    <g id="patch_7">
     <path d="M 482.895625 181.66375 
L 997.104375 181.66375 
Q 1001.504375 181.66375 1001.504375 177.26375 
L 1001.504375 147 
Q 1001.504375 142.6 997.104375 142.6 
L 482.895625 142.6 
Q 478.495625 142.6 478.495625 147 
L 478.495625 177.26375 
Q 478.495625 181.66375 482.895625 181.66375 
z
" style="fill:#4c4c4c;opacity:0.5;stroke:#4c4c4c;stroke-linejoin:miter;"/>
    </g>
    <g id="patch_8">
     <path d="M 480.895625 179.66375 
L 995.104375 179.66375 
Q 999.504375 179.66375 999.504375 175.26375 
L 999.504375 145 
Q 999.504375 140.6 995.104375 140.6 
L 480.895625 140.6 
Q 476.495625 140.6 476.495625 145 
L 476.495625 175.26375 
Q 476.495625 179.66375 480.895625 179.66375 
z
" style="fill:#ffffff;stroke:#cccccc;stroke-linejoin:miter;"/>
    </g>
    <g id="line2d_16">
     <path d="M 485.295625 158.416563 
L 529.295625 158.416563 
" style="fill:none;stroke:#1f77b4;stroke-linecap:square;stroke-width:1.5;"/>
    </g>
    <g id="line2d_17">
     <g>
      <use style="fill:#1f77b4;stroke:#1f77b4;" x="507.295625" xlink:href="#md42c5ae0c6" y="158.416563"/>
     </g>
    </g>
    <g id="text_15">
     <!-- eigenvalues -->
     <g transform="translate(546.895625 166.116563)scale(0.22 -0.22)">
      <defs>
       <path d="M 62.984375 27.484375 
L 62.984375 22.515625 
L 22.125 22.515625 
Q 22.75 16.359375 26.5625 13.28125 
Q 30.375 10.203125 37.203125 10.203125 
Q 42.71875 10.203125 48.5 11.84375 
Q 54.296875 13.484375 60.40625 16.796875 
L 60.40625 3.328125 
Q 54.203125 0.984375 48 -0.21875 
Q 41.796875 -1.421875 35.59375 -1.421875 
Q 20.75 -1.421875 12.515625 6.125 
Q 4.296875 13.671875 4.296875 27.296875 
Q 4.296875 40.671875 12.375 48.328125 
Q 20.453125 56 34.625 56 
Q 47.515625 56 55.25 48.234375 
Q 62.984375 40.484375 62.984375 27.484375 
z
M 45.015625 33.296875 
Q 45.015625 38.28125 42.109375 41.328125 
Q 39.203125 44.390625 34.515625 44.390625 
Q 29.4375 44.390625 26.265625 41.53125 
Q 23.09375 38.671875 22.3125 33.296875 
z
" id="DejaVuSans-Bold-101"/>
       <path d="M 8.40625 54.6875 
L 25.875 54.6875 
L 25.875 0 
L 8.40625 0 
z
M 8.40625 75.984375 
L 25.875 75.984375 
L 25.875 61.71875 
L 8.40625 61.71875 
z
" id="DejaVuSans-Bold-105"/>
       <path d="M 45.609375 9.28125 
Q 42 4.5 37.640625 2.25 
Q 33.296875 0 27.59375 0 
Q 17.578125 0 11.03125 7.875 
Q 4.5 15.765625 4.5 27.984375 
Q 4.5 40.234375 11.03125 48.0625 
Q 17.578125 55.90625 27.59375 55.90625 
Q 33.296875 55.90625 37.640625 53.65625 
Q 42 51.421875 45.609375 46.578125 
L 45.609375 54.6875 
L 63.1875 54.6875 
L 63.1875 5.515625 
Q 63.1875 -7.671875 54.859375 -14.625 
Q 46.53125 -21.578125 30.71875 -21.578125 
Q 25.59375 -21.578125 20.796875 -20.796875 
Q 16.015625 -20.015625 11.1875 -18.40625 
L 11.1875 -4.78125 
Q 15.765625 -7.421875 20.15625 -8.71875 
Q 24.5625 -10.015625 29 -10.015625 
Q 37.59375 -10.015625 41.59375 -6.25 
Q 45.609375 -2.484375 45.609375 5.515625 
z
M 34.078125 43.3125 
Q 28.65625 43.3125 25.625 39.296875 
Q 22.609375 35.296875 22.609375 27.984375 
Q 22.609375 20.453125 25.53125 16.578125 
Q 28.46875 12.703125 34.078125 12.703125 
Q 39.546875 12.703125 42.578125 16.703125 
Q 45.609375 20.703125 45.609375 27.984375 
Q 45.609375 35.296875 42.578125 39.296875 
Q 39.546875 43.3125 34.078125 43.3125 
z
" id="DejaVuSans-Bold-103"/>
       <path d="M 63.375 33.296875 
L 63.375 0 
L 45.796875 0 
L 45.796875 5.421875 
L 45.796875 25.484375 
Q 45.796875 32.5625 45.484375 35.25 
Q 45.171875 37.9375 44.390625 39.203125 
Q 43.359375 40.921875 41.59375 41.875 
Q 39.84375 42.828125 37.59375 42.828125 
Q 32.125 42.828125 29 38.59375 
Q 25.875 34.375 25.875 26.90625 
L 25.875 0 
L 8.40625 0 
L 8.40625 54.6875 
L 25.875 54.6875 
L 25.875 46.6875 
Q 29.828125 51.46875 34.265625 53.734375 
Q 38.71875 56 44.09375 56 
Q 53.5625 56 58.46875 50.1875 
Q 63.375 44.390625 63.375 33.296875 
z
" id="DejaVuSans-Bold-110"/>
       <path d="M 1.515625 54.6875 
L 19 54.6875 
L 32.625 16.890625 
L 46.1875 54.6875 
L 63.71875 54.6875 
L 42.1875 0 
L 23 0 
z
" id="DejaVuSans-Bold-118"/>
       <path d="M 32.90625 24.609375 
Q 27.4375 24.609375 24.671875 22.75 
Q 21.921875 20.90625 21.921875 17.28125 
Q 21.921875 13.96875 24.140625 12.078125 
Q 26.375 10.203125 30.328125 10.203125 
Q 35.25 10.203125 38.625 13.734375 
Q 42 17.28125 42 22.609375 
L 42 24.609375 
z
M 59.625 31.203125 
L 59.625 0 
L 42 0 
L 42 8.109375 
Q 38.484375 3.125 34.078125 0.84375 
Q 29.6875 -1.421875 23.390625 -1.421875 
Q 14.890625 -1.421875 9.59375 3.53125 
Q 4.296875 8.5 4.296875 16.40625 
Q 4.296875 26.03125 10.90625 30.515625 
Q 17.53125 35.015625 31.6875 35.015625 
L 42 35.015625 
L 42 36.375 
Q 42 40.53125 38.71875 42.453125 
Q 35.453125 44.390625 28.515625 44.390625 
Q 22.90625 44.390625 18.0625 43.265625 
Q 13.234375 42.140625 9.078125 39.890625 
L 9.078125 53.21875 
Q 14.703125 54.59375 20.359375 55.296875 
Q 26.03125 56 31.6875 56 
Q 46.484375 56 53.046875 50.171875 
Q 59.625 44.34375 59.625 31.203125 
z
" id="DejaVuSans-Bold-97"/>
       <path d="M 8.40625 75.984375 
L 25.875 75.984375 
L 25.875 0 
L 8.40625 0 
z
" id="DejaVuSans-Bold-108"/>
       <path d="M 7.8125 21.296875 
L 7.8125 54.6875 
L 25.390625 54.6875 
L 25.390625 49.21875 
Q 25.390625 44.78125 25.34375 38.0625 
Q 25.296875 31.34375 25.296875 29.109375 
Q 25.296875 22.515625 25.640625 19.609375 
Q 25.984375 16.703125 26.8125 15.375 
Q 27.875 13.671875 29.609375 12.734375 
Q 31.34375 11.8125 33.59375 11.8125 
Q 39.0625 11.8125 42.1875 16.015625 
Q 45.3125 20.21875 45.3125 27.6875 
L 45.3125 54.6875 
L 62.796875 54.6875 
L 62.796875 0 
L 45.3125 0 
L 45.3125 7.90625 
Q 41.359375 3.125 36.9375 0.84375 
Q 32.515625 -1.421875 27.203125 -1.421875 
Q 17.71875 -1.421875 12.765625 4.390625 
Q 7.8125 10.203125 7.8125 21.296875 
z
" id="DejaVuSans-Bold-117"/>
       <path d="M 51.125 52.984375 
L 51.125 39.703125 
Q 45.515625 42.046875 40.28125 43.21875 
Q 35.0625 44.390625 30.421875 44.390625 
Q 25.4375 44.390625 23.015625 43.140625 
Q 20.609375 41.890625 20.609375 39.3125 
Q 20.609375 37.203125 22.4375 36.078125 
Q 24.265625 34.96875 29 34.421875 
L 32.078125 33.984375 
Q 45.515625 32.28125 50.140625 28.375 
Q 54.78125 24.46875 54.78125 16.109375 
Q 54.78125 7.375 48.328125 2.96875 
Q 41.890625 -1.421875 29.109375 -1.421875 
Q 23.6875 -1.421875 17.890625 -0.5625 
Q 12.109375 0.296875 6 2 
L 6 15.28125 
Q 11.234375 12.75 16.71875 11.46875 
Q 22.21875 10.203125 27.875 10.203125 
Q 33.015625 10.203125 35.59375 11.609375 
Q 38.1875 13.03125 38.1875 15.828125 
Q 38.1875 18.171875 36.40625 19.3125 
Q 34.625 20.453125 29.296875 21.09375 
L 26.21875 21.484375 
Q 14.546875 22.953125 9.859375 26.90625 
Q 5.171875 30.859375 5.171875 38.921875 
Q 5.171875 47.609375 11.125 51.796875 
Q 17.09375 56 29.390625 56 
Q 34.234375 56 39.546875 55.265625 
Q 44.875 54.546875 51.125 52.984375 
z
" id="DejaVuSans-Bold-115"/>
      </defs>
      <use xlink:href="#DejaVuSans-Bold-101"/>
      <use x="67.822266" xlink:href="#DejaVuSans-Bold-105"/>
      <use x="102.099609" xlink:href="#DejaVuSans-Bold-103"/>
      <use x="173.681641" xlink:href="#DejaVuSans-Bold-101"/>
      <use x="241.503906" xlink:href="#DejaVuSans-Bold-110"/>
      <use x="312.695312" xlink:href="#DejaVuSans-Bold-118"/>
      <use x="377.880859" xlink:href="#DejaVuSans-Bold-97"/>
      <use x="445.361328" xlink:href="#DejaVuSans-Bold-108"/>
      <use x="479.638672" xlink:href="#DejaVuSans-Bold-117"/>
      <use x="550.830078" xlink:href="#DejaVuSans-Bold-101"/>
      <use x="618.652344" xlink:href="#DejaVuSans-Bold-115"/>
     </g>
    </g>
    <g id="line2d_18">
     <path d="M 740.096875 158.416563 
L 784.096875 158.416563 
" style="fill:none;stroke:#ff0000;stroke-linecap:square;stroke-width:1.5;"/>
    </g>
    <g id="line2d_19">
     <g>
      <use style="fill:#ff0000;stroke:#ff0000;" x="762.096875" xlink:href="#m2b9922e4cc" y="158.416563"/>
     </g>
    </g>
    <g id="text_16">
     <!-- singular values -->
     <g transform="translate(801.696875 166.116563)scale(0.22 -0.22)">
      <defs>
       <path d="M 49.03125 39.796875 
Q 46.734375 40.875 44.453125 41.375 
Q 42.1875 41.890625 39.890625 41.890625 
Q 33.15625 41.890625 29.515625 37.5625 
Q 25.875 33.25 25.875 25.203125 
L 25.875 0 
L 8.40625 0 
L 8.40625 54.6875 
L 25.875 54.6875 
L 25.875 45.703125 
Q 29.25 51.078125 33.609375 53.53125 
Q 37.984375 56 44.09375 56 
Q 44.96875 56 45.984375 55.921875 
Q 47.015625 55.859375 48.96875 55.609375 
z
" id="DejaVuSans-Bold-114"/>
       <path id="DejaVuSans-Bold-32"/>
      </defs>
      <use xlink:href="#DejaVuSans-Bold-115"/>
      <use x="59.521484" xlink:href="#DejaVuSans-Bold-105"/>
      <use x="93.798828" xlink:href="#DejaVuSans-Bold-110"/>
      <use x="164.990234" xlink:href="#DejaVuSans-Bold-103"/>
      <use x="236.572266" xlink:href="#DejaVuSans-Bold-117"/>
      <use x="307.763672" xlink:href="#DejaVuSans-Bold-108"/>
      <use x="342.041016" xlink:href="#DejaVuSans-Bold-97"/>
      <use x="409.521484" xlink:href="#DejaVuSans-Bold-114"/>
      <use x="458.837891" xlink:href="#DejaVuSans-Bold-32"/>
      <use x="493.652344" xlink:href="#DejaVuSans-Bold-118"/>
      <use x="558.837891" xlink:href="#DejaVuSans-Bold-97"/>
      <use x="626.318359" xlink:href="#DejaVuSans-Bold-108"/>
      <use x="660.595703" xlink:href="#DejaVuSans-Bold-117"/>
      <use x="731.787109" xlink:href="#DejaVuSans-Bold-101"/>
      <use x="799.609375" xlink:href="#DejaVuSans-Bold-115"/>
     </g>
    </g>
   </g>
  </g>
 </g>
 <defs>
  <clipPath id="p4678ddb865">
   <rect height="815.4" width="1116" x="180" y="129.6"/>
  </clipPath>
 </defs>
</svg>
