<?xml version="1.0" encoding="utf-8" standalone="no"?>
<!DOCTYPE svg PUBLIC "-//W3C//DTD SVG 1.1//EN"
  "http://www.w3.org/Graphics/SVG/1.1/DTD/svg11.dtd">
<!-- Created with matplotlib (https://matplotlib.org/) -->
<svg height="1080pt" version="1.1" viewBox="0 0 1440 1080" width="1440pt" xmlns="http://www.w3.org/2000/svg" xmlns:xlink="http://www.w3.org/1999/xlink">
 <metadata>
  <rdf:RDF xmlns:cc="http://creativecommons.org/ns#" xmlns:dc="http://purl.org/dc/elements/1.1/" xmlns:rdf="http://www.w3.org/1999/02/22-rdf-syntax-ns#">
   <cc:Work>
    <dc:type rdf:resource="http://purl.org/dc/dcmitype/StillImage"/>
    <dc:date>2021-11-25T17:52:08.853592</dc:date>
    <dc:format>image/svg+xml</dc:format>
    <dc:creator>
     <cc:Agent>
      <dc:title>Matplotlib v3.3.4, https://matplotlib.org/</dc:title>
     </cc:Agent>
    </dc:creator>
   </cc:Work>
  </rdf:RDF>
 </metadata>
 <defs>
  <style type="text/css">*{stroke-linecap:butt;stroke-linejoin:round;}</style>
 </defs>
 <g id="figure_1">
  <g id="patch_1">
   <path d="M 0 1080 
L 1440 1080 
L 1440 0 
L 0 0 
z
" style="fill:#ffffff;"/>
  </g>
  <g id="axes_1">
   <g id="patch_2">
    <path d="M 180 945 
L 1296 945 
L 1296 129.6 
L 180 129.6 
z
" style="fill:#ffffff;"/>
   </g>
   <g id="PathCollection_1">
    <defs>
     <path d="M 0 4.330127 
C 1.148363 4.330127 2.249847 3.873878 3.061862 3.061862 
C 3.873878 2.249847 4.330127 1.148363 4.330127 0 
C 4.330127 -1.148363 3.873878 -2.249847 3.061862 -3.061862 
C 2.249847 -3.873878 1.148363 -4.330127 0 -4.330127 
C -1.148363 -4.330127 -2.249847 -3.873878 -3.061862 -3.061862 
C -3.873878 -2.249847 -4.330127 -1.148363 -4.330127 0 
C -4.330127 1.148363 -3.873878 2.249847 -3.061862 3.061862 
C -2.249847 3.873878 -1.148363 4.330127 0 4.330127 
z
" id="m2e134fbda6" style="stroke:#000000;stroke-opacity:0.7;stroke-width:0.5;"/>
    </defs>
    <g clip-path="url(#pacaa5246f5)">
     <use style="fill:#008000;fill-opacity:0.7;stroke:#000000;stroke-opacity:0.7;stroke-width:0.5;" x="399.093795" xlink:href="#m2e134fbda6" y="364.636684"/>
     <use style="fill:#008000;fill-opacity:0.7;stroke:#000000;stroke-opacity:0.7;stroke-width:0.5;" x="284.762283" xlink:href="#m2e134fbda6" y="623.629443"/>
     <use style="fill:#008000;fill-opacity:0.7;stroke:#000000;stroke-opacity:0.7;stroke-width:0.5;" x="307.60594" xlink:href="#m2e134fbda6" y="482.916696"/>
     <use style="fill:#008000;fill-opacity:0.7;stroke:#000000;stroke-opacity:0.7;stroke-width:0.5;" x="368.648123" xlink:href="#m2e134fbda6" y="580.351789"/>
     <use style="fill:#008000;fill-opacity:0.7;stroke:#000000;stroke-opacity:0.7;stroke-width:0.5;" x="366.025941" xlink:href="#m2e134fbda6" y="346.62693"/>
     <use style="fill:#008000;fill-opacity:0.7;stroke:#000000;stroke-opacity:0.7;stroke-width:0.5;" x="456.415156" xlink:href="#m2e134fbda6" y="430.025847"/>
     <use style="fill:#008000;fill-opacity:0.7;stroke:#000000;stroke-opacity:0.7;stroke-width:0.5;" x="356.057553" xlink:href="#m2e134fbda6" y="491.443301"/>
     <use style="fill:#008000;fill-opacity:0.7;stroke:#000000;stroke-opacity:0.7;stroke-width:0.5;" x="547.787259" xlink:href="#m2e134fbda6" y="558.560622"/>
     <use style="fill:#008000;fill-opacity:0.7;stroke:#000000;stroke-opacity:0.7;stroke-width:0.5;" x="1094.131696" xlink:href="#m2e134fbda6" y="907.936364"/>
     <use style="fill:#008000;fill-opacity:0.7;stroke:#000000;stroke-opacity:0.7;stroke-width:0.5;" x="366.793456" xlink:href="#m2e134fbda6" y="432.730487"/>
     <use style="fill:#008000;fill-opacity:0.7;stroke:#000000;stroke-opacity:0.7;stroke-width:0.5;" x="269.835908" xlink:href="#m2e134fbda6" y="652.239278"/>
     <use style="fill:#008000;fill-opacity:0.7;stroke:#000000;stroke-opacity:0.7;stroke-width:0.5;" x="294.28113" xlink:href="#m2e134fbda6" y="619.902812"/>
     <use style="fill:#008000;fill-opacity:0.7;stroke:#000000;stroke-opacity:0.7;stroke-width:0.5;" x="414.94949" xlink:href="#m2e134fbda6" y="495.294869"/>
     <use style="fill:#008000;fill-opacity:0.7;stroke:#000000;stroke-opacity:0.7;stroke-width:0.5;" x="938.251446" xlink:href="#m2e134fbda6" y="699.440009"/>
     <use style="fill:#008000;fill-opacity:0.7;stroke:#000000;stroke-opacity:0.7;stroke-width:0.5;" x="673.903497" xlink:href="#m2e134fbda6" y="263.104638"/>
     <use style="fill:#008000;fill-opacity:0.7;stroke:#000000;stroke-opacity:0.7;stroke-width:0.5;" x="510.897946" xlink:href="#m2e134fbda6" y="724.870064"/>
     <use style="fill:#008000;fill-opacity:0.7;stroke:#000000;stroke-opacity:0.7;stroke-width:0.5;" x="442.5797" xlink:href="#m2e134fbda6" y="813.986942"/>
     <use style="fill:#008000;fill-opacity:0.7;stroke:#000000;stroke-opacity:0.7;stroke-width:0.5;" x="237.687142" xlink:href="#m2e134fbda6" y="805.765667"/>
     <use style="fill:#008000;fill-opacity:0.7;stroke:#000000;stroke-opacity:0.7;stroke-width:0.5;" x="395.926574" xlink:href="#m2e134fbda6" y="630.033259"/>
     <use style="fill:#008000;fill-opacity:0.7;stroke:#000000;stroke-opacity:0.7;stroke-width:0.5;" x="322.828554" xlink:href="#m2e134fbda6" y="526.880118"/>
     <use style="fill:#008000;fill-opacity:0.7;stroke:#000000;stroke-opacity:0.7;stroke-width:0.5;" x="309.286955" xlink:href="#m2e134fbda6" y="649.673095"/>
     <use style="fill:#008000;fill-opacity:0.7;stroke:#000000;stroke-opacity:0.7;stroke-width:0.5;" x="230.727273" xlink:href="#m2e134fbda6" y="803.557955"/>
     <use style="fill:#008000;fill-opacity:0.7;stroke:#000000;stroke-opacity:0.7;stroke-width:0.5;" x="240.234874" xlink:href="#m2e134fbda6" y="782.774377"/>
     <use style="fill:#008000;fill-opacity:0.7;stroke:#000000;stroke-opacity:0.7;stroke-width:0.5;" x="320.377621" xlink:href="#m2e134fbda6" y="628.968229"/>
     <use style="fill:#008000;fill-opacity:0.7;stroke:#000000;stroke-opacity:0.7;stroke-width:0.5;" x="390.722308" xlink:href="#m2e134fbda6" y="343.405858"/>
     <use style="fill:#008000;fill-opacity:0.7;stroke:#000000;stroke-opacity:0.7;stroke-width:0.5;" x="399.798281" xlink:href="#m2e134fbda6" y="375.750533"/>
     <use style="fill:#008000;fill-opacity:0.7;stroke:#000000;stroke-opacity:0.7;stroke-width:0.5;" x="290.189718" xlink:href="#m2e134fbda6" y="463.833765"/>
     <use style="fill:#008000;fill-opacity:0.7;stroke:#000000;stroke-opacity:0.7;stroke-width:0.5;" x="395.443788" xlink:href="#m2e134fbda6" y="408.064032"/>
     <use style="fill:#008000;fill-opacity:0.7;stroke:#000000;stroke-opacity:0.7;stroke-width:0.5;" x="435.913668" xlink:href="#m2e134fbda6" y="474.41127"/>
     <use style="fill:#008000;fill-opacity:0.7;stroke:#000000;stroke-opacity:0.7;stroke-width:0.5;" x="875.93084" xlink:href="#m2e134fbda6" y="728.596975"/>
     <use style="fill:#008000;fill-opacity:0.7;stroke:#000000;stroke-opacity:0.7;stroke-width:0.5;" x="316.562769" xlink:href="#m2e134fbda6" y="424.982529"/>
     <use style="fill:#008000;fill-opacity:0.7;stroke:#000000;stroke-opacity:0.7;stroke-width:0.5;" x="328.164312" xlink:href="#m2e134fbda6" y="716.064568"/>
     <use style="fill:#008000;fill-opacity:0.7;stroke:#000000;stroke-opacity:0.7;stroke-width:0.5;" x="412.211974" xlink:href="#m2e134fbda6" y="422.278494"/>
     <use style="fill:#008000;fill-opacity:0.7;stroke:#000000;stroke-opacity:0.7;stroke-width:0.5;" x="521.446486" xlink:href="#m2e134fbda6" y="239.162444"/>
     <use style="fill:#008000;fill-opacity:0.7;stroke:#000000;stroke-opacity:0.7;stroke-width:0.5;" x="351.997035" xlink:href="#m2e134fbda6" y="581.491777"/>
     <use style="fill:#008000;fill-opacity:0.7;stroke:#000000;stroke-opacity:0.7;stroke-width:0.5;" x="485.536253" xlink:href="#m2e134fbda6" y="168.749418"/>
     <use style="fill:#008000;fill-opacity:0.7;stroke:#000000;stroke-opacity:0.7;stroke-width:0.5;" x="438.705972" xlink:href="#m2e134fbda6" y="503.289299"/>
     <use style="fill:#008000;fill-opacity:0.7;stroke:#000000;stroke-opacity:0.7;stroke-width:0.5;" x="404.097794" xlink:href="#m2e134fbda6" y="537.996257"/>
     <use style="fill:#008000;fill-opacity:0.7;stroke:#000000;stroke-opacity:0.7;stroke-width:0.5;" x="447.837981" xlink:href="#m2e134fbda6" y="434.845323"/>
     <use style="fill:#008000;fill-opacity:0.7;stroke:#000000;stroke-opacity:0.7;stroke-width:0.5;" x="501.846828" xlink:href="#m2e134fbda6" y="423.914531"/>
     <use style="fill:#008000;fill-opacity:0.7;stroke:#000000;stroke-opacity:0.7;stroke-width:0.5;" x="408.32263" xlink:href="#m2e134fbda6" y="427.316398"/>
     <use style="fill:#008000;fill-opacity:0.7;stroke:#000000;stroke-opacity:0.7;stroke-width:0.5;" x="324.094897" xlink:href="#m2e134fbda6" y="744.129132"/>
     <use style="fill:#008000;fill-opacity:0.7;stroke:#000000;stroke-opacity:0.7;stroke-width:0.5;" x="285.068737" xlink:href="#m2e134fbda6" y="882.153084"/>
     <use style="fill:#008000;fill-opacity:0.7;stroke:#000000;stroke-opacity:0.7;stroke-width:0.5;" x="444.461492" xlink:href="#m2e134fbda6" y="506.409226"/>
     <use style="fill:#008000;fill-opacity:0.7;stroke:#000000;stroke-opacity:0.7;stroke-width:0.5;" x="289.341949" xlink:href="#m2e134fbda6" y="866.548867"/>
     <use style="fill:#008000;fill-opacity:0.7;stroke:#000000;stroke-opacity:0.7;stroke-width:0.5;" x="260.913806" xlink:href="#m2e134fbda6" y="646.304228"/>
     <use style="fill:#008000;fill-opacity:0.7;stroke:#000000;stroke-opacity:0.7;stroke-width:0.5;" x="378.735845" xlink:href="#m2e134fbda6" y="517.263199"/>
     <use style="fill:#008000;fill-opacity:0.7;stroke:#000000;stroke-opacity:0.7;stroke-width:0.5;" x="370.41405" xlink:href="#m2e134fbda6" y="558.903534"/>
     <use style="fill:#008000;fill-opacity:0.7;stroke:#000000;stroke-opacity:0.7;stroke-width:0.5;" x="420.91197" xlink:href="#m2e134fbda6" y="370.940303"/>
     <use style="fill:#008000;fill-opacity:0.7;stroke:#000000;stroke-opacity:0.7;stroke-width:0.5;" x="359.821857" xlink:href="#m2e134fbda6" y="464.914139"/>
     <use style="fill:#008000;fill-opacity:0.7;stroke:#000000;stroke-opacity:0.7;stroke-width:0.5;" x="655.942562" xlink:href="#m2e134fbda6" y="723.498821"/>
     <use style="fill:#008000;fill-opacity:0.7;stroke:#000000;stroke-opacity:0.7;stroke-width:0.5;" x="456.596377" xlink:href="#m2e134fbda6" y="340.906116"/>
     <use style="fill:#008000;fill-opacity:0.7;stroke:#000000;stroke-opacity:0.7;stroke-width:0.5;" x="238.362207" xlink:href="#m2e134fbda6" y="790.834626"/>
     <use style="fill:#008000;fill-opacity:0.7;stroke:#000000;stroke-opacity:0.7;stroke-width:0.5;" x="583.592141" xlink:href="#m2e134fbda6" y="398.809074"/>
     <use style="fill:#008000;fill-opacity:0.7;stroke:#000000;stroke-opacity:0.7;stroke-width:0.5;" x="422.74328" xlink:href="#m2e134fbda6" y="654.254003"/>
     <use style="fill:#008000;fill-opacity:0.7;stroke:#000000;stroke-opacity:0.7;stroke-width:0.5;" x="366.761428" xlink:href="#m2e134fbda6" y="588.906319"/>
     <use style="fill:#008000;fill-opacity:0.7;stroke:#000000;stroke-opacity:0.7;stroke-width:0.5;" x="1238.58759" xlink:href="#m2e134fbda6" y="589.227162"/>
     <use style="fill:#008000;fill-opacity:0.7;stroke:#000000;stroke-opacity:0.7;stroke-width:0.5;" x="428.344199" xlink:href="#m2e134fbda6" y="429.498886"/>
     <use style="fill:#008000;fill-opacity:0.7;stroke:#000000;stroke-opacity:0.7;stroke-width:0.5;" x="306.925997" xlink:href="#m2e134fbda6" y="446.482973"/>
     <use style="fill:#008000;fill-opacity:0.7;stroke:#000000;stroke-opacity:0.7;stroke-width:0.5;" x="397.974516" xlink:href="#m2e134fbda6" y="394.694863"/>
     <use style="fill:#008000;fill-opacity:0.7;stroke:#000000;stroke-opacity:0.7;stroke-width:0.5;" x="414.776267" xlink:href="#m2e134fbda6" y="389.451561"/>
     <use style="fill:#008000;fill-opacity:0.7;stroke:#000000;stroke-opacity:0.7;stroke-width:0.5;" x="342.146764" xlink:href="#m2e134fbda6" y="727.911798"/>
     <use style="fill:#008000;fill-opacity:0.7;stroke:#000000;stroke-opacity:0.7;stroke-width:0.5;" x="505.064674" xlink:href="#m2e134fbda6" y="293.978447"/>
     <use style="fill:#008000;fill-opacity:0.7;stroke:#000000;stroke-opacity:0.7;stroke-width:0.5;" x="403.749022" xlink:href="#m2e134fbda6" y="514.808037"/>
     <use style="fill:#008000;fill-opacity:0.7;stroke:#000000;stroke-opacity:0.7;stroke-width:0.5;" x="388.097832" xlink:href="#m2e134fbda6" y="479.66329"/>
     <use style="fill:#008000;fill-opacity:0.7;stroke:#000000;stroke-opacity:0.7;stroke-width:0.5;" x="366.379759" xlink:href="#m2e134fbda6" y="613.44145"/>
     <use style="fill:#008000;fill-opacity:0.7;stroke:#000000;stroke-opacity:0.7;stroke-width:0.5;" x="353.152972" xlink:href="#m2e134fbda6" y="488.096381"/>
     <use style="fill:#008000;fill-opacity:0.7;stroke:#000000;stroke-opacity:0.7;stroke-width:0.5;" x="332.124441" xlink:href="#m2e134fbda6" y="541.03348"/>
     <use style="fill:#008000;fill-opacity:0.7;stroke:#000000;stroke-opacity:0.7;stroke-width:0.5;" x="337.048308" xlink:href="#m2e134fbda6" y="590.113869"/>
    </g>
   </g>
   <g id="PathCollection_2">
    <defs>
     <path d="M 0 -4.330127 
L -4.330127 4.330127 
L 4.330127 4.330127 
z
" id="m65f3247ac4" style="stroke:#000000;stroke-opacity:0.7;stroke-width:0.5;"/>
    </defs>
    <g clip-path="url(#pacaa5246f5)">
     <use style="fill:#0000ff;fill-opacity:0.7;stroke:#000000;stroke-opacity:0.7;stroke-width:0.5;" x="405.779864" xlink:href="#m65f3247ac4" y="362.552924"/>
     <use style="fill:#0000ff;fill-opacity:0.7;stroke:#000000;stroke-opacity:0.7;stroke-width:0.5;" x="291.439454" xlink:href="#m65f3247ac4" y="621.54181"/>
     <use style="fill:#0000ff;fill-opacity:0.7;stroke:#000000;stroke-opacity:0.7;stroke-width:0.5;" x="314.16023" xlink:href="#m65f3247ac4" y="480.718448"/>
     <use style="fill:#0000ff;fill-opacity:0.7;stroke:#000000;stroke-opacity:0.7;stroke-width:0.5;" x="375.331279" xlink:href="#m65f3247ac4" y="578.259598"/>
     <use style="fill:#0000ff;fill-opacity:0.7;stroke:#000000;stroke-opacity:0.7;stroke-width:0.5;" x="372.708181" xlink:href="#m65f3247ac4" y="344.538861"/>
     <use style="fill:#0000ff;fill-opacity:0.7;stroke:#000000;stroke-opacity:0.7;stroke-width:0.5;" x="463.089342" xlink:href="#m65f3247ac4" y="427.9454"/>
     <use style="fill:#0000ff;fill-opacity:0.7;stroke:#000000;stroke-opacity:0.7;stroke-width:0.5;" x="362.740926" xlink:href="#m65f3247ac4" y="489.355466"/>
     <use style="fill:#0000ff;fill-opacity:0.7;stroke:#000000;stroke-opacity:0.7;stroke-width:0.5;" x="554.460504" xlink:href="#m65f3247ac4" y="556.475772"/>
     <use style="fill:#0000ff;fill-opacity:0.7;stroke:#000000;stroke-opacity:0.7;stroke-width:0.5;" x="1101.213542" xlink:href="#m65f3247ac4" y="906.102976"/>
     <use style="fill:#0000ff;fill-opacity:0.7;stroke:#000000;stroke-opacity:0.7;stroke-width:0.5;" x="373.472607" xlink:href="#m65f3247ac4" y="430.644194"/>
     <use style="fill:#0000ff;fill-opacity:0.7;stroke:#000000;stroke-opacity:0.7;stroke-width:0.5;" x="276.514842" xlink:href="#m65f3247ac4" y="650.152836"/>
     <use style="fill:#0000ff;fill-opacity:0.7;stroke:#000000;stroke-opacity:0.7;stroke-width:0.5;" x="300.957881" xlink:href="#m65f3247ac4" y="617.813811"/>
     <use style="fill:#0000ff;fill-opacity:0.7;stroke:#000000;stroke-opacity:0.7;stroke-width:0.5;" x="421.634019" xlink:href="#m65f3247ac4" y="493.203229"/>
     <use style="fill:#0000ff;fill-opacity:0.7;stroke:#000000;stroke-opacity:0.7;stroke-width:0.5;" x="945.888948" xlink:href="#m65f3247ac4" y="697.705469"/>
     <use style="fill:#0000ff;fill-opacity:0.7;stroke:#000000;stroke-opacity:0.7;stroke-width:0.5;" x="680.581427" xlink:href="#m65f3247ac4" y="261.018023"/>
     <use style="fill:#0000ff;fill-opacity:0.7;stroke:#000000;stroke-opacity:0.7;stroke-width:0.5;" x="517.574251" xlink:href="#m65f3247ac4" y="722.781681"/>
     <use style="fill:#0000ff;fill-opacity:0.7;stroke:#000000;stroke-opacity:0.7;stroke-width:0.5;" x="448.610043" xlink:href="#m65f3247ac4" y="811.446152"/>
     <use style="fill:#0000ff;fill-opacity:0.7;stroke:#000000;stroke-opacity:0.7;stroke-width:0.5;" x="244.590261" xlink:href="#m65f3247ac4" y="803.256563"/>
     <use style="fill:#0000ff;fill-opacity:0.7;stroke:#000000;stroke-opacity:0.7;stroke-width:0.5;" x="402.611521" xlink:href="#m65f3247ac4" y="628.200874"/>
     <use style="fill:#0000ff;fill-opacity:0.7;stroke:#000000;stroke-opacity:0.7;stroke-width:0.5;" x="329.507852" xlink:href="#m65f3247ac4" y="524.79051"/>
     <use style="fill:#0000ff;fill-opacity:0.7;stroke:#000000;stroke-opacity:0.7;stroke-width:0.5;" x="315.968389" xlink:href="#m65f3247ac4" y="647.587922"/>
     <use style="fill:#0000ff;fill-opacity:0.7;stroke:#000000;stroke-opacity:0.7;stroke-width:0.5;" x="237.407013" xlink:href="#m65f3247ac4" y="801.467366"/>
     <use style="fill:#0000ff;fill-opacity:0.7;stroke:#000000;stroke-opacity:0.7;stroke-width:0.5;" x="247.103448" xlink:href="#m65f3247ac4" y="780.441142"/>
     <use style="fill:#0000ff;fill-opacity:0.7;stroke:#000000;stroke-opacity:0.7;stroke-width:0.5;" x="327.26777" xlink:href="#m65f3247ac4" y="626.804741"/>
     <use style="fill:#0000ff;fill-opacity:0.7;stroke:#000000;stroke-opacity:0.7;stroke-width:0.5;" x="397.40198" xlink:href="#m65f3247ac4" y="341.317818"/>
     <use style="fill:#0000ff;fill-opacity:0.7;stroke:#000000;stroke-opacity:0.7;stroke-width:0.5;" x="406.474985" xlink:href="#m65f3247ac4" y="373.661722"/>
     <use style="fill:#0000ff;fill-opacity:0.7;stroke:#000000;stroke-opacity:0.7;stroke-width:0.5;" x="296.878424" xlink:href="#m65f3247ac4" y="461.740622"/>
     <use style="fill:#0000ff;fill-opacity:0.7;stroke:#000000;stroke-opacity:0.7;stroke-width:0.5;" x="402.117177" xlink:href="#m65f3247ac4" y="405.974902"/>
     <use style="fill:#0000ff;fill-opacity:0.7;stroke:#000000;stroke-opacity:0.7;stroke-width:0.5;" x="442.59037" xlink:href="#m65f3247ac4" y="472.318269"/>
     <use style="fill:#0000ff;fill-opacity:0.7;stroke:#000000;stroke-opacity:0.7;stroke-width:0.5;" x="883.562897" xlink:href="#m65f3247ac4" y="726.870566"/>
     <use style="fill:#0000ff;fill-opacity:0.7;stroke:#000000;stroke-opacity:0.7;stroke-width:0.5;" x="323.245677" xlink:href="#m65f3247ac4" y="422.893777"/>
     <use style="fill:#0000ff;fill-opacity:0.7;stroke:#000000;stroke-opacity:0.7;stroke-width:0.5;" x="334.84799" xlink:href="#m65f3247ac4" y="713.97954"/>
     <use style="fill:#0000ff;fill-opacity:0.7;stroke:#000000;stroke-opacity:0.7;stroke-width:0.5;" x="418.896347" xlink:href="#m65f3247ac4" y="420.182452"/>
     <use style="fill:#0000ff;fill-opacity:0.7;stroke:#000000;stroke-opacity:0.7;stroke-width:0.5;" x="528.124013" xlink:href="#m65f3247ac4" y="237.066518"/>
     <use style="fill:#0000ff;fill-opacity:0.7;stroke:#000000;stroke-opacity:0.7;stroke-width:0.5;" x="358.677966" xlink:href="#m65f3247ac4" y="579.402538"/>
     <use style="fill:#0000ff;fill-opacity:0.7;stroke:#000000;stroke-opacity:0.7;stroke-width:0.5;" x="492.216836" xlink:href="#m65f3247ac4" y="166.663636"/>
     <use style="fill:#0000ff;fill-opacity:0.7;stroke:#000000;stroke-opacity:0.7;stroke-width:0.5;" x="445.382659" xlink:href="#m65f3247ac4" y="501.232011"/>
     <use style="fill:#0000ff;fill-opacity:0.7;stroke:#000000;stroke-opacity:0.7;stroke-width:0.5;" x="410.788144" xlink:href="#m65f3247ac4" y="535.906249"/>
     <use style="fill:#0000ff;fill-opacity:0.7;stroke:#000000;stroke-opacity:0.7;stroke-width:0.5;" x="454.516208" xlink:href="#m65f3247ac4" y="432.752607"/>
     <use style="fill:#0000ff;fill-opacity:0.7;stroke:#000000;stroke-opacity:0.7;stroke-width:0.5;" x="508.525723" xlink:href="#m65f3247ac4" y="421.819277"/>
     <use style="fill:#0000ff;fill-opacity:0.7;stroke:#000000;stroke-opacity:0.7;stroke-width:0.5;" x="415.009792" xlink:href="#m65f3247ac4" y="425.224722"/>
     <use style="fill:#0000ff;fill-opacity:0.7;stroke:#000000;stroke-opacity:0.7;stroke-width:0.5;" x="330.770464" xlink:href="#m65f3247ac4" y="742.037765"/>
     <use style="fill:#0000ff;fill-opacity:0.7;stroke:#000000;stroke-opacity:0.7;stroke-width:0.5;" x="291.744925" xlink:href="#m65f3247ac4" y="880.05693"/>
     <use style="fill:#0000ff;fill-opacity:0.7;stroke:#000000;stroke-opacity:0.7;stroke-width:0.5;" x="451.138415" xlink:href="#m65f3247ac4" y="504.322843"/>
     <use style="fill:#0000ff;fill-opacity:0.7;stroke:#000000;stroke-opacity:0.7;stroke-width:0.5;" x="296.020931" xlink:href="#m65f3247ac4" y="864.45533"/>
     <use style="fill:#0000ff;fill-opacity:0.7;stroke:#000000;stroke-opacity:0.7;stroke-width:0.5;" x="267.590263" xlink:href="#m65f3247ac4" y="644.214063"/>
     <use style="fill:#0000ff;fill-opacity:0.7;stroke:#000000;stroke-opacity:0.7;stroke-width:0.5;" x="385.087824" xlink:href="#m65f3247ac4" y="515.952858"/>
     <use style="fill:#0000ff;fill-opacity:0.7;stroke:#000000;stroke-opacity:0.7;stroke-width:0.5;" x="377.098487" xlink:href="#m65f3247ac4" y="556.821082"/>
     <use style="fill:#0000ff;fill-opacity:0.7;stroke:#000000;stroke-opacity:0.7;stroke-width:0.5;" x="427.593574" xlink:href="#m65f3247ac4" y="369.078472"/>
     <use style="fill:#0000ff;fill-opacity:0.7;stroke:#000000;stroke-opacity:0.7;stroke-width:0.5;" x="366.520019" xlink:href="#m65f3247ac4" y="462.923783"/>
     <use style="fill:#0000ff;fill-opacity:0.7;stroke:#000000;stroke-opacity:0.7;stroke-width:0.5;" x="662.775294" xlink:href="#m65f3247ac4" y="721.5277"/>
     <use style="fill:#0000ff;fill-opacity:0.7;stroke:#000000;stroke-opacity:0.7;stroke-width:0.5;" x="463.277095" xlink:href="#m65f3247ac4" y="338.817843"/>
     <use style="fill:#0000ff;fill-opacity:0.7;stroke:#000000;stroke-opacity:0.7;stroke-width:0.5;" x="244.740686" xlink:href="#m65f3247ac4" y="789.22305"/>
     <use style="fill:#0000ff;fill-opacity:0.7;stroke:#000000;stroke-opacity:0.7;stroke-width:0.5;" x="590.042464" xlink:href="#m65f3247ac4" y="396.952907"/>
     <use style="fill:#0000ff;fill-opacity:0.7;stroke:#000000;stroke-opacity:0.7;stroke-width:0.5;" x="429.41658" xlink:href="#m65f3247ac4" y="652.16808"/>
     <use style="fill:#0000ff;fill-opacity:0.7;stroke:#000000;stroke-opacity:0.7;stroke-width:0.5;" x="373.440026" xlink:href="#m65f3247ac4" y="586.822701"/>
     <use style="fill:#0000ff;fill-opacity:0.7;stroke:#000000;stroke-opacity:0.7;stroke-width:0.5;" x="1245.272727" xlink:href="#m65f3247ac4" y="587.136297"/>
     <use style="fill:#0000ff;fill-opacity:0.7;stroke:#000000;stroke-opacity:0.7;stroke-width:0.5;" x="435.021154" xlink:href="#m65f3247ac4" y="427.406959"/>
     <use style="fill:#0000ff;fill-opacity:0.7;stroke:#000000;stroke-opacity:0.7;stroke-width:0.5;" x="313.602129" xlink:href="#m65f3247ac4" y="444.398587"/>
     <use style="fill:#0000ff;fill-opacity:0.7;stroke:#000000;stroke-opacity:0.7;stroke-width:0.5;" x="404.65374" xlink:href="#m65f3247ac4" y="392.600271"/>
     <use style="fill:#0000ff;fill-opacity:0.7;stroke:#000000;stroke-opacity:0.7;stroke-width:0.5;" x="421.452093" xlink:href="#m65f3247ac4" y="387.365453"/>
     <use style="fill:#0000ff;fill-opacity:0.7;stroke:#000000;stroke-opacity:0.7;stroke-width:0.5;" x="348.82731" xlink:href="#m65f3247ac4" y="725.824558"/>
     <use style="fill:#0000ff;fill-opacity:0.7;stroke:#000000;stroke-opacity:0.7;stroke-width:0.5;" x="511.744683" xlink:href="#m65f3247ac4" y="291.88543"/>
     <use style="fill:#0000ff;fill-opacity:0.7;stroke:#000000;stroke-opacity:0.7;stroke-width:0.5;" x="410.426495" xlink:href="#m65f3247ac4" y="512.748991"/>
     <use style="fill:#0000ff;fill-opacity:0.7;stroke:#000000;stroke-opacity:0.7;stroke-width:0.5;" x="394.773588" xlink:href="#m65f3247ac4" y="477.574614"/>
     <use style="fill:#0000ff;fill-opacity:0.7;stroke:#000000;stroke-opacity:0.7;stroke-width:0.5;" x="373.058297" xlink:href="#m65f3247ac4" y="611.35725"/>
     <use style="fill:#0000ff;fill-opacity:0.7;stroke:#000000;stroke-opacity:0.7;stroke-width:0.5;" x="359.835978" xlink:href="#m65f3247ac4" y="486.000054"/>
     <use style="fill:#0000ff;fill-opacity:0.7;stroke:#000000;stroke-opacity:0.7;stroke-width:0.5;" x="338.808543" xlink:href="#m65f3247ac4" y="538.940263"/>
     <use style="fill:#0000ff;fill-opacity:0.7;stroke:#000000;stroke-opacity:0.7;stroke-width:0.5;" x="343.725851" xlink:href="#m65f3247ac4" y="588.024836"/>
    </g>
   </g>
   <g id="matplotlib.axis_1">
    <g id="xtick_1">
     <g id="line2d_1">
      <defs>
       <path d="M 0 0 
L 0 3.5 
" id="mb576f8ef7d" style="stroke:#000000;stroke-width:0.8;"/>
      </defs>
      <g>
       <use style="stroke:#000000;stroke-width:0.8;" x="241.27641" xlink:href="#mb576f8ef7d" y="945"/>
      </g>
     </g>
     <g id="text_1">
      <!-- −2 -->
      <g transform="translate(224.40516 968.716563)scale(0.22 -0.22)">
       <defs>
        <path d="M 10.59375 37.109375 
L 73.1875 37.109375 
L 73.1875 25.59375 
L 10.59375 25.59375 
z
" id="DejaVuSans-Bold-8722"/>
        <path d="M 28.8125 13.8125 
L 60.890625 13.8125 
L 60.890625 0 
L 7.90625 0 
L 7.90625 13.8125 
L 34.515625 37.3125 
Q 38.09375 40.53125 39.796875 43.609375 
Q 41.5 46.6875 41.5 50 
Q 41.5 55.125 38.0625 58.25 
Q 34.625 61.375 28.90625 61.375 
Q 24.515625 61.375 19.28125 59.5 
Q 14.0625 57.625 8.109375 53.90625 
L 8.109375 69.921875 
Q 14.453125 72.015625 20.65625 73.109375 
Q 26.859375 74.21875 32.8125 74.21875 
Q 45.90625 74.21875 53.15625 68.453125 
Q 60.40625 62.703125 60.40625 52.390625 
Q 60.40625 46.4375 57.328125 41.28125 
Q 54.25 36.140625 44.390625 27.484375 
z
" id="DejaVuSans-Bold-50"/>
       </defs>
       <use xlink:href="#DejaVuSans-Bold-8722"/>
       <use x="83.789062" xlink:href="#DejaVuSans-Bold-50"/>
      </g>
     </g>
    </g>
    <g id="xtick_2">
     <g id="line2d_2">
      <g>
       <use style="stroke:#000000;stroke-width:0.8;" x="426.915096" xlink:href="#mb576f8ef7d" y="945"/>
      </g>
     </g>
     <g id="text_2">
      <!-- 0 -->
      <g transform="translate(419.261503 968.716563)scale(0.22 -0.22)">
       <defs>
        <path d="M 46 36.53125 
Q 46 50.203125 43.4375 55.78125 
Q 40.875 61.375 34.8125 61.375 
Q 28.765625 61.375 26.171875 55.78125 
Q 23.578125 50.203125 23.578125 36.53125 
Q 23.578125 22.703125 26.171875 17.03125 
Q 28.765625 11.375 34.8125 11.375 
Q 40.828125 11.375 43.40625 17.03125 
Q 46 22.703125 46 36.53125 
z
M 64.796875 36.375 
Q 64.796875 18.265625 56.984375 8.421875 
Q 49.171875 -1.421875 34.8125 -1.421875 
Q 20.40625 -1.421875 12.59375 8.421875 
Q 4.78125 18.265625 4.78125 36.375 
Q 4.78125 54.546875 12.59375 64.375 
Q 20.40625 74.21875 34.8125 74.21875 
Q 49.171875 74.21875 56.984375 64.375 
Q 64.796875 54.546875 64.796875 36.375 
z
" id="DejaVuSans-Bold-48"/>
       </defs>
       <use xlink:href="#DejaVuSans-Bold-48"/>
      </g>
     </g>
    </g>
    <g id="xtick_3">
     <g id="line2d_3">
      <g>
       <use style="stroke:#000000;stroke-width:0.8;" x="612.553783" xlink:href="#mb576f8ef7d" y="945"/>
      </g>
     </g>
     <g id="text_3">
      <!-- 2 -->
      <g transform="translate(604.900189 968.716563)scale(0.22 -0.22)">
       <use xlink:href="#DejaVuSans-Bold-50"/>
      </g>
     </g>
    </g>
    <g id="xtick_4">
     <g id="line2d_4">
      <g>
       <use style="stroke:#000000;stroke-width:0.8;" x="798.192469" xlink:href="#mb576f8ef7d" y="945"/>
      </g>
     </g>
     <g id="text_4">
      <!-- 4 -->
      <g transform="translate(790.538876 968.716563)scale(0.22 -0.22)">
       <defs>
        <path d="M 36.8125 57.421875 
L 16.21875 26.90625 
L 36.8125 26.90625 
z
M 33.6875 72.90625 
L 54.59375 72.90625 
L 54.59375 26.90625 
L 64.984375 26.90625 
L 64.984375 13.28125 
L 54.59375 13.28125 
L 54.59375 0 
L 36.8125 0 
L 36.8125 13.28125 
L 4.5 13.28125 
L 4.5 29.390625 
z
" id="DejaVuSans-Bold-52"/>
       </defs>
       <use xlink:href="#DejaVuSans-Bold-52"/>
      </g>
     </g>
    </g>
    <g id="xtick_5">
     <g id="line2d_5">
      <g>
       <use style="stroke:#000000;stroke-width:0.8;" x="983.831156" xlink:href="#mb576f8ef7d" y="945"/>
      </g>
     </g>
     <g id="text_5">
      <!-- 6 -->
      <g transform="translate(976.177562 968.716563)scale(0.22 -0.22)">
       <defs>
        <path d="M 36.1875 35.984375 
Q 31.25 35.984375 28.78125 32.78125 
Q 26.3125 29.59375 26.3125 23.1875 
Q 26.3125 16.796875 28.78125 13.59375 
Q 31.25 10.40625 36.1875 10.40625 
Q 41.15625 10.40625 43.625 13.59375 
Q 46.09375 16.796875 46.09375 23.1875 
Q 46.09375 29.59375 43.625 32.78125 
Q 41.15625 35.984375 36.1875 35.984375 
z
M 59.421875 71 
L 59.421875 57.515625 
Q 54.78125 59.71875 50.671875 60.765625 
Q 46.578125 61.8125 42.671875 61.8125 
Q 34.28125 61.8125 29.59375 57.140625 
Q 24.90625 52.484375 24.125 43.3125 
Q 27.34375 45.703125 31.09375 46.890625 
Q 34.859375 48.09375 39.3125 48.09375 
Q 50.484375 48.09375 57.34375 41.546875 
Q 64.203125 35.015625 64.203125 24.421875 
Q 64.203125 12.703125 56.53125 5.640625 
Q 48.875 -1.421875 35.984375 -1.421875 
Q 21.78125 -1.421875 13.984375 8.171875 
Q 6.203125 17.78125 6.203125 35.40625 
Q 6.203125 53.46875 15.3125 63.796875 
Q 24.421875 74.125 40.28125 74.125 
Q 45.3125 74.125 50.046875 73.34375 
Q 54.78125 72.5625 59.421875 71 
z
" id="DejaVuSans-Bold-54"/>
       </defs>
       <use xlink:href="#DejaVuSans-Bold-54"/>
      </g>
     </g>
    </g>
    <g id="xtick_6">
     <g id="line2d_6">
      <g>
       <use style="stroke:#000000;stroke-width:0.8;" x="1169.469842" xlink:href="#mb576f8ef7d" y="945"/>
      </g>
     </g>
     <g id="text_6">
      <!-- 8 -->
      <g transform="translate(1161.816248 968.716563)scale(0.22 -0.22)">
       <defs>
        <path d="M 34.8125 32.625 
Q 29.546875 32.625 26.703125 29.734375 
Q 23.875 26.859375 23.875 21.484375 
Q 23.875 16.109375 26.703125 13.25 
Q 29.546875 10.40625 34.8125 10.40625 
Q 40.046875 10.40625 42.828125 13.25 
Q 45.609375 16.109375 45.609375 21.484375 
Q 45.609375 26.90625 42.828125 29.765625 
Q 40.046875 32.625 34.8125 32.625 
z
M 21.09375 38.8125 
Q 14.453125 40.828125 11.078125 44.96875 
Q 7.71875 49.125 7.71875 55.328125 
Q 7.71875 64.546875 14.59375 69.375 
Q 21.484375 74.21875 34.8125 74.21875 
Q 48.046875 74.21875 54.921875 69.40625 
Q 61.8125 64.59375 61.8125 55.328125 
Q 61.8125 49.125 58.421875 44.96875 
Q 55.03125 40.828125 48.390625 38.8125 
Q 55.8125 36.765625 59.59375 32.15625 
Q 63.375 27.546875 63.375 20.515625 
Q 63.375 9.671875 56.171875 4.125 
Q 48.96875 -1.421875 34.8125 -1.421875 
Q 20.609375 -1.421875 13.359375 4.125 
Q 6.109375 9.671875 6.109375 20.515625 
Q 6.109375 27.546875 9.890625 32.15625 
Q 13.671875 36.765625 21.09375 38.8125 
z
M 25.484375 53.421875 
Q 25.484375 49.078125 27.90625 46.734375 
Q 30.328125 44.390625 34.8125 44.390625 
Q 39.203125 44.390625 41.59375 46.734375 
Q 44 49.078125 44 53.421875 
Q 44 57.765625 41.59375 60.078125 
Q 39.203125 62.40625 34.8125 62.40625 
Q 30.328125 62.40625 27.90625 60.0625 
Q 25.484375 57.71875 25.484375 53.421875 
z
" id="DejaVuSans-Bold-56"/>
       </defs>
       <use xlink:href="#DejaVuSans-Bold-56"/>
      </g>
     </g>
    </g>
    <g id="text_7">
     <!-- PC2: 12.0% -->
     <g transform="translate(674.542031 994.008438)scale(0.22 -0.22)">
      <defs>
       <path d="M 19.671875 64.796875 
L 19.671875 37.40625 
L 32.078125 37.40625 
Q 38.96875 37.40625 42.71875 40.96875 
Q 46.484375 44.53125 46.484375 51.125 
Q 46.484375 57.671875 42.71875 61.234375 
Q 38.96875 64.796875 32.078125 64.796875 
z
M 9.8125 72.90625 
L 32.078125 72.90625 
Q 44.34375 72.90625 50.609375 67.359375 
Q 56.890625 61.8125 56.890625 51.125 
Q 56.890625 40.328125 50.609375 34.8125 
Q 44.34375 29.296875 32.078125 29.296875 
L 19.671875 29.296875 
L 19.671875 0 
L 9.8125 0 
z
" id="DejaVuSans-80"/>
       <path d="M 64.40625 67.28125 
L 64.40625 56.890625 
Q 59.421875 61.53125 53.78125 63.8125 
Q 48.140625 66.109375 41.796875 66.109375 
Q 29.296875 66.109375 22.65625 58.46875 
Q 16.015625 50.828125 16.015625 36.375 
Q 16.015625 21.96875 22.65625 14.328125 
Q 29.296875 6.6875 41.796875 6.6875 
Q 48.140625 6.6875 53.78125 8.984375 
Q 59.421875 11.28125 64.40625 15.921875 
L 64.40625 5.609375 
Q 59.234375 2.09375 53.4375 0.328125 
Q 47.65625 -1.421875 41.21875 -1.421875 
Q 24.65625 -1.421875 15.125 8.703125 
Q 5.609375 18.84375 5.609375 36.375 
Q 5.609375 53.953125 15.125 64.078125 
Q 24.65625 74.21875 41.21875 74.21875 
Q 47.75 74.21875 53.53125 72.484375 
Q 59.328125 70.75 64.40625 67.28125 
z
" id="DejaVuSans-67"/>
       <path d="M 19.1875 8.296875 
L 53.609375 8.296875 
L 53.609375 0 
L 7.328125 0 
L 7.328125 8.296875 
Q 12.9375 14.109375 22.625 23.890625 
Q 32.328125 33.6875 34.8125 36.53125 
Q 39.546875 41.84375 41.421875 45.53125 
Q 43.3125 49.21875 43.3125 52.78125 
Q 43.3125 58.59375 39.234375 62.25 
Q 35.15625 65.921875 28.609375 65.921875 
Q 23.96875 65.921875 18.8125 64.3125 
Q 13.671875 62.703125 7.8125 59.421875 
L 7.8125 69.390625 
Q 13.765625 71.78125 18.9375 73 
Q 24.125 74.21875 28.421875 74.21875 
Q 39.75 74.21875 46.484375 68.546875 
Q 53.21875 62.890625 53.21875 53.421875 
Q 53.21875 48.921875 51.53125 44.890625 
Q 49.859375 40.875 45.40625 35.40625 
Q 44.1875 33.984375 37.640625 27.21875 
Q 31.109375 20.453125 19.1875 8.296875 
z
" id="DejaVuSans-50"/>
       <path d="M 11.71875 12.40625 
L 22.015625 12.40625 
L 22.015625 0 
L 11.71875 0 
z
M 11.71875 51.703125 
L 22.015625 51.703125 
L 22.015625 39.3125 
L 11.71875 39.3125 
z
" id="DejaVuSans-58"/>
       <path id="DejaVuSans-32"/>
       <path d="M 12.40625 8.296875 
L 28.515625 8.296875 
L 28.515625 63.921875 
L 10.984375 60.40625 
L 10.984375 69.390625 
L 28.421875 72.90625 
L 38.28125 72.90625 
L 38.28125 8.296875 
L 54.390625 8.296875 
L 54.390625 0 
L 12.40625 0 
z
" id="DejaVuSans-49"/>
       <path d="M 10.6875 12.40625 
L 21 12.40625 
L 21 0 
L 10.6875 0 
z
" id="DejaVuSans-46"/>
       <path d="M 31.78125 66.40625 
Q 24.171875 66.40625 20.328125 58.90625 
Q 16.5 51.421875 16.5 36.375 
Q 16.5 21.390625 20.328125 13.890625 
Q 24.171875 6.390625 31.78125 6.390625 
Q 39.453125 6.390625 43.28125 13.890625 
Q 47.125 21.390625 47.125 36.375 
Q 47.125 51.421875 43.28125 58.90625 
Q 39.453125 66.40625 31.78125 66.40625 
z
M 31.78125 74.21875 
Q 44.046875 74.21875 50.515625 64.515625 
Q 56.984375 54.828125 56.984375 36.375 
Q 56.984375 17.96875 50.515625 8.265625 
Q 44.046875 -1.421875 31.78125 -1.421875 
Q 19.53125 -1.421875 13.0625 8.265625 
Q 6.59375 17.96875 6.59375 36.375 
Q 6.59375 54.828125 13.0625 64.515625 
Q 19.53125 74.21875 31.78125 74.21875 
z
" id="DejaVuSans-48"/>
       <path d="M 72.703125 32.078125 
Q 68.453125 32.078125 66.03125 28.46875 
Q 63.625 24.859375 63.625 18.40625 
Q 63.625 12.0625 66.03125 8.421875 
Q 68.453125 4.78125 72.703125 4.78125 
Q 76.859375 4.78125 79.265625 8.421875 
Q 81.6875 12.0625 81.6875 18.40625 
Q 81.6875 24.8125 79.265625 28.4375 
Q 76.859375 32.078125 72.703125 32.078125 
z
M 72.703125 38.28125 
Q 80.421875 38.28125 84.953125 32.90625 
Q 89.5 27.546875 89.5 18.40625 
Q 89.5 9.28125 84.9375 3.921875 
Q 80.375 -1.421875 72.703125 -1.421875 
Q 64.890625 -1.421875 60.34375 3.921875 
Q 55.8125 9.28125 55.8125 18.40625 
Q 55.8125 27.59375 60.375 32.9375 
Q 64.9375 38.28125 72.703125 38.28125 
z
M 22.3125 68.015625 
Q 18.109375 68.015625 15.6875 64.375 
Q 13.28125 60.75 13.28125 54.390625 
Q 13.28125 47.953125 15.671875 44.328125 
Q 18.0625 40.71875 22.3125 40.71875 
Q 26.5625 40.71875 28.96875 44.328125 
Q 31.390625 47.953125 31.390625 54.390625 
Q 31.390625 60.6875 28.953125 64.34375 
Q 26.515625 68.015625 22.3125 68.015625 
z
M 66.40625 74.21875 
L 74.21875 74.21875 
L 28.609375 -1.421875 
L 20.796875 -1.421875 
z
M 22.3125 74.21875 
Q 30.03125 74.21875 34.609375 68.875 
Q 39.203125 63.53125 39.203125 54.390625 
Q 39.203125 45.171875 34.640625 39.84375 
Q 30.078125 34.515625 22.3125 34.515625 
Q 14.546875 34.515625 10.03125 39.859375 
Q 5.515625 45.21875 5.515625 54.390625 
Q 5.515625 63.484375 10.046875 68.84375 
Q 14.59375 74.21875 22.3125 74.21875 
z
" id="DejaVuSans-37"/>
      </defs>
      <use xlink:href="#DejaVuSans-80"/>
      <use x="60.302734" xlink:href="#DejaVuSans-67"/>
      <use x="130.126953" xlink:href="#DejaVuSans-50"/>
      <use x="193.75" xlink:href="#DejaVuSans-58"/>
      <use x="227.441406" xlink:href="#DejaVuSans-32"/>
      <use x="259.228516" xlink:href="#DejaVuSans-49"/>
      <use x="322.851562" xlink:href="#DejaVuSans-50"/>
      <use x="386.474609" xlink:href="#DejaVuSans-46"/>
      <use x="418.261719" xlink:href="#DejaVuSans-48"/>
      <use x="481.884766" xlink:href="#DejaVuSans-37"/>
     </g>
    </g>
   </g>
   <g id="matplotlib.axis_2">
    <g id="ytick_1">
     <g id="line2d_7">
      <defs>
       <path d="M 0 0 
L -3.5 0 
" id="m7d58d6f6d7" style="stroke:#000000;stroke-width:0.8;"/>
      </defs>
      <g>
       <use style="stroke:#000000;stroke-width:0.8;" x="180" xlink:href="#m7d58d6f6d7" y="916.888956"/>
      </g>
     </g>
     <g id="text_8">
      <!-- −4 -->
      <g transform="translate(139.2575 925.247238)scale(0.22 -0.22)">
       <use xlink:href="#DejaVuSans-Bold-8722"/>
       <use x="83.789062" xlink:href="#DejaVuSans-Bold-52"/>
      </g>
     </g>
    </g>
    <g id="ytick_2">
     <g id="line2d_8">
      <g>
       <use style="stroke:#000000;stroke-width:0.8;" x="180" xlink:href="#m7d58d6f6d7" y="823.43326"/>
      </g>
     </g>
     <g id="text_9">
      <!-- −3 -->
      <g transform="translate(139.2575 831.791542)scale(0.22 -0.22)">
       <defs>
        <path d="M 46.578125 39.3125 
Q 53.953125 37.40625 57.78125 32.6875 
Q 61.625 27.984375 61.625 20.703125 
Q 61.625 9.859375 53.3125 4.21875 
Q 45.015625 -1.421875 29.109375 -1.421875 
Q 23.484375 -1.421875 17.84375 -0.515625 
Q 12.203125 0.390625 6.6875 2.203125 
L 6.6875 16.703125 
Q 11.96875 14.0625 17.15625 12.71875 
Q 22.359375 11.375 27.390625 11.375 
Q 34.859375 11.375 38.84375 13.953125 
Q 42.828125 16.546875 42.828125 21.390625 
Q 42.828125 26.375 38.75 28.9375 
Q 34.671875 31.5 26.703125 31.5 
L 19.1875 31.5 
L 19.1875 43.609375 
L 27.09375 43.609375 
Q 34.1875 43.609375 37.640625 45.828125 
Q 41.109375 48.046875 41.109375 52.59375 
Q 41.109375 56.78125 37.734375 59.078125 
Q 34.375 61.375 28.21875 61.375 
Q 23.6875 61.375 19.046875 60.34375 
Q 14.40625 59.328125 9.8125 57.328125 
L 9.8125 71.09375 
Q 15.375 72.65625 20.84375 73.4375 
Q 26.3125 74.21875 31.59375 74.21875 
Q 45.796875 74.21875 52.84375 69.546875 
Q 59.90625 64.890625 59.90625 55.515625 
Q 59.90625 49.125 56.53125 45.046875 
Q 53.171875 40.96875 46.578125 39.3125 
z
" id="DejaVuSans-Bold-51"/>
       </defs>
       <use xlink:href="#DejaVuSans-Bold-8722"/>
       <use x="83.789062" xlink:href="#DejaVuSans-Bold-51"/>
      </g>
     </g>
    </g>
    <g id="ytick_3">
     <g id="line2d_9">
      <g>
       <use style="stroke:#000000;stroke-width:0.8;" x="180" xlink:href="#m7d58d6f6d7" y="729.977564"/>
      </g>
     </g>
     <g id="text_10">
      <!-- −2 -->
      <g transform="translate(139.2575 738.335846)scale(0.22 -0.22)">
       <use xlink:href="#DejaVuSans-Bold-8722"/>
       <use x="83.789062" xlink:href="#DejaVuSans-Bold-50"/>
      </g>
     </g>
    </g>
    <g id="ytick_4">
     <g id="line2d_10">
      <g>
       <use style="stroke:#000000;stroke-width:0.8;" x="180" xlink:href="#m7d58d6f6d7" y="636.521868"/>
      </g>
     </g>
     <g id="text_11">
      <!-- −1 -->
      <g transform="translate(139.2575 644.88015)scale(0.22 -0.22)">
       <defs>
        <path d="M 11.71875 12.984375 
L 28.328125 12.984375 
L 28.328125 60.109375 
L 11.28125 56.59375 
L 11.28125 69.390625 
L 28.21875 72.90625 
L 46.09375 72.90625 
L 46.09375 12.984375 
L 62.703125 12.984375 
L 62.703125 0 
L 11.71875 0 
z
" id="DejaVuSans-Bold-49"/>
       </defs>
       <use xlink:href="#DejaVuSans-Bold-8722"/>
       <use x="83.789062" xlink:href="#DejaVuSans-Bold-49"/>
      </g>
     </g>
    </g>
    <g id="ytick_5">
     <g id="line2d_11">
      <g>
       <use style="stroke:#000000;stroke-width:0.8;" x="180" xlink:href="#m7d58d6f6d7" y="543.066172"/>
      </g>
     </g>
     <g id="text_12">
      <!-- 0 -->
      <g transform="translate(157.692813 551.424454)scale(0.22 -0.22)">
       <use xlink:href="#DejaVuSans-Bold-48"/>
      </g>
     </g>
    </g>
    <g id="ytick_6">
     <g id="line2d_12">
      <g>
       <use style="stroke:#000000;stroke-width:0.8;" x="180" xlink:href="#m7d58d6f6d7" y="449.610476"/>
      </g>
     </g>
     <g id="text_13">
      <!-- 1 -->
      <g transform="translate(157.692813 457.968758)scale(0.22 -0.22)">
       <use xlink:href="#DejaVuSans-Bold-49"/>
      </g>
     </g>
    </g>
    <g id="ytick_7">
     <g id="line2d_13">
      <g>
       <use style="stroke:#000000;stroke-width:0.8;" x="180" xlink:href="#m7d58d6f6d7" y="356.15478"/>
      </g>
     </g>
     <g id="text_14">
      <!-- 2 -->
      <g transform="translate(157.692813 364.513062)scale(0.22 -0.22)">
       <use xlink:href="#DejaVuSans-Bold-50"/>
      </g>
     </g>
    </g>
    <g id="ytick_8">
     <g id="line2d_14">
      <g>
       <use style="stroke:#000000;stroke-width:0.8;" x="180" xlink:href="#m7d58d6f6d7" y="262.699084"/>
      </g>
     </g>
     <g id="text_15">
      <!-- 3 -->
      <g transform="translate(157.692813 271.057366)scale(0.22 -0.22)">
       <use xlink:href="#DejaVuSans-Bold-51"/>
      </g>
     </g>
    </g>
    <g id="ytick_9">
     <g id="line2d_15">
      <g>
       <use style="stroke:#000000;stroke-width:0.8;" x="180" xlink:href="#m7d58d6f6d7" y="169.243388"/>
      </g>
     </g>
     <g id="text_16">
      <!-- 4 -->
      <g transform="translate(157.692813 177.60167)scale(0.22 -0.22)">
       <use xlink:href="#DejaVuSans-Bold-52"/>
      </g>
     </g>
    </g>
    <g id="text_17">
     <!-- PC3: 10.0% -->
     <g transform="translate(130.682187 600.757969)rotate(-90)scale(0.22 -0.22)">
      <defs>
       <path d="M 40.578125 39.3125 
Q 47.65625 37.796875 51.625 33 
Q 55.609375 28.21875 55.609375 21.1875 
Q 55.609375 10.40625 48.1875 4.484375 
Q 40.765625 -1.421875 27.09375 -1.421875 
Q 22.515625 -1.421875 17.65625 -0.515625 
Q 12.796875 0.390625 7.625 2.203125 
L 7.625 11.71875 
Q 11.71875 9.328125 16.59375 8.109375 
Q 21.484375 6.890625 26.8125 6.890625 
Q 36.078125 6.890625 40.9375 10.546875 
Q 45.796875 14.203125 45.796875 21.1875 
Q 45.796875 27.640625 41.28125 31.265625 
Q 36.765625 34.90625 28.71875 34.90625 
L 20.21875 34.90625 
L 20.21875 43.015625 
L 29.109375 43.015625 
Q 36.375 43.015625 40.234375 45.921875 
Q 44.09375 48.828125 44.09375 54.296875 
Q 44.09375 59.90625 40.109375 62.90625 
Q 36.140625 65.921875 28.71875 65.921875 
Q 24.65625 65.921875 20.015625 65.03125 
Q 15.375 64.15625 9.8125 62.3125 
L 9.8125 71.09375 
Q 15.4375 72.65625 20.34375 73.4375 
Q 25.25 74.21875 29.59375 74.21875 
Q 40.828125 74.21875 47.359375 69.109375 
Q 53.90625 64.015625 53.90625 55.328125 
Q 53.90625 49.265625 50.4375 45.09375 
Q 46.96875 40.921875 40.578125 39.3125 
z
" id="DejaVuSans-51"/>
      </defs>
      <use xlink:href="#DejaVuSans-80"/>
      <use x="60.302734" xlink:href="#DejaVuSans-67"/>
      <use x="130.126953" xlink:href="#DejaVuSans-51"/>
      <use x="193.75" xlink:href="#DejaVuSans-58"/>
      <use x="227.441406" xlink:href="#DejaVuSans-32"/>
      <use x="259.228516" xlink:href="#DejaVuSans-49"/>
      <use x="322.851562" xlink:href="#DejaVuSans-48"/>
      <use x="386.474609" xlink:href="#DejaVuSans-46"/>
      <use x="418.261719" xlink:href="#DejaVuSans-48"/>
      <use x="481.884766" xlink:href="#DejaVuSans-37"/>
     </g>
    </g>
   </g>
   <g id="patch_3">
    <path d="M 180 945 
L 180 129.6 
" style="fill:none;stroke:#000000;stroke-linecap:square;stroke-linejoin:miter;stroke-width:0.8;"/>
   </g>
   <g id="patch_4">
    <path d="M 1296 945 
L 1296 129.6 
" style="fill:none;stroke:#000000;stroke-linecap:square;stroke-linejoin:miter;stroke-width:0.8;"/>
   </g>
   <g id="patch_5">
    <path d="M 180 945 
L 1296 945 
" style="fill:none;stroke:#000000;stroke-linecap:square;stroke-linejoin:miter;stroke-width:0.8;"/>
   </g>
   <g id="patch_6">
    <path d="M 180 129.6 
L 1296 129.6 
" style="fill:none;stroke:#000000;stroke-linecap:square;stroke-linejoin:miter;stroke-width:0.8;"/>
   </g>
   <g id="text_18">
    <!-- PCA, -69 experiments -->
    <g transform="translate(594.95325 123.6)scale(0.264 -0.264)">
     <defs>
      <path d="M 34.1875 63.1875 
L 20.796875 26.90625 
L 47.609375 26.90625 
z
M 28.609375 72.90625 
L 39.796875 72.90625 
L 67.578125 0 
L 57.328125 0 
L 50.6875 18.703125 
L 17.828125 18.703125 
L 11.1875 0 
L 0.78125 0 
z
" id="DejaVuSans-65"/>
      <path d="M 11.71875 12.40625 
L 22.015625 12.40625 
L 22.015625 4 
L 14.015625 -11.625 
L 7.71875 -11.625 
L 11.71875 4 
z
" id="DejaVuSans-44"/>
      <path d="M 4.890625 31.390625 
L 31.203125 31.390625 
L 31.203125 23.390625 
L 4.890625 23.390625 
z
" id="DejaVuSans-45"/>
      <path d="M 33.015625 40.375 
Q 26.375 40.375 22.484375 35.828125 
Q 18.609375 31.296875 18.609375 23.390625 
Q 18.609375 15.53125 22.484375 10.953125 
Q 26.375 6.390625 33.015625 6.390625 
Q 39.65625 6.390625 43.53125 10.953125 
Q 47.40625 15.53125 47.40625 23.390625 
Q 47.40625 31.296875 43.53125 35.828125 
Q 39.65625 40.375 33.015625 40.375 
z
M 52.59375 71.296875 
L 52.59375 62.3125 
Q 48.875 64.0625 45.09375 64.984375 
Q 41.3125 65.921875 37.59375 65.921875 
Q 27.828125 65.921875 22.671875 59.328125 
Q 17.53125 52.734375 16.796875 39.40625 
Q 19.671875 43.65625 24.015625 45.921875 
Q 28.375 48.1875 33.59375 48.1875 
Q 44.578125 48.1875 50.953125 41.515625 
Q 57.328125 34.859375 57.328125 23.390625 
Q 57.328125 12.15625 50.6875 5.359375 
Q 44.046875 -1.421875 33.015625 -1.421875 
Q 20.359375 -1.421875 13.671875 8.265625 
Q 6.984375 17.96875 6.984375 36.375 
Q 6.984375 53.65625 15.1875 63.9375 
Q 23.390625 74.21875 37.203125 74.21875 
Q 40.921875 74.21875 44.703125 73.484375 
Q 48.484375 72.75 52.59375 71.296875 
z
" id="DejaVuSans-54"/>
      <path d="M 10.984375 1.515625 
L 10.984375 10.5 
Q 14.703125 8.734375 18.5 7.8125 
Q 22.3125 6.890625 25.984375 6.890625 
Q 35.75 6.890625 40.890625 13.453125 
Q 46.046875 20.015625 46.78125 33.40625 
Q 43.953125 29.203125 39.59375 26.953125 
Q 35.25 24.703125 29.984375 24.703125 
Q 19.046875 24.703125 12.671875 31.3125 
Q 6.296875 37.9375 6.296875 49.421875 
Q 6.296875 60.640625 12.9375 67.421875 
Q 19.578125 74.21875 30.609375 74.21875 
Q 43.265625 74.21875 49.921875 64.515625 
Q 56.59375 54.828125 56.59375 36.375 
Q 56.59375 19.140625 48.40625 8.859375 
Q 40.234375 -1.421875 26.421875 -1.421875 
Q 22.703125 -1.421875 18.890625 -0.6875 
Q 15.09375 0.046875 10.984375 1.515625 
z
M 30.609375 32.421875 
Q 37.25 32.421875 41.125 36.953125 
Q 45.015625 41.5 45.015625 49.421875 
Q 45.015625 57.28125 41.125 61.84375 
Q 37.25 66.40625 30.609375 66.40625 
Q 23.96875 66.40625 20.09375 61.84375 
Q 16.21875 57.28125 16.21875 49.421875 
Q 16.21875 41.5 20.09375 36.953125 
Q 23.96875 32.421875 30.609375 32.421875 
z
" id="DejaVuSans-57"/>
      <path d="M 56.203125 29.59375 
L 56.203125 25.203125 
L 14.890625 25.203125 
Q 15.484375 15.921875 20.484375 11.0625 
Q 25.484375 6.203125 34.421875 6.203125 
Q 39.59375 6.203125 44.453125 7.46875 
Q 49.3125 8.734375 54.109375 11.28125 
L 54.109375 2.78125 
Q 49.265625 0.734375 44.1875 -0.34375 
Q 39.109375 -1.421875 33.890625 -1.421875 
Q 20.796875 -1.421875 13.15625 6.1875 
Q 5.515625 13.8125 5.515625 26.8125 
Q 5.515625 40.234375 12.765625 48.109375 
Q 20.015625 56 32.328125 56 
Q 43.359375 56 49.78125 48.890625 
Q 56.203125 41.796875 56.203125 29.59375 
z
M 47.21875 32.234375 
Q 47.125 39.59375 43.09375 43.984375 
Q 39.0625 48.390625 32.421875 48.390625 
Q 24.90625 48.390625 20.390625 44.140625 
Q 15.875 39.890625 15.1875 32.171875 
z
" id="DejaVuSans-101"/>
      <path d="M 54.890625 54.6875 
L 35.109375 28.078125 
L 55.90625 0 
L 45.3125 0 
L 29.390625 21.484375 
L 13.484375 0 
L 2.875 0 
L 24.125 28.609375 
L 4.6875 54.6875 
L 15.28125 54.6875 
L 29.78125 35.203125 
L 44.28125 54.6875 
z
" id="DejaVuSans-120"/>
      <path d="M 18.109375 8.203125 
L 18.109375 -20.796875 
L 9.078125 -20.796875 
L 9.078125 54.6875 
L 18.109375 54.6875 
L 18.109375 46.390625 
Q 20.953125 51.265625 25.265625 53.625 
Q 29.59375 56 35.59375 56 
Q 45.5625 56 51.78125 48.09375 
Q 58.015625 40.1875 58.015625 27.296875 
Q 58.015625 14.40625 51.78125 6.484375 
Q 45.5625 -1.421875 35.59375 -1.421875 
Q 29.59375 -1.421875 25.265625 0.953125 
Q 20.953125 3.328125 18.109375 8.203125 
z
M 48.6875 27.296875 
Q 48.6875 37.203125 44.609375 42.84375 
Q 40.53125 48.484375 33.40625 48.484375 
Q 26.265625 48.484375 22.1875 42.84375 
Q 18.109375 37.203125 18.109375 27.296875 
Q 18.109375 17.390625 22.1875 11.75 
Q 26.265625 6.109375 33.40625 6.109375 
Q 40.53125 6.109375 44.609375 11.75 
Q 48.6875 17.390625 48.6875 27.296875 
z
" id="DejaVuSans-112"/>
      <path d="M 41.109375 46.296875 
Q 39.59375 47.171875 37.8125 47.578125 
Q 36.03125 48 33.890625 48 
Q 26.265625 48 22.1875 43.046875 
Q 18.109375 38.09375 18.109375 28.8125 
L 18.109375 0 
L 9.078125 0 
L 9.078125 54.6875 
L 18.109375 54.6875 
L 18.109375 46.1875 
Q 20.953125 51.171875 25.484375 53.578125 
Q 30.03125 56 36.53125 56 
Q 37.453125 56 38.578125 55.875 
Q 39.703125 55.765625 41.0625 55.515625 
z
" id="DejaVuSans-114"/>
      <path d="M 9.421875 54.6875 
L 18.40625 54.6875 
L 18.40625 0 
L 9.421875 0 
z
M 9.421875 75.984375 
L 18.40625 75.984375 
L 18.40625 64.59375 
L 9.421875 64.59375 
z
" id="DejaVuSans-105"/>
      <path d="M 52 44.1875 
Q 55.375 50.25 60.0625 53.125 
Q 64.75 56 71.09375 56 
Q 79.640625 56 84.28125 50.015625 
Q 88.921875 44.046875 88.921875 33.015625 
L 88.921875 0 
L 79.890625 0 
L 79.890625 32.71875 
Q 79.890625 40.578125 77.09375 44.375 
Q 74.3125 48.1875 68.609375 48.1875 
Q 61.625 48.1875 57.5625 43.546875 
Q 53.515625 38.921875 53.515625 30.90625 
L 53.515625 0 
L 44.484375 0 
L 44.484375 32.71875 
Q 44.484375 40.625 41.703125 44.40625 
Q 38.921875 48.1875 33.109375 48.1875 
Q 26.21875 48.1875 22.15625 43.53125 
Q 18.109375 38.875 18.109375 30.90625 
L 18.109375 0 
L 9.078125 0 
L 9.078125 54.6875 
L 18.109375 54.6875 
L 18.109375 46.1875 
Q 21.1875 51.21875 25.484375 53.609375 
Q 29.78125 56 35.6875 56 
Q 41.65625 56 45.828125 52.96875 
Q 50 49.953125 52 44.1875 
z
" id="DejaVuSans-109"/>
      <path d="M 54.890625 33.015625 
L 54.890625 0 
L 45.90625 0 
L 45.90625 32.71875 
Q 45.90625 40.484375 42.875 44.328125 
Q 39.84375 48.1875 33.796875 48.1875 
Q 26.515625 48.1875 22.3125 43.546875 
Q 18.109375 38.921875 18.109375 30.90625 
L 18.109375 0 
L 9.078125 0 
L 9.078125 54.6875 
L 18.109375 54.6875 
L 18.109375 46.1875 
Q 21.34375 51.125 25.703125 53.5625 
Q 30.078125 56 35.796875 56 
Q 45.21875 56 50.046875 50.171875 
Q 54.890625 44.34375 54.890625 33.015625 
z
" id="DejaVuSans-110"/>
      <path d="M 18.3125 70.21875 
L 18.3125 54.6875 
L 36.8125 54.6875 
L 36.8125 47.703125 
L 18.3125 47.703125 
L 18.3125 18.015625 
Q 18.3125 11.328125 20.140625 9.421875 
Q 21.96875 7.515625 27.59375 7.515625 
L 36.8125 7.515625 
L 36.8125 0 
L 27.59375 0 
Q 17.1875 0 13.234375 3.875 
Q 9.28125 7.765625 9.28125 18.015625 
L 9.28125 47.703125 
L 2.6875 47.703125 
L 2.6875 54.6875 
L 9.28125 54.6875 
L 9.28125 70.21875 
z
" id="DejaVuSans-116"/>
      <path d="M 44.28125 53.078125 
L 44.28125 44.578125 
Q 40.484375 46.53125 36.375 47.5 
Q 32.28125 48.484375 27.875 48.484375 
Q 21.1875 48.484375 17.84375 46.4375 
Q 14.5 44.390625 14.5 40.28125 
Q 14.5 37.15625 16.890625 35.375 
Q 19.28125 33.59375 26.515625 31.984375 
L 29.59375 31.296875 
Q 39.15625 29.25 43.1875 25.515625 
Q 47.21875 21.78125 47.21875 15.09375 
Q 47.21875 7.46875 41.1875 3.015625 
Q 35.15625 -1.421875 24.609375 -1.421875 
Q 20.21875 -1.421875 15.453125 -0.5625 
Q 10.6875 0.296875 5.421875 2 
L 5.421875 11.28125 
Q 10.40625 8.6875 15.234375 7.390625 
Q 20.0625 6.109375 24.8125 6.109375 
Q 31.15625 6.109375 34.5625 8.28125 
Q 37.984375 10.453125 37.984375 14.40625 
Q 37.984375 18.0625 35.515625 20.015625 
Q 33.0625 21.96875 24.703125 23.78125 
L 21.578125 24.515625 
Q 13.234375 26.265625 9.515625 29.90625 
Q 5.8125 33.546875 5.8125 39.890625 
Q 5.8125 47.609375 11.28125 51.796875 
Q 16.75 56 26.8125 56 
Q 31.78125 56 36.171875 55.265625 
Q 40.578125 54.546875 44.28125 53.078125 
z
" id="DejaVuSans-115"/>
     </defs>
     <use xlink:href="#DejaVuSans-80"/>
     <use x="60.302734" xlink:href="#DejaVuSans-67"/>
     <use x="130.126953" xlink:href="#DejaVuSans-65"/>
     <use x="198.535156" xlink:href="#DejaVuSans-44"/>
     <use x="230.322266" xlink:href="#DejaVuSans-32"/>
     <use x="262.109375" xlink:href="#DejaVuSans-45"/>
     <use x="298.193359" xlink:href="#DejaVuSans-54"/>
     <use x="361.816406" xlink:href="#DejaVuSans-57"/>
     <use x="425.439453" xlink:href="#DejaVuSans-32"/>
     <use x="457.226562" xlink:href="#DejaVuSans-101"/>
     <use x="517" xlink:href="#DejaVuSans-120"/>
     <use x="576.179688" xlink:href="#DejaVuSans-112"/>
     <use x="639.65625" xlink:href="#DejaVuSans-101"/>
     <use x="701.179688" xlink:href="#DejaVuSans-114"/>
     <use x="742.292969" xlink:href="#DejaVuSans-105"/>
     <use x="770.076172" xlink:href="#DejaVuSans-109"/>
     <use x="867.488281" xlink:href="#DejaVuSans-101"/>
     <use x="929.011719" xlink:href="#DejaVuSans-110"/>
     <use x="992.390625" xlink:href="#DejaVuSans-116"/>
     <use x="1031.599609" xlink:href="#DejaVuSans-115"/>
    </g>
   </g>
   <g id="legend_1">
    <g id="patch_7">
     <path d="M 992.949375 181.491875 
L 1282.6 181.491875 
Q 1287 181.491875 1287 177.091875 
L 1287 147 
Q 1287 142.6 1282.6 142.6 
L 992.949375 142.6 
Q 988.549375 142.6 988.549375 147 
L 988.549375 177.091875 
Q 988.549375 181.491875 992.949375 181.491875 
z
" style="fill:#4c4c4c;opacity:0.5;stroke:#4c4c4c;stroke-linejoin:miter;"/>
    </g>
    <g id="patch_8">
     <path d="M 990.949375 179.491875 
L 1280.6 179.491875 
Q 1285 179.491875 1285 175.091875 
L 1285 145 
Q 1285 140.6 1280.6 140.6 
L 990.949375 140.6 
Q 986.549375 140.6 986.549375 145 
L 986.549375 175.091875 
Q 986.549375 179.491875 990.949375 179.491875 
z
" style="fill:#ffffff;stroke:#cccccc;stroke-linejoin:miter;"/>
    </g>
    <g id="PathCollection_3">
     <g>
      <use style="fill:#008000;fill-opacity:0.7;stroke:#000000;stroke-opacity:0.7;stroke-width:0.5;" x="1017.349375" xlink:href="#m2e134fbda6" y="160.341563"/>
     </g>
    </g>
    <g id="text_19">
     <!-- rep1 -->
     <g transform="translate(1056.949375 166.116563)scale(0.22 -0.22)">
      <defs>
       <path d="M 49.03125 39.796875 
Q 46.734375 40.875 44.453125 41.375 
Q 42.1875 41.890625 39.890625 41.890625 
Q 33.15625 41.890625 29.515625 37.5625 
Q 25.875 33.25 25.875 25.203125 
L 25.875 0 
L 8.40625 0 
L 8.40625 54.6875 
L 25.875 54.6875 
L 25.875 45.703125 
Q 29.25 51.078125 33.609375 53.53125 
Q 37.984375 56 44.09375 56 
Q 44.96875 56 45.984375 55.921875 
Q 47.015625 55.859375 48.96875 55.609375 
z
" id="DejaVuSans-Bold-114"/>
       <path d="M 62.984375 27.484375 
L 62.984375 22.515625 
L 22.125 22.515625 
Q 22.75 16.359375 26.5625 13.28125 
Q 30.375 10.203125 37.203125 10.203125 
Q 42.71875 10.203125 48.5 11.84375 
Q 54.296875 13.484375 60.40625 16.796875 
L 60.40625 3.328125 
Q 54.203125 0.984375 48 -0.21875 
Q 41.796875 -1.421875 35.59375 -1.421875 
Q 20.75 -1.421875 12.515625 6.125 
Q 4.296875 13.671875 4.296875 27.296875 
Q 4.296875 40.671875 12.375 48.328125 
Q 20.453125 56 34.625 56 
Q 47.515625 56 55.25 48.234375 
Q 62.984375 40.484375 62.984375 27.484375 
z
M 45.015625 33.296875 
Q 45.015625 38.28125 42.109375 41.328125 
Q 39.203125 44.390625 34.515625 44.390625 
Q 29.4375 44.390625 26.265625 41.53125 
Q 23.09375 38.671875 22.3125 33.296875 
z
" id="DejaVuSans-Bold-101"/>
       <path d="M 25.875 7.90625 
L 25.875 -20.796875 
L 8.40625 -20.796875 
L 8.40625 54.6875 
L 25.875 54.6875 
L 25.875 46.6875 
Q 29.5 51.46875 33.890625 53.734375 
Q 38.28125 56 44 56 
Q 54.109375 56 60.59375 47.96875 
Q 67.09375 39.9375 67.09375 27.296875 
Q 67.09375 14.65625 60.59375 6.609375 
Q 54.109375 -1.421875 44 -1.421875 
Q 38.28125 -1.421875 33.890625 0.84375 
Q 29.5 3.125 25.875 7.90625 
z
M 37.5 43.3125 
Q 31.890625 43.3125 28.875 39.1875 
Q 25.875 35.0625 25.875 27.296875 
Q 25.875 19.53125 28.875 15.40625 
Q 31.890625 11.28125 37.5 11.28125 
Q 43.109375 11.28125 46.0625 15.375 
Q 49.03125 19.484375 49.03125 27.296875 
Q 49.03125 35.109375 46.0625 39.203125 
Q 43.109375 43.3125 37.5 43.3125 
z
" id="DejaVuSans-Bold-112"/>
      </defs>
      <use xlink:href="#DejaVuSans-Bold-114"/>
      <use x="49.316406" xlink:href="#DejaVuSans-Bold-101"/>
      <use x="117.138672" xlink:href="#DejaVuSans-Bold-112"/>
      <use x="188.720703" xlink:href="#DejaVuSans-Bold-49"/>
     </g>
    </g>
    <g id="PathCollection_4">
     <g>
      <use style="fill:#0000ff;fill-opacity:0.7;stroke:#000000;stroke-opacity:0.7;stroke-width:0.5;" x="1179.774687" xlink:href="#m65f3247ac4" y="160.341563"/>
     </g>
    </g>
    <g id="text_20">
     <!-- rep2 -->
     <g transform="translate(1219.374687 166.116563)scale(0.22 -0.22)">
      <use xlink:href="#DejaVuSans-Bold-114"/>
      <use x="49.316406" xlink:href="#DejaVuSans-Bold-101"/>
      <use x="117.138672" xlink:href="#DejaVuSans-Bold-112"/>
      <use x="188.720703" xlink:href="#DejaVuSans-Bold-50"/>
     </g>
    </g>
   </g>
  </g>
 </g>
 <defs>
  <clipPath id="pacaa5246f5">
   <rect height="815.4" width="1116" x="180" y="129.6"/>
  </clipPath>
 </defs>
</svg>
