<?xml version="1.0" encoding="utf-8" standalone="no"?>
<!DOCTYPE svg PUBLIC "-//W3C//DTD SVG 1.1//EN"
  "http://www.w3.org/Graphics/SVG/1.1/DTD/svg11.dtd">
<!-- Created with matplotlib (https://matplotlib.org/) -->
<svg height="1080pt" version="1.1" viewBox="0 0 1440 1080" width="1440pt" xmlns="http://www.w3.org/2000/svg" xmlns:xlink="http://www.w3.org/1999/xlink">
 <metadata>
  <rdf:RDF xmlns:cc="http://creativecommons.org/ns#" xmlns:dc="http://purl.org/dc/elements/1.1/" xmlns:rdf="http://www.w3.org/1999/02/22-rdf-syntax-ns#">
   <cc:Work>
    <dc:type rdf:resource="http://purl.org/dc/dcmitype/StillImage"/>
    <dc:date>2021-11-25T17:52:09.288899</dc:date>
    <dc:format>image/svg+xml</dc:format>
    <dc:creator>
     <cc:Agent>
      <dc:title>Matplotlib v3.3.4, https://matplotlib.org/</dc:title>
     </cc:Agent>
    </dc:creator>
   </cc:Work>
  </rdf:RDF>
 </metadata>
 <defs>
  <style type="text/css">*{stroke-linecap:butt;stroke-linejoin:round;}</style>
 </defs>
 <g id="figure_1">
  <g id="patch_1">
   <path d="M 0 1080 
L 1440 1080 
L 1440 0 
L 0 0 
z
" style="fill:#ffffff;"/>
  </g>
  <g id="axes_1">
   <g id="patch_2">
    <path d="M 180 945 
L 1296 945 
L 1296 129.6 
L 180 129.6 
z
" style="fill:#ffffff;"/>
   </g>
   <g id="patch_3">
    <path clip-path="url(#pf6e20f97f8)" d="M 230.727273 945 
L 233.667984 945 
L 233.667984 891.647764 
L 230.727273 891.647764 
z
" style="fill:#0000ff;opacity:0.4;"/>
   </g>
   <g id="patch_4">
    <path clip-path="url(#pf6e20f97f8)" d="M 233.667984 945 
L 236.608696 945 
L 236.608696 945 
L 233.667984 945 
z
" style="fill:#0000ff;opacity:0.4;"/>
   </g>
   <g id="patch_5">
    <path clip-path="url(#pf6e20f97f8)" d="M 236.608696 945 
L 239.549407 945 
L 239.549407 945 
L 236.608696 945 
z
" style="fill:#0000ff;opacity:0.4;"/>
   </g>
   <g id="patch_6">
    <path clip-path="url(#pf6e20f97f8)" d="M 239.549407 945 
L 242.490119 945 
L 242.490119 945 
L 239.549407 945 
z
" style="fill:#0000ff;opacity:0.4;"/>
   </g>
   <g id="patch_7">
    <path clip-path="url(#pf6e20f97f8)" d="M 242.490119 945 
L 245.43083 945 
L 245.43083 945 
L 242.490119 945 
z
" style="fill:#0000ff;opacity:0.4;"/>
   </g>
   <g id="patch_8">
    <path clip-path="url(#pf6e20f97f8)" d="M 245.43083 945 
L 248.371542 945 
L 248.371542 945 
L 245.43083 945 
z
" style="fill:#0000ff;opacity:0.4;"/>
   </g>
   <g id="patch_9">
    <path clip-path="url(#pf6e20f97f8)" d="M 248.371542 945 
L 251.312253 945 
L 251.312253 945 
L 248.371542 945 
z
" style="fill:#0000ff;opacity:0.4;"/>
   </g>
   <g id="patch_10">
    <path clip-path="url(#pf6e20f97f8)" d="M 251.312253 945 
L 254.252964 945 
L 254.252964 945 
L 251.312253 945 
z
" style="fill:#0000ff;opacity:0.4;"/>
   </g>
   <g id="patch_11">
    <path clip-path="url(#pf6e20f97f8)" d="M 254.252964 945 
L 257.193676 945 
L 257.193676 945 
L 254.252964 945 
z
" style="fill:#0000ff;opacity:0.4;"/>
   </g>
   <g id="patch_12">
    <path clip-path="url(#pf6e20f97f8)" d="M 257.193676 945 
L 260.134387 945 
L 260.134387 945 
L 257.193676 945 
z
" style="fill:#0000ff;opacity:0.4;"/>
   </g>
   <g id="patch_13">
    <path clip-path="url(#pf6e20f97f8)" d="M 260.134387 945 
L 263.075099 945 
L 263.075099 945 
L 260.134387 945 
z
" style="fill:#0000ff;opacity:0.4;"/>
   </g>
   <g id="patch_14">
    <path clip-path="url(#pf6e20f97f8)" d="M 263.075099 945 
L 266.01581 945 
L 266.01581 945 
L 263.075099 945 
z
" style="fill:#0000ff;opacity:0.4;"/>
   </g>
   <g id="patch_15">
    <path clip-path="url(#pf6e20f97f8)" d="M 266.01581 945 
L 268.956522 945 
L 268.956522 945 
L 266.01581 945 
z
" style="fill:#0000ff;opacity:0.4;"/>
   </g>
   <g id="patch_16">
    <path clip-path="url(#pf6e20f97f8)" d="M 268.956522 945 
L 271.897233 945 
L 271.897233 945 
L 268.956522 945 
z
" style="fill:#0000ff;opacity:0.4;"/>
   </g>
   <g id="patch_17">
    <path clip-path="url(#pf6e20f97f8)" d="M 271.897233 945 
L 274.837945 945 
L 274.837945 945 
L 271.897233 945 
z
" style="fill:#0000ff;opacity:0.4;"/>
   </g>
   <g id="patch_18">
    <path clip-path="url(#pf6e20f97f8)" d="M 274.837945 945 
L 277.778656 945 
L 277.778656 945 
L 274.837945 945 
z
" style="fill:#0000ff;opacity:0.4;"/>
   </g>
   <g id="patch_19">
    <path clip-path="url(#pf6e20f97f8)" d="M 277.778656 945 
L 280.719368 945 
L 280.719368 945 
L 277.778656 945 
z
" style="fill:#0000ff;opacity:0.4;"/>
   </g>
   <g id="patch_20">
    <path clip-path="url(#pf6e20f97f8)" d="M 280.719368 945 
L 283.660079 945 
L 283.660079 945 
L 280.719368 945 
z
" style="fill:#0000ff;opacity:0.4;"/>
   </g>
   <g id="patch_21">
    <path clip-path="url(#pf6e20f97f8)" d="M 283.660079 945 
L 286.600791 945 
L 286.600791 945 
L 283.660079 945 
z
" style="fill:#0000ff;opacity:0.4;"/>
   </g>
   <g id="patch_22">
    <path clip-path="url(#pf6e20f97f8)" d="M 286.600791 945 
L 289.541502 945 
L 289.541502 945 
L 286.600791 945 
z
" style="fill:#0000ff;opacity:0.4;"/>
   </g>
   <g id="patch_23">
    <path clip-path="url(#pf6e20f97f8)" d="M 289.541502 945 
L 292.482213 945 
L 292.482213 945 
L 289.541502 945 
z
" style="fill:#0000ff;opacity:0.4;"/>
   </g>
   <g id="patch_24">
    <path clip-path="url(#pf6e20f97f8)" d="M 292.482213 945 
L 295.422925 945 
L 295.422925 945 
L 292.482213 945 
z
" style="fill:#0000ff;opacity:0.4;"/>
   </g>
   <g id="patch_25">
    <path clip-path="url(#pf6e20f97f8)" d="M 295.422925 945 
L 298.363636 945 
L 298.363636 945 
L 295.422925 945 
z
" style="fill:#0000ff;opacity:0.4;"/>
   </g>
   <g id="patch_26">
    <path clip-path="url(#pf6e20f97f8)" d="M 298.363636 945 
L 301.304348 945 
L 301.304348 945 
L 298.363636 945 
z
" style="fill:#0000ff;opacity:0.4;"/>
   </g>
   <g id="patch_27">
    <path clip-path="url(#pf6e20f97f8)" d="M 301.304348 945 
L 304.245059 945 
L 304.245059 945 
L 301.304348 945 
z
" style="fill:#0000ff;opacity:0.4;"/>
   </g>
   <g id="patch_28">
    <path clip-path="url(#pf6e20f97f8)" d="M 304.245059 945 
L 307.185771 945 
L 307.185771 945 
L 304.245059 945 
z
" style="fill:#0000ff;opacity:0.4;"/>
   </g>
   <g id="patch_29">
    <path clip-path="url(#pf6e20f97f8)" d="M 307.185771 945 
L 310.126482 945 
L 310.126482 945 
L 307.185771 945 
z
" style="fill:#0000ff;opacity:0.4;"/>
   </g>
   <g id="patch_30">
    <path clip-path="url(#pf6e20f97f8)" d="M 310.126482 945 
L 313.067194 945 
L 313.067194 945 
L 310.126482 945 
z
" style="fill:#0000ff;opacity:0.4;"/>
   </g>
   <g id="patch_31">
    <path clip-path="url(#pf6e20f97f8)" d="M 313.067194 945 
L 316.007905 945 
L 316.007905 945 
L 313.067194 945 
z
" style="fill:#0000ff;opacity:0.4;"/>
   </g>
   <g id="patch_32">
    <path clip-path="url(#pf6e20f97f8)" d="M 316.007905 945 
L 318.948617 945 
L 318.948617 945 
L 316.007905 945 
z
" style="fill:#0000ff;opacity:0.4;"/>
   </g>
   <g id="patch_33">
    <path clip-path="url(#pf6e20f97f8)" d="M 318.948617 945 
L 321.889328 945 
L 321.889328 945 
L 318.948617 945 
z
" style="fill:#0000ff;opacity:0.4;"/>
   </g>
   <g id="patch_34">
    <path clip-path="url(#pf6e20f97f8)" d="M 321.889328 945 
L 324.83004 945 
L 324.83004 945 
L 321.889328 945 
z
" style="fill:#0000ff;opacity:0.4;"/>
   </g>
   <g id="patch_35">
    <path clip-path="url(#pf6e20f97f8)" d="M 324.83004 945 
L 327.770751 945 
L 327.770751 945 
L 324.83004 945 
z
" style="fill:#0000ff;opacity:0.4;"/>
   </g>
   <g id="patch_36">
    <path clip-path="url(#pf6e20f97f8)" d="M 327.770751 945 
L 330.711462 945 
L 330.711462 945 
L 327.770751 945 
z
" style="fill:#0000ff;opacity:0.4;"/>
   </g>
   <g id="patch_37">
    <path clip-path="url(#pf6e20f97f8)" d="M 330.711462 945 
L 333.652174 945 
L 333.652174 945 
L 330.711462 945 
z
" style="fill:#0000ff;opacity:0.4;"/>
   </g>
   <g id="patch_38">
    <path clip-path="url(#pf6e20f97f8)" d="M 333.652174 945 
L 336.592885 945 
L 336.592885 945 
L 333.652174 945 
z
" style="fill:#0000ff;opacity:0.4;"/>
   </g>
   <g id="patch_39">
    <path clip-path="url(#pf6e20f97f8)" d="M 336.592885 945 
L 339.533597 945 
L 339.533597 945 
L 336.592885 945 
z
" style="fill:#0000ff;opacity:0.4;"/>
   </g>
   <g id="patch_40">
    <path clip-path="url(#pf6e20f97f8)" d="M 339.533597 945 
L 342.474308 945 
L 342.474308 945 
L 339.533597 945 
z
" style="fill:#0000ff;opacity:0.4;"/>
   </g>
   <g id="patch_41">
    <path clip-path="url(#pf6e20f97f8)" d="M 342.474308 945 
L 345.41502 945 
L 345.41502 945 
L 342.474308 945 
z
" style="fill:#0000ff;opacity:0.4;"/>
   </g>
   <g id="patch_42">
    <path clip-path="url(#pf6e20f97f8)" d="M 345.41502 945 
L 348.355731 945 
L 348.355731 945 
L 345.41502 945 
z
" style="fill:#0000ff;opacity:0.4;"/>
   </g>
   <g id="patch_43">
    <path clip-path="url(#pf6e20f97f8)" d="M 348.355731 945 
L 351.296443 945 
L 351.296443 945 
L 348.355731 945 
z
" style="fill:#0000ff;opacity:0.4;"/>
   </g>
   <g id="patch_44">
    <path clip-path="url(#pf6e20f97f8)" d="M 351.296443 945 
L 354.237154 945 
L 354.237154 945 
L 351.296443 945 
z
" style="fill:#0000ff;opacity:0.4;"/>
   </g>
   <g id="patch_45">
    <path clip-path="url(#pf6e20f97f8)" d="M 354.237154 945 
L 357.177866 945 
L 357.177866 945 
L 354.237154 945 
z
" style="fill:#0000ff;opacity:0.4;"/>
   </g>
   <g id="patch_46">
    <path clip-path="url(#pf6e20f97f8)" d="M 357.177866 945 
L 360.118577 945 
L 360.118577 945 
L 357.177866 945 
z
" style="fill:#0000ff;opacity:0.4;"/>
   </g>
   <g id="patch_47">
    <path clip-path="url(#pf6e20f97f8)" d="M 360.118577 945 
L 363.059289 945 
L 363.059289 945 
L 360.118577 945 
z
" style="fill:#0000ff;opacity:0.4;"/>
   </g>
   <g id="patch_48">
    <path clip-path="url(#pf6e20f97f8)" d="M 363.059289 945 
L 366 945 
L 366 945 
L 363.059289 945 
z
" style="fill:#0000ff;opacity:0.4;"/>
   </g>
   <g id="patch_49">
    <path clip-path="url(#pf6e20f97f8)" d="M 366 945 
L 368.940711 945 
L 368.940711 945 
L 366 945 
z
" style="fill:#0000ff;opacity:0.4;"/>
   </g>
   <g id="patch_50">
    <path clip-path="url(#pf6e20f97f8)" d="M 368.940711 945 
L 371.881423 945 
L 371.881423 945 
L 368.940711 945 
z
" style="fill:#0000ff;opacity:0.4;"/>
   </g>
   <g id="patch_51">
    <path clip-path="url(#pf6e20f97f8)" d="M 371.881423 945 
L 374.822134 945 
L 374.822134 945 
L 371.881423 945 
z
" style="fill:#0000ff;opacity:0.4;"/>
   </g>
   <g id="patch_52">
    <path clip-path="url(#pf6e20f97f8)" d="M 374.822134 945 
L 377.762846 945 
L 377.762846 945 
L 374.822134 945 
z
" style="fill:#0000ff;opacity:0.4;"/>
   </g>
   <g id="patch_53">
    <path clip-path="url(#pf6e20f97f8)" d="M 377.762846 945 
L 380.703557 945 
L 380.703557 945 
L 377.762846 945 
z
" style="fill:#0000ff;opacity:0.4;"/>
   </g>
   <g id="patch_54">
    <path clip-path="url(#pf6e20f97f8)" d="M 380.703557 945 
L 383.644269 945 
L 383.644269 945 
L 380.703557 945 
z
" style="fill:#0000ff;opacity:0.4;"/>
   </g>
   <g id="patch_55">
    <path clip-path="url(#pf6e20f97f8)" d="M 383.644269 945 
L 386.58498 945 
L 386.58498 945 
L 383.644269 945 
z
" style="fill:#0000ff;opacity:0.4;"/>
   </g>
   <g id="patch_56">
    <path clip-path="url(#pf6e20f97f8)" d="M 386.58498 945 
L 389.525692 945 
L 389.525692 945 
L 386.58498 945 
z
" style="fill:#0000ff;opacity:0.4;"/>
   </g>
   <g id="patch_57">
    <path clip-path="url(#pf6e20f97f8)" d="M 389.525692 945 
L 392.466403 945 
L 392.466403 945 
L 389.525692 945 
z
" style="fill:#0000ff;opacity:0.4;"/>
   </g>
   <g id="patch_58">
    <path clip-path="url(#pf6e20f97f8)" d="M 392.466403 945 
L 395.407115 945 
L 395.407115 945 
L 392.466403 945 
z
" style="fill:#0000ff;opacity:0.4;"/>
   </g>
   <g id="patch_59">
    <path clip-path="url(#pf6e20f97f8)" d="M 395.407115 945 
L 398.347826 945 
L 398.347826 945 
L 395.407115 945 
z
" style="fill:#0000ff;opacity:0.4;"/>
   </g>
   <g id="patch_60">
    <path clip-path="url(#pf6e20f97f8)" d="M 398.347826 945 
L 401.288538 945 
L 401.288538 945 
L 398.347826 945 
z
" style="fill:#0000ff;opacity:0.4;"/>
   </g>
   <g id="patch_61">
    <path clip-path="url(#pf6e20f97f8)" d="M 401.288538 945 
L 404.229249 945 
L 404.229249 945 
L 401.288538 945 
z
" style="fill:#0000ff;opacity:0.4;"/>
   </g>
   <g id="patch_62">
    <path clip-path="url(#pf6e20f97f8)" d="M 404.229249 945 
L 407.16996 945 
L 407.16996 945 
L 404.229249 945 
z
" style="fill:#0000ff;opacity:0.4;"/>
   </g>
   <g id="patch_63">
    <path clip-path="url(#pf6e20f97f8)" d="M 407.16996 945 
L 410.110672 945 
L 410.110672 945 
L 407.16996 945 
z
" style="fill:#0000ff;opacity:0.4;"/>
   </g>
   <g id="patch_64">
    <path clip-path="url(#pf6e20f97f8)" d="M 410.110672 945 
L 413.051383 945 
L 413.051383 945 
L 410.110672 945 
z
" style="fill:#0000ff;opacity:0.4;"/>
   </g>
   <g id="patch_65">
    <path clip-path="url(#pf6e20f97f8)" d="M 413.051383 945 
L 415.992095 945 
L 415.992095 945 
L 413.051383 945 
z
" style="fill:#0000ff;opacity:0.4;"/>
   </g>
   <g id="patch_66">
    <path clip-path="url(#pf6e20f97f8)" d="M 415.992095 945 
L 418.932806 945 
L 418.932806 945 
L 415.992095 945 
z
" style="fill:#0000ff;opacity:0.4;"/>
   </g>
   <g id="patch_67">
    <path clip-path="url(#pf6e20f97f8)" d="M 418.932806 945 
L 421.873518 945 
L 421.873518 945 
L 418.932806 945 
z
" style="fill:#0000ff;opacity:0.4;"/>
   </g>
   <g id="patch_68">
    <path clip-path="url(#pf6e20f97f8)" d="M 421.873518 945 
L 424.814229 945 
L 424.814229 945 
L 421.873518 945 
z
" style="fill:#0000ff;opacity:0.4;"/>
   </g>
   <g id="patch_69">
    <path clip-path="url(#pf6e20f97f8)" d="M 424.814229 945 
L 427.754941 945 
L 427.754941 945 
L 424.814229 945 
z
" style="fill:#0000ff;opacity:0.4;"/>
   </g>
   <g id="patch_70">
    <path clip-path="url(#pf6e20f97f8)" d="M 427.754941 945 
L 430.695652 945 
L 430.695652 945 
L 427.754941 945 
z
" style="fill:#0000ff;opacity:0.4;"/>
   </g>
   <g id="patch_71">
    <path clip-path="url(#pf6e20f97f8)" d="M 430.695652 945 
L 433.636364 945 
L 433.636364 945 
L 430.695652 945 
z
" style="fill:#0000ff;opacity:0.4;"/>
   </g>
   <g id="patch_72">
    <path clip-path="url(#pf6e20f97f8)" d="M 433.636364 945 
L 436.577075 945 
L 436.577075 945 
L 433.636364 945 
z
" style="fill:#0000ff;opacity:0.4;"/>
   </g>
   <g id="patch_73">
    <path clip-path="url(#pf6e20f97f8)" d="M 436.577075 945 
L 439.517787 945 
L 439.517787 945 
L 436.577075 945 
z
" style="fill:#0000ff;opacity:0.4;"/>
   </g>
   <g id="patch_74">
    <path clip-path="url(#pf6e20f97f8)" d="M 439.517787 945 
L 442.458498 945 
L 442.458498 945 
L 439.517787 945 
z
" style="fill:#0000ff;opacity:0.4;"/>
   </g>
   <g id="patch_75">
    <path clip-path="url(#pf6e20f97f8)" d="M 442.458498 945 
L 445.399209 945 
L 445.399209 945 
L 442.458498 945 
z
" style="fill:#0000ff;opacity:0.4;"/>
   </g>
   <g id="patch_76">
    <path clip-path="url(#pf6e20f97f8)" d="M 445.399209 945 
L 448.339921 945 
L 448.339921 945 
L 445.399209 945 
z
" style="fill:#0000ff;opacity:0.4;"/>
   </g>
   <g id="patch_77">
    <path clip-path="url(#pf6e20f97f8)" d="M 448.339921 945 
L 451.280632 945 
L 451.280632 945 
L 448.339921 945 
z
" style="fill:#0000ff;opacity:0.4;"/>
   </g>
   <g id="patch_78">
    <path clip-path="url(#pf6e20f97f8)" d="M 451.280632 945 
L 454.221344 945 
L 454.221344 945 
L 451.280632 945 
z
" style="fill:#0000ff;opacity:0.4;"/>
   </g>
   <g id="patch_79">
    <path clip-path="url(#pf6e20f97f8)" d="M 454.221344 945 
L 457.162055 945 
L 457.162055 945 
L 454.221344 945 
z
" style="fill:#0000ff;opacity:0.4;"/>
   </g>
   <g id="patch_80">
    <path clip-path="url(#pf6e20f97f8)" d="M 457.162055 945 
L 460.102767 945 
L 460.102767 945 
L 457.162055 945 
z
" style="fill:#0000ff;opacity:0.4;"/>
   </g>
   <g id="patch_81">
    <path clip-path="url(#pf6e20f97f8)" d="M 460.102767 945 
L 463.043478 945 
L 463.043478 945 
L 460.102767 945 
z
" style="fill:#0000ff;opacity:0.4;"/>
   </g>
   <g id="patch_82">
    <path clip-path="url(#pf6e20f97f8)" d="M 463.043478 945 
L 465.98419 945 
L 465.98419 945 
L 463.043478 945 
z
" style="fill:#0000ff;opacity:0.4;"/>
   </g>
   <g id="patch_83">
    <path clip-path="url(#pf6e20f97f8)" d="M 465.98419 945 
L 468.924901 945 
L 468.924901 945 
L 465.98419 945 
z
" style="fill:#0000ff;opacity:0.4;"/>
   </g>
   <g id="patch_84">
    <path clip-path="url(#pf6e20f97f8)" d="M 468.924901 945 
L 471.865613 945 
L 471.865613 945 
L 468.924901 945 
z
" style="fill:#0000ff;opacity:0.4;"/>
   </g>
   <g id="patch_85">
    <path clip-path="url(#pf6e20f97f8)" d="M 471.865613 945 
L 474.806324 945 
L 474.806324 945 
L 471.865613 945 
z
" style="fill:#0000ff;opacity:0.4;"/>
   </g>
   <g id="patch_86">
    <path clip-path="url(#pf6e20f97f8)" d="M 474.806324 945 
L 477.747036 945 
L 477.747036 945 
L 474.806324 945 
z
" style="fill:#0000ff;opacity:0.4;"/>
   </g>
   <g id="patch_87">
    <path clip-path="url(#pf6e20f97f8)" d="M 477.747036 945 
L 480.687747 945 
L 480.687747 945 
L 477.747036 945 
z
" style="fill:#0000ff;opacity:0.4;"/>
   </g>
   <g id="patch_88">
    <path clip-path="url(#pf6e20f97f8)" d="M 480.687747 945 
L 483.628458 945 
L 483.628458 945 
L 480.687747 945 
z
" style="fill:#0000ff;opacity:0.4;"/>
   </g>
   <g id="patch_89">
    <path clip-path="url(#pf6e20f97f8)" d="M 483.628458 945 
L 486.56917 945 
L 486.56917 945 
L 483.628458 945 
z
" style="fill:#0000ff;opacity:0.4;"/>
   </g>
   <g id="patch_90">
    <path clip-path="url(#pf6e20f97f8)" d="M 486.56917 945 
L 489.509881 945 
L 489.509881 945 
L 486.56917 945 
z
" style="fill:#0000ff;opacity:0.4;"/>
   </g>
   <g id="patch_91">
    <path clip-path="url(#pf6e20f97f8)" d="M 489.509881 945 
L 492.450593 945 
L 492.450593 945 
L 489.509881 945 
z
" style="fill:#0000ff;opacity:0.4;"/>
   </g>
   <g id="patch_92">
    <path clip-path="url(#pf6e20f97f8)" d="M 492.450593 945 
L 495.391304 945 
L 495.391304 945 
L 492.450593 945 
z
" style="fill:#0000ff;opacity:0.4;"/>
   </g>
   <g id="patch_93">
    <path clip-path="url(#pf6e20f97f8)" d="M 495.391304 945 
L 498.332016 945 
L 498.332016 945 
L 495.391304 945 
z
" style="fill:#0000ff;opacity:0.4;"/>
   </g>
   <g id="patch_94">
    <path clip-path="url(#pf6e20f97f8)" d="M 498.332016 945 
L 501.272727 945 
L 501.272727 945 
L 498.332016 945 
z
" style="fill:#0000ff;opacity:0.4;"/>
   </g>
   <g id="patch_95">
    <path clip-path="url(#pf6e20f97f8)" d="M 501.272727 945 
L 504.213439 945 
L 504.213439 945 
L 501.272727 945 
z
" style="fill:#0000ff;opacity:0.4;"/>
   </g>
   <g id="patch_96">
    <path clip-path="url(#pf6e20f97f8)" d="M 504.213439 945 
L 507.15415 945 
L 507.15415 945 
L 504.213439 945 
z
" style="fill:#0000ff;opacity:0.4;"/>
   </g>
   <g id="patch_97">
    <path clip-path="url(#pf6e20f97f8)" d="M 507.15415 945 
L 510.094862 945 
L 510.094862 945 
L 507.15415 945 
z
" style="fill:#0000ff;opacity:0.4;"/>
   </g>
   <g id="patch_98">
    <path clip-path="url(#pf6e20f97f8)" d="M 510.094862 945 
L 513.035573 945 
L 513.035573 945 
L 510.094862 945 
z
" style="fill:#0000ff;opacity:0.4;"/>
   </g>
   <g id="patch_99">
    <path clip-path="url(#pf6e20f97f8)" d="M 513.035573 945 
L 515.976285 945 
L 515.976285 945 
L 513.035573 945 
z
" style="fill:#0000ff;opacity:0.4;"/>
   </g>
   <g id="patch_100">
    <path clip-path="url(#pf6e20f97f8)" d="M 515.976285 945 
L 518.916996 945 
L 518.916996 945 
L 515.976285 945 
z
" style="fill:#0000ff;opacity:0.4;"/>
   </g>
   <g id="patch_101">
    <path clip-path="url(#pf6e20f97f8)" d="M 518.916996 945 
L 521.857708 945 
L 521.857708 945 
L 518.916996 945 
z
" style="fill:#0000ff;opacity:0.4;"/>
   </g>
   <g id="patch_102">
    <path clip-path="url(#pf6e20f97f8)" d="M 521.857708 945 
L 524.798419 945 
L 524.798419 945 
L 521.857708 945 
z
" style="fill:#0000ff;opacity:0.4;"/>
   </g>
   <g id="patch_103">
    <path clip-path="url(#pf6e20f97f8)" d="M 524.798419 945 
L 527.73913 945 
L 527.73913 945 
L 524.798419 945 
z
" style="fill:#0000ff;opacity:0.4;"/>
   </g>
   <g id="patch_104">
    <path clip-path="url(#pf6e20f97f8)" d="M 527.73913 945 
L 530.679842 945 
L 530.679842 945 
L 527.73913 945 
z
" style="fill:#0000ff;opacity:0.4;"/>
   </g>
   <g id="patch_105">
    <path clip-path="url(#pf6e20f97f8)" d="M 530.679842 945 
L 533.620553 945 
L 533.620553 945 
L 530.679842 945 
z
" style="fill:#0000ff;opacity:0.4;"/>
   </g>
   <g id="patch_106">
    <path clip-path="url(#pf6e20f97f8)" d="M 533.620553 945 
L 536.561265 945 
L 536.561265 945 
L 533.620553 945 
z
" style="fill:#0000ff;opacity:0.4;"/>
   </g>
   <g id="patch_107">
    <path clip-path="url(#pf6e20f97f8)" d="M 536.561265 945 
L 539.501976 945 
L 539.501976 945 
L 536.561265 945 
z
" style="fill:#0000ff;opacity:0.4;"/>
   </g>
   <g id="patch_108">
    <path clip-path="url(#pf6e20f97f8)" d="M 539.501976 945 
L 542.442688 945 
L 542.442688 945 
L 539.501976 945 
z
" style="fill:#0000ff;opacity:0.4;"/>
   </g>
   <g id="patch_109">
    <path clip-path="url(#pf6e20f97f8)" d="M 542.442688 945 
L 545.383399 945 
L 545.383399 945 
L 542.442688 945 
z
" style="fill:#0000ff;opacity:0.4;"/>
   </g>
   <g id="patch_110">
    <path clip-path="url(#pf6e20f97f8)" d="M 545.383399 945 
L 548.324111 945 
L 548.324111 945 
L 545.383399 945 
z
" style="fill:#0000ff;opacity:0.4;"/>
   </g>
   <g id="patch_111">
    <path clip-path="url(#pf6e20f97f8)" d="M 548.324111 945 
L 551.264822 945 
L 551.264822 945 
L 548.324111 945 
z
" style="fill:#0000ff;opacity:0.4;"/>
   </g>
   <g id="patch_112">
    <path clip-path="url(#pf6e20f97f8)" d="M 551.264822 945 
L 554.205534 945 
L 554.205534 945 
L 551.264822 945 
z
" style="fill:#0000ff;opacity:0.4;"/>
   </g>
   <g id="patch_113">
    <path clip-path="url(#pf6e20f97f8)" d="M 554.205534 945 
L 557.146245 945 
L 557.146245 945 
L 554.205534 945 
z
" style="fill:#0000ff;opacity:0.4;"/>
   </g>
   <g id="patch_114">
    <path clip-path="url(#pf6e20f97f8)" d="M 557.146245 945 
L 560.086957 945 
L 560.086957 945 
L 557.146245 945 
z
" style="fill:#0000ff;opacity:0.4;"/>
   </g>
   <g id="patch_115">
    <path clip-path="url(#pf6e20f97f8)" d="M 560.086957 945 
L 563.027668 945 
L 563.027668 945 
L 560.086957 945 
z
" style="fill:#0000ff;opacity:0.4;"/>
   </g>
   <g id="patch_116">
    <path clip-path="url(#pf6e20f97f8)" d="M 563.027668 945 
L 565.968379 945 
L 565.968379 945 
L 563.027668 945 
z
" style="fill:#0000ff;opacity:0.4;"/>
   </g>
   <g id="patch_117">
    <path clip-path="url(#pf6e20f97f8)" d="M 565.968379 945 
L 568.909091 945 
L 568.909091 945 
L 565.968379 945 
z
" style="fill:#0000ff;opacity:0.4;"/>
   </g>
   <g id="patch_118">
    <path clip-path="url(#pf6e20f97f8)" d="M 568.909091 945 
L 571.849802 945 
L 571.849802 945 
L 568.909091 945 
z
" style="fill:#0000ff;opacity:0.4;"/>
   </g>
   <g id="patch_119">
    <path clip-path="url(#pf6e20f97f8)" d="M 571.849802 945 
L 574.790514 945 
L 574.790514 945 
L 571.849802 945 
z
" style="fill:#0000ff;opacity:0.4;"/>
   </g>
   <g id="patch_120">
    <path clip-path="url(#pf6e20f97f8)" d="M 574.790514 945 
L 577.731225 945 
L 577.731225 945 
L 574.790514 945 
z
" style="fill:#0000ff;opacity:0.4;"/>
   </g>
   <g id="patch_121">
    <path clip-path="url(#pf6e20f97f8)" d="M 577.731225 945 
L 580.671937 945 
L 580.671937 945 
L 577.731225 945 
z
" style="fill:#0000ff;opacity:0.4;"/>
   </g>
   <g id="patch_122">
    <path clip-path="url(#pf6e20f97f8)" d="M 580.671937 945 
L 583.612648 945 
L 583.612648 945 
L 580.671937 945 
z
" style="fill:#0000ff;opacity:0.4;"/>
   </g>
   <g id="patch_123">
    <path clip-path="url(#pf6e20f97f8)" d="M 583.612648 945 
L 586.55336 945 
L 586.55336 945 
L 583.612648 945 
z
" style="fill:#0000ff;opacity:0.4;"/>
   </g>
   <g id="patch_124">
    <path clip-path="url(#pf6e20f97f8)" d="M 586.55336 945 
L 589.494071 945 
L 589.494071 945 
L 586.55336 945 
z
" style="fill:#0000ff;opacity:0.4;"/>
   </g>
   <g id="patch_125">
    <path clip-path="url(#pf6e20f97f8)" d="M 589.494071 945 
L 592.434783 945 
L 592.434783 945 
L 589.494071 945 
z
" style="fill:#0000ff;opacity:0.4;"/>
   </g>
   <g id="patch_126">
    <path clip-path="url(#pf6e20f97f8)" d="M 592.434783 945 
L 595.375494 945 
L 595.375494 945 
L 592.434783 945 
z
" style="fill:#0000ff;opacity:0.4;"/>
   </g>
   <g id="patch_127">
    <path clip-path="url(#pf6e20f97f8)" d="M 595.375494 945 
L 598.316206 945 
L 598.316206 945 
L 595.375494 945 
z
" style="fill:#0000ff;opacity:0.4;"/>
   </g>
   <g id="patch_128">
    <path clip-path="url(#pf6e20f97f8)" d="M 598.316206 945 
L 601.256917 945 
L 601.256917 945 
L 598.316206 945 
z
" style="fill:#0000ff;opacity:0.4;"/>
   </g>
   <g id="patch_129">
    <path clip-path="url(#pf6e20f97f8)" d="M 601.256917 945 
L 604.197628 945 
L 604.197628 945 
L 601.256917 945 
z
" style="fill:#0000ff;opacity:0.4;"/>
   </g>
   <g id="patch_130">
    <path clip-path="url(#pf6e20f97f8)" d="M 604.197628 945 
L 607.13834 945 
L 607.13834 945 
L 604.197628 945 
z
" style="fill:#0000ff;opacity:0.4;"/>
   </g>
   <g id="patch_131">
    <path clip-path="url(#pf6e20f97f8)" d="M 607.13834 945 
L 610.079051 945 
L 610.079051 945 
L 607.13834 945 
z
" style="fill:#0000ff;opacity:0.4;"/>
   </g>
   <g id="patch_132">
    <path clip-path="url(#pf6e20f97f8)" d="M 610.079051 945 
L 613.019763 945 
L 613.019763 945 
L 610.079051 945 
z
" style="fill:#0000ff;opacity:0.4;"/>
   </g>
   <g id="patch_133">
    <path clip-path="url(#pf6e20f97f8)" d="M 613.019763 945 
L 615.960474 945 
L 615.960474 945 
L 613.019763 945 
z
" style="fill:#0000ff;opacity:0.4;"/>
   </g>
   <g id="patch_134">
    <path clip-path="url(#pf6e20f97f8)" d="M 615.960474 945 
L 618.901186 945 
L 618.901186 945 
L 615.960474 945 
z
" style="fill:#0000ff;opacity:0.4;"/>
   </g>
   <g id="patch_135">
    <path clip-path="url(#pf6e20f97f8)" d="M 618.901186 945 
L 621.841897 945 
L 621.841897 945 
L 618.901186 945 
z
" style="fill:#0000ff;opacity:0.4;"/>
   </g>
   <g id="patch_136">
    <path clip-path="url(#pf6e20f97f8)" d="M 621.841897 945 
L 624.782609 945 
L 624.782609 945 
L 621.841897 945 
z
" style="fill:#0000ff;opacity:0.4;"/>
   </g>
   <g id="patch_137">
    <path clip-path="url(#pf6e20f97f8)" d="M 624.782609 945 
L 627.72332 945 
L 627.72332 945 
L 624.782609 945 
z
" style="fill:#0000ff;opacity:0.4;"/>
   </g>
   <g id="patch_138">
    <path clip-path="url(#pf6e20f97f8)" d="M 627.72332 945 
L 630.664032 945 
L 630.664032 945 
L 627.72332 945 
z
" style="fill:#0000ff;opacity:0.4;"/>
   </g>
   <g id="patch_139">
    <path clip-path="url(#pf6e20f97f8)" d="M 630.664032 945 
L 633.604743 945 
L 633.604743 945 
L 630.664032 945 
z
" style="fill:#0000ff;opacity:0.4;"/>
   </g>
   <g id="patch_140">
    <path clip-path="url(#pf6e20f97f8)" d="M 633.604743 945 
L 636.545455 945 
L 636.545455 945 
L 633.604743 945 
z
" style="fill:#0000ff;opacity:0.4;"/>
   </g>
   <g id="patch_141">
    <path clip-path="url(#pf6e20f97f8)" d="M 636.545455 945 
L 639.486166 945 
L 639.486166 945 
L 636.545455 945 
z
" style="fill:#0000ff;opacity:0.4;"/>
   </g>
   <g id="patch_142">
    <path clip-path="url(#pf6e20f97f8)" d="M 639.486166 945 
L 642.426877 945 
L 642.426877 945 
L 639.486166 945 
z
" style="fill:#0000ff;opacity:0.4;"/>
   </g>
   <g id="patch_143">
    <path clip-path="url(#pf6e20f97f8)" d="M 642.426877 945 
L 645.367589 945 
L 645.367589 945 
L 642.426877 945 
z
" style="fill:#0000ff;opacity:0.4;"/>
   </g>
   <g id="patch_144">
    <path clip-path="url(#pf6e20f97f8)" d="M 645.367589 945 
L 648.3083 945 
L 648.3083 945 
L 645.367589 945 
z
" style="fill:#0000ff;opacity:0.4;"/>
   </g>
   <g id="patch_145">
    <path clip-path="url(#pf6e20f97f8)" d="M 648.3083 945 
L 651.249012 945 
L 651.249012 945 
L 648.3083 945 
z
" style="fill:#0000ff;opacity:0.4;"/>
   </g>
   <g id="patch_146">
    <path clip-path="url(#pf6e20f97f8)" d="M 651.249012 945 
L 654.189723 945 
L 654.189723 945 
L 651.249012 945 
z
" style="fill:#0000ff;opacity:0.4;"/>
   </g>
   <g id="patch_147">
    <path clip-path="url(#pf6e20f97f8)" d="M 654.189723 945 
L 657.130435 945 
L 657.130435 945 
L 654.189723 945 
z
" style="fill:#0000ff;opacity:0.4;"/>
   </g>
   <g id="patch_148">
    <path clip-path="url(#pf6e20f97f8)" d="M 657.130435 945 
L 660.071146 945 
L 660.071146 945 
L 657.130435 945 
z
" style="fill:#0000ff;opacity:0.4;"/>
   </g>
   <g id="patch_149">
    <path clip-path="url(#pf6e20f97f8)" d="M 660.071146 945 
L 663.011858 945 
L 663.011858 945 
L 660.071146 945 
z
" style="fill:#0000ff;opacity:0.4;"/>
   </g>
   <g id="patch_150">
    <path clip-path="url(#pf6e20f97f8)" d="M 663.011858 945 
L 665.952569 945 
L 665.952569 945 
L 663.011858 945 
z
" style="fill:#0000ff;opacity:0.4;"/>
   </g>
   <g id="patch_151">
    <path clip-path="url(#pf6e20f97f8)" d="M 665.952569 945 
L 668.893281 945 
L 668.893281 945 
L 665.952569 945 
z
" style="fill:#0000ff;opacity:0.4;"/>
   </g>
   <g id="patch_152">
    <path clip-path="url(#pf6e20f97f8)" d="M 668.893281 945 
L 671.833992 945 
L 671.833992 945 
L 668.893281 945 
z
" style="fill:#0000ff;opacity:0.4;"/>
   </g>
   <g id="patch_153">
    <path clip-path="url(#pf6e20f97f8)" d="M 671.833992 945 
L 674.774704 945 
L 674.774704 945 
L 671.833992 945 
z
" style="fill:#0000ff;opacity:0.4;"/>
   </g>
   <g id="patch_154">
    <path clip-path="url(#pf6e20f97f8)" d="M 674.774704 945 
L 677.715415 945 
L 677.715415 945 
L 674.774704 945 
z
" style="fill:#0000ff;opacity:0.4;"/>
   </g>
   <g id="patch_155">
    <path clip-path="url(#pf6e20f97f8)" d="M 677.715415 945 
L 680.656126 945 
L 680.656126 945 
L 677.715415 945 
z
" style="fill:#0000ff;opacity:0.4;"/>
   </g>
   <g id="patch_156">
    <path clip-path="url(#pf6e20f97f8)" d="M 680.656126 945 
L 683.596838 945 
L 683.596838 945 
L 680.656126 945 
z
" style="fill:#0000ff;opacity:0.4;"/>
   </g>
   <g id="patch_157">
    <path clip-path="url(#pf6e20f97f8)" d="M 683.596838 945 
L 686.537549 945 
L 686.537549 945 
L 683.596838 945 
z
" style="fill:#0000ff;opacity:0.4;"/>
   </g>
   <g id="patch_158">
    <path clip-path="url(#pf6e20f97f8)" d="M 686.537549 945 
L 689.478261 945 
L 689.478261 945 
L 686.537549 945 
z
" style="fill:#0000ff;opacity:0.4;"/>
   </g>
   <g id="patch_159">
    <path clip-path="url(#pf6e20f97f8)" d="M 689.478261 945 
L 692.418972 945 
L 692.418972 945 
L 689.478261 945 
z
" style="fill:#0000ff;opacity:0.4;"/>
   </g>
   <g id="patch_160">
    <path clip-path="url(#pf6e20f97f8)" d="M 692.418972 945 
L 695.359684 945 
L 695.359684 945 
L 692.418972 945 
z
" style="fill:#0000ff;opacity:0.4;"/>
   </g>
   <g id="patch_161">
    <path clip-path="url(#pf6e20f97f8)" d="M 695.359684 945 
L 698.300395 945 
L 698.300395 945 
L 695.359684 945 
z
" style="fill:#0000ff;opacity:0.4;"/>
   </g>
   <g id="patch_162">
    <path clip-path="url(#pf6e20f97f8)" d="M 698.300395 945 
L 701.241107 945 
L 701.241107 945 
L 698.300395 945 
z
" style="fill:#0000ff;opacity:0.4;"/>
   </g>
   <g id="patch_163">
    <path clip-path="url(#pf6e20f97f8)" d="M 701.241107 945 
L 704.181818 945 
L 704.181818 945 
L 701.241107 945 
z
" style="fill:#0000ff;opacity:0.4;"/>
   </g>
   <g id="patch_164">
    <path clip-path="url(#pf6e20f97f8)" d="M 704.181818 945 
L 707.12253 945 
L 707.12253 945 
L 704.181818 945 
z
" style="fill:#0000ff;opacity:0.4;"/>
   </g>
   <g id="patch_165">
    <path clip-path="url(#pf6e20f97f8)" d="M 707.12253 945 
L 710.063241 945 
L 710.063241 945 
L 707.12253 945 
z
" style="fill:#0000ff;opacity:0.4;"/>
   </g>
   <g id="patch_166">
    <path clip-path="url(#pf6e20f97f8)" d="M 710.063241 945 
L 713.003953 945 
L 713.003953 945 
L 710.063241 945 
z
" style="fill:#0000ff;opacity:0.4;"/>
   </g>
   <g id="patch_167">
    <path clip-path="url(#pf6e20f97f8)" d="M 713.003953 945 
L 715.944664 945 
L 715.944664 945 
L 713.003953 945 
z
" style="fill:#0000ff;opacity:0.4;"/>
   </g>
   <g id="patch_168">
    <path clip-path="url(#pf6e20f97f8)" d="M 715.944664 945 
L 718.885375 945 
L 718.885375 945 
L 715.944664 945 
z
" style="fill:#0000ff;opacity:0.4;"/>
   </g>
   <g id="patch_169">
    <path clip-path="url(#pf6e20f97f8)" d="M 718.885375 945 
L 721.826087 945 
L 721.826087 945 
L 718.885375 945 
z
" style="fill:#0000ff;opacity:0.4;"/>
   </g>
   <g id="patch_170">
    <path clip-path="url(#pf6e20f97f8)" d="M 721.826087 945 
L 724.766798 945 
L 724.766798 945 
L 721.826087 945 
z
" style="fill:#0000ff;opacity:0.4;"/>
   </g>
   <g id="patch_171">
    <path clip-path="url(#pf6e20f97f8)" d="M 724.766798 945 
L 727.70751 945 
L 727.70751 945 
L 724.766798 945 
z
" style="fill:#0000ff;opacity:0.4;"/>
   </g>
   <g id="patch_172">
    <path clip-path="url(#pf6e20f97f8)" d="M 727.70751 945 
L 730.648221 945 
L 730.648221 945 
L 727.70751 945 
z
" style="fill:#0000ff;opacity:0.4;"/>
   </g>
   <g id="patch_173">
    <path clip-path="url(#pf6e20f97f8)" d="M 730.648221 945 
L 733.588933 945 
L 733.588933 945 
L 730.648221 945 
z
" style="fill:#0000ff;opacity:0.4;"/>
   </g>
   <g id="patch_174">
    <path clip-path="url(#pf6e20f97f8)" d="M 733.588933 945 
L 736.529644 945 
L 736.529644 945 
L 733.588933 945 
z
" style="fill:#0000ff;opacity:0.4;"/>
   </g>
   <g id="patch_175">
    <path clip-path="url(#pf6e20f97f8)" d="M 736.529644 945 
L 739.470356 945 
L 739.470356 945 
L 736.529644 945 
z
" style="fill:#0000ff;opacity:0.4;"/>
   </g>
   <g id="patch_176">
    <path clip-path="url(#pf6e20f97f8)" d="M 739.470356 945 
L 742.411067 945 
L 742.411067 945 
L 739.470356 945 
z
" style="fill:#0000ff;opacity:0.4;"/>
   </g>
   <g id="patch_177">
    <path clip-path="url(#pf6e20f97f8)" d="M 742.411067 945 
L 745.351779 945 
L 745.351779 945 
L 742.411067 945 
z
" style="fill:#0000ff;opacity:0.4;"/>
   </g>
   <g id="patch_178">
    <path clip-path="url(#pf6e20f97f8)" d="M 745.351779 945 
L 748.29249 945 
L 748.29249 945 
L 745.351779 945 
z
" style="fill:#0000ff;opacity:0.4;"/>
   </g>
   <g id="patch_179">
    <path clip-path="url(#pf6e20f97f8)" d="M 748.29249 945 
L 751.233202 945 
L 751.233202 942.035987 
L 748.29249 942.035987 
z
" style="fill:#0000ff;opacity:0.4;"/>
   </g>
   <g id="patch_180">
    <path clip-path="url(#pf6e20f97f8)" d="M 751.233202 945 
L 754.173913 945 
L 754.173913 945 
L 751.233202 945 
z
" style="fill:#0000ff;opacity:0.4;"/>
   </g>
   <g id="patch_181">
    <path clip-path="url(#pf6e20f97f8)" d="M 754.173913 945 
L 757.114625 945 
L 757.114625 945 
L 754.173913 945 
z
" style="fill:#0000ff;opacity:0.4;"/>
   </g>
   <g id="patch_182">
    <path clip-path="url(#pf6e20f97f8)" d="M 757.114625 945 
L 760.055336 945 
L 760.055336 945 
L 757.114625 945 
z
" style="fill:#0000ff;opacity:0.4;"/>
   </g>
   <g id="patch_183">
    <path clip-path="url(#pf6e20f97f8)" d="M 760.055336 945 
L 762.996047 945 
L 762.996047 945 
L 760.055336 945 
z
" style="fill:#0000ff;opacity:0.4;"/>
   </g>
   <g id="patch_184">
    <path clip-path="url(#pf6e20f97f8)" d="M 762.996047 945 
L 765.936759 945 
L 765.936759 945 
L 762.996047 945 
z
" style="fill:#0000ff;opacity:0.4;"/>
   </g>
   <g id="patch_185">
    <path clip-path="url(#pf6e20f97f8)" d="M 765.936759 945 
L 768.87747 945 
L 768.87747 945 
L 765.936759 945 
z
" style="fill:#0000ff;opacity:0.4;"/>
   </g>
   <g id="patch_186">
    <path clip-path="url(#pf6e20f97f8)" d="M 768.87747 945 
L 771.818182 945 
L 771.818182 945 
L 768.87747 945 
z
" style="fill:#0000ff;opacity:0.4;"/>
   </g>
   <g id="patch_187">
    <path clip-path="url(#pf6e20f97f8)" d="M 771.818182 945 
L 774.758893 945 
L 774.758893 945 
L 771.818182 945 
z
" style="fill:#0000ff;opacity:0.4;"/>
   </g>
   <g id="patch_188">
    <path clip-path="url(#pf6e20f97f8)" d="M 774.758893 945 
L 777.699605 945 
L 777.699605 945 
L 774.758893 945 
z
" style="fill:#0000ff;opacity:0.4;"/>
   </g>
   <g id="patch_189">
    <path clip-path="url(#pf6e20f97f8)" d="M 777.699605 945 
L 780.640316 945 
L 780.640316 945 
L 777.699605 945 
z
" style="fill:#0000ff;opacity:0.4;"/>
   </g>
   <g id="patch_190">
    <path clip-path="url(#pf6e20f97f8)" d="M 780.640316 945 
L 783.581028 945 
L 783.581028 945 
L 780.640316 945 
z
" style="fill:#0000ff;opacity:0.4;"/>
   </g>
   <g id="patch_191">
    <path clip-path="url(#pf6e20f97f8)" d="M 783.581028 945 
L 786.521739 945 
L 786.521739 945 
L 783.581028 945 
z
" style="fill:#0000ff;opacity:0.4;"/>
   </g>
   <g id="patch_192">
    <path clip-path="url(#pf6e20f97f8)" d="M 786.521739 945 
L 789.462451 945 
L 789.462451 942.035987 
L 786.521739 942.035987 
z
" style="fill:#0000ff;opacity:0.4;"/>
   </g>
   <g id="patch_193">
    <path clip-path="url(#pf6e20f97f8)" d="M 789.462451 945 
L 792.403162 945 
L 792.403162 942.035987 
L 789.462451 942.035987 
z
" style="fill:#0000ff;opacity:0.4;"/>
   </g>
   <g id="patch_194">
    <path clip-path="url(#pf6e20f97f8)" d="M 792.403162 945 
L 795.343874 945 
L 795.343874 945 
L 792.403162 945 
z
" style="fill:#0000ff;opacity:0.4;"/>
   </g>
   <g id="patch_195">
    <path clip-path="url(#pf6e20f97f8)" d="M 795.343874 945 
L 798.284585 945 
L 798.284585 945 
L 795.343874 945 
z
" style="fill:#0000ff;opacity:0.4;"/>
   </g>
   <g id="patch_196">
    <path clip-path="url(#pf6e20f97f8)" d="M 798.284585 945 
L 801.225296 945 
L 801.225296 942.035987 
L 798.284585 942.035987 
z
" style="fill:#0000ff;opacity:0.4;"/>
   </g>
   <g id="patch_197">
    <path clip-path="url(#pf6e20f97f8)" d="M 801.225296 945 
L 804.166008 945 
L 804.166008 945 
L 801.225296 945 
z
" style="fill:#0000ff;opacity:0.4;"/>
   </g>
   <g id="patch_198">
    <path clip-path="url(#pf6e20f97f8)" d="M 804.166008 945 
L 807.106719 945 
L 807.106719 945 
L 804.166008 945 
z
" style="fill:#0000ff;opacity:0.4;"/>
   </g>
   <g id="patch_199">
    <path clip-path="url(#pf6e20f97f8)" d="M 807.106719 945 
L 810.047431 945 
L 810.047431 945 
L 807.106719 945 
z
" style="fill:#0000ff;opacity:0.4;"/>
   </g>
   <g id="patch_200">
    <path clip-path="url(#pf6e20f97f8)" d="M 810.047431 945 
L 812.988142 945 
L 812.988142 945 
L 810.047431 945 
z
" style="fill:#0000ff;opacity:0.4;"/>
   </g>
   <g id="patch_201">
    <path clip-path="url(#pf6e20f97f8)" d="M 812.988142 945 
L 815.928854 945 
L 815.928854 939.071974 
L 812.988142 939.071974 
z
" style="fill:#0000ff;opacity:0.4;"/>
   </g>
   <g id="patch_202">
    <path clip-path="url(#pf6e20f97f8)" d="M 815.928854 945 
L 818.869565 945 
L 818.869565 939.071974 
L 815.928854 939.071974 
z
" style="fill:#0000ff;opacity:0.4;"/>
   </g>
   <g id="patch_203">
    <path clip-path="url(#pf6e20f97f8)" d="M 818.869565 945 
L 821.810277 945 
L 821.810277 945 
L 818.869565 945 
z
" style="fill:#0000ff;opacity:0.4;"/>
   </g>
   <g id="patch_204">
    <path clip-path="url(#pf6e20f97f8)" d="M 821.810277 945 
L 824.750988 945 
L 824.750988 945 
L 821.810277 945 
z
" style="fill:#0000ff;opacity:0.4;"/>
   </g>
   <g id="patch_205">
    <path clip-path="url(#pf6e20f97f8)" d="M 824.750988 945 
L 827.6917 945 
L 827.6917 945 
L 824.750988 945 
z
" style="fill:#0000ff;opacity:0.4;"/>
   </g>
   <g id="patch_206">
    <path clip-path="url(#pf6e20f97f8)" d="M 827.6917 945 
L 830.632411 945 
L 830.632411 942.035987 
L 827.6917 942.035987 
z
" style="fill:#0000ff;opacity:0.4;"/>
   </g>
   <g id="patch_207">
    <path clip-path="url(#pf6e20f97f8)" d="M 830.632411 945 
L 833.573123 945 
L 833.573123 942.035987 
L 830.632411 942.035987 
z
" style="fill:#0000ff;opacity:0.4;"/>
   </g>
   <g id="patch_208">
    <path clip-path="url(#pf6e20f97f8)" d="M 833.573123 945 
L 836.513834 945 
L 836.513834 942.035987 
L 833.573123 942.035987 
z
" style="fill:#0000ff;opacity:0.4;"/>
   </g>
   <g id="patch_209">
    <path clip-path="url(#pf6e20f97f8)" d="M 836.513834 945 
L 839.454545 945 
L 839.454545 942.035987 
L 836.513834 942.035987 
z
" style="fill:#0000ff;opacity:0.4;"/>
   </g>
   <g id="patch_210">
    <path clip-path="url(#pf6e20f97f8)" d="M 839.454545 945 
L 842.395257 945 
L 842.395257 939.071974 
L 839.454545 939.071974 
z
" style="fill:#0000ff;opacity:0.4;"/>
   </g>
   <g id="patch_211">
    <path clip-path="url(#pf6e20f97f8)" d="M 842.395257 945 
L 845.335968 945 
L 845.335968 936.107961 
L 842.395257 936.107961 
z
" style="fill:#0000ff;opacity:0.4;"/>
   </g>
   <g id="patch_212">
    <path clip-path="url(#pf6e20f97f8)" d="M 845.335968 945 
L 848.27668 945 
L 848.27668 936.107961 
L 845.335968 936.107961 
z
" style="fill:#0000ff;opacity:0.4;"/>
   </g>
   <g id="patch_213">
    <path clip-path="url(#pf6e20f97f8)" d="M 848.27668 945 
L 851.217391 945 
L 851.217391 936.107961 
L 848.27668 936.107961 
z
" style="fill:#0000ff;opacity:0.4;"/>
   </g>
   <g id="patch_214">
    <path clip-path="url(#pf6e20f97f8)" d="M 851.217391 945 
L 854.158103 945 
L 854.158103 942.035987 
L 851.217391 942.035987 
z
" style="fill:#0000ff;opacity:0.4;"/>
   </g>
   <g id="patch_215">
    <path clip-path="url(#pf6e20f97f8)" d="M 854.158103 945 
L 857.098814 945 
L 857.098814 942.035987 
L 854.158103 942.035987 
z
" style="fill:#0000ff;opacity:0.4;"/>
   </g>
   <g id="patch_216">
    <path clip-path="url(#pf6e20f97f8)" d="M 857.098814 945 
L 860.039526 945 
L 860.039526 942.035987 
L 857.098814 942.035987 
z
" style="fill:#0000ff;opacity:0.4;"/>
   </g>
   <g id="patch_217">
    <path clip-path="url(#pf6e20f97f8)" d="M 860.039526 945 
L 862.980237 945 
L 862.980237 942.035987 
L 860.039526 942.035987 
z
" style="fill:#0000ff;opacity:0.4;"/>
   </g>
   <g id="patch_218">
    <path clip-path="url(#pf6e20f97f8)" d="M 862.980237 945 
L 865.920949 945 
L 865.920949 945 
L 862.980237 945 
z
" style="fill:#0000ff;opacity:0.4;"/>
   </g>
   <g id="patch_219">
    <path clip-path="url(#pf6e20f97f8)" d="M 865.920949 945 
L 868.86166 945 
L 868.86166 942.035987 
L 865.920949 942.035987 
z
" style="fill:#0000ff;opacity:0.4;"/>
   </g>
   <g id="patch_220">
    <path clip-path="url(#pf6e20f97f8)" d="M 868.86166 945 
L 871.802372 945 
L 871.802372 939.071974 
L 868.86166 939.071974 
z
" style="fill:#0000ff;opacity:0.4;"/>
   </g>
   <g id="patch_221">
    <path clip-path="url(#pf6e20f97f8)" d="M 871.802372 945 
L 874.743083 945 
L 874.743083 942.035987 
L 871.802372 942.035987 
z
" style="fill:#0000ff;opacity:0.4;"/>
   </g>
   <g id="patch_222">
    <path clip-path="url(#pf6e20f97f8)" d="M 874.743083 945 
L 877.683794 945 
L 877.683794 942.035987 
L 874.743083 942.035987 
z
" style="fill:#0000ff;opacity:0.4;"/>
   </g>
   <g id="patch_223">
    <path clip-path="url(#pf6e20f97f8)" d="M 877.683794 945 
L 880.624506 945 
L 880.624506 945 
L 877.683794 945 
z
" style="fill:#0000ff;opacity:0.4;"/>
   </g>
   <g id="patch_224">
    <path clip-path="url(#pf6e20f97f8)" d="M 880.624506 945 
L 883.565217 945 
L 883.565217 942.035987 
L 880.624506 942.035987 
z
" style="fill:#0000ff;opacity:0.4;"/>
   </g>
   <g id="patch_225">
    <path clip-path="url(#pf6e20f97f8)" d="M 883.565217 945 
L 886.505929 945 
L 886.505929 936.107961 
L 883.565217 936.107961 
z
" style="fill:#0000ff;opacity:0.4;"/>
   </g>
   <g id="patch_226">
    <path clip-path="url(#pf6e20f97f8)" d="M 886.505929 945 
L 889.44664 945 
L 889.44664 942.035987 
L 886.505929 942.035987 
z
" style="fill:#0000ff;opacity:0.4;"/>
   </g>
   <g id="patch_227">
    <path clip-path="url(#pf6e20f97f8)" d="M 889.44664 945 
L 892.387352 945 
L 892.387352 942.035987 
L 889.44664 942.035987 
z
" style="fill:#0000ff;opacity:0.4;"/>
   </g>
   <g id="patch_228">
    <path clip-path="url(#pf6e20f97f8)" d="M 892.387352 945 
L 895.328063 945 
L 895.328063 942.035987 
L 892.387352 942.035987 
z
" style="fill:#0000ff;opacity:0.4;"/>
   </g>
   <g id="patch_229">
    <path clip-path="url(#pf6e20f97f8)" d="M 895.328063 945 
L 898.268775 945 
L 898.268775 933.143948 
L 895.328063 933.143948 
z
" style="fill:#0000ff;opacity:0.4;"/>
   </g>
   <g id="patch_230">
    <path clip-path="url(#pf6e20f97f8)" d="M 898.268775 945 
L 901.209486 945 
L 901.209486 942.035987 
L 898.268775 942.035987 
z
" style="fill:#0000ff;opacity:0.4;"/>
   </g>
   <g id="patch_231">
    <path clip-path="url(#pf6e20f97f8)" d="M 901.209486 945 
L 904.150198 945 
L 904.150198 942.035987 
L 901.209486 942.035987 
z
" style="fill:#0000ff;opacity:0.4;"/>
   </g>
   <g id="patch_232">
    <path clip-path="url(#pf6e20f97f8)" d="M 904.150198 945 
L 907.090909 945 
L 907.090909 945 
L 904.150198 945 
z
" style="fill:#0000ff;opacity:0.4;"/>
   </g>
   <g id="patch_233">
    <path clip-path="url(#pf6e20f97f8)" d="M 907.090909 945 
L 910.031621 945 
L 910.031621 945 
L 907.090909 945 
z
" style="fill:#0000ff;opacity:0.4;"/>
   </g>
   <g id="patch_234">
    <path clip-path="url(#pf6e20f97f8)" d="M 910.031621 945 
L 912.972332 945 
L 912.972332 942.035987 
L 910.031621 942.035987 
z
" style="fill:#0000ff;opacity:0.4;"/>
   </g>
   <g id="patch_235">
    <path clip-path="url(#pf6e20f97f8)" d="M 912.972332 945 
L 915.913043 945 
L 915.913043 945 
L 912.972332 945 
z
" style="fill:#0000ff;opacity:0.4;"/>
   </g>
   <g id="patch_236">
    <path clip-path="url(#pf6e20f97f8)" d="M 915.913043 945 
L 918.853755 945 
L 918.853755 942.035987 
L 915.913043 942.035987 
z
" style="fill:#0000ff;opacity:0.4;"/>
   </g>
   <g id="patch_237">
    <path clip-path="url(#pf6e20f97f8)" d="M 918.853755 945 
L 921.794466 945 
L 921.794466 942.035987 
L 918.853755 942.035987 
z
" style="fill:#0000ff;opacity:0.4;"/>
   </g>
   <g id="patch_238">
    <path clip-path="url(#pf6e20f97f8)" d="M 921.794466 945 
L 924.735178 945 
L 924.735178 936.107961 
L 921.794466 936.107961 
z
" style="fill:#0000ff;opacity:0.4;"/>
   </g>
   <g id="patch_239">
    <path clip-path="url(#pf6e20f97f8)" d="M 924.735178 945 
L 927.675889 945 
L 927.675889 945 
L 924.735178 945 
z
" style="fill:#0000ff;opacity:0.4;"/>
   </g>
   <g id="patch_240">
    <path clip-path="url(#pf6e20f97f8)" d="M 927.675889 945 
L 930.616601 945 
L 930.616601 939.071974 
L 927.675889 939.071974 
z
" style="fill:#0000ff;opacity:0.4;"/>
   </g>
   <g id="patch_241">
    <path clip-path="url(#pf6e20f97f8)" d="M 930.616601 945 
L 933.557312 945 
L 933.557312 942.035987 
L 930.616601 942.035987 
z
" style="fill:#0000ff;opacity:0.4;"/>
   </g>
   <g id="patch_242">
    <path clip-path="url(#pf6e20f97f8)" d="M 933.557312 945 
L 936.498024 945 
L 936.498024 945 
L 933.557312 945 
z
" style="fill:#0000ff;opacity:0.4;"/>
   </g>
   <g id="patch_243">
    <path clip-path="url(#pf6e20f97f8)" d="M 936.498024 945 
L 939.438735 945 
L 939.438735 945 
L 936.498024 945 
z
" style="fill:#0000ff;opacity:0.4;"/>
   </g>
   <g id="patch_244">
    <path clip-path="url(#pf6e20f97f8)" d="M 939.438735 945 
L 942.379447 945 
L 942.379447 945 
L 939.438735 945 
z
" style="fill:#0000ff;opacity:0.4;"/>
   </g>
   <g id="patch_245">
    <path clip-path="url(#pf6e20f97f8)" d="M 942.379447 945 
L 945.320158 945 
L 945.320158 945 
L 942.379447 945 
z
" style="fill:#0000ff;opacity:0.4;"/>
   </g>
   <g id="patch_246">
    <path clip-path="url(#pf6e20f97f8)" d="M 945.320158 945 
L 948.26087 945 
L 948.26087 945 
L 945.320158 945 
z
" style="fill:#0000ff;opacity:0.4;"/>
   </g>
   <g id="patch_247">
    <path clip-path="url(#pf6e20f97f8)" d="M 948.26087 945 
L 951.201581 945 
L 951.201581 945 
L 948.26087 945 
z
" style="fill:#0000ff;opacity:0.4;"/>
   </g>
   <g id="patch_248">
    <path clip-path="url(#pf6e20f97f8)" d="M 951.201581 945 
L 954.142292 945 
L 954.142292 942.035987 
L 951.201581 942.035987 
z
" style="fill:#0000ff;opacity:0.4;"/>
   </g>
   <g id="patch_249">
    <path clip-path="url(#pf6e20f97f8)" d="M 954.142292 945 
L 957.083004 945 
L 957.083004 945 
L 954.142292 945 
z
" style="fill:#0000ff;opacity:0.4;"/>
   </g>
   <g id="patch_250">
    <path clip-path="url(#pf6e20f97f8)" d="M 957.083004 945 
L 960.023715 945 
L 960.023715 942.035987 
L 957.083004 942.035987 
z
" style="fill:#0000ff;opacity:0.4;"/>
   </g>
   <g id="patch_251">
    <path clip-path="url(#pf6e20f97f8)" d="M 960.023715 945 
L 962.964427 945 
L 962.964427 945 
L 960.023715 945 
z
" style="fill:#0000ff;opacity:0.4;"/>
   </g>
   <g id="patch_252">
    <path clip-path="url(#pf6e20f97f8)" d="M 962.964427 945 
L 965.905138 945 
L 965.905138 942.035987 
L 962.964427 942.035987 
z
" style="fill:#0000ff;opacity:0.4;"/>
   </g>
   <g id="patch_253">
    <path clip-path="url(#pf6e20f97f8)" d="M 965.905138 945 
L 968.84585 945 
L 968.84585 945 
L 965.905138 945 
z
" style="fill:#0000ff;opacity:0.4;"/>
   </g>
   <g id="patch_254">
    <path clip-path="url(#pf6e20f97f8)" d="M 968.84585 945 
L 971.786561 945 
L 971.786561 945 
L 968.84585 945 
z
" style="fill:#0000ff;opacity:0.4;"/>
   </g>
   <g id="patch_255">
    <path clip-path="url(#pf6e20f97f8)" d="M 971.786561 945 
L 974.727273 945 
L 974.727273 945 
L 971.786561 945 
z
" style="fill:#0000ff;opacity:0.4;"/>
   </g>
   <g id="patch_256">
    <path clip-path="url(#pf6e20f97f8)" d="M 974.727273 945 
L 977.667984 945 
L 977.667984 939.071974 
L 974.727273 939.071974 
z
" style="fill:#0000ff;opacity:0.4;"/>
   </g>
   <g id="patch_257">
    <path clip-path="url(#pf6e20f97f8)" d="M 977.667984 945 
L 980.608696 945 
L 980.608696 933.143948 
L 977.667984 933.143948 
z
" style="fill:#0000ff;opacity:0.4;"/>
   </g>
   <g id="patch_258">
    <path clip-path="url(#pf6e20f97f8)" d="M 980.608696 945 
L 983.549407 945 
L 983.549407 945 
L 980.608696 945 
z
" style="fill:#0000ff;opacity:0.4;"/>
   </g>
   <g id="patch_259">
    <path clip-path="url(#pf6e20f97f8)" d="M 983.549407 945 
L 986.490119 945 
L 986.490119 942.035987 
L 983.549407 942.035987 
z
" style="fill:#0000ff;opacity:0.4;"/>
   </g>
   <g id="patch_260">
    <path clip-path="url(#pf6e20f97f8)" d="M 986.490119 945 
L 989.43083 945 
L 989.43083 942.035987 
L 986.490119 942.035987 
z
" style="fill:#0000ff;opacity:0.4;"/>
   </g>
   <g id="patch_261">
    <path clip-path="url(#pf6e20f97f8)" d="M 989.43083 945 
L 992.371542 945 
L 992.371542 936.107961 
L 989.43083 936.107961 
z
" style="fill:#0000ff;opacity:0.4;"/>
   </g>
   <g id="patch_262">
    <path clip-path="url(#pf6e20f97f8)" d="M 992.371542 945 
L 995.312253 945 
L 995.312253 942.035987 
L 992.371542 942.035987 
z
" style="fill:#0000ff;opacity:0.4;"/>
   </g>
   <g id="patch_263">
    <path clip-path="url(#pf6e20f97f8)" d="M 995.312253 945 
L 998.252964 945 
L 998.252964 942.035987 
L 995.312253 942.035987 
z
" style="fill:#0000ff;opacity:0.4;"/>
   </g>
   <g id="patch_264">
    <path clip-path="url(#pf6e20f97f8)" d="M 998.252964 945 
L 1001.193676 945 
L 1001.193676 942.035987 
L 998.252964 942.035987 
z
" style="fill:#0000ff;opacity:0.4;"/>
   </g>
   <g id="patch_265">
    <path clip-path="url(#pf6e20f97f8)" d="M 1001.193676 945 
L 1004.134387 945 
L 1004.134387 942.035987 
L 1001.193676 942.035987 
z
" style="fill:#0000ff;opacity:0.4;"/>
   </g>
   <g id="patch_266">
    <path clip-path="url(#pf6e20f97f8)" d="M 1004.134387 945 
L 1007.075099 945 
L 1007.075099 939.071974 
L 1004.134387 939.071974 
z
" style="fill:#0000ff;opacity:0.4;"/>
   </g>
   <g id="patch_267">
    <path clip-path="url(#pf6e20f97f8)" d="M 1007.075099 945 
L 1010.01581 945 
L 1010.01581 939.071974 
L 1007.075099 939.071974 
z
" style="fill:#0000ff;opacity:0.4;"/>
   </g>
   <g id="patch_268">
    <path clip-path="url(#pf6e20f97f8)" d="M 1010.01581 945 
L 1012.956522 945 
L 1012.956522 933.143948 
L 1010.01581 933.143948 
z
" style="fill:#0000ff;opacity:0.4;"/>
   </g>
   <g id="patch_269">
    <path clip-path="url(#pf6e20f97f8)" d="M 1012.956522 945 
L 1015.897233 945 
L 1015.897233 936.107961 
L 1012.956522 936.107961 
z
" style="fill:#0000ff;opacity:0.4;"/>
   </g>
   <g id="patch_270">
    <path clip-path="url(#pf6e20f97f8)" d="M 1015.897233 945 
L 1018.837945 945 
L 1018.837945 936.107961 
L 1015.897233 936.107961 
z
" style="fill:#0000ff;opacity:0.4;"/>
   </g>
   <g id="patch_271">
    <path clip-path="url(#pf6e20f97f8)" d="M 1018.837945 945 
L 1021.778656 945 
L 1021.778656 936.107961 
L 1018.837945 936.107961 
z
" style="fill:#0000ff;opacity:0.4;"/>
   </g>
   <g id="patch_272">
    <path clip-path="url(#pf6e20f97f8)" d="M 1021.778656 945 
L 1024.719368 945 
L 1024.719368 942.035987 
L 1021.778656 942.035987 
z
" style="fill:#0000ff;opacity:0.4;"/>
   </g>
   <g id="patch_273">
    <path clip-path="url(#pf6e20f97f8)" d="M 1024.719368 945 
L 1027.660079 945 
L 1027.660079 924.251908 
L 1024.719368 924.251908 
z
" style="fill:#0000ff;opacity:0.4;"/>
   </g>
   <g id="patch_274">
    <path clip-path="url(#pf6e20f97f8)" d="M 1027.660079 945 
L 1030.600791 945 
L 1030.600791 936.107961 
L 1027.660079 936.107961 
z
" style="fill:#0000ff;opacity:0.4;"/>
   </g>
   <g id="patch_275">
    <path clip-path="url(#pf6e20f97f8)" d="M 1030.600791 945 
L 1033.541502 945 
L 1033.541502 924.251908 
L 1030.600791 924.251908 
z
" style="fill:#0000ff;opacity:0.4;"/>
   </g>
   <g id="patch_276">
    <path clip-path="url(#pf6e20f97f8)" d="M 1033.541502 945 
L 1036.482213 945 
L 1036.482213 933.143948 
L 1033.541502 933.143948 
z
" style="fill:#0000ff;opacity:0.4;"/>
   </g>
   <g id="patch_277">
    <path clip-path="url(#pf6e20f97f8)" d="M 1036.482213 945 
L 1039.422925 945 
L 1039.422925 936.107961 
L 1036.482213 936.107961 
z
" style="fill:#0000ff;opacity:0.4;"/>
   </g>
   <g id="patch_278">
    <path clip-path="url(#pf6e20f97f8)" d="M 1039.422925 945 
L 1042.363636 945 
L 1042.363636 924.251908 
L 1039.422925 924.251908 
z
" style="fill:#0000ff;opacity:0.4;"/>
   </g>
   <g id="patch_279">
    <path clip-path="url(#pf6e20f97f8)" d="M 1042.363636 945 
L 1045.304348 945 
L 1045.304348 939.071974 
L 1042.363636 939.071974 
z
" style="fill:#0000ff;opacity:0.4;"/>
   </g>
   <g id="patch_280">
    <path clip-path="url(#pf6e20f97f8)" d="M 1045.304348 945 
L 1048.245059 945 
L 1048.245059 921.287895 
L 1045.304348 921.287895 
z
" style="fill:#0000ff;opacity:0.4;"/>
   </g>
   <g id="patch_281">
    <path clip-path="url(#pf6e20f97f8)" d="M 1048.245059 945 
L 1051.185771 945 
L 1051.185771 912.395856 
L 1048.245059 912.395856 
z
" style="fill:#0000ff;opacity:0.4;"/>
   </g>
   <g id="patch_282">
    <path clip-path="url(#pf6e20f97f8)" d="M 1051.185771 945 
L 1054.126482 945 
L 1054.126482 921.287895 
L 1051.185771 921.287895 
z
" style="fill:#0000ff;opacity:0.4;"/>
   </g>
   <g id="patch_283">
    <path clip-path="url(#pf6e20f97f8)" d="M 1054.126482 945 
L 1057.067194 945 
L 1057.067194 906.46783 
L 1054.126482 906.46783 
z
" style="fill:#0000ff;opacity:0.4;"/>
   </g>
   <g id="patch_284">
    <path clip-path="url(#pf6e20f97f8)" d="M 1057.067194 945 
L 1060.007905 945 
L 1060.007905 903.503817 
L 1057.067194 903.503817 
z
" style="fill:#0000ff;opacity:0.4;"/>
   </g>
   <g id="patch_285">
    <path clip-path="url(#pf6e20f97f8)" d="M 1060.007905 945 
L 1062.948617 945 
L 1062.948617 912.395856 
L 1060.007905 912.395856 
z
" style="fill:#0000ff;opacity:0.4;"/>
   </g>
   <g id="patch_286">
    <path clip-path="url(#pf6e20f97f8)" d="M 1062.948617 945 
L 1065.889328 945 
L 1065.889328 891.647764 
L 1062.948617 891.647764 
z
" style="fill:#0000ff;opacity:0.4;"/>
   </g>
   <g id="patch_287">
    <path clip-path="url(#pf6e20f97f8)" d="M 1065.889328 945 
L 1068.83004 945 
L 1068.83004 879.791712 
L 1065.889328 879.791712 
z
" style="fill:#0000ff;opacity:0.4;"/>
   </g>
   <g id="patch_288">
    <path clip-path="url(#pf6e20f97f8)" d="M 1068.83004 945 
L 1071.770751 945 
L 1071.770751 856.079607 
L 1068.83004 856.079607 
z
" style="fill:#0000ff;opacity:0.4;"/>
   </g>
   <g id="patch_289">
    <path clip-path="url(#pf6e20f97f8)" d="M 1071.770751 945 
L 1074.711462 945 
L 1074.711462 876.827699 
L 1071.770751 876.827699 
z
" style="fill:#0000ff;opacity:0.4;"/>
   </g>
   <g id="patch_290">
    <path clip-path="url(#pf6e20f97f8)" d="M 1074.711462 945 
L 1077.652174 945 
L 1077.652174 844.223555 
L 1074.711462 844.223555 
z
" style="fill:#0000ff;opacity:0.4;"/>
   </g>
   <g id="patch_291">
    <path clip-path="url(#pf6e20f97f8)" d="M 1077.652174 945 
L 1080.592885 945 
L 1080.592885 817.547437 
L 1077.652174 817.547437 
z
" style="fill:#0000ff;opacity:0.4;"/>
   </g>
   <g id="patch_292">
    <path clip-path="url(#pf6e20f97f8)" d="M 1080.592885 945 
L 1083.533597 945 
L 1083.533597 793.835333 
L 1080.592885 793.835333 
z
" style="fill:#0000ff;opacity:0.4;"/>
   </g>
   <g id="patch_293">
    <path clip-path="url(#pf6e20f97f8)" d="M 1083.533597 945 
L 1086.474308 945 
L 1086.474308 793.835333 
L 1083.533597 793.835333 
z
" style="fill:#0000ff;opacity:0.4;"/>
   </g>
   <g id="patch_294">
    <path clip-path="url(#pf6e20f97f8)" d="M 1086.474308 945 
L 1089.41502 945 
L 1089.41502 722.699019 
L 1086.474308 722.699019 
z
" style="fill:#0000ff;opacity:0.4;"/>
   </g>
   <g id="patch_295">
    <path clip-path="url(#pf6e20f97f8)" d="M 1089.41502 945 
L 1092.355731 945 
L 1092.355731 704.91494 
L 1089.41502 704.91494 
z
" style="fill:#0000ff;opacity:0.4;"/>
   </g>
   <g id="patch_296">
    <path clip-path="url(#pf6e20f97f8)" d="M 1092.355731 945 
L 1095.296443 945 
L 1095.296443 690.094875 
L 1092.355731 690.094875 
z
" style="fill:#0000ff;opacity:0.4;"/>
   </g>
   <g id="patch_297">
    <path clip-path="url(#pf6e20f97f8)" d="M 1095.296443 945 
L 1098.237154 945 
L 1098.237154 651.562704 
L 1095.296443 651.562704 
z
" style="fill:#0000ff;opacity:0.4;"/>
   </g>
   <g id="patch_298">
    <path clip-path="url(#pf6e20f97f8)" d="M 1098.237154 945 
L 1101.177866 945 
L 1101.177866 618.958561 
L 1098.237154 618.958561 
z
" style="fill:#0000ff;opacity:0.4;"/>
   </g>
   <g id="patch_299">
    <path clip-path="url(#pf6e20f97f8)" d="M 1101.177866 945 
L 1104.118577 945 
L 1104.118577 521.146129 
L 1101.177866 521.146129 
z
" style="fill:#0000ff;opacity:0.4;"/>
   </g>
   <g id="patch_300">
    <path clip-path="url(#pf6e20f97f8)" d="M 1104.118577 945 
L 1107.059289 945 
L 1107.059289 541.89422 
L 1104.118577 541.89422 
z
" style="fill:#0000ff;opacity:0.4;"/>
   </g>
   <g id="patch_301">
    <path clip-path="url(#pf6e20f97f8)" d="M 1107.059289 945 
L 1110 945 
L 1110 432.225736 
L 1107.059289 432.225736 
z
" style="fill:#0000ff;opacity:0.4;"/>
   </g>
   <g id="patch_302">
    <path clip-path="url(#pf6e20f97f8)" d="M 1110 945 
L 1112.940711 945 
L 1112.940711 464.82988 
L 1110 464.82988 
z
" style="fill:#0000ff;opacity:0.4;"/>
   </g>
   <g id="patch_303">
    <path clip-path="url(#pf6e20f97f8)" d="M 1112.940711 945 
L 1115.881423 945 
L 1115.881423 343.305344 
L 1112.940711 343.305344 
z
" style="fill:#0000ff;opacity:0.4;"/>
   </g>
   <g id="patch_304">
    <path clip-path="url(#pf6e20f97f8)" d="M 1115.881423 945 
L 1118.822134 945 
L 1118.822134 286.989095 
L 1115.881423 286.989095 
z
" style="fill:#0000ff;opacity:0.4;"/>
   </g>
   <g id="patch_305">
    <path clip-path="url(#pf6e20f97f8)" d="M 1118.822134 945 
L 1121.762846 945 
L 1121.762846 168.428571 
L 1118.822134 168.428571 
z
" style="fill:#0000ff;opacity:0.4;"/>
   </g>
   <g id="patch_306">
    <path clip-path="url(#pf6e20f97f8)" d="M 1121.762846 945 
L 1124.703557 945 
L 1124.703557 248.456925 
L 1121.762846 248.456925 
z
" style="fill:#0000ff;opacity:0.4;"/>
   </g>
   <g id="patch_307">
    <path clip-path="url(#pf6e20f97f8)" d="M 1124.703557 945 
L 1127.644269 945 
L 1127.644269 177.320611 
L 1124.703557 177.320611 
z
" style="fill:#0000ff;opacity:0.4;"/>
   </g>
   <g id="patch_308">
    <path clip-path="url(#pf6e20f97f8)" d="M 1127.644269 945 
L 1130.58498 945 
L 1130.58498 218.816794 
L 1127.644269 218.816794 
z
" style="fill:#0000ff;opacity:0.4;"/>
   </g>
   <g id="patch_309">
    <path clip-path="url(#pf6e20f97f8)" d="M 1130.58498 945 
L 1133.525692 945 
L 1133.525692 209.924755 
L 1130.58498 209.924755 
z
" style="fill:#0000ff;opacity:0.4;"/>
   </g>
   <g id="patch_310">
    <path clip-path="url(#pf6e20f97f8)" d="M 1133.525692 945 
L 1136.466403 945 
L 1136.466403 310.7012 
L 1133.525692 310.7012 
z
" style="fill:#0000ff;opacity:0.4;"/>
   </g>
   <g id="patch_311">
    <path clip-path="url(#pf6e20f97f8)" d="M 1136.466403 945 
L 1139.407115 945 
L 1139.407115 212.888768 
L 1136.466403 212.888768 
z
" style="fill:#0000ff;opacity:0.4;"/>
   </g>
   <g id="patch_312">
    <path clip-path="url(#pf6e20f97f8)" d="M 1139.407115 945 
L 1142.347826 945 
L 1142.347826 242.528899 
L 1139.407115 242.528899 
z
" style="fill:#0000ff;opacity:0.4;"/>
   </g>
   <g id="patch_313">
    <path clip-path="url(#pf6e20f97f8)" d="M 1142.347826 945 
L 1145.288538 945 
L 1145.288538 414.441658 
L 1142.347826 414.441658 
z
" style="fill:#0000ff;opacity:0.4;"/>
   </g>
   <g id="patch_314">
    <path clip-path="url(#pf6e20f97f8)" d="M 1145.288538 945 
L 1148.229249 945 
L 1148.229249 455.937841 
L 1145.288538 455.937841 
z
" style="fill:#0000ff;opacity:0.4;"/>
   </g>
   <g id="patch_315">
    <path clip-path="url(#pf6e20f97f8)" d="M 1148.229249 945 
L 1151.16996 945 
L 1151.16996 595.246456 
L 1148.229249 595.246456 
z
" style="fill:#0000ff;opacity:0.4;"/>
   </g>
   <g id="patch_316">
    <path clip-path="url(#pf6e20f97f8)" d="M 1151.16996 945 
L 1154.110672 945 
L 1154.110672 701.950927 
L 1151.16996 701.950927 
z
" style="fill:#0000ff;opacity:0.4;"/>
   </g>
   <g id="patch_317">
    <path clip-path="url(#pf6e20f97f8)" d="M 1154.110672 945 
L 1157.051383 945 
L 1157.051383 764.195202 
L 1154.110672 764.195202 
z
" style="fill:#0000ff;opacity:0.4;"/>
   </g>
   <g id="patch_318">
    <path clip-path="url(#pf6e20f97f8)" d="M 1157.051383 945 
L 1159.992095 945 
L 1159.992095 829.40349 
L 1157.051383 829.40349 
z
" style="fill:#0000ff;opacity:0.4;"/>
   </g>
   <g id="patch_319">
    <path clip-path="url(#pf6e20f97f8)" d="M 1159.992095 945 
L 1162.932806 945 
L 1162.932806 829.40349 
L 1159.992095 829.40349 
z
" style="fill:#0000ff;opacity:0.4;"/>
   </g>
   <g id="patch_320">
    <path clip-path="url(#pf6e20f97f8)" d="M 1162.932806 945 
L 1165.873518 945 
L 1165.873518 859.043621 
L 1162.932806 859.043621 
z
" style="fill:#0000ff;opacity:0.4;"/>
   </g>
   <g id="patch_321">
    <path clip-path="url(#pf6e20f97f8)" d="M 1165.873518 945 
L 1168.814229 945 
L 1168.814229 894.611778 
L 1165.873518 894.611778 
z
" style="fill:#0000ff;opacity:0.4;"/>
   </g>
   <g id="patch_322">
    <path clip-path="url(#pf6e20f97f8)" d="M 1168.814229 945 
L 1171.754941 945 
L 1171.754941 891.647764 
L 1168.814229 891.647764 
z
" style="fill:#0000ff;opacity:0.4;"/>
   </g>
   <g id="patch_323">
    <path clip-path="url(#pf6e20f97f8)" d="M 1171.754941 945 
L 1174.695652 945 
L 1174.695652 891.647764 
L 1171.754941 891.647764 
z
" style="fill:#0000ff;opacity:0.4;"/>
   </g>
   <g id="patch_324">
    <path clip-path="url(#pf6e20f97f8)" d="M 1174.695652 945 
L 1177.636364 945 
L 1177.636364 909.431843 
L 1174.695652 909.431843 
z
" style="fill:#0000ff;opacity:0.4;"/>
   </g>
   <g id="patch_325">
    <path clip-path="url(#pf6e20f97f8)" d="M 1177.636364 945 
L 1180.577075 945 
L 1180.577075 909.431843 
L 1177.636364 909.431843 
z
" style="fill:#0000ff;opacity:0.4;"/>
   </g>
   <g id="patch_326">
    <path clip-path="url(#pf6e20f97f8)" d="M 1180.577075 945 
L 1183.517787 945 
L 1183.517787 918.323882 
L 1180.577075 918.323882 
z
" style="fill:#0000ff;opacity:0.4;"/>
   </g>
   <g id="patch_327">
    <path clip-path="url(#pf6e20f97f8)" d="M 1183.517787 945 
L 1186.458498 945 
L 1186.458498 921.287895 
L 1183.517787 921.287895 
z
" style="fill:#0000ff;opacity:0.4;"/>
   </g>
   <g id="patch_328">
    <path clip-path="url(#pf6e20f97f8)" d="M 1186.458498 945 
L 1189.399209 945 
L 1189.399209 918.323882 
L 1186.458498 918.323882 
z
" style="fill:#0000ff;opacity:0.4;"/>
   </g>
   <g id="patch_329">
    <path clip-path="url(#pf6e20f97f8)" d="M 1189.399209 945 
L 1192.339921 945 
L 1192.339921 924.251908 
L 1189.399209 924.251908 
z
" style="fill:#0000ff;opacity:0.4;"/>
   </g>
   <g id="patch_330">
    <path clip-path="url(#pf6e20f97f8)" d="M 1192.339921 945 
L 1195.280632 945 
L 1195.280632 939.071974 
L 1192.339921 939.071974 
z
" style="fill:#0000ff;opacity:0.4;"/>
   </g>
   <g id="patch_331">
    <path clip-path="url(#pf6e20f97f8)" d="M 1195.280632 945 
L 1198.221344 945 
L 1198.221344 930.179935 
L 1195.280632 930.179935 
z
" style="fill:#0000ff;opacity:0.4;"/>
   </g>
   <g id="patch_332">
    <path clip-path="url(#pf6e20f97f8)" d="M 1198.221344 945 
L 1201.162055 945 
L 1201.162055 933.143948 
L 1198.221344 933.143948 
z
" style="fill:#0000ff;opacity:0.4;"/>
   </g>
   <g id="patch_333">
    <path clip-path="url(#pf6e20f97f8)" d="M 1201.162055 945 
L 1204.102767 945 
L 1204.102767 936.107961 
L 1201.162055 936.107961 
z
" style="fill:#0000ff;opacity:0.4;"/>
   </g>
   <g id="patch_334">
    <path clip-path="url(#pf6e20f97f8)" d="M 1204.102767 945 
L 1207.043478 945 
L 1207.043478 942.035987 
L 1204.102767 942.035987 
z
" style="fill:#0000ff;opacity:0.4;"/>
   </g>
   <g id="patch_335">
    <path clip-path="url(#pf6e20f97f8)" d="M 1207.043478 945 
L 1209.98419 945 
L 1209.98419 939.071974 
L 1207.043478 939.071974 
z
" style="fill:#0000ff;opacity:0.4;"/>
   </g>
   <g id="patch_336">
    <path clip-path="url(#pf6e20f97f8)" d="M 1209.98419 945 
L 1212.924901 945 
L 1212.924901 939.071974 
L 1209.98419 939.071974 
z
" style="fill:#0000ff;opacity:0.4;"/>
   </g>
   <g id="patch_337">
    <path clip-path="url(#pf6e20f97f8)" d="M 1212.924901 945 
L 1215.865613 945 
L 1215.865613 942.035987 
L 1212.924901 942.035987 
z
" style="fill:#0000ff;opacity:0.4;"/>
   </g>
   <g id="patch_338">
    <path clip-path="url(#pf6e20f97f8)" d="M 1215.865613 945 
L 1218.806324 945 
L 1218.806324 945 
L 1215.865613 945 
z
" style="fill:#0000ff;opacity:0.4;"/>
   </g>
   <g id="patch_339">
    <path clip-path="url(#pf6e20f97f8)" d="M 1218.806324 945 
L 1221.747036 945 
L 1221.747036 942.035987 
L 1218.806324 942.035987 
z
" style="fill:#0000ff;opacity:0.4;"/>
   </g>
   <g id="patch_340">
    <path clip-path="url(#pf6e20f97f8)" d="M 1221.747036 945 
L 1224.687747 945 
L 1224.687747 942.035987 
L 1221.747036 942.035987 
z
" style="fill:#0000ff;opacity:0.4;"/>
   </g>
   <g id="patch_341">
    <path clip-path="url(#pf6e20f97f8)" d="M 1224.687747 945 
L 1227.628458 945 
L 1227.628458 945 
L 1224.687747 945 
z
" style="fill:#0000ff;opacity:0.4;"/>
   </g>
   <g id="patch_342">
    <path clip-path="url(#pf6e20f97f8)" d="M 1227.628458 945 
L 1230.56917 945 
L 1230.56917 945 
L 1227.628458 945 
z
" style="fill:#0000ff;opacity:0.4;"/>
   </g>
   <g id="patch_343">
    <path clip-path="url(#pf6e20f97f8)" d="M 1230.56917 945 
L 1233.509881 945 
L 1233.509881 945 
L 1230.56917 945 
z
" style="fill:#0000ff;opacity:0.4;"/>
   </g>
   <g id="patch_344">
    <path clip-path="url(#pf6e20f97f8)" d="M 1233.509881 945 
L 1236.450593 945 
L 1236.450593 945 
L 1233.509881 945 
z
" style="fill:#0000ff;opacity:0.4;"/>
   </g>
   <g id="patch_345">
    <path clip-path="url(#pf6e20f97f8)" d="M 1236.450593 945 
L 1239.391304 945 
L 1239.391304 945 
L 1236.450593 945 
z
" style="fill:#0000ff;opacity:0.4;"/>
   </g>
   <g id="patch_346">
    <path clip-path="url(#pf6e20f97f8)" d="M 1239.391304 945 
L 1242.332016 945 
L 1242.332016 945 
L 1239.391304 945 
z
" style="fill:#0000ff;opacity:0.4;"/>
   </g>
   <g id="patch_347">
    <path clip-path="url(#pf6e20f97f8)" d="M 1242.332016 945 
L 1245.272727 945 
L 1245.272727 939.071974 
L 1242.332016 939.071974 
z
" style="fill:#0000ff;opacity:0.4;"/>
   </g>
   <g id="patch_348">
    <path clip-path="url(#pf6e20f97f8)" d="M 1123.541889 945 
L 1123.541889 129.6 
L 1123.805401 129.6 
L 1123.805401 945 
z
" style="fill:#ff0000;opacity:0.5;stroke:#ff0000;stroke-linejoin:miter;"/>
   </g>
   <g id="matplotlib.axis_1">
    <g id="xtick_1">
     <g id="line2d_1">
      <defs>
       <path d="M 0 0 
L 0 3.5 
" id="m991b6684d8" style="stroke:#000000;stroke-width:0.8;"/>
      </defs>
      <g>
       <use style="stroke:#000000;stroke-width:0.8;" x="357.855362" xlink:href="#m991b6684d8" y="945"/>
      </g>
     </g>
     <g id="text_1">
      <!-- 20 -->
      <g transform="translate(333.330518 968.716563)scale(0.22 -0.22)">
       <defs>
        <path d="M 10.59375 37.109375 
L 73.1875 37.109375 
L 73.1875 25.59375 
L 10.59375 25.59375 
z
" id="DejaVuSans-Bold-8722"/>
        <path d="M 28.8125 13.8125 
L 60.890625 13.8125 
L 60.890625 0 
L 7.90625 0 
L 7.90625 13.8125 
L 34.515625 37.3125 
Q 38.09375 40.53125 39.796875 43.609375 
Q 41.5 46.6875 41.5 50 
Q 41.5 55.125 38.0625 58.25 
Q 34.625 61.375 28.90625 61.375 
Q 24.515625 61.375 19.28125 59.5 
Q 14.0625 57.625 8.109375 53.90625 
L 8.109375 69.921875 
Q 14.453125 72.015625 20.65625 73.109375 
Q 26.859375 74.21875 32.8125 74.21875 
Q 45.90625 74.21875 53.15625 68.453125 
Q 60.40625 62.703125 60.40625 52.390625 
Q 60.40625 46.4375 57.328125 41.28125 
Q 54.25 36.140625 44.390625 27.484375 
z
" id="DejaVuSans-Bold-50"/>
        <path d="M 46 36.53125 
Q 46 50.203125 43.4375 55.78125 
Q 40.875 61.375 34.8125 61.375 
Q 28.765625 61.375 26.171875 55.78125 
Q 23.578125 50.203125 23.578125 36.53125 
Q 23.578125 22.703125 26.171875 17.03125 
Q 28.765625 11.375 34.8125 11.375 
Q 40.828125 11.375 43.40625 17.03125 
Q 46 22.703125 46 36.53125 
z
M 64.796875 36.375 
Q 64.796875 18.265625 56.984375 8.421875 
Q 49.171875 -1.421875 34.8125 -1.421875 
Q 20.40625 -1.421875 12.59375 8.421875 
Q 4.78125 18.265625 4.78125 36.375 
Q 4.78125 54.546875 12.59375 64.375 
Q 20.40625 74.21875 34.8125 74.21875 
Q 49.171875 74.21875 56.984375 64.375 
Q 64.796875 54.546875 64.796875 36.375 
z
" id="DejaVuSans-Bold-48"/>
       </defs>
       <use xlink:href="#DejaVuSans-Bold-8722"/>
       <use x="83.789062" xlink:href="#DejaVuSans-Bold-50"/>
       <use x="153.369141" xlink:href="#DejaVuSans-Bold-48"/>
      </g>
     </g>
    </g>
    <g id="xtick_2">
     <g id="line2d_2">
      <g>
       <use style="stroke:#000000;stroke-width:0.8;" x="553.226639" xlink:href="#m991b6684d8" y="945"/>
      </g>
     </g>
     <g id="text_2">
      <!-- 15 -->
      <g transform="translate(528.701795 968.716563)scale(0.22 -0.22)">
       <defs>
        <path d="M 11.71875 12.984375 
L 28.328125 12.984375 
L 28.328125 60.109375 
L 11.28125 56.59375 
L 11.28125 69.390625 
L 28.21875 72.90625 
L 46.09375 72.90625 
L 46.09375 12.984375 
L 62.703125 12.984375 
L 62.703125 0 
L 11.71875 0 
z
" id="DejaVuSans-Bold-49"/>
        <path d="M 10.59375 72.90625 
L 57.328125 72.90625 
L 57.328125 59.078125 
L 25.59375 59.078125 
L 25.59375 47.796875 
Q 27.734375 48.390625 29.90625 48.703125 
Q 32.078125 49.03125 34.421875 49.03125 
Q 47.75 49.03125 55.171875 42.359375 
Q 62.59375 35.6875 62.59375 23.78125 
Q 62.59375 11.96875 54.515625 5.265625 
Q 46.4375 -1.421875 32.078125 -1.421875 
Q 25.875 -1.421875 19.796875 -0.21875 
Q 13.71875 0.984375 7.71875 3.421875 
L 7.71875 18.21875 
Q 13.671875 14.796875 19.015625 13.078125 
Q 24.359375 11.375 29.109375 11.375 
Q 35.9375 11.375 39.859375 14.71875 
Q 43.796875 18.0625 43.796875 23.78125 
Q 43.796875 29.546875 39.859375 32.859375 
Q 35.9375 36.1875 29.109375 36.1875 
Q 25.046875 36.1875 20.453125 35.125 
Q 15.875 34.078125 10.59375 31.890625 
z
" id="DejaVuSans-Bold-53"/>
       </defs>
       <use xlink:href="#DejaVuSans-Bold-8722"/>
       <use x="83.789062" xlink:href="#DejaVuSans-Bold-49"/>
       <use x="153.369141" xlink:href="#DejaVuSans-Bold-53"/>
      </g>
     </g>
    </g>
    <g id="xtick_3">
     <g id="line2d_3">
      <g>
       <use style="stroke:#000000;stroke-width:0.8;" x="748.597915" xlink:href="#m991b6684d8" y="945"/>
      </g>
     </g>
     <g id="text_3">
      <!-- 10 -->
      <g transform="translate(724.073071 968.716563)scale(0.22 -0.22)">
       <use xlink:href="#DejaVuSans-Bold-8722"/>
       <use x="83.789062" xlink:href="#DejaVuSans-Bold-49"/>
       <use x="153.369141" xlink:href="#DejaVuSans-Bold-48"/>
      </g>
     </g>
    </g>
    <g id="xtick_4">
     <g id="line2d_4">
      <g>
       <use style="stroke:#000000;stroke-width:0.8;" x="943.969191" xlink:href="#m991b6684d8" y="945"/>
      </g>
     </g>
     <g id="text_4">
      <!-- 5 -->
      <g transform="translate(927.097941 968.716563)scale(0.22 -0.22)">
       <use xlink:href="#DejaVuSans-Bold-8722"/>
       <use x="83.789062" xlink:href="#DejaVuSans-Bold-53"/>
      </g>
     </g>
    </g>
    <g id="xtick_5">
     <g id="line2d_5">
      <g>
       <use style="stroke:#000000;stroke-width:0.8;" x="1139.340468" xlink:href="#m991b6684d8" y="945"/>
      </g>
     </g>
     <g id="text_5">
      <!-- 0 -->
      <g transform="translate(1131.686874 968.716563)scale(0.22 -0.22)">
       <use xlink:href="#DejaVuSans-Bold-48"/>
      </g>
     </g>
    </g>
   </g>
   <g id="matplotlib.axis_2">
    <g id="ytick_1">
     <g id="line2d_6">
      <defs>
       <path d="M 0 0 
L -3.5 0 
" id="mee2fb10f08" style="stroke:#000000;stroke-width:0.8;"/>
      </defs>
      <g>
       <use style="stroke:#000000;stroke-width:0.8;" x="180" xlink:href="#mee2fb10f08" y="945"/>
      </g>
     </g>
     <g id="text_6">
      <!-- 0 -->
      <g transform="translate(157.692813 953.358281)scale(0.22 -0.22)">
       <use xlink:href="#DejaVuSans-Bold-48"/>
      </g>
     </g>
    </g>
    <g id="ytick_2">
     <g id="line2d_7">
      <g>
       <use style="stroke:#000000;stroke-width:0.8;" x="180" xlink:href="#mee2fb10f08" y="796.799346"/>
      </g>
     </g>
     <g id="text_7">
      <!-- 50 -->
      <g transform="translate(142.385625 805.157627)scale(0.22 -0.22)">
       <use xlink:href="#DejaVuSans-Bold-53"/>
       <use x="69.580078" xlink:href="#DejaVuSans-Bold-48"/>
      </g>
     </g>
    </g>
    <g id="ytick_3">
     <g id="line2d_8">
      <g>
       <use style="stroke:#000000;stroke-width:0.8;" x="180" xlink:href="#mee2fb10f08" y="648.598691"/>
      </g>
     </g>
     <g id="text_8">
      <!-- 100 -->
      <g transform="translate(127.078438 656.956973)scale(0.22 -0.22)">
       <use xlink:href="#DejaVuSans-Bold-49"/>
       <use x="69.580078" xlink:href="#DejaVuSans-Bold-48"/>
       <use x="139.160156" xlink:href="#DejaVuSans-Bold-48"/>
      </g>
     </g>
    </g>
    <g id="ytick_4">
     <g id="line2d_9">
      <g>
       <use style="stroke:#000000;stroke-width:0.8;" x="180" xlink:href="#mee2fb10f08" y="500.398037"/>
      </g>
     </g>
     <g id="text_9">
      <!-- 150 -->
      <g transform="translate(127.078438 508.756318)scale(0.22 -0.22)">
       <use xlink:href="#DejaVuSans-Bold-49"/>
       <use x="69.580078" xlink:href="#DejaVuSans-Bold-53"/>
       <use x="139.160156" xlink:href="#DejaVuSans-Bold-48"/>
      </g>
     </g>
    </g>
    <g id="ytick_5">
     <g id="line2d_10">
      <g>
       <use style="stroke:#000000;stroke-width:0.8;" x="180" xlink:href="#mee2fb10f08" y="352.197383"/>
      </g>
     </g>
     <g id="text_10">
      <!-- 200 -->
      <g transform="translate(127.078438 360.555664)scale(0.22 -0.22)">
       <use xlink:href="#DejaVuSans-Bold-50"/>
       <use x="69.580078" xlink:href="#DejaVuSans-Bold-48"/>
       <use x="139.160156" xlink:href="#DejaVuSans-Bold-48"/>
      </g>
     </g>
    </g>
    <g id="ytick_6">
     <g id="line2d_11">
      <g>
       <use style="stroke:#000000;stroke-width:0.8;" x="180" xlink:href="#mee2fb10f08" y="203.996728"/>
      </g>
     </g>
     <g id="text_11">
      <!-- 250 -->
      <g transform="translate(127.078438 212.35501)scale(0.22 -0.22)">
       <use xlink:href="#DejaVuSans-Bold-50"/>
       <use x="69.580078" xlink:href="#DejaVuSans-Bold-53"/>
       <use x="139.160156" xlink:href="#DejaVuSans-Bold-48"/>
      </g>
     </g>
    </g>
   </g>
   <g id="line2d_12">
    <path clip-path="url(#pf6e20f97f8)" d="M 1123.673645 945 
L 1123.673645 129.6 
" style="fill:none;stroke:#000000;stroke-linecap:square;stroke-width:1.5;"/>
   </g>
   <g id="patch_349">
    <path d="M 180 945 
L 180 129.6 
" style="fill:none;stroke:#000000;stroke-linecap:square;stroke-linejoin:miter;stroke-width:0.8;"/>
   </g>
   <g id="patch_350">
    <path d="M 1296 945 
L 1296 129.6 
" style="fill:none;stroke:#000000;stroke-linecap:square;stroke-linejoin:miter;stroke-width:0.8;"/>
   </g>
   <g id="patch_351">
    <path d="M 180 945 
L 1296 945 
" style="fill:none;stroke:#000000;stroke-linecap:square;stroke-linejoin:miter;stroke-width:0.8;"/>
   </g>
   <g id="patch_352">
    <path d="M 180 129.6 
L 1296 129.6 
" style="fill:none;stroke:#000000;stroke-linecap:square;stroke-linejoin:miter;stroke-width:0.8;"/>
   </g>
   <g id="text_12">
    <!-- logFC histogram and average variance -->
    <g transform="translate(481.666313 123.6)scale(0.264 -0.264)">
     <defs>
      <path d="M 9.421875 75.984375 
L 18.40625 75.984375 
L 18.40625 0 
L 9.421875 0 
z
" id="DejaVuSans-108"/>
      <path d="M 30.609375 48.390625 
Q 23.390625 48.390625 19.1875 42.75 
Q 14.984375 37.109375 14.984375 27.296875 
Q 14.984375 17.484375 19.15625 11.84375 
Q 23.34375 6.203125 30.609375 6.203125 
Q 37.796875 6.203125 41.984375 11.859375 
Q 46.1875 17.53125 46.1875 27.296875 
Q 46.1875 37.015625 41.984375 42.703125 
Q 37.796875 48.390625 30.609375 48.390625 
z
M 30.609375 56 
Q 42.328125 56 49.015625 48.375 
Q 55.71875 40.765625 55.71875 27.296875 
Q 55.71875 13.875 49.015625 6.21875 
Q 42.328125 -1.421875 30.609375 -1.421875 
Q 18.84375 -1.421875 12.171875 6.21875 
Q 5.515625 13.875 5.515625 27.296875 
Q 5.515625 40.765625 12.171875 48.375 
Q 18.84375 56 30.609375 56 
z
" id="DejaVuSans-111"/>
      <path d="M 45.40625 27.984375 
Q 45.40625 37.75 41.375 43.109375 
Q 37.359375 48.484375 30.078125 48.484375 
Q 22.859375 48.484375 18.828125 43.109375 
Q 14.796875 37.75 14.796875 27.984375 
Q 14.796875 18.265625 18.828125 12.890625 
Q 22.859375 7.515625 30.078125 7.515625 
Q 37.359375 7.515625 41.375 12.890625 
Q 45.40625 18.265625 45.40625 27.984375 
z
M 54.390625 6.78125 
Q 54.390625 -7.171875 48.1875 -13.984375 
Q 42 -20.796875 29.203125 -20.796875 
Q 24.46875 -20.796875 20.265625 -20.09375 
Q 16.0625 -19.390625 12.109375 -17.921875 
L 12.109375 -9.1875 
Q 16.0625 -11.328125 19.921875 -12.34375 
Q 23.78125 -13.375 27.78125 -13.375 
Q 36.625 -13.375 41.015625 -8.765625 
Q 45.40625 -4.15625 45.40625 5.171875 
L 45.40625 9.625 
Q 42.625 4.78125 38.28125 2.390625 
Q 33.9375 0 27.875 0 
Q 17.828125 0 11.671875 7.65625 
Q 5.515625 15.328125 5.515625 27.984375 
Q 5.515625 40.671875 11.671875 48.328125 
Q 17.828125 56 27.875 56 
Q 33.9375 56 38.28125 53.609375 
Q 42.625 51.21875 45.40625 46.390625 
L 45.40625 54.6875 
L 54.390625 54.6875 
z
" id="DejaVuSans-103"/>
      <path d="M 9.8125 72.90625 
L 51.703125 72.90625 
L 51.703125 64.59375 
L 19.671875 64.59375 
L 19.671875 43.109375 
L 48.578125 43.109375 
L 48.578125 34.8125 
L 19.671875 34.8125 
L 19.671875 0 
L 9.8125 0 
z
" id="DejaVuSans-70"/>
      <path d="M 64.40625 67.28125 
L 64.40625 56.890625 
Q 59.421875 61.53125 53.78125 63.8125 
Q 48.140625 66.109375 41.796875 66.109375 
Q 29.296875 66.109375 22.65625 58.46875 
Q 16.015625 50.828125 16.015625 36.375 
Q 16.015625 21.96875 22.65625 14.328125 
Q 29.296875 6.6875 41.796875 6.6875 
Q 48.140625 6.6875 53.78125 8.984375 
Q 59.421875 11.28125 64.40625 15.921875 
L 64.40625 5.609375 
Q 59.234375 2.09375 53.4375 0.328125 
Q 47.65625 -1.421875 41.21875 -1.421875 
Q 24.65625 -1.421875 15.125 8.703125 
Q 5.609375 18.84375 5.609375 36.375 
Q 5.609375 53.953125 15.125 64.078125 
Q 24.65625 74.21875 41.21875 74.21875 
Q 47.75 74.21875 53.53125 72.484375 
Q 59.328125 70.75 64.40625 67.28125 
z
" id="DejaVuSans-67"/>
      <path id="DejaVuSans-32"/>
      <path d="M 54.890625 33.015625 
L 54.890625 0 
L 45.90625 0 
L 45.90625 32.71875 
Q 45.90625 40.484375 42.875 44.328125 
Q 39.84375 48.1875 33.796875 48.1875 
Q 26.515625 48.1875 22.3125 43.546875 
Q 18.109375 38.921875 18.109375 30.90625 
L 18.109375 0 
L 9.078125 0 
L 9.078125 75.984375 
L 18.109375 75.984375 
L 18.109375 46.1875 
Q 21.34375 51.125 25.703125 53.5625 
Q 30.078125 56 35.796875 56 
Q 45.21875 56 50.046875 50.171875 
Q 54.890625 44.34375 54.890625 33.015625 
z
" id="DejaVuSans-104"/>
      <path d="M 9.421875 54.6875 
L 18.40625 54.6875 
L 18.40625 0 
L 9.421875 0 
z
M 9.421875 75.984375 
L 18.40625 75.984375 
L 18.40625 64.59375 
L 9.421875 64.59375 
z
" id="DejaVuSans-105"/>
      <path d="M 44.28125 53.078125 
L 44.28125 44.578125 
Q 40.484375 46.53125 36.375 47.5 
Q 32.28125 48.484375 27.875 48.484375 
Q 21.1875 48.484375 17.84375 46.4375 
Q 14.5 44.390625 14.5 40.28125 
Q 14.5 37.15625 16.890625 35.375 
Q 19.28125 33.59375 26.515625 31.984375 
L 29.59375 31.296875 
Q 39.15625 29.25 43.1875 25.515625 
Q 47.21875 21.78125 47.21875 15.09375 
Q 47.21875 7.46875 41.1875 3.015625 
Q 35.15625 -1.421875 24.609375 -1.421875 
Q 20.21875 -1.421875 15.453125 -0.5625 
Q 10.6875 0.296875 5.421875 2 
L 5.421875 11.28125 
Q 10.40625 8.6875 15.234375 7.390625 
Q 20.0625 6.109375 24.8125 6.109375 
Q 31.15625 6.109375 34.5625 8.28125 
Q 37.984375 10.453125 37.984375 14.40625 
Q 37.984375 18.0625 35.515625 20.015625 
Q 33.0625 21.96875 24.703125 23.78125 
L 21.578125 24.515625 
Q 13.234375 26.265625 9.515625 29.90625 
Q 5.8125 33.546875 5.8125 39.890625 
Q 5.8125 47.609375 11.28125 51.796875 
Q 16.75 56 26.8125 56 
Q 31.78125 56 36.171875 55.265625 
Q 40.578125 54.546875 44.28125 53.078125 
z
" id="DejaVuSans-115"/>
      <path d="M 18.3125 70.21875 
L 18.3125 54.6875 
L 36.8125 54.6875 
L 36.8125 47.703125 
L 18.3125 47.703125 
L 18.3125 18.015625 
Q 18.3125 11.328125 20.140625 9.421875 
Q 21.96875 7.515625 27.59375 7.515625 
L 36.8125 7.515625 
L 36.8125 0 
L 27.59375 0 
Q 17.1875 0 13.234375 3.875 
Q 9.28125 7.765625 9.28125 18.015625 
L 9.28125 47.703125 
L 2.6875 47.703125 
L 2.6875 54.6875 
L 9.28125 54.6875 
L 9.28125 70.21875 
z
" id="DejaVuSans-116"/>
      <path d="M 41.109375 46.296875 
Q 39.59375 47.171875 37.8125 47.578125 
Q 36.03125 48 33.890625 48 
Q 26.265625 48 22.1875 43.046875 
Q 18.109375 38.09375 18.109375 28.8125 
L 18.109375 0 
L 9.078125 0 
L 9.078125 54.6875 
L 18.109375 54.6875 
L 18.109375 46.1875 
Q 20.953125 51.171875 25.484375 53.578125 
Q 30.03125 56 36.53125 56 
Q 37.453125 56 38.578125 55.875 
Q 39.703125 55.765625 41.0625 55.515625 
z
" id="DejaVuSans-114"/>
      <path d="M 34.28125 27.484375 
Q 23.390625 27.484375 19.1875 25 
Q 14.984375 22.515625 14.984375 16.5 
Q 14.984375 11.71875 18.140625 8.90625 
Q 21.296875 6.109375 26.703125 6.109375 
Q 34.1875 6.109375 38.703125 11.40625 
Q 43.21875 16.703125 43.21875 25.484375 
L 43.21875 27.484375 
z
M 52.203125 31.203125 
L 52.203125 0 
L 43.21875 0 
L 43.21875 8.296875 
Q 40.140625 3.328125 35.546875 0.953125 
Q 30.953125 -1.421875 24.3125 -1.421875 
Q 15.921875 -1.421875 10.953125 3.296875 
Q 6 8.015625 6 15.921875 
Q 6 25.140625 12.171875 29.828125 
Q 18.359375 34.515625 30.609375 34.515625 
L 43.21875 34.515625 
L 43.21875 35.40625 
Q 43.21875 41.609375 39.140625 45 
Q 35.0625 48.390625 27.6875 48.390625 
Q 23 48.390625 18.546875 47.265625 
Q 14.109375 46.140625 10.015625 43.890625 
L 10.015625 52.203125 
Q 14.9375 54.109375 19.578125 55.046875 
Q 24.21875 56 28.609375 56 
Q 40.484375 56 46.34375 49.84375 
Q 52.203125 43.703125 52.203125 31.203125 
z
" id="DejaVuSans-97"/>
      <path d="M 52 44.1875 
Q 55.375 50.25 60.0625 53.125 
Q 64.75 56 71.09375 56 
Q 79.640625 56 84.28125 50.015625 
Q 88.921875 44.046875 88.921875 33.015625 
L 88.921875 0 
L 79.890625 0 
L 79.890625 32.71875 
Q 79.890625 40.578125 77.09375 44.375 
Q 74.3125 48.1875 68.609375 48.1875 
Q 61.625 48.1875 57.5625 43.546875 
Q 53.515625 38.921875 53.515625 30.90625 
L 53.515625 0 
L 44.484375 0 
L 44.484375 32.71875 
Q 44.484375 40.625 41.703125 44.40625 
Q 38.921875 48.1875 33.109375 48.1875 
Q 26.21875 48.1875 22.15625 43.53125 
Q 18.109375 38.875 18.109375 30.90625 
L 18.109375 0 
L 9.078125 0 
L 9.078125 54.6875 
L 18.109375 54.6875 
L 18.109375 46.1875 
Q 21.1875 51.21875 25.484375 53.609375 
Q 29.78125 56 35.6875 56 
Q 41.65625 56 45.828125 52.96875 
Q 50 49.953125 52 44.1875 
z
" id="DejaVuSans-109"/>
      <path d="M 54.890625 33.015625 
L 54.890625 0 
L 45.90625 0 
L 45.90625 32.71875 
Q 45.90625 40.484375 42.875 44.328125 
Q 39.84375 48.1875 33.796875 48.1875 
Q 26.515625 48.1875 22.3125 43.546875 
Q 18.109375 38.921875 18.109375 30.90625 
L 18.109375 0 
L 9.078125 0 
L 9.078125 54.6875 
L 18.109375 54.6875 
L 18.109375 46.1875 
Q 21.34375 51.125 25.703125 53.5625 
Q 30.078125 56 35.796875 56 
Q 45.21875 56 50.046875 50.171875 
Q 54.890625 44.34375 54.890625 33.015625 
z
" id="DejaVuSans-110"/>
      <path d="M 45.40625 46.390625 
L 45.40625 75.984375 
L 54.390625 75.984375 
L 54.390625 0 
L 45.40625 0 
L 45.40625 8.203125 
Q 42.578125 3.328125 38.25 0.953125 
Q 33.9375 -1.421875 27.875 -1.421875 
Q 17.96875 -1.421875 11.734375 6.484375 
Q 5.515625 14.40625 5.515625 27.296875 
Q 5.515625 40.1875 11.734375 48.09375 
Q 17.96875 56 27.875 56 
Q 33.9375 56 38.25 53.625 
Q 42.578125 51.265625 45.40625 46.390625 
z
M 14.796875 27.296875 
Q 14.796875 17.390625 18.875 11.75 
Q 22.953125 6.109375 30.078125 6.109375 
Q 37.203125 6.109375 41.296875 11.75 
Q 45.40625 17.390625 45.40625 27.296875 
Q 45.40625 37.203125 41.296875 42.84375 
Q 37.203125 48.484375 30.078125 48.484375 
Q 22.953125 48.484375 18.875 42.84375 
Q 14.796875 37.203125 14.796875 27.296875 
z
" id="DejaVuSans-100"/>
      <path d="M 2.984375 54.6875 
L 12.5 54.6875 
L 29.59375 8.796875 
L 46.6875 54.6875 
L 56.203125 54.6875 
L 35.6875 0 
L 23.484375 0 
z
" id="DejaVuSans-118"/>
      <path d="M 56.203125 29.59375 
L 56.203125 25.203125 
L 14.890625 25.203125 
Q 15.484375 15.921875 20.484375 11.0625 
Q 25.484375 6.203125 34.421875 6.203125 
Q 39.59375 6.203125 44.453125 7.46875 
Q 49.3125 8.734375 54.109375 11.28125 
L 54.109375 2.78125 
Q 49.265625 0.734375 44.1875 -0.34375 
Q 39.109375 -1.421875 33.890625 -1.421875 
Q 20.796875 -1.421875 13.15625 6.1875 
Q 5.515625 13.8125 5.515625 26.8125 
Q 5.515625 40.234375 12.765625 48.109375 
Q 20.015625 56 32.328125 56 
Q 43.359375 56 49.78125 48.890625 
Q 56.203125 41.796875 56.203125 29.59375 
z
M 47.21875 32.234375 
Q 47.125 39.59375 43.09375 43.984375 
Q 39.0625 48.390625 32.421875 48.390625 
Q 24.90625 48.390625 20.390625 44.140625 
Q 15.875 39.890625 15.1875 32.171875 
z
" id="DejaVuSans-101"/>
      <path d="M 48.78125 52.59375 
L 48.78125 44.1875 
Q 44.96875 46.296875 41.140625 47.34375 
Q 37.3125 48.390625 33.40625 48.390625 
Q 24.65625 48.390625 19.8125 42.84375 
Q 14.984375 37.3125 14.984375 27.296875 
Q 14.984375 17.28125 19.8125 11.734375 
Q 24.65625 6.203125 33.40625 6.203125 
Q 37.3125 6.203125 41.140625 7.25 
Q 44.96875 8.296875 48.78125 10.40625 
L 48.78125 2.09375 
Q 45.015625 0.34375 40.984375 -0.53125 
Q 36.96875 -1.421875 32.421875 -1.421875 
Q 20.0625 -1.421875 12.78125 6.34375 
Q 5.515625 14.109375 5.515625 27.296875 
Q 5.515625 40.671875 12.859375 48.328125 
Q 20.21875 56 33.015625 56 
Q 37.15625 56 41.109375 55.140625 
Q 45.0625 54.296875 48.78125 52.59375 
z
" id="DejaVuSans-99"/>
     </defs>
     <use xlink:href="#DejaVuSans-108"/>
     <use x="27.783203" xlink:href="#DejaVuSans-111"/>
     <use x="88.964844" xlink:href="#DejaVuSans-103"/>
     <use x="152.441406" xlink:href="#DejaVuSans-70"/>
     <use x="209.960938" xlink:href="#DejaVuSans-67"/>
     <use x="279.785156" xlink:href="#DejaVuSans-32"/>
     <use x="311.572266" xlink:href="#DejaVuSans-104"/>
     <use x="374.951172" xlink:href="#DejaVuSans-105"/>
     <use x="402.734375" xlink:href="#DejaVuSans-115"/>
     <use x="454.833984" xlink:href="#DejaVuSans-116"/>
     <use x="494.042969" xlink:href="#DejaVuSans-111"/>
     <use x="555.224609" xlink:href="#DejaVuSans-103"/>
     <use x="618.701172" xlink:href="#DejaVuSans-114"/>
     <use x="659.814453" xlink:href="#DejaVuSans-97"/>
     <use x="721.09375" xlink:href="#DejaVuSans-109"/>
     <use x="818.505859" xlink:href="#DejaVuSans-32"/>
     <use x="850.292969" xlink:href="#DejaVuSans-97"/>
     <use x="911.572266" xlink:href="#DejaVuSans-110"/>
     <use x="974.951172" xlink:href="#DejaVuSans-100"/>
     <use x="1038.427734" xlink:href="#DejaVuSans-32"/>
     <use x="1070.214844" xlink:href="#DejaVuSans-97"/>
     <use x="1131.494141" xlink:href="#DejaVuSans-118"/>
     <use x="1190.673828" xlink:href="#DejaVuSans-101"/>
     <use x="1252.197266" xlink:href="#DejaVuSans-114"/>
     <use x="1293.310547" xlink:href="#DejaVuSans-97"/>
     <use x="1354.589844" xlink:href="#DejaVuSans-103"/>
     <use x="1418.066406" xlink:href="#DejaVuSans-101"/>
     <use x="1479.589844" xlink:href="#DejaVuSans-32"/>
     <use x="1511.376953" xlink:href="#DejaVuSans-118"/>
     <use x="1570.556641" xlink:href="#DejaVuSans-97"/>
     <use x="1631.835938" xlink:href="#DejaVuSans-114"/>
     <use x="1672.949219" xlink:href="#DejaVuSans-105"/>
     <use x="1700.732422" xlink:href="#DejaVuSans-97"/>
     <use x="1762.011719" xlink:href="#DejaVuSans-110"/>
     <use x="1825.390625" xlink:href="#DejaVuSans-99"/>
     <use x="1880.371094" xlink:href="#DejaVuSans-101"/>
    </g>
   </g>
   <g id="legend_1">
    <g id="patch_353">
     <path d="M 576.211719 181.66375 
L 903.788281 181.66375 
Q 908.188281 181.66375 908.188281 177.26375 
L 908.188281 147 
Q 908.188281 142.6 903.788281 142.6 
L 576.211719 142.6 
Q 571.811719 142.6 571.811719 147 
L 571.811719 177.26375 
Q 571.811719 181.66375 576.211719 181.66375 
z
" style="fill:#4c4c4c;opacity:0.5;stroke:#4c4c4c;stroke-linejoin:miter;"/>
    </g>
    <g id="patch_354">
     <path d="M 574.211719 179.66375 
L 901.788281 179.66375 
Q 906.188281 179.66375 906.188281 175.26375 
L 906.188281 145 
Q 906.188281 140.6 901.788281 140.6 
L 574.211719 140.6 
Q 569.811719 140.6 569.811719 145 
L 569.811719 175.26375 
Q 569.811719 179.66375 574.211719 179.66375 
z
" style="fill:#ffffff;stroke:#cccccc;stroke-linejoin:miter;"/>
    </g>
    <g id="line2d_13">
     <path d="M 578.611719 158.416563 
L 622.611719 158.416563 
" style="fill:none;stroke:#000000;stroke-linecap:square;stroke-width:1.5;"/>
    </g>
    <g id="line2d_14"/>
    <g id="text_13">
     <!-- average var:  0.0034 -->
     <g transform="translate(640.211719 166.116563)scale(0.22 -0.22)">
      <defs>
       <path d="M 32.90625 24.609375 
Q 27.4375 24.609375 24.671875 22.75 
Q 21.921875 20.90625 21.921875 17.28125 
Q 21.921875 13.96875 24.140625 12.078125 
Q 26.375 10.203125 30.328125 10.203125 
Q 35.25 10.203125 38.625 13.734375 
Q 42 17.28125 42 22.609375 
L 42 24.609375 
z
M 59.625 31.203125 
L 59.625 0 
L 42 0 
L 42 8.109375 
Q 38.484375 3.125 34.078125 0.84375 
Q 29.6875 -1.421875 23.390625 -1.421875 
Q 14.890625 -1.421875 9.59375 3.53125 
Q 4.296875 8.5 4.296875 16.40625 
Q 4.296875 26.03125 10.90625 30.515625 
Q 17.53125 35.015625 31.6875 35.015625 
L 42 35.015625 
L 42 36.375 
Q 42 40.53125 38.71875 42.453125 
Q 35.453125 44.390625 28.515625 44.390625 
Q 22.90625 44.390625 18.0625 43.265625 
Q 13.234375 42.140625 9.078125 39.890625 
L 9.078125 53.21875 
Q 14.703125 54.59375 20.359375 55.296875 
Q 26.03125 56 31.6875 56 
Q 46.484375 56 53.046875 50.171875 
Q 59.625 44.34375 59.625 31.203125 
z
" id="DejaVuSans-Bold-97"/>
       <path d="M 1.515625 54.6875 
L 19 54.6875 
L 32.625 16.890625 
L 46.1875 54.6875 
L 63.71875 54.6875 
L 42.1875 0 
L 23 0 
z
" id="DejaVuSans-Bold-118"/>
       <path d="M 62.984375 27.484375 
L 62.984375 22.515625 
L 22.125 22.515625 
Q 22.75 16.359375 26.5625 13.28125 
Q 30.375 10.203125 37.203125 10.203125 
Q 42.71875 10.203125 48.5 11.84375 
Q 54.296875 13.484375 60.40625 16.796875 
L 60.40625 3.328125 
Q 54.203125 0.984375 48 -0.21875 
Q 41.796875 -1.421875 35.59375 -1.421875 
Q 20.75 -1.421875 12.515625 6.125 
Q 4.296875 13.671875 4.296875 27.296875 
Q 4.296875 40.671875 12.375 48.328125 
Q 20.453125 56 34.625 56 
Q 47.515625 56 55.25 48.234375 
Q 62.984375 40.484375 62.984375 27.484375 
z
M 45.015625 33.296875 
Q 45.015625 38.28125 42.109375 41.328125 
Q 39.203125 44.390625 34.515625 44.390625 
Q 29.4375 44.390625 26.265625 41.53125 
Q 23.09375 38.671875 22.3125 33.296875 
z
" id="DejaVuSans-Bold-101"/>
       <path d="M 49.03125 39.796875 
Q 46.734375 40.875 44.453125 41.375 
Q 42.1875 41.890625 39.890625 41.890625 
Q 33.15625 41.890625 29.515625 37.5625 
Q 25.875 33.25 25.875 25.203125 
L 25.875 0 
L 8.40625 0 
L 8.40625 54.6875 
L 25.875 54.6875 
L 25.875 45.703125 
Q 29.25 51.078125 33.609375 53.53125 
Q 37.984375 56 44.09375 56 
Q 44.96875 56 45.984375 55.921875 
Q 47.015625 55.859375 48.96875 55.609375 
z
" id="DejaVuSans-Bold-114"/>
       <path d="M 45.609375 9.28125 
Q 42 4.5 37.640625 2.25 
Q 33.296875 0 27.59375 0 
Q 17.578125 0 11.03125 7.875 
Q 4.5 15.765625 4.5 27.984375 
Q 4.5 40.234375 11.03125 48.0625 
Q 17.578125 55.90625 27.59375 55.90625 
Q 33.296875 55.90625 37.640625 53.65625 
Q 42 51.421875 45.609375 46.578125 
L 45.609375 54.6875 
L 63.1875 54.6875 
L 63.1875 5.515625 
Q 63.1875 -7.671875 54.859375 -14.625 
Q 46.53125 -21.578125 30.71875 -21.578125 
Q 25.59375 -21.578125 20.796875 -20.796875 
Q 16.015625 -20.015625 11.1875 -18.40625 
L 11.1875 -4.78125 
Q 15.765625 -7.421875 20.15625 -8.71875 
Q 24.5625 -10.015625 29 -10.015625 
Q 37.59375 -10.015625 41.59375 -6.25 
Q 45.609375 -2.484375 45.609375 5.515625 
z
M 34.078125 43.3125 
Q 28.65625 43.3125 25.625 39.296875 
Q 22.609375 35.296875 22.609375 27.984375 
Q 22.609375 20.453125 25.53125 16.578125 
Q 28.46875 12.703125 34.078125 12.703125 
Q 39.546875 12.703125 42.578125 16.703125 
Q 45.609375 20.703125 45.609375 27.984375 
Q 45.609375 35.296875 42.578125 39.296875 
Q 39.546875 43.3125 34.078125 43.3125 
z
" id="DejaVuSans-Bold-103"/>
       <path id="DejaVuSans-Bold-32"/>
       <path d="M 11.1875 54.6875 
L 28.8125 54.6875 
L 28.8125 35.796875 
L 11.1875 35.796875 
z
M 11.1875 18.890625 
L 28.8125 18.890625 
L 28.8125 0 
L 11.1875 0 
z
" id="DejaVuSans-Bold-58"/>
       <path d="M 10.203125 18.890625 
L 27.78125 18.890625 
L 27.78125 0 
L 10.203125 0 
z
" id="DejaVuSans-Bold-46"/>
       <path d="M 46.578125 39.3125 
Q 53.953125 37.40625 57.78125 32.6875 
Q 61.625 27.984375 61.625 20.703125 
Q 61.625 9.859375 53.3125 4.21875 
Q 45.015625 -1.421875 29.109375 -1.421875 
Q 23.484375 -1.421875 17.84375 -0.515625 
Q 12.203125 0.390625 6.6875 2.203125 
L 6.6875 16.703125 
Q 11.96875 14.0625 17.15625 12.71875 
Q 22.359375 11.375 27.390625 11.375 
Q 34.859375 11.375 38.84375 13.953125 
Q 42.828125 16.546875 42.828125 21.390625 
Q 42.828125 26.375 38.75 28.9375 
Q 34.671875 31.5 26.703125 31.5 
L 19.1875 31.5 
L 19.1875 43.609375 
L 27.09375 43.609375 
Q 34.1875 43.609375 37.640625 45.828125 
Q 41.109375 48.046875 41.109375 52.59375 
Q 41.109375 56.78125 37.734375 59.078125 
Q 34.375 61.375 28.21875 61.375 
Q 23.6875 61.375 19.046875 60.34375 
Q 14.40625 59.328125 9.8125 57.328125 
L 9.8125 71.09375 
Q 15.375 72.65625 20.84375 73.4375 
Q 26.3125 74.21875 31.59375 74.21875 
Q 45.796875 74.21875 52.84375 69.546875 
Q 59.90625 64.890625 59.90625 55.515625 
Q 59.90625 49.125 56.53125 45.046875 
Q 53.171875 40.96875 46.578125 39.3125 
z
" id="DejaVuSans-Bold-51"/>
       <path d="M 36.8125 57.421875 
L 16.21875 26.90625 
L 36.8125 26.90625 
z
M 33.6875 72.90625 
L 54.59375 72.90625 
L 54.59375 26.90625 
L 64.984375 26.90625 
L 64.984375 13.28125 
L 54.59375 13.28125 
L 54.59375 0 
L 36.8125 0 
L 36.8125 13.28125 
L 4.5 13.28125 
L 4.5 29.390625 
z
" id="DejaVuSans-Bold-52"/>
      </defs>
      <use xlink:href="#DejaVuSans-Bold-97"/>
      <use x="67.480469" xlink:href="#DejaVuSans-Bold-118"/>
      <use x="132.666016" xlink:href="#DejaVuSans-Bold-101"/>
      <use x="200.488281" xlink:href="#DejaVuSans-Bold-114"/>
      <use x="249.804688" xlink:href="#DejaVuSans-Bold-97"/>
      <use x="317.285156" xlink:href="#DejaVuSans-Bold-103"/>
      <use x="388.867188" xlink:href="#DejaVuSans-Bold-101"/>
      <use x="456.689453" xlink:href="#DejaVuSans-Bold-32"/>
      <use x="491.503906" xlink:href="#DejaVuSans-Bold-118"/>
      <use x="556.689453" xlink:href="#DejaVuSans-Bold-97"/>
      <use x="624.169922" xlink:href="#DejaVuSans-Bold-114"/>
      <use x="673.486328" xlink:href="#DejaVuSans-Bold-58"/>
      <use x="713.476562" xlink:href="#DejaVuSans-Bold-32"/>
      <use x="748.291016" xlink:href="#DejaVuSans-Bold-32"/>
      <use x="783.105469" xlink:href="#DejaVuSans-Bold-48"/>
      <use x="852.685547" xlink:href="#DejaVuSans-Bold-46"/>
      <use x="890.673828" xlink:href="#DejaVuSans-Bold-48"/>
      <use x="960.253906" xlink:href="#DejaVuSans-Bold-48"/>
      <use x="1029.833984" xlink:href="#DejaVuSans-Bold-51"/>
      <use x="1099.414062" xlink:href="#DejaVuSans-Bold-52"/>
     </g>
    </g>
   </g>
  </g>
 </g>
 <defs>
  <clipPath id="pf6e20f97f8">
   <rect height="815.4" width="1116" x="180" y="129.6"/>
  </clipPath>
 </defs>
</svg>
