<?xml version="1.0" encoding="utf-8" standalone="no"?>
<!DOCTYPE svg PUBLIC "-//W3C//DTD SVG 1.1//EN"
  "http://www.w3.org/Graphics/SVG/1.1/DTD/svg11.dtd">
<!-- Created with matplotlib (https://matplotlib.org/) -->
<svg height="1080pt" version="1.1" viewBox="0 0 1440 1080" width="1440pt" xmlns="http://www.w3.org/2000/svg" xmlns:xlink="http://www.w3.org/1999/xlink">
 <metadata>
  <rdf:RDF xmlns:cc="http://creativecommons.org/ns#" xmlns:dc="http://purl.org/dc/elements/1.1/" xmlns:rdf="http://www.w3.org/1999/02/22-rdf-syntax-ns#">
   <cc:Work>
    <dc:type rdf:resource="http://purl.org/dc/dcmitype/StillImage"/>
    <dc:date>2021-11-25T17:52:08.692352</dc:date>
    <dc:format>image/svg+xml</dc:format>
    <dc:creator>
     <cc:Agent>
      <dc:title>Matplotlib v3.3.4, https://matplotlib.org/</dc:title>
     </cc:Agent>
    </dc:creator>
   </cc:Work>
  </rdf:RDF>
 </metadata>
 <defs>
  <style type="text/css">*{stroke-linecap:butt;stroke-linejoin:round;}</style>
 </defs>
 <g id="figure_1">
  <g id="patch_1">
   <path d="M 0 1080 
L 1440 1080 
L 1440 0 
L 0 0 
z
" style="fill:#ffffff;"/>
  </g>
  <g id="axes_1">
   <g id="patch_2">
    <path d="M 180 945 
L 1296 945 
L 1296 129.6 
L 180 129.6 
z
" style="fill:#ffffff;"/>
   </g>
   <g id="PathCollection_1">
    <defs>
     <path d="M 0 4.330127 
C 1.148363 4.330127 2.249847 3.873878 3.061862 3.061862 
C 3.873878 2.249847 4.330127 1.148363 4.330127 0 
C 4.330127 -1.148363 3.873878 -2.249847 3.061862 -3.061862 
C 2.249847 -3.873878 1.148363 -4.330127 0 -4.330127 
C -1.148363 -4.330127 -2.249847 -3.873878 -3.061862 -3.061862 
C -3.873878 -2.249847 -4.330127 -1.148363 -4.330127 0 
C -4.330127 1.148363 -3.873878 2.249847 -3.061862 3.061862 
C -2.249847 3.873878 -1.148363 4.330127 0 4.330127 
z
" id="mdec25af039" style="stroke:#000000;stroke-opacity:0.7;stroke-width:0.5;"/>
    </defs>
    <g clip-path="url(#p820e96835c)">
     <use style="fill:#008000;fill-opacity:0.7;stroke:#000000;stroke-opacity:0.7;stroke-width:0.5;" x="599.990825" xlink:href="#mdec25af039" y="784.920179"/>
     <use style="fill:#008000;fill-opacity:0.7;stroke:#000000;stroke-opacity:0.7;stroke-width:0.5;" x="509.906683" xlink:href="#mdec25af039" y="868.455945"/>
     <use style="fill:#008000;fill-opacity:0.7;stroke:#000000;stroke-opacity:0.7;stroke-width:0.5;" x="700.632492" xlink:href="#mdec25af039" y="851.765337"/>
     <use style="fill:#008000;fill-opacity:0.7;stroke:#000000;stroke-opacity:0.7;stroke-width:0.5;" x="510.977824" xlink:href="#mdec25af039" y="807.165161"/>
     <use style="fill:#008000;fill-opacity:0.7;stroke:#000000;stroke-opacity:0.7;stroke-width:0.5;" x="323.135115" xlink:href="#mdec25af039" y="809.081046"/>
     <use style="fill:#008000;fill-opacity:0.7;stroke:#000000;stroke-opacity:0.7;stroke-width:0.5;" x="584.547581" xlink:href="#mdec25af039" y="743.038604"/>
     <use style="fill:#008000;fill-opacity:0.7;stroke:#000000;stroke-opacity:0.7;stroke-width:0.5;" x="337.312126" xlink:href="#mdec25af039" y="816.3644"/>
     <use style="fill:#008000;fill-opacity:0.7;stroke:#000000;stroke-opacity:0.7;stroke-width:0.5;" x="703.196459" xlink:href="#mdec25af039" y="676.278018"/>
     <use style="fill:#008000;fill-opacity:0.7;stroke:#000000;stroke-opacity:0.7;stroke-width:0.5;" x="488.024974" xlink:href="#mdec25af039" y="277.0941"/>
     <use style="fill:#008000;fill-opacity:0.7;stroke:#000000;stroke-opacity:0.7;stroke-width:0.5;" x="348.2026" xlink:href="#mdec25af039" y="808.520265"/>
     <use style="fill:#008000;fill-opacity:0.7;stroke:#000000;stroke-opacity:0.7;stroke-width:0.5;" x="568.273505" xlink:href="#mdec25af039" y="879.361828"/>
     <use style="fill:#008000;fill-opacity:0.7;stroke:#000000;stroke-opacity:0.7;stroke-width:0.5;" x="520.724107" xlink:href="#mdec25af039" y="861.501045"/>
     <use style="fill:#008000;fill-opacity:0.7;stroke:#000000;stroke-opacity:0.7;stroke-width:0.5;" x="441.494685" xlink:href="#mdec25af039" y="773.335292"/>
     <use style="fill:#008000;fill-opacity:0.7;stroke:#000000;stroke-opacity:0.7;stroke-width:0.5;" x="471.713386" xlink:href="#mdec25af039" y="390.98725"/>
     <use style="fill:#008000;fill-opacity:0.7;stroke:#000000;stroke-opacity:0.7;stroke-width:0.5;" x="230.727273" xlink:href="#mdec25af039" y="584.1318"/>
     <use style="fill:#008000;fill-opacity:0.7;stroke:#000000;stroke-opacity:0.7;stroke-width:0.5;" x="474.104317" xlink:href="#mdec25af039" y="703.231017"/>
     <use style="fill:#008000;fill-opacity:0.7;stroke:#000000;stroke-opacity:0.7;stroke-width:0.5;" x="521.649683" xlink:href="#mdec25af039" y="753.147413"/>
     <use style="fill:#008000;fill-opacity:0.7;stroke:#000000;stroke-opacity:0.7;stroke-width:0.5;" x="455.474315" xlink:href="#mdec25af039" y="902.851169"/>
     <use style="fill:#008000;fill-opacity:0.7;stroke:#000000;stroke-opacity:0.7;stroke-width:0.5;" x="703.157011" xlink:href="#mdec25af039" y="787.234293"/>
     <use style="fill:#008000;fill-opacity:0.7;stroke:#000000;stroke-opacity:0.7;stroke-width:0.5;" x="431.675646" xlink:href="#mdec25af039" y="840.643008"/>
     <use style="fill:#008000;fill-opacity:0.7;stroke:#000000;stroke-opacity:0.7;stroke-width:0.5;" x="433.981644" xlink:href="#mdec25af039" y="850.537112"/>
     <use style="fill:#008000;fill-opacity:0.7;stroke:#000000;stroke-opacity:0.7;stroke-width:0.5;" x="589.100174" xlink:href="#mdec25af039" y="907.936364"/>
     <use style="fill:#008000;fill-opacity:0.7;stroke:#000000;stroke-opacity:0.7;stroke-width:0.5;" x="627.825135" xlink:href="#mdec25af039" y="900.98968"/>
     <use style="fill:#008000;fill-opacity:0.7;stroke:#000000;stroke-opacity:0.7;stroke-width:0.5;" x="392.381552" xlink:href="#mdec25af039" y="842.433771"/>
     <use style="fill:#008000;fill-opacity:0.7;stroke:#000000;stroke-opacity:0.7;stroke-width:0.5;" x="514.916711" xlink:href="#mdec25af039" y="791.036765"/>
     <use style="fill:#008000;fill-opacity:0.7;stroke:#000000;stroke-opacity:0.7;stroke-width:0.5;" x="321.673677" xlink:href="#mdec25af039" y="784.405449"/>
     <use style="fill:#008000;fill-opacity:0.7;stroke:#000000;stroke-opacity:0.7;stroke-width:0.5;" x="423.557522" xlink:href="#mdec25af039" y="864.490416"/>
     <use style="fill:#008000;fill-opacity:0.7;stroke:#000000;stroke-opacity:0.7;stroke-width:0.5;" x="638.235716" xlink:href="#mdec25af039" y="787.587038"/>
     <use style="fill:#008000;fill-opacity:0.7;stroke:#000000;stroke-opacity:0.7;stroke-width:0.5;" x="925.562576" xlink:href="#mdec25af039" y="758.017917"/>
     <use style="fill:#008000;fill-opacity:0.7;stroke:#000000;stroke-opacity:0.7;stroke-width:0.5;" x="491.940504" xlink:href="#mdec25af039" y="436.521499"/>
     <use style="fill:#008000;fill-opacity:0.7;stroke:#000000;stroke-opacity:0.7;stroke-width:0.5;" x="577.292768" xlink:href="#mdec25af039" y="845.221073"/>
     <use style="fill:#008000;fill-opacity:0.7;stroke:#000000;stroke-opacity:0.7;stroke-width:0.5;" x="764.496752" xlink:href="#mdec25af039" y="836.744462"/>
     <use style="fill:#008000;fill-opacity:0.7;stroke:#000000;stroke-opacity:0.7;stroke-width:0.5;" x="487.045826" xlink:href="#mdec25af039" y="775.335445"/>
     <use style="fill:#008000;fill-opacity:0.7;stroke:#000000;stroke-opacity:0.7;stroke-width:0.5;" x="278.723662" xlink:href="#mdec25af039" y="695.523777"/>
     <use style="fill:#008000;fill-opacity:0.7;stroke:#000000;stroke-opacity:0.7;stroke-width:0.5;" x="618.805156" xlink:href="#mdec25af039" y="819.331199"/>
     <use style="fill:#008000;fill-opacity:0.7;stroke:#000000;stroke-opacity:0.7;stroke-width:0.5;" x="530.264416" xlink:href="#mdec25af039" y="721.761415"/>
     <use style="fill:#008000;fill-opacity:0.7;stroke:#000000;stroke-opacity:0.7;stroke-width:0.5;" x="782.31541" xlink:href="#mdec25af039" y="755.977733"/>
     <use style="fill:#008000;fill-opacity:0.7;stroke:#000000;stroke-opacity:0.7;stroke-width:0.5;" x="803.007607" xlink:href="#mdec25af039" y="781.264031"/>
     <use style="fill:#008000;fill-opacity:0.7;stroke:#000000;stroke-opacity:0.7;stroke-width:0.5;" x="650.403768" xlink:href="#mdec25af039" y="749.305475"/>
     <use style="fill:#008000;fill-opacity:0.7;stroke:#000000;stroke-opacity:0.7;stroke-width:0.5;" x="965.754454" xlink:href="#mdec25af039" y="709.844173"/>
     <use style="fill:#008000;fill-opacity:0.7;stroke:#000000;stroke-opacity:0.7;stroke-width:0.5;" x="704.4784" xlink:href="#mdec25af039" y="778.177175"/>
     <use style="fill:#008000;fill-opacity:0.7;stroke:#000000;stroke-opacity:0.7;stroke-width:0.5;" x="599.015833" xlink:href="#mdec25af039" y="839.717761"/>
     <use style="fill:#008000;fill-opacity:0.7;stroke:#000000;stroke-opacity:0.7;stroke-width:0.5;" x="989.933359" xlink:href="#mdec25af039" y="868.232036"/>
     <use style="fill:#008000;fill-opacity:0.7;stroke:#000000;stroke-opacity:0.7;stroke-width:0.5;" x="1238.500782" xlink:href="#mdec25af039" y="751.77249"/>
     <use style="fill:#008000;fill-opacity:0.7;stroke:#000000;stroke-opacity:0.7;stroke-width:0.5;" x="701.398026" xlink:href="#mdec25af039" y="865.109834"/>
     <use style="fill:#008000;fill-opacity:0.7;stroke:#000000;stroke-opacity:0.7;stroke-width:0.5;" x="392.054424" xlink:href="#mdec25af039" y="885.880719"/>
     <use style="fill:#008000;fill-opacity:0.7;stroke:#000000;stroke-opacity:0.7;stroke-width:0.5;" x="672.206455" xlink:href="#mdec25af039" y="799.794616"/>
     <use style="fill:#008000;fill-opacity:0.7;stroke:#000000;stroke-opacity:0.7;stroke-width:0.5;" x="624.58624" xlink:href="#mdec25af039" y="805.874896"/>
     <use style="fill:#008000;fill-opacity:0.7;stroke:#000000;stroke-opacity:0.7;stroke-width:0.5;" x="810.124713" xlink:href="#mdec25af039" y="768.978835"/>
     <use style="fill:#008000;fill-opacity:0.7;stroke:#000000;stroke-opacity:0.7;stroke-width:0.5;" x="595.919456" xlink:href="#mdec25af039" y="813.61403"/>
     <use style="fill:#008000;fill-opacity:0.7;stroke:#000000;stroke-opacity:0.7;stroke-width:0.5;" x="623.956805" xlink:href="#mdec25af039" y="597.25487"/>
     <use style="fill:#008000;fill-opacity:0.7;stroke:#000000;stroke-opacity:0.7;stroke-width:0.5;" x="853.385706" xlink:href="#mdec25af039" y="742.906195"/>
     <use style="fill:#008000;fill-opacity:0.7;stroke:#000000;stroke-opacity:0.7;stroke-width:0.5;" x="421.694357" xlink:href="#mdec25af039" y="902.357936"/>
     <use style="fill:#008000;fill-opacity:0.7;stroke:#000000;stroke-opacity:0.7;stroke-width:0.5;" x="1048.270765" xlink:href="#mdec25af039" y="650.117355"/>
     <use style="fill:#008000;fill-opacity:0.7;stroke:#000000;stroke-opacity:0.7;stroke-width:0.5;" x="863.149092" xlink:href="#mdec25af039" y="767.640797"/>
     <use style="fill:#008000;fill-opacity:0.7;stroke:#000000;stroke-opacity:0.7;stroke-width:0.5;" x="577.172391" xlink:href="#mdec25af039" y="808.543667"/>
     <use style="fill:#008000;fill-opacity:0.7;stroke:#000000;stroke-opacity:0.7;stroke-width:0.5;" x="565.281958" xlink:href="#mdec25af039" y="171.5481"/>
     <use style="fill:#008000;fill-opacity:0.7;stroke:#000000;stroke-opacity:0.7;stroke-width:0.5;" x="648.316634" xlink:href="#mdec25af039" y="763.548513"/>
     <use style="fill:#008000;fill-opacity:0.7;stroke:#000000;stroke-opacity:0.7;stroke-width:0.5;" x="515.601712" xlink:href="#mdec25af039" y="852.262134"/>
     <use style="fill:#008000;fill-opacity:0.7;stroke:#000000;stroke-opacity:0.7;stroke-width:0.5;" x="728.440792" xlink:href="#mdec25af039" y="785.737974"/>
     <use style="fill:#008000;fill-opacity:0.7;stroke:#000000;stroke-opacity:0.7;stroke-width:0.5;" x="813.44233" xlink:href="#mdec25af039" y="773.461856"/>
     <use style="fill:#008000;fill-opacity:0.7;stroke:#000000;stroke-opacity:0.7;stroke-width:0.5;" x="768.496118" xlink:href="#mdec25af039" y="826.528252"/>
     <use style="fill:#008000;fill-opacity:0.7;stroke:#000000;stroke-opacity:0.7;stroke-width:0.5;" x="940.046971" xlink:href="#mdec25af039" y="707.493069"/>
     <use style="fill:#008000;fill-opacity:0.7;stroke:#000000;stroke-opacity:0.7;stroke-width:0.5;" x="556.741371" xlink:href="#mdec25af039" y="781.51886"/>
     <use style="fill:#008000;fill-opacity:0.7;stroke:#000000;stroke-opacity:0.7;stroke-width:0.5;" x="600.047603" xlink:href="#mdec25af039" y="792.954326"/>
     <use style="fill:#008000;fill-opacity:0.7;stroke:#000000;stroke-opacity:0.7;stroke-width:0.5;" x="591.003654" xlink:href="#mdec25af039" y="808.822531"/>
     <use style="fill:#008000;fill-opacity:0.7;stroke:#000000;stroke-opacity:0.7;stroke-width:0.5;" x="445.522161" xlink:href="#mdec25af039" y="818.486619"/>
     <use style="fill:#008000;fill-opacity:0.7;stroke:#000000;stroke-opacity:0.7;stroke-width:0.5;" x="562.871684" xlink:href="#mdec25af039" y="833.851013"/>
     <use style="fill:#008000;fill-opacity:0.7;stroke:#000000;stroke-opacity:0.7;stroke-width:0.5;" x="382.758003" xlink:href="#mdec25af039" y="830.253413"/>
    </g>
   </g>
   <g id="PathCollection_2">
    <defs>
     <path d="M 0 -4.330127 
L -4.330127 4.330127 
L 4.330127 4.330127 
z
" id="m7141e092dd" style="stroke:#000000;stroke-opacity:0.7;stroke-width:0.5;"/>
    </defs>
    <g clip-path="url(#p820e96835c)">
     <use style="fill:#0000ff;fill-opacity:0.7;stroke:#000000;stroke-opacity:0.7;stroke-width:0.5;" x="606.765202" xlink:href="#m7141e092dd" y="780.035035"/>
     <use style="fill:#0000ff;fill-opacity:0.7;stroke:#000000;stroke-opacity:0.7;stroke-width:0.5;" x="516.674151" xlink:href="#m7141e092dd" y="863.577302"/>
     <use style="fill:#0000ff;fill-opacity:0.7;stroke:#000000;stroke-opacity:0.7;stroke-width:0.5;" x="707.493724" xlink:href="#m7141e092dd" y="846.976477"/>
     <use style="fill:#0000ff;fill-opacity:0.7;stroke:#000000;stroke-opacity:0.7;stroke-width:0.5;" x="517.745621" xlink:href="#m7141e092dd" y="802.282146"/>
     <use style="fill:#0000ff;fill-opacity:0.7;stroke:#000000;stroke-opacity:0.7;stroke-width:0.5;" x="329.904502" xlink:href="#m7141e092dd" y="804.1987"/>
     <use style="fill:#0000ff;fill-opacity:0.7;stroke:#000000;stroke-opacity:0.7;stroke-width:0.5;" x="591.314612" xlink:href="#m7141e092dd" y="738.162142"/>
     <use style="fill:#0000ff;fill-opacity:0.7;stroke:#000000;stroke-opacity:0.7;stroke-width:0.5;" x="344.081215" xlink:href="#m7141e092dd" y="811.481227"/>
     <use style="fill:#0000ff;fill-opacity:0.7;stroke:#000000;stroke-opacity:0.7;stroke-width:0.5;" x="709.96168" xlink:href="#m7141e092dd" y="671.402245"/>
     <use style="fill:#0000ff;fill-opacity:0.7;stroke:#000000;stroke-opacity:0.7;stroke-width:0.5;" x="494.806001" xlink:href="#m7141e092dd" y="271.919783"/>
     <use style="fill:#0000ff;fill-opacity:0.7;stroke:#000000;stroke-opacity:0.7;stroke-width:0.5;" x="354.967165" xlink:href="#m7141e092dd" y="803.640176"/>
     <use style="fill:#0000ff;fill-opacity:0.7;stroke:#000000;stroke-opacity:0.7;stroke-width:0.5;" x="575.043175" xlink:href="#m7141e092dd" y="874.481898"/>
     <use style="fill:#0000ff;fill-opacity:0.7;stroke:#000000;stroke-opacity:0.7;stroke-width:0.5;" x="527.49286" xlink:href="#m7141e092dd" y="856.62271"/>
     <use style="fill:#0000ff;fill-opacity:0.7;stroke:#000000;stroke-opacity:0.7;stroke-width:0.5;" x="448.264926" xlink:href="#m7141e092dd" y="768.451273"/>
     <use style="fill:#0000ff;fill-opacity:0.7;stroke:#000000;stroke-opacity:0.7;stroke-width:0.5;" x="478.474531" xlink:href="#m7141e092dd" y="385.406946"/>
     <use style="fill:#0000ff;fill-opacity:0.7;stroke:#000000;stroke-opacity:0.7;stroke-width:0.5;" x="237.49924" xlink:href="#m7141e092dd" y="579.252603"/>
     <use style="fill:#0000ff;fill-opacity:0.7;stroke:#000000;stroke-opacity:0.7;stroke-width:0.5;" x="480.871938" xlink:href="#m7141e092dd" y="698.353007"/>
     <use style="fill:#0000ff;fill-opacity:0.7;stroke:#000000;stroke-opacity:0.7;stroke-width:0.5;" x="528.417684" xlink:href="#m7141e092dd" y="748.741372"/>
     <use style="fill:#0000ff;fill-opacity:0.7;stroke:#000000;stroke-opacity:0.7;stroke-width:0.5;" x="462.206111" xlink:href="#m7141e092dd" y="897.807438"/>
     <use style="fill:#0000ff;fill-opacity:0.7;stroke:#000000;stroke-opacity:0.7;stroke-width:0.5;" x="710.026702" xlink:href="#m7141e092dd" y="782.349969"/>
     <use style="fill:#0000ff;fill-opacity:0.7;stroke:#000000;stroke-opacity:0.7;stroke-width:0.5;" x="438.445969" xlink:href="#m7141e092dd" y="835.762812"/>
     <use style="fill:#0000ff;fill-opacity:0.7;stroke:#000000;stroke-opacity:0.7;stroke-width:0.5;" x="440.75074" xlink:href="#m7141e092dd" y="845.655354"/>
     <use style="fill:#0000ff;fill-opacity:0.7;stroke:#000000;stroke-opacity:0.7;stroke-width:0.5;" x="595.869399" xlink:href="#m7141e092dd" y="903.055844"/>
     <use style="fill:#0000ff;fill-opacity:0.7;stroke:#000000;stroke-opacity:0.7;stroke-width:0.5;" x="634.511623" xlink:href="#m7141e092dd" y="895.97119"/>
     <use style="fill:#0000ff;fill-opacity:0.7;stroke:#000000;stroke-opacity:0.7;stroke-width:0.5;" x="399.116096" xlink:href="#m7141e092dd" y="837.399517"/>
     <use style="fill:#0000ff;fill-opacity:0.7;stroke:#000000;stroke-opacity:0.7;stroke-width:0.5;" x="521.685978" xlink:href="#m7141e092dd" y="786.156295"/>
     <use style="fill:#0000ff;fill-opacity:0.7;stroke:#000000;stroke-opacity:0.7;stroke-width:0.5;" x="328.440902" xlink:href="#m7141e092dd" y="779.527148"/>
     <use style="fill:#0000ff;fill-opacity:0.7;stroke:#000000;stroke-opacity:0.7;stroke-width:0.5;" x="430.327466" xlink:href="#m7141e092dd" y="859.603345"/>
     <use style="fill:#0000ff;fill-opacity:0.7;stroke:#000000;stroke-opacity:0.7;stroke-width:0.5;" x="645.004797" xlink:href="#m7141e092dd" y="782.711159"/>
     <use style="fill:#0000ff;fill-opacity:0.7;stroke:#000000;stroke-opacity:0.7;stroke-width:0.5;" x="932.343531" xlink:href="#m7141e092dd" y="753.139616"/>
     <use style="fill:#0000ff;fill-opacity:0.7;stroke:#000000;stroke-opacity:0.7;stroke-width:0.5;" x="498.699534" xlink:href="#m7141e092dd" y="430.945174"/>
     <use style="fill:#0000ff;fill-opacity:0.7;stroke:#000000;stroke-opacity:0.7;stroke-width:0.5;" x="584.0624" xlink:href="#m7141e092dd" y="840.338239"/>
     <use style="fill:#0000ff;fill-opacity:0.7;stroke:#000000;stroke-opacity:0.7;stroke-width:0.5;" x="771.270006" xlink:href="#m7141e092dd" y="831.861066"/>
     <use style="fill:#0000ff;fill-opacity:0.7;stroke:#000000;stroke-opacity:0.7;stroke-width:0.5;" x="493.816276" xlink:href="#m7141e092dd" y="770.45154"/>
     <use style="fill:#0000ff;fill-opacity:0.7;stroke:#000000;stroke-opacity:0.7;stroke-width:0.5;" x="285.495004" xlink:href="#m7141e092dd" y="690.644875"/>
     <use style="fill:#0000ff;fill-opacity:0.7;stroke:#000000;stroke-opacity:0.7;stroke-width:0.5;" x="625.576996" xlink:href="#m7141e092dd" y="814.449809"/>
     <use style="fill:#0000ff;fill-opacity:0.7;stroke:#000000;stroke-opacity:0.7;stroke-width:0.5;" x="537.031493" xlink:href="#m7141e092dd" y="716.880279"/>
     <use style="fill:#0000ff;fill-opacity:0.7;stroke:#000000;stroke-opacity:0.7;stroke-width:0.5;" x="789.111669" xlink:href="#m7141e092dd" y="751.099444"/>
     <use style="fill:#0000ff;fill-opacity:0.7;stroke:#000000;stroke-opacity:0.7;stroke-width:0.5;" x="809.777967" xlink:href="#m7141e092dd" y="776.375759"/>
     <use style="fill:#0000ff;fill-opacity:0.7;stroke:#000000;stroke-opacity:0.7;stroke-width:0.5;" x="657.172503" xlink:href="#m7141e092dd" y="744.426061"/>
     <use style="fill:#0000ff;fill-opacity:0.7;stroke:#000000;stroke-opacity:0.7;stroke-width:0.5;" x="972.521001" xlink:href="#m7141e092dd" y="704.96427"/>
     <use style="fill:#0000ff;fill-opacity:0.7;stroke:#000000;stroke-opacity:0.7;stroke-width:0.5;" x="711.25634" xlink:href="#m7141e092dd" y="773.291233"/>
     <use style="fill:#0000ff;fill-opacity:0.7;stroke:#000000;stroke-opacity:0.7;stroke-width:0.5;" x="605.787587" xlink:href="#m7141e092dd" y="834.84029"/>
     <use style="fill:#0000ff;fill-opacity:0.7;stroke:#000000;stroke-opacity:0.7;stroke-width:0.5;" x="996.701991" xlink:href="#m7141e092dd" y="863.354111"/>
     <use style="fill:#0000ff;fill-opacity:0.7;stroke:#000000;stroke-opacity:0.7;stroke-width:0.5;" x="1245.272727" xlink:href="#m7141e092dd" y="746.894029"/>
     <use style="fill:#0000ff;fill-opacity:0.7;stroke:#000000;stroke-opacity:0.7;stroke-width:0.5;" x="708.164648" xlink:href="#m7141e092dd" y="860.229868"/>
     <use style="fill:#0000ff;fill-opacity:0.7;stroke:#000000;stroke-opacity:0.7;stroke-width:0.5;" x="398.819595" xlink:href="#m7141e092dd" y="881.002598"/>
     <use style="fill:#0000ff;fill-opacity:0.7;stroke:#000000;stroke-opacity:0.7;stroke-width:0.5;" x="679.325696" xlink:href="#m7141e092dd" y="795.153574"/>
     <use style="fill:#0000ff;fill-opacity:0.7;stroke:#000000;stroke-opacity:0.7;stroke-width:0.5;" x="631.356325" xlink:href="#m7141e092dd" y="800.990944"/>
     <use style="fill:#0000ff;fill-opacity:0.7;stroke:#000000;stroke-opacity:0.7;stroke-width:0.5;" x="816.737173" xlink:href="#m7141e092dd" y="764.096954"/>
     <use style="fill:#0000ff;fill-opacity:0.7;stroke:#000000;stroke-opacity:0.7;stroke-width:0.5;" x="602.65911" xlink:href="#m7141e092dd" y="808.72005"/>
     <use style="fill:#0000ff;fill-opacity:0.7;stroke:#000000;stroke-opacity:0.7;stroke-width:0.5;" x="630.789018" xlink:href="#m7141e092dd" y="592.262567"/>
     <use style="fill:#0000ff;fill-opacity:0.7;stroke:#000000;stroke-opacity:0.7;stroke-width:0.5;" x="860.15925" xlink:href="#m7141e092dd" y="738.024961"/>
     <use style="fill:#0000ff;fill-opacity:0.7;stroke:#000000;stroke-opacity:0.7;stroke-width:0.5;" x="428.487147" xlink:href="#m7141e092dd" y="897.697531"/>
     <use style="fill:#0000ff;fill-opacity:0.7;stroke:#000000;stroke-opacity:0.7;stroke-width:0.5;" x="1054.77921" xlink:href="#m7141e092dd" y="645.404458"/>
     <use style="fill:#0000ff;fill-opacity:0.7;stroke:#000000;stroke-opacity:0.7;stroke-width:0.5;" x="869.91591" xlink:href="#m7141e092dd" y="762.764983"/>
     <use style="fill:#0000ff;fill-opacity:0.7;stroke:#000000;stroke-opacity:0.7;stroke-width:0.5;" x="583.942349" xlink:href="#m7141e092dd" y="803.663981"/>
     <use style="fill:#0000ff;fill-opacity:0.7;stroke:#000000;stroke-opacity:0.7;stroke-width:0.5;" x="572.051939" xlink:href="#m7141e092dd" y="166.663636"/>
     <use style="fill:#0000ff;fill-opacity:0.7;stroke:#000000;stroke-opacity:0.7;stroke-width:0.5;" x="655.085253" xlink:href="#m7141e092dd" y="758.670028"/>
     <use style="fill:#0000ff;fill-opacity:0.7;stroke:#000000;stroke-opacity:0.7;stroke-width:0.5;" x="522.369738" xlink:href="#m7141e092dd" y="847.384251"/>
     <use style="fill:#0000ff;fill-opacity:0.7;stroke:#000000;stroke-opacity:0.7;stroke-width:0.5;" x="735.209594" xlink:href="#m7141e092dd" y="780.857832"/>
     <use style="fill:#0000ff;fill-opacity:0.7;stroke:#000000;stroke-opacity:0.7;stroke-width:0.5;" x="820.213125" xlink:href="#m7141e092dd" y="768.584196"/>
     <use style="fill:#0000ff;fill-opacity:0.7;stroke:#000000;stroke-opacity:0.7;stroke-width:0.5;" x="775.26428" xlink:href="#m7141e092dd" y="821.647143"/>
     <use style="fill:#0000ff;fill-opacity:0.7;stroke:#000000;stroke-opacity:0.7;stroke-width:0.5;" x="946.81561" xlink:href="#m7141e092dd" y="702.612352"/>
     <use style="fill:#0000ff;fill-opacity:0.7;stroke:#000000;stroke-opacity:0.7;stroke-width:0.5;" x="563.532297" xlink:href="#m7141e092dd" y="776.639996"/>
     <use style="fill:#0000ff;fill-opacity:0.7;stroke:#000000;stroke-opacity:0.7;stroke-width:0.5;" x="606.817535" xlink:href="#m7141e092dd" y="788.076717"/>
     <use style="fill:#0000ff;fill-opacity:0.7;stroke:#000000;stroke-opacity:0.7;stroke-width:0.5;" x="597.771976" xlink:href="#m7141e092dd" y="803.942889"/>
     <use style="fill:#0000ff;fill-opacity:0.7;stroke:#000000;stroke-opacity:0.7;stroke-width:0.5;" x="452.28955" xlink:href="#m7141e092dd" y="813.603713"/>
     <use style="fill:#0000ff;fill-opacity:0.7;stroke:#000000;stroke-opacity:0.7;stroke-width:0.5;" x="569.640583" xlink:href="#m7141e092dd" y="828.967306"/>
     <use style="fill:#0000ff;fill-opacity:0.7;stroke:#000000;stroke-opacity:0.7;stroke-width:0.5;" x="389.526302" xlink:href="#m7141e092dd" y="825.374499"/>
    </g>
   </g>
   <g id="matplotlib.axis_1">
    <g id="xtick_1">
     <g id="line2d_1">
      <defs>
       <path d="M 0 0 
L 0 3.5 
" id="m2455dfac34" style="stroke:#000000;stroke-width:0.8;"/>
      </defs>
      <g>
       <use style="stroke:#000000;stroke-width:0.8;" x="201.194595" xlink:href="#m2455dfac34" y="945"/>
      </g>
     </g>
     <g id="text_1">
      <!-- −7.5 -->
      <g transform="translate(172.49147 968.716563)scale(0.22 -0.22)">
       <defs>
        <path d="M 10.59375 37.109375 
L 73.1875 37.109375 
L 73.1875 25.59375 
L 10.59375 25.59375 
z
" id="DejaVuSans-Bold-8722"/>
        <path d="M 6.6875 72.90625 
L 61.625 72.90625 
L 61.625 62.3125 
L 33.203125 0 
L 14.890625 0 
L 41.796875 59.078125 
L 6.6875 59.078125 
z
" id="DejaVuSans-Bold-55"/>
        <path d="M 10.203125 18.890625 
L 27.78125 18.890625 
L 27.78125 0 
L 10.203125 0 
z
" id="DejaVuSans-Bold-46"/>
        <path d="M 10.59375 72.90625 
L 57.328125 72.90625 
L 57.328125 59.078125 
L 25.59375 59.078125 
L 25.59375 47.796875 
Q 27.734375 48.390625 29.90625 48.703125 
Q 32.078125 49.03125 34.421875 49.03125 
Q 47.75 49.03125 55.171875 42.359375 
Q 62.59375 35.6875 62.59375 23.78125 
Q 62.59375 11.96875 54.515625 5.265625 
Q 46.4375 -1.421875 32.078125 -1.421875 
Q 25.875 -1.421875 19.796875 -0.21875 
Q 13.71875 0.984375 7.71875 3.421875 
L 7.71875 18.21875 
Q 13.671875 14.796875 19.015625 13.078125 
Q 24.359375 11.375 29.109375 11.375 
Q 35.9375 11.375 39.859375 14.71875 
Q 43.796875 18.0625 43.796875 23.78125 
Q 43.796875 29.546875 39.859375 32.859375 
Q 35.9375 36.1875 29.109375 36.1875 
Q 25.046875 36.1875 20.453125 35.125 
Q 15.875 34.078125 10.59375 31.890625 
z
" id="DejaVuSans-Bold-53"/>
       </defs>
       <use xlink:href="#DejaVuSans-Bold-8722"/>
       <use x="83.789062" xlink:href="#DejaVuSans-Bold-55"/>
       <use x="153.369141" xlink:href="#DejaVuSans-Bold-46"/>
       <use x="191.357422" xlink:href="#DejaVuSans-Bold-53"/>
      </g>
     </g>
    </g>
    <g id="xtick_2">
     <g id="line2d_2">
      <g>
       <use style="stroke:#000000;stroke-width:0.8;" x="336.111391" xlink:href="#m2455dfac34" y="945"/>
      </g>
     </g>
     <g id="text_2">
      <!-- −5.0 -->
      <g transform="translate(307.408266 968.716563)scale(0.22 -0.22)">
       <defs>
        <path d="M 46 36.53125 
Q 46 50.203125 43.4375 55.78125 
Q 40.875 61.375 34.8125 61.375 
Q 28.765625 61.375 26.171875 55.78125 
Q 23.578125 50.203125 23.578125 36.53125 
Q 23.578125 22.703125 26.171875 17.03125 
Q 28.765625 11.375 34.8125 11.375 
Q 40.828125 11.375 43.40625 17.03125 
Q 46 22.703125 46 36.53125 
z
M 64.796875 36.375 
Q 64.796875 18.265625 56.984375 8.421875 
Q 49.171875 -1.421875 34.8125 -1.421875 
Q 20.40625 -1.421875 12.59375 8.421875 
Q 4.78125 18.265625 4.78125 36.375 
Q 4.78125 54.546875 12.59375 64.375 
Q 20.40625 74.21875 34.8125 74.21875 
Q 49.171875 74.21875 56.984375 64.375 
Q 64.796875 54.546875 64.796875 36.375 
z
" id="DejaVuSans-Bold-48"/>
       </defs>
       <use xlink:href="#DejaVuSans-Bold-8722"/>
       <use x="83.789062" xlink:href="#DejaVuSans-Bold-53"/>
       <use x="153.369141" xlink:href="#DejaVuSans-Bold-46"/>
       <use x="191.357422" xlink:href="#DejaVuSans-Bold-48"/>
      </g>
     </g>
    </g>
    <g id="xtick_3">
     <g id="line2d_3">
      <g>
       <use style="stroke:#000000;stroke-width:0.8;" x="471.028187" xlink:href="#m2455dfac34" y="945"/>
      </g>
     </g>
     <g id="text_3">
      <!-- −2.5 -->
      <g transform="translate(442.325062 968.716563)scale(0.22 -0.22)">
       <defs>
        <path d="M 28.8125 13.8125 
L 60.890625 13.8125 
L 60.890625 0 
L 7.90625 0 
L 7.90625 13.8125 
L 34.515625 37.3125 
Q 38.09375 40.53125 39.796875 43.609375 
Q 41.5 46.6875 41.5 50 
Q 41.5 55.125 38.0625 58.25 
Q 34.625 61.375 28.90625 61.375 
Q 24.515625 61.375 19.28125 59.5 
Q 14.0625 57.625 8.109375 53.90625 
L 8.109375 69.921875 
Q 14.453125 72.015625 20.65625 73.109375 
Q 26.859375 74.21875 32.8125 74.21875 
Q 45.90625 74.21875 53.15625 68.453125 
Q 60.40625 62.703125 60.40625 52.390625 
Q 60.40625 46.4375 57.328125 41.28125 
Q 54.25 36.140625 44.390625 27.484375 
z
" id="DejaVuSans-Bold-50"/>
       </defs>
       <use xlink:href="#DejaVuSans-Bold-8722"/>
       <use x="83.789062" xlink:href="#DejaVuSans-Bold-50"/>
       <use x="153.369141" xlink:href="#DejaVuSans-Bold-46"/>
       <use x="191.357422" xlink:href="#DejaVuSans-Bold-53"/>
      </g>
     </g>
    </g>
    <g id="xtick_4">
     <g id="line2d_4">
      <g>
       <use style="stroke:#000000;stroke-width:0.8;" x="605.944983" xlink:href="#m2455dfac34" y="945"/>
      </g>
     </g>
     <g id="text_4">
      <!-- 0.0 -->
      <g transform="translate(586.459514 968.716563)scale(0.22 -0.22)">
       <use xlink:href="#DejaVuSans-Bold-48"/>
       <use x="69.580078" xlink:href="#DejaVuSans-Bold-46"/>
       <use x="107.568359" xlink:href="#DejaVuSans-Bold-48"/>
      </g>
     </g>
    </g>
    <g id="xtick_5">
     <g id="line2d_5">
      <g>
       <use style="stroke:#000000;stroke-width:0.8;" x="740.861779" xlink:href="#m2455dfac34" y="945"/>
      </g>
     </g>
     <g id="text_5">
      <!-- 2.5 -->
      <g transform="translate(721.376311 968.716563)scale(0.22 -0.22)">
       <use xlink:href="#DejaVuSans-Bold-50"/>
       <use x="69.580078" xlink:href="#DejaVuSans-Bold-46"/>
       <use x="107.568359" xlink:href="#DejaVuSans-Bold-53"/>
      </g>
     </g>
    </g>
    <g id="xtick_6">
     <g id="line2d_6">
      <g>
       <use style="stroke:#000000;stroke-width:0.8;" x="875.778575" xlink:href="#m2455dfac34" y="945"/>
      </g>
     </g>
     <g id="text_6">
      <!-- 5.0 -->
      <g transform="translate(856.293107 968.716563)scale(0.22 -0.22)">
       <use xlink:href="#DejaVuSans-Bold-53"/>
       <use x="69.580078" xlink:href="#DejaVuSans-Bold-46"/>
       <use x="107.568359" xlink:href="#DejaVuSans-Bold-48"/>
      </g>
     </g>
    </g>
    <g id="xtick_7">
     <g id="line2d_7">
      <g>
       <use style="stroke:#000000;stroke-width:0.8;" x="1010.695371" xlink:href="#m2455dfac34" y="945"/>
      </g>
     </g>
     <g id="text_7">
      <!-- 7.5 -->
      <g transform="translate(991.209903 968.716563)scale(0.22 -0.22)">
       <use xlink:href="#DejaVuSans-Bold-55"/>
       <use x="69.580078" xlink:href="#DejaVuSans-Bold-46"/>
       <use x="107.568359" xlink:href="#DejaVuSans-Bold-53"/>
      </g>
     </g>
    </g>
    <g id="xtick_8">
     <g id="line2d_8">
      <g>
       <use style="stroke:#000000;stroke-width:0.8;" x="1145.612167" xlink:href="#m2455dfac34" y="945"/>
      </g>
     </g>
     <g id="text_8">
      <!-- 10.0 -->
      <g transform="translate(1118.473105 968.716563)scale(0.22 -0.22)">
       <defs>
        <path d="M 11.71875 12.984375 
L 28.328125 12.984375 
L 28.328125 60.109375 
L 11.28125 56.59375 
L 11.28125 69.390625 
L 28.21875 72.90625 
L 46.09375 72.90625 
L 46.09375 12.984375 
L 62.703125 12.984375 
L 62.703125 0 
L 11.71875 0 
z
" id="DejaVuSans-Bold-49"/>
       </defs>
       <use xlink:href="#DejaVuSans-Bold-49"/>
       <use x="69.580078" xlink:href="#DejaVuSans-Bold-48"/>
       <use x="139.160156" xlink:href="#DejaVuSans-Bold-46"/>
       <use x="177.148438" xlink:href="#DejaVuSans-Bold-48"/>
      </g>
     </g>
    </g>
    <g id="xtick_9">
     <g id="line2d_9">
      <g>
       <use style="stroke:#000000;stroke-width:0.8;" x="1280.528963" xlink:href="#m2455dfac34" y="945"/>
      </g>
     </g>
     <g id="text_9">
      <!-- 12.5 -->
      <g transform="translate(1253.389901 968.716563)scale(0.22 -0.22)">
       <use xlink:href="#DejaVuSans-Bold-49"/>
       <use x="69.580078" xlink:href="#DejaVuSans-Bold-50"/>
       <use x="139.160156" xlink:href="#DejaVuSans-Bold-46"/>
       <use x="177.148438" xlink:href="#DejaVuSans-Bold-53"/>
      </g>
     </g>
    </g>
    <g id="text_10">
     <!-- PC1: 41.0% -->
     <g transform="translate(674.542031 994.008438)scale(0.22 -0.22)">
      <defs>
       <path d="M 19.671875 64.796875 
L 19.671875 37.40625 
L 32.078125 37.40625 
Q 38.96875 37.40625 42.71875 40.96875 
Q 46.484375 44.53125 46.484375 51.125 
Q 46.484375 57.671875 42.71875 61.234375 
Q 38.96875 64.796875 32.078125 64.796875 
z
M 9.8125 72.90625 
L 32.078125 72.90625 
Q 44.34375 72.90625 50.609375 67.359375 
Q 56.890625 61.8125 56.890625 51.125 
Q 56.890625 40.328125 50.609375 34.8125 
Q 44.34375 29.296875 32.078125 29.296875 
L 19.671875 29.296875 
L 19.671875 0 
L 9.8125 0 
z
" id="DejaVuSans-80"/>
       <path d="M 64.40625 67.28125 
L 64.40625 56.890625 
Q 59.421875 61.53125 53.78125 63.8125 
Q 48.140625 66.109375 41.796875 66.109375 
Q 29.296875 66.109375 22.65625 58.46875 
Q 16.015625 50.828125 16.015625 36.375 
Q 16.015625 21.96875 22.65625 14.328125 
Q 29.296875 6.6875 41.796875 6.6875 
Q 48.140625 6.6875 53.78125 8.984375 
Q 59.421875 11.28125 64.40625 15.921875 
L 64.40625 5.609375 
Q 59.234375 2.09375 53.4375 0.328125 
Q 47.65625 -1.421875 41.21875 -1.421875 
Q 24.65625 -1.421875 15.125 8.703125 
Q 5.609375 18.84375 5.609375 36.375 
Q 5.609375 53.953125 15.125 64.078125 
Q 24.65625 74.21875 41.21875 74.21875 
Q 47.75 74.21875 53.53125 72.484375 
Q 59.328125 70.75 64.40625 67.28125 
z
" id="DejaVuSans-67"/>
       <path d="M 12.40625 8.296875 
L 28.515625 8.296875 
L 28.515625 63.921875 
L 10.984375 60.40625 
L 10.984375 69.390625 
L 28.421875 72.90625 
L 38.28125 72.90625 
L 38.28125 8.296875 
L 54.390625 8.296875 
L 54.390625 0 
L 12.40625 0 
z
" id="DejaVuSans-49"/>
       <path d="M 11.71875 12.40625 
L 22.015625 12.40625 
L 22.015625 0 
L 11.71875 0 
z
M 11.71875 51.703125 
L 22.015625 51.703125 
L 22.015625 39.3125 
L 11.71875 39.3125 
z
" id="DejaVuSans-58"/>
       <path id="DejaVuSans-32"/>
       <path d="M 37.796875 64.3125 
L 12.890625 25.390625 
L 37.796875 25.390625 
z
M 35.203125 72.90625 
L 47.609375 72.90625 
L 47.609375 25.390625 
L 58.015625 25.390625 
L 58.015625 17.1875 
L 47.609375 17.1875 
L 47.609375 0 
L 37.796875 0 
L 37.796875 17.1875 
L 4.890625 17.1875 
L 4.890625 26.703125 
z
" id="DejaVuSans-52"/>
       <path d="M 10.6875 12.40625 
L 21 12.40625 
L 21 0 
L 10.6875 0 
z
" id="DejaVuSans-46"/>
       <path d="M 31.78125 66.40625 
Q 24.171875 66.40625 20.328125 58.90625 
Q 16.5 51.421875 16.5 36.375 
Q 16.5 21.390625 20.328125 13.890625 
Q 24.171875 6.390625 31.78125 6.390625 
Q 39.453125 6.390625 43.28125 13.890625 
Q 47.125 21.390625 47.125 36.375 
Q 47.125 51.421875 43.28125 58.90625 
Q 39.453125 66.40625 31.78125 66.40625 
z
M 31.78125 74.21875 
Q 44.046875 74.21875 50.515625 64.515625 
Q 56.984375 54.828125 56.984375 36.375 
Q 56.984375 17.96875 50.515625 8.265625 
Q 44.046875 -1.421875 31.78125 -1.421875 
Q 19.53125 -1.421875 13.0625 8.265625 
Q 6.59375 17.96875 6.59375 36.375 
Q 6.59375 54.828125 13.0625 64.515625 
Q 19.53125 74.21875 31.78125 74.21875 
z
" id="DejaVuSans-48"/>
       <path d="M 72.703125 32.078125 
Q 68.453125 32.078125 66.03125 28.46875 
Q 63.625 24.859375 63.625 18.40625 
Q 63.625 12.0625 66.03125 8.421875 
Q 68.453125 4.78125 72.703125 4.78125 
Q 76.859375 4.78125 79.265625 8.421875 
Q 81.6875 12.0625 81.6875 18.40625 
Q 81.6875 24.8125 79.265625 28.4375 
Q 76.859375 32.078125 72.703125 32.078125 
z
M 72.703125 38.28125 
Q 80.421875 38.28125 84.953125 32.90625 
Q 89.5 27.546875 89.5 18.40625 
Q 89.5 9.28125 84.9375 3.921875 
Q 80.375 -1.421875 72.703125 -1.421875 
Q 64.890625 -1.421875 60.34375 3.921875 
Q 55.8125 9.28125 55.8125 18.40625 
Q 55.8125 27.59375 60.375 32.9375 
Q 64.9375 38.28125 72.703125 38.28125 
z
M 22.3125 68.015625 
Q 18.109375 68.015625 15.6875 64.375 
Q 13.28125 60.75 13.28125 54.390625 
Q 13.28125 47.953125 15.671875 44.328125 
Q 18.0625 40.71875 22.3125 40.71875 
Q 26.5625 40.71875 28.96875 44.328125 
Q 31.390625 47.953125 31.390625 54.390625 
Q 31.390625 60.6875 28.953125 64.34375 
Q 26.515625 68.015625 22.3125 68.015625 
z
M 66.40625 74.21875 
L 74.21875 74.21875 
L 28.609375 -1.421875 
L 20.796875 -1.421875 
z
M 22.3125 74.21875 
Q 30.03125 74.21875 34.609375 68.875 
Q 39.203125 63.53125 39.203125 54.390625 
Q 39.203125 45.171875 34.640625 39.84375 
Q 30.078125 34.515625 22.3125 34.515625 
Q 14.546875 34.515625 10.03125 39.859375 
Q 5.515625 45.21875 5.515625 54.390625 
Q 5.515625 63.484375 10.046875 68.84375 
Q 14.59375 74.21875 22.3125 74.21875 
z
" id="DejaVuSans-37"/>
      </defs>
      <use xlink:href="#DejaVuSans-80"/>
      <use x="60.302734" xlink:href="#DejaVuSans-67"/>
      <use x="130.126953" xlink:href="#DejaVuSans-49"/>
      <use x="193.75" xlink:href="#DejaVuSans-58"/>
      <use x="227.441406" xlink:href="#DejaVuSans-32"/>
      <use x="259.228516" xlink:href="#DejaVuSans-52"/>
      <use x="322.851562" xlink:href="#DejaVuSans-49"/>
      <use x="386.474609" xlink:href="#DejaVuSans-46"/>
      <use x="418.261719" xlink:href="#DejaVuSans-48"/>
      <use x="481.884766" xlink:href="#DejaVuSans-37"/>
     </g>
    </g>
   </g>
   <g id="matplotlib.axis_2">
    <g id="ytick_1">
     <g id="line2d_10">
      <defs>
       <path d="M 0 0 
L -3.5 0 
" id="m187c9cff64" style="stroke:#000000;stroke-width:0.8;"/>
      </defs>
      <g>
       <use style="stroke:#000000;stroke-width:0.8;" x="180" xlink:href="#m187c9cff64" y="900.228688"/>
      </g>
     </g>
     <g id="text_11">
      <!-- −2 -->
      <g transform="translate(139.2575 908.586969)scale(0.22 -0.22)">
       <use xlink:href="#DejaVuSans-Bold-8722"/>
       <use x="83.789062" xlink:href="#DejaVuSans-Bold-50"/>
      </g>
     </g>
    </g>
    <g id="ytick_2">
     <g id="line2d_11">
      <g>
       <use style="stroke:#000000;stroke-width:0.8;" x="180" xlink:href="#m187c9cff64" y="764.59268"/>
      </g>
     </g>
     <g id="text_12">
      <!-- 0 -->
      <g transform="translate(157.692813 772.950961)scale(0.22 -0.22)">
       <use xlink:href="#DejaVuSans-Bold-48"/>
      </g>
     </g>
    </g>
    <g id="ytick_3">
     <g id="line2d_12">
      <g>
       <use style="stroke:#000000;stroke-width:0.8;" x="180" xlink:href="#m187c9cff64" y="628.956672"/>
      </g>
     </g>
     <g id="text_13">
      <!-- 2 -->
      <g transform="translate(157.692813 637.314953)scale(0.22 -0.22)">
       <use xlink:href="#DejaVuSans-Bold-50"/>
      </g>
     </g>
    </g>
    <g id="ytick_4">
     <g id="line2d_13">
      <g>
       <use style="stroke:#000000;stroke-width:0.8;" x="180" xlink:href="#m187c9cff64" y="493.320664"/>
      </g>
     </g>
     <g id="text_14">
      <!-- 4 -->
      <g transform="translate(157.692813 501.678945)scale(0.22 -0.22)">
       <defs>
        <path d="M 36.8125 57.421875 
L 16.21875 26.90625 
L 36.8125 26.90625 
z
M 33.6875 72.90625 
L 54.59375 72.90625 
L 54.59375 26.90625 
L 64.984375 26.90625 
L 64.984375 13.28125 
L 54.59375 13.28125 
L 54.59375 0 
L 36.8125 0 
L 36.8125 13.28125 
L 4.5 13.28125 
L 4.5 29.390625 
z
" id="DejaVuSans-Bold-52"/>
       </defs>
       <use xlink:href="#DejaVuSans-Bold-52"/>
      </g>
     </g>
    </g>
    <g id="ytick_5">
     <g id="line2d_14">
      <g>
       <use style="stroke:#000000;stroke-width:0.8;" x="180" xlink:href="#m187c9cff64" y="357.684656"/>
      </g>
     </g>
     <g id="text_15">
      <!-- 6 -->
      <g transform="translate(157.692813 366.042937)scale(0.22 -0.22)">
       <defs>
        <path d="M 36.1875 35.984375 
Q 31.25 35.984375 28.78125 32.78125 
Q 26.3125 29.59375 26.3125 23.1875 
Q 26.3125 16.796875 28.78125 13.59375 
Q 31.25 10.40625 36.1875 10.40625 
Q 41.15625 10.40625 43.625 13.59375 
Q 46.09375 16.796875 46.09375 23.1875 
Q 46.09375 29.59375 43.625 32.78125 
Q 41.15625 35.984375 36.1875 35.984375 
z
M 59.421875 71 
L 59.421875 57.515625 
Q 54.78125 59.71875 50.671875 60.765625 
Q 46.578125 61.8125 42.671875 61.8125 
Q 34.28125 61.8125 29.59375 57.140625 
Q 24.90625 52.484375 24.125 43.3125 
Q 27.34375 45.703125 31.09375 46.890625 
Q 34.859375 48.09375 39.3125 48.09375 
Q 50.484375 48.09375 57.34375 41.546875 
Q 64.203125 35.015625 64.203125 24.421875 
Q 64.203125 12.703125 56.53125 5.640625 
Q 48.875 -1.421875 35.984375 -1.421875 
Q 21.78125 -1.421875 13.984375 8.171875 
Q 6.203125 17.78125 6.203125 35.40625 
Q 6.203125 53.46875 15.3125 63.796875 
Q 24.421875 74.125 40.28125 74.125 
Q 45.3125 74.125 50.046875 73.34375 
Q 54.78125 72.5625 59.421875 71 
z
" id="DejaVuSans-Bold-54"/>
       </defs>
       <use xlink:href="#DejaVuSans-Bold-54"/>
      </g>
     </g>
    </g>
    <g id="ytick_6">
     <g id="line2d_15">
      <g>
       <use style="stroke:#000000;stroke-width:0.8;" x="180" xlink:href="#m187c9cff64" y="222.048648"/>
      </g>
     </g>
     <g id="text_16">
      <!-- 8 -->
      <g transform="translate(157.692813 230.406929)scale(0.22 -0.22)">
       <defs>
        <path d="M 34.8125 32.625 
Q 29.546875 32.625 26.703125 29.734375 
Q 23.875 26.859375 23.875 21.484375 
Q 23.875 16.109375 26.703125 13.25 
Q 29.546875 10.40625 34.8125 10.40625 
Q 40.046875 10.40625 42.828125 13.25 
Q 45.609375 16.109375 45.609375 21.484375 
Q 45.609375 26.90625 42.828125 29.765625 
Q 40.046875 32.625 34.8125 32.625 
z
M 21.09375 38.8125 
Q 14.453125 40.828125 11.078125 44.96875 
Q 7.71875 49.125 7.71875 55.328125 
Q 7.71875 64.546875 14.59375 69.375 
Q 21.484375 74.21875 34.8125 74.21875 
Q 48.046875 74.21875 54.921875 69.40625 
Q 61.8125 64.59375 61.8125 55.328125 
Q 61.8125 49.125 58.421875 44.96875 
Q 55.03125 40.828125 48.390625 38.8125 
Q 55.8125 36.765625 59.59375 32.15625 
Q 63.375 27.546875 63.375 20.515625 
Q 63.375 9.671875 56.171875 4.125 
Q 48.96875 -1.421875 34.8125 -1.421875 
Q 20.609375 -1.421875 13.359375 4.125 
Q 6.109375 9.671875 6.109375 20.515625 
Q 6.109375 27.546875 9.890625 32.15625 
Q 13.671875 36.765625 21.09375 38.8125 
z
M 25.484375 53.421875 
Q 25.484375 49.078125 27.90625 46.734375 
Q 30.328125 44.390625 34.8125 44.390625 
Q 39.203125 44.390625 41.59375 46.734375 
Q 44 49.078125 44 53.421875 
Q 44 57.765625 41.59375 60.078125 
Q 39.203125 62.40625 34.8125 62.40625 
Q 30.328125 62.40625 27.90625 60.0625 
Q 25.484375 57.71875 25.484375 53.421875 
z
" id="DejaVuSans-Bold-56"/>
       </defs>
       <use xlink:href="#DejaVuSans-Bold-56"/>
      </g>
     </g>
    </g>
    <g id="text_17">
     <!-- PC2: 12.0% -->
     <g transform="translate(130.682187 600.757969)rotate(-90)scale(0.22 -0.22)">
      <defs>
       <path d="M 19.1875 8.296875 
L 53.609375 8.296875 
L 53.609375 0 
L 7.328125 0 
L 7.328125 8.296875 
Q 12.9375 14.109375 22.625 23.890625 
Q 32.328125 33.6875 34.8125 36.53125 
Q 39.546875 41.84375 41.421875 45.53125 
Q 43.3125 49.21875 43.3125 52.78125 
Q 43.3125 58.59375 39.234375 62.25 
Q 35.15625 65.921875 28.609375 65.921875 
Q 23.96875 65.921875 18.8125 64.3125 
Q 13.671875 62.703125 7.8125 59.421875 
L 7.8125 69.390625 
Q 13.765625 71.78125 18.9375 73 
Q 24.125 74.21875 28.421875 74.21875 
Q 39.75 74.21875 46.484375 68.546875 
Q 53.21875 62.890625 53.21875 53.421875 
Q 53.21875 48.921875 51.53125 44.890625 
Q 49.859375 40.875 45.40625 35.40625 
Q 44.1875 33.984375 37.640625 27.21875 
Q 31.109375 20.453125 19.1875 8.296875 
z
" id="DejaVuSans-50"/>
      </defs>
      <use xlink:href="#DejaVuSans-80"/>
      <use x="60.302734" xlink:href="#DejaVuSans-67"/>
      <use x="130.126953" xlink:href="#DejaVuSans-50"/>
      <use x="193.75" xlink:href="#DejaVuSans-58"/>
      <use x="227.441406" xlink:href="#DejaVuSans-32"/>
      <use x="259.228516" xlink:href="#DejaVuSans-49"/>
      <use x="322.851562" xlink:href="#DejaVuSans-50"/>
      <use x="386.474609" xlink:href="#DejaVuSans-46"/>
      <use x="418.261719" xlink:href="#DejaVuSans-48"/>
      <use x="481.884766" xlink:href="#DejaVuSans-37"/>
     </g>
    </g>
   </g>
   <g id="patch_3">
    <path d="M 180 945 
L 180 129.6 
" style="fill:none;stroke:#000000;stroke-linecap:square;stroke-linejoin:miter;stroke-width:0.8;"/>
   </g>
   <g id="patch_4">
    <path d="M 1296 945 
L 1296 129.6 
" style="fill:none;stroke:#000000;stroke-linecap:square;stroke-linejoin:miter;stroke-width:0.8;"/>
   </g>
   <g id="patch_5">
    <path d="M 180 945 
L 1296 945 
" style="fill:none;stroke:#000000;stroke-linecap:square;stroke-linejoin:miter;stroke-width:0.8;"/>
   </g>
   <g id="patch_6">
    <path d="M 180 129.6 
L 1296 129.6 
" style="fill:none;stroke:#000000;stroke-linecap:square;stroke-linejoin:miter;stroke-width:0.8;"/>
   </g>
   <g id="text_18">
    <!-- PCA, -69 experiments -->
    <g transform="translate(594.95325 123.6)scale(0.264 -0.264)">
     <defs>
      <path d="M 34.1875 63.1875 
L 20.796875 26.90625 
L 47.609375 26.90625 
z
M 28.609375 72.90625 
L 39.796875 72.90625 
L 67.578125 0 
L 57.328125 0 
L 50.6875 18.703125 
L 17.828125 18.703125 
L 11.1875 0 
L 0.78125 0 
z
" id="DejaVuSans-65"/>
      <path d="M 11.71875 12.40625 
L 22.015625 12.40625 
L 22.015625 4 
L 14.015625 -11.625 
L 7.71875 -11.625 
L 11.71875 4 
z
" id="DejaVuSans-44"/>
      <path d="M 4.890625 31.390625 
L 31.203125 31.390625 
L 31.203125 23.390625 
L 4.890625 23.390625 
z
" id="DejaVuSans-45"/>
      <path d="M 33.015625 40.375 
Q 26.375 40.375 22.484375 35.828125 
Q 18.609375 31.296875 18.609375 23.390625 
Q 18.609375 15.53125 22.484375 10.953125 
Q 26.375 6.390625 33.015625 6.390625 
Q 39.65625 6.390625 43.53125 10.953125 
Q 47.40625 15.53125 47.40625 23.390625 
Q 47.40625 31.296875 43.53125 35.828125 
Q 39.65625 40.375 33.015625 40.375 
z
M 52.59375 71.296875 
L 52.59375 62.3125 
Q 48.875 64.0625 45.09375 64.984375 
Q 41.3125 65.921875 37.59375 65.921875 
Q 27.828125 65.921875 22.671875 59.328125 
Q 17.53125 52.734375 16.796875 39.40625 
Q 19.671875 43.65625 24.015625 45.921875 
Q 28.375 48.1875 33.59375 48.1875 
Q 44.578125 48.1875 50.953125 41.515625 
Q 57.328125 34.859375 57.328125 23.390625 
Q 57.328125 12.15625 50.6875 5.359375 
Q 44.046875 -1.421875 33.015625 -1.421875 
Q 20.359375 -1.421875 13.671875 8.265625 
Q 6.984375 17.96875 6.984375 36.375 
Q 6.984375 53.65625 15.1875 63.9375 
Q 23.390625 74.21875 37.203125 74.21875 
Q 40.921875 74.21875 44.703125 73.484375 
Q 48.484375 72.75 52.59375 71.296875 
z
" id="DejaVuSans-54"/>
      <path d="M 10.984375 1.515625 
L 10.984375 10.5 
Q 14.703125 8.734375 18.5 7.8125 
Q 22.3125 6.890625 25.984375 6.890625 
Q 35.75 6.890625 40.890625 13.453125 
Q 46.046875 20.015625 46.78125 33.40625 
Q 43.953125 29.203125 39.59375 26.953125 
Q 35.25 24.703125 29.984375 24.703125 
Q 19.046875 24.703125 12.671875 31.3125 
Q 6.296875 37.9375 6.296875 49.421875 
Q 6.296875 60.640625 12.9375 67.421875 
Q 19.578125 74.21875 30.609375 74.21875 
Q 43.265625 74.21875 49.921875 64.515625 
Q 56.59375 54.828125 56.59375 36.375 
Q 56.59375 19.140625 48.40625 8.859375 
Q 40.234375 -1.421875 26.421875 -1.421875 
Q 22.703125 -1.421875 18.890625 -0.6875 
Q 15.09375 0.046875 10.984375 1.515625 
z
M 30.609375 32.421875 
Q 37.25 32.421875 41.125 36.953125 
Q 45.015625 41.5 45.015625 49.421875 
Q 45.015625 57.28125 41.125 61.84375 
Q 37.25 66.40625 30.609375 66.40625 
Q 23.96875 66.40625 20.09375 61.84375 
Q 16.21875 57.28125 16.21875 49.421875 
Q 16.21875 41.5 20.09375 36.953125 
Q 23.96875 32.421875 30.609375 32.421875 
z
" id="DejaVuSans-57"/>
      <path d="M 56.203125 29.59375 
L 56.203125 25.203125 
L 14.890625 25.203125 
Q 15.484375 15.921875 20.484375 11.0625 
Q 25.484375 6.203125 34.421875 6.203125 
Q 39.59375 6.203125 44.453125 7.46875 
Q 49.3125 8.734375 54.109375 11.28125 
L 54.109375 2.78125 
Q 49.265625 0.734375 44.1875 -0.34375 
Q 39.109375 -1.421875 33.890625 -1.421875 
Q 20.796875 -1.421875 13.15625 6.1875 
Q 5.515625 13.8125 5.515625 26.8125 
Q 5.515625 40.234375 12.765625 48.109375 
Q 20.015625 56 32.328125 56 
Q 43.359375 56 49.78125 48.890625 
Q 56.203125 41.796875 56.203125 29.59375 
z
M 47.21875 32.234375 
Q 47.125 39.59375 43.09375 43.984375 
Q 39.0625 48.390625 32.421875 48.390625 
Q 24.90625 48.390625 20.390625 44.140625 
Q 15.875 39.890625 15.1875 32.171875 
z
" id="DejaVuSans-101"/>
      <path d="M 54.890625 54.6875 
L 35.109375 28.078125 
L 55.90625 0 
L 45.3125 0 
L 29.390625 21.484375 
L 13.484375 0 
L 2.875 0 
L 24.125 28.609375 
L 4.6875 54.6875 
L 15.28125 54.6875 
L 29.78125 35.203125 
L 44.28125 54.6875 
z
" id="DejaVuSans-120"/>
      <path d="M 18.109375 8.203125 
L 18.109375 -20.796875 
L 9.078125 -20.796875 
L 9.078125 54.6875 
L 18.109375 54.6875 
L 18.109375 46.390625 
Q 20.953125 51.265625 25.265625 53.625 
Q 29.59375 56 35.59375 56 
Q 45.5625 56 51.78125 48.09375 
Q 58.015625 40.1875 58.015625 27.296875 
Q 58.015625 14.40625 51.78125 6.484375 
Q 45.5625 -1.421875 35.59375 -1.421875 
Q 29.59375 -1.421875 25.265625 0.953125 
Q 20.953125 3.328125 18.109375 8.203125 
z
M 48.6875 27.296875 
Q 48.6875 37.203125 44.609375 42.84375 
Q 40.53125 48.484375 33.40625 48.484375 
Q 26.265625 48.484375 22.1875 42.84375 
Q 18.109375 37.203125 18.109375 27.296875 
Q 18.109375 17.390625 22.1875 11.75 
Q 26.265625 6.109375 33.40625 6.109375 
Q 40.53125 6.109375 44.609375 11.75 
Q 48.6875 17.390625 48.6875 27.296875 
z
" id="DejaVuSans-112"/>
      <path d="M 41.109375 46.296875 
Q 39.59375 47.171875 37.8125 47.578125 
Q 36.03125 48 33.890625 48 
Q 26.265625 48 22.1875 43.046875 
Q 18.109375 38.09375 18.109375 28.8125 
L 18.109375 0 
L 9.078125 0 
L 9.078125 54.6875 
L 18.109375 54.6875 
L 18.109375 46.1875 
Q 20.953125 51.171875 25.484375 53.578125 
Q 30.03125 56 36.53125 56 
Q 37.453125 56 38.578125 55.875 
Q 39.703125 55.765625 41.0625 55.515625 
z
" id="DejaVuSans-114"/>
      <path d="M 9.421875 54.6875 
L 18.40625 54.6875 
L 18.40625 0 
L 9.421875 0 
z
M 9.421875 75.984375 
L 18.40625 75.984375 
L 18.40625 64.59375 
L 9.421875 64.59375 
z
" id="DejaVuSans-105"/>
      <path d="M 52 44.1875 
Q 55.375 50.25 60.0625 53.125 
Q 64.75 56 71.09375 56 
Q 79.640625 56 84.28125 50.015625 
Q 88.921875 44.046875 88.921875 33.015625 
L 88.921875 0 
L 79.890625 0 
L 79.890625 32.71875 
Q 79.890625 40.578125 77.09375 44.375 
Q 74.3125 48.1875 68.609375 48.1875 
Q 61.625 48.1875 57.5625 43.546875 
Q 53.515625 38.921875 53.515625 30.90625 
L 53.515625 0 
L 44.484375 0 
L 44.484375 32.71875 
Q 44.484375 40.625 41.703125 44.40625 
Q 38.921875 48.1875 33.109375 48.1875 
Q 26.21875 48.1875 22.15625 43.53125 
Q 18.109375 38.875 18.109375 30.90625 
L 18.109375 0 
L 9.078125 0 
L 9.078125 54.6875 
L 18.109375 54.6875 
L 18.109375 46.1875 
Q 21.1875 51.21875 25.484375 53.609375 
Q 29.78125 56 35.6875 56 
Q 41.65625 56 45.828125 52.96875 
Q 50 49.953125 52 44.1875 
z
" id="DejaVuSans-109"/>
      <path d="M 54.890625 33.015625 
L 54.890625 0 
L 45.90625 0 
L 45.90625 32.71875 
Q 45.90625 40.484375 42.875 44.328125 
Q 39.84375 48.1875 33.796875 48.1875 
Q 26.515625 48.1875 22.3125 43.546875 
Q 18.109375 38.921875 18.109375 30.90625 
L 18.109375 0 
L 9.078125 0 
L 9.078125 54.6875 
L 18.109375 54.6875 
L 18.109375 46.1875 
Q 21.34375 51.125 25.703125 53.5625 
Q 30.078125 56 35.796875 56 
Q 45.21875 56 50.046875 50.171875 
Q 54.890625 44.34375 54.890625 33.015625 
z
" id="DejaVuSans-110"/>
      <path d="M 18.3125 70.21875 
L 18.3125 54.6875 
L 36.8125 54.6875 
L 36.8125 47.703125 
L 18.3125 47.703125 
L 18.3125 18.015625 
Q 18.3125 11.328125 20.140625 9.421875 
Q 21.96875 7.515625 27.59375 7.515625 
L 36.8125 7.515625 
L 36.8125 0 
L 27.59375 0 
Q 17.1875 0 13.234375 3.875 
Q 9.28125 7.765625 9.28125 18.015625 
L 9.28125 47.703125 
L 2.6875 47.703125 
L 2.6875 54.6875 
L 9.28125 54.6875 
L 9.28125 70.21875 
z
" id="DejaVuSans-116"/>
      <path d="M 44.28125 53.078125 
L 44.28125 44.578125 
Q 40.484375 46.53125 36.375 47.5 
Q 32.28125 48.484375 27.875 48.484375 
Q 21.1875 48.484375 17.84375 46.4375 
Q 14.5 44.390625 14.5 40.28125 
Q 14.5 37.15625 16.890625 35.375 
Q 19.28125 33.59375 26.515625 31.984375 
L 29.59375 31.296875 
Q 39.15625 29.25 43.1875 25.515625 
Q 47.21875 21.78125 47.21875 15.09375 
Q 47.21875 7.46875 41.1875 3.015625 
Q 35.15625 -1.421875 24.609375 -1.421875 
Q 20.21875 -1.421875 15.453125 -0.5625 
Q 10.6875 0.296875 5.421875 2 
L 5.421875 11.28125 
Q 10.40625 8.6875 15.234375 7.390625 
Q 20.0625 6.109375 24.8125 6.109375 
Q 31.15625 6.109375 34.5625 8.28125 
Q 37.984375 10.453125 37.984375 14.40625 
Q 37.984375 18.0625 35.515625 20.015625 
Q 33.0625 21.96875 24.703125 23.78125 
L 21.578125 24.515625 
Q 13.234375 26.265625 9.515625 29.90625 
Q 5.8125 33.546875 5.8125 39.890625 
Q 5.8125 47.609375 11.28125 51.796875 
Q 16.75 56 26.8125 56 
Q 31.78125 56 36.171875 55.265625 
Q 40.578125 54.546875 44.28125 53.078125 
z
" id="DejaVuSans-115"/>
     </defs>
     <use xlink:href="#DejaVuSans-80"/>
     <use x="60.302734" xlink:href="#DejaVuSans-67"/>
     <use x="130.126953" xlink:href="#DejaVuSans-65"/>
     <use x="198.535156" xlink:href="#DejaVuSans-44"/>
     <use x="230.322266" xlink:href="#DejaVuSans-32"/>
     <use x="262.109375" xlink:href="#DejaVuSans-45"/>
     <use x="298.193359" xlink:href="#DejaVuSans-54"/>
     <use x="361.816406" xlink:href="#DejaVuSans-57"/>
     <use x="425.439453" xlink:href="#DejaVuSans-32"/>
     <use x="457.226562" xlink:href="#DejaVuSans-101"/>
     <use x="517" xlink:href="#DejaVuSans-120"/>
     <use x="576.179688" xlink:href="#DejaVuSans-112"/>
     <use x="639.65625" xlink:href="#DejaVuSans-101"/>
     <use x="701.179688" xlink:href="#DejaVuSans-114"/>
     <use x="742.292969" xlink:href="#DejaVuSans-105"/>
     <use x="770.076172" xlink:href="#DejaVuSans-109"/>
     <use x="867.488281" xlink:href="#DejaVuSans-101"/>
     <use x="929.011719" xlink:href="#DejaVuSans-110"/>
     <use x="992.390625" xlink:href="#DejaVuSans-116"/>
     <use x="1031.599609" xlink:href="#DejaVuSans-115"/>
    </g>
   </g>
   <g id="legend_1">
    <g id="patch_7">
     <path d="M 992.949375 181.491875 
L 1282.6 181.491875 
Q 1287 181.491875 1287 177.091875 
L 1287 147 
Q 1287 142.6 1282.6 142.6 
L 992.949375 142.6 
Q 988.549375 142.6 988.549375 147 
L 988.549375 177.091875 
Q 988.549375 181.491875 992.949375 181.491875 
z
" style="fill:#4c4c4c;opacity:0.5;stroke:#4c4c4c;stroke-linejoin:miter;"/>
    </g>
    <g id="patch_8">
     <path d="M 990.949375 179.491875 
L 1280.6 179.491875 
Q 1285 179.491875 1285 175.091875 
L 1285 145 
Q 1285 140.6 1280.6 140.6 
L 990.949375 140.6 
Q 986.549375 140.6 986.549375 145 
L 986.549375 175.091875 
Q 986.549375 179.491875 990.949375 179.491875 
z
" style="fill:#ffffff;stroke:#cccccc;stroke-linejoin:miter;"/>
    </g>
    <g id="PathCollection_3">
     <g>
      <use style="fill:#008000;fill-opacity:0.7;stroke:#000000;stroke-opacity:0.7;stroke-width:0.5;" x="1017.349375" xlink:href="#mdec25af039" y="160.341563"/>
     </g>
    </g>
    <g id="text_19">
     <!-- rep1 -->
     <g transform="translate(1056.949375 166.116563)scale(0.22 -0.22)">
      <defs>
       <path d="M 49.03125 39.796875 
Q 46.734375 40.875 44.453125 41.375 
Q 42.1875 41.890625 39.890625 41.890625 
Q 33.15625 41.890625 29.515625 37.5625 
Q 25.875 33.25 25.875 25.203125 
L 25.875 0 
L 8.40625 0 
L 8.40625 54.6875 
L 25.875 54.6875 
L 25.875 45.703125 
Q 29.25 51.078125 33.609375 53.53125 
Q 37.984375 56 44.09375 56 
Q 44.96875 56 45.984375 55.921875 
Q 47.015625 55.859375 48.96875 55.609375 
z
" id="DejaVuSans-Bold-114"/>
       <path d="M 62.984375 27.484375 
L 62.984375 22.515625 
L 22.125 22.515625 
Q 22.75 16.359375 26.5625 13.28125 
Q 30.375 10.203125 37.203125 10.203125 
Q 42.71875 10.203125 48.5 11.84375 
Q 54.296875 13.484375 60.40625 16.796875 
L 60.40625 3.328125 
Q 54.203125 0.984375 48 -0.21875 
Q 41.796875 -1.421875 35.59375 -1.421875 
Q 20.75 -1.421875 12.515625 6.125 
Q 4.296875 13.671875 4.296875 27.296875 
Q 4.296875 40.671875 12.375 48.328125 
Q 20.453125 56 34.625 56 
Q 47.515625 56 55.25 48.234375 
Q 62.984375 40.484375 62.984375 27.484375 
z
M 45.015625 33.296875 
Q 45.015625 38.28125 42.109375 41.328125 
Q 39.203125 44.390625 34.515625 44.390625 
Q 29.4375 44.390625 26.265625 41.53125 
Q 23.09375 38.671875 22.3125 33.296875 
z
" id="DejaVuSans-Bold-101"/>
       <path d="M 25.875 7.90625 
L 25.875 -20.796875 
L 8.40625 -20.796875 
L 8.40625 54.6875 
L 25.875 54.6875 
L 25.875 46.6875 
Q 29.5 51.46875 33.890625 53.734375 
Q 38.28125 56 44 56 
Q 54.109375 56 60.59375 47.96875 
Q 67.09375 39.9375 67.09375 27.296875 
Q 67.09375 14.65625 60.59375 6.609375 
Q 54.109375 -1.421875 44 -1.421875 
Q 38.28125 -1.421875 33.890625 0.84375 
Q 29.5 3.125 25.875 7.90625 
z
M 37.5 43.3125 
Q 31.890625 43.3125 28.875 39.1875 
Q 25.875 35.0625 25.875 27.296875 
Q 25.875 19.53125 28.875 15.40625 
Q 31.890625 11.28125 37.5 11.28125 
Q 43.109375 11.28125 46.0625 15.375 
Q 49.03125 19.484375 49.03125 27.296875 
Q 49.03125 35.109375 46.0625 39.203125 
Q 43.109375 43.3125 37.5 43.3125 
z
" id="DejaVuSans-Bold-112"/>
      </defs>
      <use xlink:href="#DejaVuSans-Bold-114"/>
      <use x="49.316406" xlink:href="#DejaVuSans-Bold-101"/>
      <use x="117.138672" xlink:href="#DejaVuSans-Bold-112"/>
      <use x="188.720703" xlink:href="#DejaVuSans-Bold-49"/>
     </g>
    </g>
    <g id="PathCollection_4">
     <g>
      <use style="fill:#0000ff;fill-opacity:0.7;stroke:#000000;stroke-opacity:0.7;stroke-width:0.5;" x="1179.774687" xlink:href="#m7141e092dd" y="160.341563"/>
     </g>
    </g>
    <g id="text_20">
     <!-- rep2 -->
     <g transform="translate(1219.374687 166.116563)scale(0.22 -0.22)">
      <use xlink:href="#DejaVuSans-Bold-114"/>
      <use x="49.316406" xlink:href="#DejaVuSans-Bold-101"/>
      <use x="117.138672" xlink:href="#DejaVuSans-Bold-112"/>
      <use x="188.720703" xlink:href="#DejaVuSans-Bold-50"/>
     </g>
    </g>
   </g>
  </g>
 </g>
 <defs>
  <clipPath id="p820e96835c">
   <rect height="815.4" width="1116" x="180" y="129.6"/>
  </clipPath>
 </defs>
</svg>
