<?xml version="1.0" encoding="utf-8" standalone="no"?>
<!DOCTYPE svg PUBLIC "-//W3C//DTD SVG 1.1//EN"
  "http://www.w3.org/Graphics/SVG/1.1/DTD/svg11.dtd">
<!-- Created with matplotlib (https://matplotlib.org/) -->
<svg height="1080pt" version="1.1" viewBox="0 0 1440 1080" width="1440pt" xmlns="http://www.w3.org/2000/svg" xmlns:xlink="http://www.w3.org/1999/xlink">
 <metadata>
  <rdf:RDF xmlns:cc="http://creativecommons.org/ns#" xmlns:dc="http://purl.org/dc/elements/1.1/" xmlns:rdf="http://www.w3.org/1999/02/22-rdf-syntax-ns#">
   <cc:Work>
    <dc:type rdf:resource="http://purl.org/dc/dcmitype/StillImage"/>
    <dc:date>2021-11-25T17:52:09.621438</dc:date>
    <dc:format>image/svg+xml</dc:format>
    <dc:creator>
     <cc:Agent>
      <dc:title>Matplotlib v3.3.4, https://matplotlib.org/</dc:title>
     </cc:Agent>
    </dc:creator>
   </cc:Work>
  </rdf:RDF>
 </metadata>
 <defs>
  <style type="text/css">*{stroke-linecap:butt;stroke-linejoin:round;}</style>
 </defs>
 <g id="figure_1">
  <g id="patch_1">
   <path d="M 0 1080 
L 1440 1080 
L 1440 0 
L 0 0 
z
" style="fill:#ffffff;"/>
  </g>
  <g id="axes_1">
   <g id="patch_2">
    <path d="M 180 945 
L 1296 945 
L 1296 129.6 
L 180 129.6 
z
" style="fill:#ffffff;"/>
   </g>
   <g id="patch_3">
    <path clip-path="url(#pd79249eeb7)" d="M 230.727273 945 
L 235.628458 945 
L 235.628458 932.057143 
L 230.727273 932.057143 
z
" style="fill:#0000ff;opacity:0.4;"/>
   </g>
   <g id="patch_4">
    <path clip-path="url(#pd79249eeb7)" d="M 235.628458 945 
L 240.529644 945 
L 240.529644 945 
L 235.628458 945 
z
" style="fill:#0000ff;opacity:0.4;"/>
   </g>
   <g id="patch_5">
    <path clip-path="url(#pd79249eeb7)" d="M 240.529644 945 
L 245.43083 945 
L 245.43083 945 
L 240.529644 945 
z
" style="fill:#0000ff;opacity:0.4;"/>
   </g>
   <g id="patch_6">
    <path clip-path="url(#pd79249eeb7)" d="M 245.43083 945 
L 250.332016 945 
L 250.332016 945 
L 245.43083 945 
z
" style="fill:#0000ff;opacity:0.4;"/>
   </g>
   <g id="patch_7">
    <path clip-path="url(#pd79249eeb7)" d="M 250.332016 945 
L 255.233202 945 
L 255.233202 945 
L 250.332016 945 
z
" style="fill:#0000ff;opacity:0.4;"/>
   </g>
   <g id="patch_8">
    <path clip-path="url(#pd79249eeb7)" d="M 255.233202 945 
L 260.134387 945 
L 260.134387 945 
L 255.233202 945 
z
" style="fill:#0000ff;opacity:0.4;"/>
   </g>
   <g id="patch_9">
    <path clip-path="url(#pd79249eeb7)" d="M 260.134387 945 
L 265.035573 945 
L 265.035573 945 
L 260.134387 945 
z
" style="fill:#0000ff;opacity:0.4;"/>
   </g>
   <g id="patch_10">
    <path clip-path="url(#pd79249eeb7)" d="M 265.035573 945 
L 269.936759 945 
L 269.936759 938.528571 
L 265.035573 938.528571 
z
" style="fill:#0000ff;opacity:0.4;"/>
   </g>
   <g id="patch_11">
    <path clip-path="url(#pd79249eeb7)" d="M 269.936759 945 
L 274.837945 945 
L 274.837945 932.057143 
L 269.936759 932.057143 
z
" style="fill:#0000ff;opacity:0.4;"/>
   </g>
   <g id="patch_12">
    <path clip-path="url(#pd79249eeb7)" d="M 274.837945 945 
L 279.73913 945 
L 279.73913 938.528571 
L 274.837945 938.528571 
z
" style="fill:#0000ff;opacity:0.4;"/>
   </g>
   <g id="patch_13">
    <path clip-path="url(#pd79249eeb7)" d="M 279.73913 945 
L 284.640316 945 
L 284.640316 945 
L 279.73913 945 
z
" style="fill:#0000ff;opacity:0.4;"/>
   </g>
   <g id="patch_14">
    <path clip-path="url(#pd79249eeb7)" d="M 284.640316 945 
L 289.541502 945 
L 289.541502 938.528571 
L 284.640316 938.528571 
z
" style="fill:#0000ff;opacity:0.4;"/>
   </g>
   <g id="patch_15">
    <path clip-path="url(#pd79249eeb7)" d="M 289.541502 945 
L 294.442688 945 
L 294.442688 945 
L 289.541502 945 
z
" style="fill:#0000ff;opacity:0.4;"/>
   </g>
   <g id="patch_16">
    <path clip-path="url(#pd79249eeb7)" d="M 294.442688 945 
L 299.343874 945 
L 299.343874 938.528571 
L 294.442688 938.528571 
z
" style="fill:#0000ff;opacity:0.4;"/>
   </g>
   <g id="patch_17">
    <path clip-path="url(#pd79249eeb7)" d="M 299.343874 945 
L 304.245059 945 
L 304.245059 945 
L 299.343874 945 
z
" style="fill:#0000ff;opacity:0.4;"/>
   </g>
   <g id="patch_18">
    <path clip-path="url(#pd79249eeb7)" d="M 304.245059 945 
L 309.146245 945 
L 309.146245 945 
L 304.245059 945 
z
" style="fill:#0000ff;opacity:0.4;"/>
   </g>
   <g id="patch_19">
    <path clip-path="url(#pd79249eeb7)" d="M 309.146245 945 
L 314.047431 945 
L 314.047431 945 
L 309.146245 945 
z
" style="fill:#0000ff;opacity:0.4;"/>
   </g>
   <g id="patch_20">
    <path clip-path="url(#pd79249eeb7)" d="M 314.047431 945 
L 318.948617 945 
L 318.948617 945 
L 314.047431 945 
z
" style="fill:#0000ff;opacity:0.4;"/>
   </g>
   <g id="patch_21">
    <path clip-path="url(#pd79249eeb7)" d="M 318.948617 945 
L 323.849802 945 
L 323.849802 945 
L 318.948617 945 
z
" style="fill:#0000ff;opacity:0.4;"/>
   </g>
   <g id="patch_22">
    <path clip-path="url(#pd79249eeb7)" d="M 323.849802 945 
L 328.750988 945 
L 328.750988 932.057143 
L 323.849802 932.057143 
z
" style="fill:#0000ff;opacity:0.4;"/>
   </g>
   <g id="patch_23">
    <path clip-path="url(#pd79249eeb7)" d="M 328.750988 945 
L 333.652174 945 
L 333.652174 945 
L 328.750988 945 
z
" style="fill:#0000ff;opacity:0.4;"/>
   </g>
   <g id="patch_24">
    <path clip-path="url(#pd79249eeb7)" d="M 333.652174 945 
L 338.55336 945 
L 338.55336 945 
L 333.652174 945 
z
" style="fill:#0000ff;opacity:0.4;"/>
   </g>
   <g id="patch_25">
    <path clip-path="url(#pd79249eeb7)" d="M 338.55336 945 
L 343.454545 945 
L 343.454545 945 
L 338.55336 945 
z
" style="fill:#0000ff;opacity:0.4;"/>
   </g>
   <g id="patch_26">
    <path clip-path="url(#pd79249eeb7)" d="M 343.454545 945 
L 348.355731 945 
L 348.355731 945 
L 343.454545 945 
z
" style="fill:#0000ff;opacity:0.4;"/>
   </g>
   <g id="patch_27">
    <path clip-path="url(#pd79249eeb7)" d="M 348.355731 945 
L 353.256917 945 
L 353.256917 945 
L 348.355731 945 
z
" style="fill:#0000ff;opacity:0.4;"/>
   </g>
   <g id="patch_28">
    <path clip-path="url(#pd79249eeb7)" d="M 353.256917 945 
L 358.158103 945 
L 358.158103 945 
L 353.256917 945 
z
" style="fill:#0000ff;opacity:0.4;"/>
   </g>
   <g id="patch_29">
    <path clip-path="url(#pd79249eeb7)" d="M 358.158103 945 
L 363.059289 945 
L 363.059289 945 
L 358.158103 945 
z
" style="fill:#0000ff;opacity:0.4;"/>
   </g>
   <g id="patch_30">
    <path clip-path="url(#pd79249eeb7)" d="M 363.059289 945 
L 367.960474 945 
L 367.960474 945 
L 363.059289 945 
z
" style="fill:#0000ff;opacity:0.4;"/>
   </g>
   <g id="patch_31">
    <path clip-path="url(#pd79249eeb7)" d="M 367.960474 945 
L 372.86166 945 
L 372.86166 945 
L 367.960474 945 
z
" style="fill:#0000ff;opacity:0.4;"/>
   </g>
   <g id="patch_32">
    <path clip-path="url(#pd79249eeb7)" d="M 372.86166 945 
L 377.762846 945 
L 377.762846 945 
L 372.86166 945 
z
" style="fill:#0000ff;opacity:0.4;"/>
   </g>
   <g id="patch_33">
    <path clip-path="url(#pd79249eeb7)" d="M 377.762846 945 
L 382.664032 945 
L 382.664032 945 
L 377.762846 945 
z
" style="fill:#0000ff;opacity:0.4;"/>
   </g>
   <g id="patch_34">
    <path clip-path="url(#pd79249eeb7)" d="M 382.664032 945 
L 387.565217 945 
L 387.565217 945 
L 382.664032 945 
z
" style="fill:#0000ff;opacity:0.4;"/>
   </g>
   <g id="patch_35">
    <path clip-path="url(#pd79249eeb7)" d="M 387.565217 945 
L 392.466403 945 
L 392.466403 945 
L 387.565217 945 
z
" style="fill:#0000ff;opacity:0.4;"/>
   </g>
   <g id="patch_36">
    <path clip-path="url(#pd79249eeb7)" d="M 392.466403 945 
L 397.367589 945 
L 397.367589 945 
L 392.466403 945 
z
" style="fill:#0000ff;opacity:0.4;"/>
   </g>
   <g id="patch_37">
    <path clip-path="url(#pd79249eeb7)" d="M 397.367589 945 
L 402.268775 945 
L 402.268775 945 
L 397.367589 945 
z
" style="fill:#0000ff;opacity:0.4;"/>
   </g>
   <g id="patch_38">
    <path clip-path="url(#pd79249eeb7)" d="M 402.268775 945 
L 407.16996 945 
L 407.16996 945 
L 402.268775 945 
z
" style="fill:#0000ff;opacity:0.4;"/>
   </g>
   <g id="patch_39">
    <path clip-path="url(#pd79249eeb7)" d="M 407.16996 945 
L 412.071146 945 
L 412.071146 945 
L 407.16996 945 
z
" style="fill:#0000ff;opacity:0.4;"/>
   </g>
   <g id="patch_40">
    <path clip-path="url(#pd79249eeb7)" d="M 412.071146 945 
L 416.972332 945 
L 416.972332 945 
L 412.071146 945 
z
" style="fill:#0000ff;opacity:0.4;"/>
   </g>
   <g id="patch_41">
    <path clip-path="url(#pd79249eeb7)" d="M 416.972332 945 
L 421.873518 945 
L 421.873518 938.528571 
L 416.972332 938.528571 
z
" style="fill:#0000ff;opacity:0.4;"/>
   </g>
   <g id="patch_42">
    <path clip-path="url(#pd79249eeb7)" d="M 421.873518 945 
L 426.774704 945 
L 426.774704 945 
L 421.873518 945 
z
" style="fill:#0000ff;opacity:0.4;"/>
   </g>
   <g id="patch_43">
    <path clip-path="url(#pd79249eeb7)" d="M 426.774704 945 
L 431.675889 945 
L 431.675889 945 
L 426.774704 945 
z
" style="fill:#0000ff;opacity:0.4;"/>
   </g>
   <g id="patch_44">
    <path clip-path="url(#pd79249eeb7)" d="M 431.675889 945 
L 436.577075 945 
L 436.577075 938.528571 
L 431.675889 938.528571 
z
" style="fill:#0000ff;opacity:0.4;"/>
   </g>
   <g id="patch_45">
    <path clip-path="url(#pd79249eeb7)" d="M 436.577075 945 
L 441.478261 945 
L 441.478261 945 
L 436.577075 945 
z
" style="fill:#0000ff;opacity:0.4;"/>
   </g>
   <g id="patch_46">
    <path clip-path="url(#pd79249eeb7)" d="M 441.478261 945 
L 446.379447 945 
L 446.379447 945 
L 441.478261 945 
z
" style="fill:#0000ff;opacity:0.4;"/>
   </g>
   <g id="patch_47">
    <path clip-path="url(#pd79249eeb7)" d="M 446.379447 945 
L 451.280632 945 
L 451.280632 945 
L 446.379447 945 
z
" style="fill:#0000ff;opacity:0.4;"/>
   </g>
   <g id="patch_48">
    <path clip-path="url(#pd79249eeb7)" d="M 451.280632 945 
L 456.181818 945 
L 456.181818 945 
L 451.280632 945 
z
" style="fill:#0000ff;opacity:0.4;"/>
   </g>
   <g id="patch_49">
    <path clip-path="url(#pd79249eeb7)" d="M 456.181818 945 
L 461.083004 945 
L 461.083004 945 
L 456.181818 945 
z
" style="fill:#0000ff;opacity:0.4;"/>
   </g>
   <g id="patch_50">
    <path clip-path="url(#pd79249eeb7)" d="M 461.083004 945 
L 465.98419 945 
L 465.98419 945 
L 461.083004 945 
z
" style="fill:#0000ff;opacity:0.4;"/>
   </g>
   <g id="patch_51">
    <path clip-path="url(#pd79249eeb7)" d="M 465.98419 945 
L 470.885375 945 
L 470.885375 945 
L 465.98419 945 
z
" style="fill:#0000ff;opacity:0.4;"/>
   </g>
   <g id="patch_52">
    <path clip-path="url(#pd79249eeb7)" d="M 470.885375 945 
L 475.786561 945 
L 475.786561 945 
L 470.885375 945 
z
" style="fill:#0000ff;opacity:0.4;"/>
   </g>
   <g id="patch_53">
    <path clip-path="url(#pd79249eeb7)" d="M 475.786561 945 
L 480.687747 945 
L 480.687747 945 
L 475.786561 945 
z
" style="fill:#0000ff;opacity:0.4;"/>
   </g>
   <g id="patch_54">
    <path clip-path="url(#pd79249eeb7)" d="M 480.687747 945 
L 485.588933 945 
L 485.588933 945 
L 480.687747 945 
z
" style="fill:#0000ff;opacity:0.4;"/>
   </g>
   <g id="patch_55">
    <path clip-path="url(#pd79249eeb7)" d="M 485.588933 945 
L 490.490119 945 
L 490.490119 945 
L 485.588933 945 
z
" style="fill:#0000ff;opacity:0.4;"/>
   </g>
   <g id="patch_56">
    <path clip-path="url(#pd79249eeb7)" d="M 490.490119 945 
L 495.391304 945 
L 495.391304 945 
L 490.490119 945 
z
" style="fill:#0000ff;opacity:0.4;"/>
   </g>
   <g id="patch_57">
    <path clip-path="url(#pd79249eeb7)" d="M 495.391304 945 
L 500.29249 945 
L 500.29249 932.057143 
L 495.391304 932.057143 
z
" style="fill:#0000ff;opacity:0.4;"/>
   </g>
   <g id="patch_58">
    <path clip-path="url(#pd79249eeb7)" d="M 500.29249 945 
L 505.193676 945 
L 505.193676 945 
L 500.29249 945 
z
" style="fill:#0000ff;opacity:0.4;"/>
   </g>
   <g id="patch_59">
    <path clip-path="url(#pd79249eeb7)" d="M 505.193676 945 
L 510.094862 945 
L 510.094862 945 
L 505.193676 945 
z
" style="fill:#0000ff;opacity:0.4;"/>
   </g>
   <g id="patch_60">
    <path clip-path="url(#pd79249eeb7)" d="M 510.094862 945 
L 514.996047 945 
L 514.996047 945 
L 510.094862 945 
z
" style="fill:#0000ff;opacity:0.4;"/>
   </g>
   <g id="patch_61">
    <path clip-path="url(#pd79249eeb7)" d="M 514.996047 945 
L 519.897233 945 
L 519.897233 945 
L 514.996047 945 
z
" style="fill:#0000ff;opacity:0.4;"/>
   </g>
   <g id="patch_62">
    <path clip-path="url(#pd79249eeb7)" d="M 519.897233 945 
L 524.798419 945 
L 524.798419 945 
L 519.897233 945 
z
" style="fill:#0000ff;opacity:0.4;"/>
   </g>
   <g id="patch_63">
    <path clip-path="url(#pd79249eeb7)" d="M 524.798419 945 
L 529.699605 945 
L 529.699605 945 
L 524.798419 945 
z
" style="fill:#0000ff;opacity:0.4;"/>
   </g>
   <g id="patch_64">
    <path clip-path="url(#pd79249eeb7)" d="M 529.699605 945 
L 534.600791 945 
L 534.600791 945 
L 529.699605 945 
z
" style="fill:#0000ff;opacity:0.4;"/>
   </g>
   <g id="patch_65">
    <path clip-path="url(#pd79249eeb7)" d="M 534.600791 945 
L 539.501976 945 
L 539.501976 945 
L 534.600791 945 
z
" style="fill:#0000ff;opacity:0.4;"/>
   </g>
   <g id="patch_66">
    <path clip-path="url(#pd79249eeb7)" d="M 539.501976 945 
L 544.403162 945 
L 544.403162 945 
L 539.501976 945 
z
" style="fill:#0000ff;opacity:0.4;"/>
   </g>
   <g id="patch_67">
    <path clip-path="url(#pd79249eeb7)" d="M 544.403162 945 
L 549.304348 945 
L 549.304348 945 
L 544.403162 945 
z
" style="fill:#0000ff;opacity:0.4;"/>
   </g>
   <g id="patch_68">
    <path clip-path="url(#pd79249eeb7)" d="M 549.304348 945 
L 554.205534 945 
L 554.205534 945 
L 549.304348 945 
z
" style="fill:#0000ff;opacity:0.4;"/>
   </g>
   <g id="patch_69">
    <path clip-path="url(#pd79249eeb7)" d="M 554.205534 945 
L 559.106719 945 
L 559.106719 945 
L 554.205534 945 
z
" style="fill:#0000ff;opacity:0.4;"/>
   </g>
   <g id="patch_70">
    <path clip-path="url(#pd79249eeb7)" d="M 559.106719 945 
L 564.007905 945 
L 564.007905 945 
L 559.106719 945 
z
" style="fill:#0000ff;opacity:0.4;"/>
   </g>
   <g id="patch_71">
    <path clip-path="url(#pd79249eeb7)" d="M 564.007905 945 
L 568.909091 945 
L 568.909091 938.528571 
L 564.007905 938.528571 
z
" style="fill:#0000ff;opacity:0.4;"/>
   </g>
   <g id="patch_72">
    <path clip-path="url(#pd79249eeb7)" d="M 568.909091 945 
L 573.810277 945 
L 573.810277 938.528571 
L 568.909091 938.528571 
z
" style="fill:#0000ff;opacity:0.4;"/>
   </g>
   <g id="patch_73">
    <path clip-path="url(#pd79249eeb7)" d="M 573.810277 945 
L 578.711462 945 
L 578.711462 945 
L 573.810277 945 
z
" style="fill:#0000ff;opacity:0.4;"/>
   </g>
   <g id="patch_74">
    <path clip-path="url(#pd79249eeb7)" d="M 578.711462 945 
L 583.612648 945 
L 583.612648 945 
L 578.711462 945 
z
" style="fill:#0000ff;opacity:0.4;"/>
   </g>
   <g id="patch_75">
    <path clip-path="url(#pd79249eeb7)" d="M 583.612648 945 
L 588.513834 945 
L 588.513834 945 
L 583.612648 945 
z
" style="fill:#0000ff;opacity:0.4;"/>
   </g>
   <g id="patch_76">
    <path clip-path="url(#pd79249eeb7)" d="M 588.513834 945 
L 593.41502 945 
L 593.41502 945 
L 588.513834 945 
z
" style="fill:#0000ff;opacity:0.4;"/>
   </g>
   <g id="patch_77">
    <path clip-path="url(#pd79249eeb7)" d="M 593.41502 945 
L 598.316206 945 
L 598.316206 945 
L 593.41502 945 
z
" style="fill:#0000ff;opacity:0.4;"/>
   </g>
   <g id="patch_78">
    <path clip-path="url(#pd79249eeb7)" d="M 598.316206 945 
L 603.217391 945 
L 603.217391 945 
L 598.316206 945 
z
" style="fill:#0000ff;opacity:0.4;"/>
   </g>
   <g id="patch_79">
    <path clip-path="url(#pd79249eeb7)" d="M 603.217391 945 
L 608.118577 945 
L 608.118577 945 
L 603.217391 945 
z
" style="fill:#0000ff;opacity:0.4;"/>
   </g>
   <g id="patch_80">
    <path clip-path="url(#pd79249eeb7)" d="M 608.118577 945 
L 613.019763 945 
L 613.019763 945 
L 608.118577 945 
z
" style="fill:#0000ff;opacity:0.4;"/>
   </g>
   <g id="patch_81">
    <path clip-path="url(#pd79249eeb7)" d="M 613.019763 945 
L 617.920949 945 
L 617.920949 945 
L 613.019763 945 
z
" style="fill:#0000ff;opacity:0.4;"/>
   </g>
   <g id="patch_82">
    <path clip-path="url(#pd79249eeb7)" d="M 617.920949 945 
L 622.822134 945 
L 622.822134 945 
L 617.920949 945 
z
" style="fill:#0000ff;opacity:0.4;"/>
   </g>
   <g id="patch_83">
    <path clip-path="url(#pd79249eeb7)" d="M 622.822134 945 
L 627.72332 945 
L 627.72332 945 
L 622.822134 945 
z
" style="fill:#0000ff;opacity:0.4;"/>
   </g>
   <g id="patch_84">
    <path clip-path="url(#pd79249eeb7)" d="M 627.72332 945 
L 632.624506 945 
L 632.624506 945 
L 627.72332 945 
z
" style="fill:#0000ff;opacity:0.4;"/>
   </g>
   <g id="patch_85">
    <path clip-path="url(#pd79249eeb7)" d="M 632.624506 945 
L 637.525692 945 
L 637.525692 945 
L 632.624506 945 
z
" style="fill:#0000ff;opacity:0.4;"/>
   </g>
   <g id="patch_86">
    <path clip-path="url(#pd79249eeb7)" d="M 637.525692 945 
L 642.426877 945 
L 642.426877 945 
L 637.525692 945 
z
" style="fill:#0000ff;opacity:0.4;"/>
   </g>
   <g id="patch_87">
    <path clip-path="url(#pd79249eeb7)" d="M 642.426877 945 
L 647.328063 945 
L 647.328063 945 
L 642.426877 945 
z
" style="fill:#0000ff;opacity:0.4;"/>
   </g>
   <g id="patch_88">
    <path clip-path="url(#pd79249eeb7)" d="M 647.328063 945 
L 652.229249 945 
L 652.229249 945 
L 647.328063 945 
z
" style="fill:#0000ff;opacity:0.4;"/>
   </g>
   <g id="patch_89">
    <path clip-path="url(#pd79249eeb7)" d="M 652.229249 945 
L 657.130435 945 
L 657.130435 945 
L 652.229249 945 
z
" style="fill:#0000ff;opacity:0.4;"/>
   </g>
   <g id="patch_90">
    <path clip-path="url(#pd79249eeb7)" d="M 657.130435 945 
L 662.031621 945 
L 662.031621 945 
L 657.130435 945 
z
" style="fill:#0000ff;opacity:0.4;"/>
   </g>
   <g id="patch_91">
    <path clip-path="url(#pd79249eeb7)" d="M 662.031621 945 
L 666.932806 945 
L 666.932806 945 
L 662.031621 945 
z
" style="fill:#0000ff;opacity:0.4;"/>
   </g>
   <g id="patch_92">
    <path clip-path="url(#pd79249eeb7)" d="M 666.932806 945 
L 671.833992 945 
L 671.833992 945 
L 666.932806 945 
z
" style="fill:#0000ff;opacity:0.4;"/>
   </g>
   <g id="patch_93">
    <path clip-path="url(#pd79249eeb7)" d="M 671.833992 945 
L 676.735178 945 
L 676.735178 945 
L 671.833992 945 
z
" style="fill:#0000ff;opacity:0.4;"/>
   </g>
   <g id="patch_94">
    <path clip-path="url(#pd79249eeb7)" d="M 676.735178 945 
L 681.636364 945 
L 681.636364 945 
L 676.735178 945 
z
" style="fill:#0000ff;opacity:0.4;"/>
   </g>
   <g id="patch_95">
    <path clip-path="url(#pd79249eeb7)" d="M 681.636364 945 
L 686.537549 945 
L 686.537549 945 
L 681.636364 945 
z
" style="fill:#0000ff;opacity:0.4;"/>
   </g>
   <g id="patch_96">
    <path clip-path="url(#pd79249eeb7)" d="M 686.537549 945 
L 691.438735 945 
L 691.438735 945 
L 686.537549 945 
z
" style="fill:#0000ff;opacity:0.4;"/>
   </g>
   <g id="patch_97">
    <path clip-path="url(#pd79249eeb7)" d="M 691.438735 945 
L 696.339921 945 
L 696.339921 945 
L 691.438735 945 
z
" style="fill:#0000ff;opacity:0.4;"/>
   </g>
   <g id="patch_98">
    <path clip-path="url(#pd79249eeb7)" d="M 696.339921 945 
L 701.241107 945 
L 701.241107 945 
L 696.339921 945 
z
" style="fill:#0000ff;opacity:0.4;"/>
   </g>
   <g id="patch_99">
    <path clip-path="url(#pd79249eeb7)" d="M 701.241107 945 
L 706.142292 945 
L 706.142292 945 
L 701.241107 945 
z
" style="fill:#0000ff;opacity:0.4;"/>
   </g>
   <g id="patch_100">
    <path clip-path="url(#pd79249eeb7)" d="M 706.142292 945 
L 711.043478 945 
L 711.043478 945 
L 706.142292 945 
z
" style="fill:#0000ff;opacity:0.4;"/>
   </g>
   <g id="patch_101">
    <path clip-path="url(#pd79249eeb7)" d="M 711.043478 945 
L 715.944664 945 
L 715.944664 945 
L 711.043478 945 
z
" style="fill:#0000ff;opacity:0.4;"/>
   </g>
   <g id="patch_102">
    <path clip-path="url(#pd79249eeb7)" d="M 715.944664 945 
L 720.84585 945 
L 720.84585 945 
L 715.944664 945 
z
" style="fill:#0000ff;opacity:0.4;"/>
   </g>
   <g id="patch_103">
    <path clip-path="url(#pd79249eeb7)" d="M 720.84585 945 
L 725.747036 945 
L 725.747036 945 
L 720.84585 945 
z
" style="fill:#0000ff;opacity:0.4;"/>
   </g>
   <g id="patch_104">
    <path clip-path="url(#pd79249eeb7)" d="M 725.747036 945 
L 730.648221 945 
L 730.648221 945 
L 725.747036 945 
z
" style="fill:#0000ff;opacity:0.4;"/>
   </g>
   <g id="patch_105">
    <path clip-path="url(#pd79249eeb7)" d="M 730.648221 945 
L 735.549407 945 
L 735.549407 945 
L 730.648221 945 
z
" style="fill:#0000ff;opacity:0.4;"/>
   </g>
   <g id="patch_106">
    <path clip-path="url(#pd79249eeb7)" d="M 735.549407 945 
L 740.450593 945 
L 740.450593 945 
L 735.549407 945 
z
" style="fill:#0000ff;opacity:0.4;"/>
   </g>
   <g id="patch_107">
    <path clip-path="url(#pd79249eeb7)" d="M 740.450593 945 
L 745.351779 945 
L 745.351779 945 
L 740.450593 945 
z
" style="fill:#0000ff;opacity:0.4;"/>
   </g>
   <g id="patch_108">
    <path clip-path="url(#pd79249eeb7)" d="M 745.351779 945 
L 750.252964 945 
L 750.252964 945 
L 745.351779 945 
z
" style="fill:#0000ff;opacity:0.4;"/>
   </g>
   <g id="patch_109">
    <path clip-path="url(#pd79249eeb7)" d="M 750.252964 945 
L 755.15415 945 
L 755.15415 945 
L 750.252964 945 
z
" style="fill:#0000ff;opacity:0.4;"/>
   </g>
   <g id="patch_110">
    <path clip-path="url(#pd79249eeb7)" d="M 755.15415 945 
L 760.055336 945 
L 760.055336 945 
L 755.15415 945 
z
" style="fill:#0000ff;opacity:0.4;"/>
   </g>
   <g id="patch_111">
    <path clip-path="url(#pd79249eeb7)" d="M 760.055336 945 
L 764.956522 945 
L 764.956522 945 
L 760.055336 945 
z
" style="fill:#0000ff;opacity:0.4;"/>
   </g>
   <g id="patch_112">
    <path clip-path="url(#pd79249eeb7)" d="M 764.956522 945 
L 769.857708 945 
L 769.857708 945 
L 764.956522 945 
z
" style="fill:#0000ff;opacity:0.4;"/>
   </g>
   <g id="patch_113">
    <path clip-path="url(#pd79249eeb7)" d="M 769.857708 945 
L 774.758893 945 
L 774.758893 945 
L 769.857708 945 
z
" style="fill:#0000ff;opacity:0.4;"/>
   </g>
   <g id="patch_114">
    <path clip-path="url(#pd79249eeb7)" d="M 774.758893 945 
L 779.660079 945 
L 779.660079 945 
L 774.758893 945 
z
" style="fill:#0000ff;opacity:0.4;"/>
   </g>
   <g id="patch_115">
    <path clip-path="url(#pd79249eeb7)" d="M 779.660079 945 
L 784.561265 945 
L 784.561265 945 
L 779.660079 945 
z
" style="fill:#0000ff;opacity:0.4;"/>
   </g>
   <g id="patch_116">
    <path clip-path="url(#pd79249eeb7)" d="M 784.561265 945 
L 789.462451 945 
L 789.462451 945 
L 784.561265 945 
z
" style="fill:#0000ff;opacity:0.4;"/>
   </g>
   <g id="patch_117">
    <path clip-path="url(#pd79249eeb7)" d="M 789.462451 945 
L 794.363636 945 
L 794.363636 945 
L 789.462451 945 
z
" style="fill:#0000ff;opacity:0.4;"/>
   </g>
   <g id="patch_118">
    <path clip-path="url(#pd79249eeb7)" d="M 794.363636 945 
L 799.264822 945 
L 799.264822 945 
L 794.363636 945 
z
" style="fill:#0000ff;opacity:0.4;"/>
   </g>
   <g id="patch_119">
    <path clip-path="url(#pd79249eeb7)" d="M 799.264822 945 
L 804.166008 945 
L 804.166008 945 
L 799.264822 945 
z
" style="fill:#0000ff;opacity:0.4;"/>
   </g>
   <g id="patch_120">
    <path clip-path="url(#pd79249eeb7)" d="M 804.166008 945 
L 809.067194 945 
L 809.067194 945 
L 804.166008 945 
z
" style="fill:#0000ff;opacity:0.4;"/>
   </g>
   <g id="patch_121">
    <path clip-path="url(#pd79249eeb7)" d="M 809.067194 945 
L 813.968379 945 
L 813.968379 945 
L 809.067194 945 
z
" style="fill:#0000ff;opacity:0.4;"/>
   </g>
   <g id="patch_122">
    <path clip-path="url(#pd79249eeb7)" d="M 813.968379 945 
L 818.869565 945 
L 818.869565 945 
L 813.968379 945 
z
" style="fill:#0000ff;opacity:0.4;"/>
   </g>
   <g id="patch_123">
    <path clip-path="url(#pd79249eeb7)" d="M 818.869565 945 
L 823.770751 945 
L 823.770751 945 
L 818.869565 945 
z
" style="fill:#0000ff;opacity:0.4;"/>
   </g>
   <g id="patch_124">
    <path clip-path="url(#pd79249eeb7)" d="M 823.770751 945 
L 828.671937 945 
L 828.671937 945 
L 823.770751 945 
z
" style="fill:#0000ff;opacity:0.4;"/>
   </g>
   <g id="patch_125">
    <path clip-path="url(#pd79249eeb7)" d="M 828.671937 945 
L 833.573123 945 
L 833.573123 945 
L 828.671937 945 
z
" style="fill:#0000ff;opacity:0.4;"/>
   </g>
   <g id="patch_126">
    <path clip-path="url(#pd79249eeb7)" d="M 833.573123 945 
L 838.474308 945 
L 838.474308 945 
L 833.573123 945 
z
" style="fill:#0000ff;opacity:0.4;"/>
   </g>
   <g id="patch_127">
    <path clip-path="url(#pd79249eeb7)" d="M 838.474308 945 
L 843.375494 945 
L 843.375494 945 
L 838.474308 945 
z
" style="fill:#0000ff;opacity:0.4;"/>
   </g>
   <g id="patch_128">
    <path clip-path="url(#pd79249eeb7)" d="M 843.375494 945 
L 848.27668 945 
L 848.27668 945 
L 843.375494 945 
z
" style="fill:#0000ff;opacity:0.4;"/>
   </g>
   <g id="patch_129">
    <path clip-path="url(#pd79249eeb7)" d="M 848.27668 945 
L 853.177866 945 
L 853.177866 945 
L 848.27668 945 
z
" style="fill:#0000ff;opacity:0.4;"/>
   </g>
   <g id="patch_130">
    <path clip-path="url(#pd79249eeb7)" d="M 853.177866 945 
L 858.079051 945 
L 858.079051 945 
L 853.177866 945 
z
" style="fill:#0000ff;opacity:0.4;"/>
   </g>
   <g id="patch_131">
    <path clip-path="url(#pd79249eeb7)" d="M 858.079051 945 
L 862.980237 945 
L 862.980237 945 
L 858.079051 945 
z
" style="fill:#0000ff;opacity:0.4;"/>
   </g>
   <g id="patch_132">
    <path clip-path="url(#pd79249eeb7)" d="M 862.980237 945 
L 867.881423 945 
L 867.881423 945 
L 862.980237 945 
z
" style="fill:#0000ff;opacity:0.4;"/>
   </g>
   <g id="patch_133">
    <path clip-path="url(#pd79249eeb7)" d="M 867.881423 945 
L 872.782609 945 
L 872.782609 945 
L 867.881423 945 
z
" style="fill:#0000ff;opacity:0.4;"/>
   </g>
   <g id="patch_134">
    <path clip-path="url(#pd79249eeb7)" d="M 872.782609 945 
L 877.683794 945 
L 877.683794 945 
L 872.782609 945 
z
" style="fill:#0000ff;opacity:0.4;"/>
   </g>
   <g id="patch_135">
    <path clip-path="url(#pd79249eeb7)" d="M 877.683794 945 
L 882.58498 945 
L 882.58498 945 
L 877.683794 945 
z
" style="fill:#0000ff;opacity:0.4;"/>
   </g>
   <g id="patch_136">
    <path clip-path="url(#pd79249eeb7)" d="M 882.58498 945 
L 887.486166 945 
L 887.486166 945 
L 882.58498 945 
z
" style="fill:#0000ff;opacity:0.4;"/>
   </g>
   <g id="patch_137">
    <path clip-path="url(#pd79249eeb7)" d="M 887.486166 945 
L 892.387352 945 
L 892.387352 945 
L 887.486166 945 
z
" style="fill:#0000ff;opacity:0.4;"/>
   </g>
   <g id="patch_138">
    <path clip-path="url(#pd79249eeb7)" d="M 892.387352 945 
L 897.288538 945 
L 897.288538 945 
L 892.387352 945 
z
" style="fill:#0000ff;opacity:0.4;"/>
   </g>
   <g id="patch_139">
    <path clip-path="url(#pd79249eeb7)" d="M 897.288538 945 
L 902.189723 945 
L 902.189723 945 
L 897.288538 945 
z
" style="fill:#0000ff;opacity:0.4;"/>
   </g>
   <g id="patch_140">
    <path clip-path="url(#pd79249eeb7)" d="M 902.189723 945 
L 907.090909 945 
L 907.090909 945 
L 902.189723 945 
z
" style="fill:#0000ff;opacity:0.4;"/>
   </g>
   <g id="patch_141">
    <path clip-path="url(#pd79249eeb7)" d="M 907.090909 945 
L 911.992095 945 
L 911.992095 945 
L 907.090909 945 
z
" style="fill:#0000ff;opacity:0.4;"/>
   </g>
   <g id="patch_142">
    <path clip-path="url(#pd79249eeb7)" d="M 911.992095 945 
L 916.893281 945 
L 916.893281 945 
L 911.992095 945 
z
" style="fill:#0000ff;opacity:0.4;"/>
   </g>
   <g id="patch_143">
    <path clip-path="url(#pd79249eeb7)" d="M 916.893281 945 
L 921.794466 945 
L 921.794466 945 
L 916.893281 945 
z
" style="fill:#0000ff;opacity:0.4;"/>
   </g>
   <g id="patch_144">
    <path clip-path="url(#pd79249eeb7)" d="M 921.794466 945 
L 926.695652 945 
L 926.695652 945 
L 921.794466 945 
z
" style="fill:#0000ff;opacity:0.4;"/>
   </g>
   <g id="patch_145">
    <path clip-path="url(#pd79249eeb7)" d="M 926.695652 945 
L 931.596838 945 
L 931.596838 945 
L 926.695652 945 
z
" style="fill:#0000ff;opacity:0.4;"/>
   </g>
   <g id="patch_146">
    <path clip-path="url(#pd79249eeb7)" d="M 931.596838 945 
L 936.498024 945 
L 936.498024 945 
L 931.596838 945 
z
" style="fill:#0000ff;opacity:0.4;"/>
   </g>
   <g id="patch_147">
    <path clip-path="url(#pd79249eeb7)" d="M 936.498024 945 
L 941.399209 945 
L 941.399209 945 
L 936.498024 945 
z
" style="fill:#0000ff;opacity:0.4;"/>
   </g>
   <g id="patch_148">
    <path clip-path="url(#pd79249eeb7)" d="M 941.399209 945 
L 946.300395 945 
L 946.300395 945 
L 941.399209 945 
z
" style="fill:#0000ff;opacity:0.4;"/>
   </g>
   <g id="patch_149">
    <path clip-path="url(#pd79249eeb7)" d="M 946.300395 945 
L 951.201581 945 
L 951.201581 945 
L 946.300395 945 
z
" style="fill:#0000ff;opacity:0.4;"/>
   </g>
   <g id="patch_150">
    <path clip-path="url(#pd79249eeb7)" d="M 951.201581 945 
L 956.102767 945 
L 956.102767 945 
L 951.201581 945 
z
" style="fill:#0000ff;opacity:0.4;"/>
   </g>
   <g id="patch_151">
    <path clip-path="url(#pd79249eeb7)" d="M 956.102767 945 
L 961.003953 945 
L 961.003953 945 
L 956.102767 945 
z
" style="fill:#0000ff;opacity:0.4;"/>
   </g>
   <g id="patch_152">
    <path clip-path="url(#pd79249eeb7)" d="M 961.003953 945 
L 965.905138 945 
L 965.905138 945 
L 961.003953 945 
z
" style="fill:#0000ff;opacity:0.4;"/>
   </g>
   <g id="patch_153">
    <path clip-path="url(#pd79249eeb7)" d="M 965.905138 945 
L 970.806324 945 
L 970.806324 945 
L 965.905138 945 
z
" style="fill:#0000ff;opacity:0.4;"/>
   </g>
   <g id="patch_154">
    <path clip-path="url(#pd79249eeb7)" d="M 970.806324 945 
L 975.70751 945 
L 975.70751 945 
L 970.806324 945 
z
" style="fill:#0000ff;opacity:0.4;"/>
   </g>
   <g id="patch_155">
    <path clip-path="url(#pd79249eeb7)" d="M 975.70751 945 
L 980.608696 945 
L 980.608696 945 
L 975.70751 945 
z
" style="fill:#0000ff;opacity:0.4;"/>
   </g>
   <g id="patch_156">
    <path clip-path="url(#pd79249eeb7)" d="M 980.608696 945 
L 985.509881 945 
L 985.509881 945 
L 980.608696 945 
z
" style="fill:#0000ff;opacity:0.4;"/>
   </g>
   <g id="patch_157">
    <path clip-path="url(#pd79249eeb7)" d="M 985.509881 945 
L 990.411067 945 
L 990.411067 945 
L 985.509881 945 
z
" style="fill:#0000ff;opacity:0.4;"/>
   </g>
   <g id="patch_158">
    <path clip-path="url(#pd79249eeb7)" d="M 990.411067 945 
L 995.312253 945 
L 995.312253 945 
L 990.411067 945 
z
" style="fill:#0000ff;opacity:0.4;"/>
   </g>
   <g id="patch_159">
    <path clip-path="url(#pd79249eeb7)" d="M 995.312253 945 
L 1000.213439 945 
L 1000.213439 945 
L 995.312253 945 
z
" style="fill:#0000ff;opacity:0.4;"/>
   </g>
   <g id="patch_160">
    <path clip-path="url(#pd79249eeb7)" d="M 1000.213439 945 
L 1005.114625 945 
L 1005.114625 945 
L 1000.213439 945 
z
" style="fill:#0000ff;opacity:0.4;"/>
   </g>
   <g id="patch_161">
    <path clip-path="url(#pd79249eeb7)" d="M 1005.114625 945 
L 1010.01581 945 
L 1010.01581 945 
L 1005.114625 945 
z
" style="fill:#0000ff;opacity:0.4;"/>
   </g>
   <g id="patch_162">
    <path clip-path="url(#pd79249eeb7)" d="M 1010.01581 945 
L 1014.916996 945 
L 1014.916996 938.528571 
L 1010.01581 938.528571 
z
" style="fill:#0000ff;opacity:0.4;"/>
   </g>
   <g id="patch_163">
    <path clip-path="url(#pd79249eeb7)" d="M 1014.916996 945 
L 1019.818182 945 
L 1019.818182 938.528571 
L 1014.916996 938.528571 
z
" style="fill:#0000ff;opacity:0.4;"/>
   </g>
   <g id="patch_164">
    <path clip-path="url(#pd79249eeb7)" d="M 1019.818182 945 
L 1024.719368 945 
L 1024.719368 945 
L 1019.818182 945 
z
" style="fill:#0000ff;opacity:0.4;"/>
   </g>
   <g id="patch_165">
    <path clip-path="url(#pd79249eeb7)" d="M 1024.719368 945 
L 1029.620553 945 
L 1029.620553 945 
L 1024.719368 945 
z
" style="fill:#0000ff;opacity:0.4;"/>
   </g>
   <g id="patch_166">
    <path clip-path="url(#pd79249eeb7)" d="M 1029.620553 945 
L 1034.521739 945 
L 1034.521739 945 
L 1029.620553 945 
z
" style="fill:#0000ff;opacity:0.4;"/>
   </g>
   <g id="patch_167">
    <path clip-path="url(#pd79249eeb7)" d="M 1034.521739 945 
L 1039.422925 945 
L 1039.422925 945 
L 1034.521739 945 
z
" style="fill:#0000ff;opacity:0.4;"/>
   </g>
   <g id="patch_168">
    <path clip-path="url(#pd79249eeb7)" d="M 1039.422925 945 
L 1044.324111 945 
L 1044.324111 945 
L 1039.422925 945 
z
" style="fill:#0000ff;opacity:0.4;"/>
   </g>
   <g id="patch_169">
    <path clip-path="url(#pd79249eeb7)" d="M 1044.324111 945 
L 1049.225296 945 
L 1049.225296 945 
L 1044.324111 945 
z
" style="fill:#0000ff;opacity:0.4;"/>
   </g>
   <g id="patch_170">
    <path clip-path="url(#pd79249eeb7)" d="M 1049.225296 945 
L 1054.126482 945 
L 1054.126482 945 
L 1049.225296 945 
z
" style="fill:#0000ff;opacity:0.4;"/>
   </g>
   <g id="patch_171">
    <path clip-path="url(#pd79249eeb7)" d="M 1054.126482 945 
L 1059.027668 945 
L 1059.027668 945 
L 1054.126482 945 
z
" style="fill:#0000ff;opacity:0.4;"/>
   </g>
   <g id="patch_172">
    <path clip-path="url(#pd79249eeb7)" d="M 1059.027668 945 
L 1063.928854 945 
L 1063.928854 945 
L 1059.027668 945 
z
" style="fill:#0000ff;opacity:0.4;"/>
   </g>
   <g id="patch_173">
    <path clip-path="url(#pd79249eeb7)" d="M 1063.928854 945 
L 1068.83004 945 
L 1068.83004 945 
L 1063.928854 945 
z
" style="fill:#0000ff;opacity:0.4;"/>
   </g>
   <g id="patch_174">
    <path clip-path="url(#pd79249eeb7)" d="M 1068.83004 945 
L 1073.731225 945 
L 1073.731225 945 
L 1068.83004 945 
z
" style="fill:#0000ff;opacity:0.4;"/>
   </g>
   <g id="patch_175">
    <path clip-path="url(#pd79249eeb7)" d="M 1073.731225 945 
L 1078.632411 945 
L 1078.632411 945 
L 1073.731225 945 
z
" style="fill:#0000ff;opacity:0.4;"/>
   </g>
   <g id="patch_176">
    <path clip-path="url(#pd79249eeb7)" d="M 1078.632411 945 
L 1083.533597 945 
L 1083.533597 945 
L 1078.632411 945 
z
" style="fill:#0000ff;opacity:0.4;"/>
   </g>
   <g id="patch_177">
    <path clip-path="url(#pd79249eeb7)" d="M 1083.533597 945 
L 1088.434783 945 
L 1088.434783 945 
L 1083.533597 945 
z
" style="fill:#0000ff;opacity:0.4;"/>
   </g>
   <g id="patch_178">
    <path clip-path="url(#pd79249eeb7)" d="M 1088.434783 945 
L 1093.335968 945 
L 1093.335968 945 
L 1088.434783 945 
z
" style="fill:#0000ff;opacity:0.4;"/>
   </g>
   <g id="patch_179">
    <path clip-path="url(#pd79249eeb7)" d="M 1093.335968 945 
L 1098.237154 945 
L 1098.237154 945 
L 1093.335968 945 
z
" style="fill:#0000ff;opacity:0.4;"/>
   </g>
   <g id="patch_180">
    <path clip-path="url(#pd79249eeb7)" d="M 1098.237154 945 
L 1103.13834 945 
L 1103.13834 945 
L 1098.237154 945 
z
" style="fill:#0000ff;opacity:0.4;"/>
   </g>
   <g id="patch_181">
    <path clip-path="url(#pd79249eeb7)" d="M 1103.13834 945 
L 1108.039526 945 
L 1108.039526 945 
L 1103.13834 945 
z
" style="fill:#0000ff;opacity:0.4;"/>
   </g>
   <g id="patch_182">
    <path clip-path="url(#pd79249eeb7)" d="M 1108.039526 945 
L 1112.940711 945 
L 1112.940711 945 
L 1108.039526 945 
z
" style="fill:#0000ff;opacity:0.4;"/>
   </g>
   <g id="patch_183">
    <path clip-path="url(#pd79249eeb7)" d="M 1112.940711 945 
L 1117.841897 945 
L 1117.841897 945 
L 1112.940711 945 
z
" style="fill:#0000ff;opacity:0.4;"/>
   </g>
   <g id="patch_184">
    <path clip-path="url(#pd79249eeb7)" d="M 1117.841897 945 
L 1122.743083 945 
L 1122.743083 945 
L 1117.841897 945 
z
" style="fill:#0000ff;opacity:0.4;"/>
   </g>
   <g id="patch_185">
    <path clip-path="url(#pd79249eeb7)" d="M 1122.743083 945 
L 1127.644269 945 
L 1127.644269 945 
L 1122.743083 945 
z
" style="fill:#0000ff;opacity:0.4;"/>
   </g>
   <g id="patch_186">
    <path clip-path="url(#pd79249eeb7)" d="M 1127.644269 945 
L 1132.545455 945 
L 1132.545455 945 
L 1127.644269 945 
z
" style="fill:#0000ff;opacity:0.4;"/>
   </g>
   <g id="patch_187">
    <path clip-path="url(#pd79249eeb7)" d="M 1132.545455 945 
L 1137.44664 945 
L 1137.44664 945 
L 1132.545455 945 
z
" style="fill:#0000ff;opacity:0.4;"/>
   </g>
   <g id="patch_188">
    <path clip-path="url(#pd79249eeb7)" d="M 1137.44664 945 
L 1142.347826 945 
L 1142.347826 945 
L 1137.44664 945 
z
" style="fill:#0000ff;opacity:0.4;"/>
   </g>
   <g id="patch_189">
    <path clip-path="url(#pd79249eeb7)" d="M 1142.347826 945 
L 1147.249012 945 
L 1147.249012 945 
L 1142.347826 945 
z
" style="fill:#0000ff;opacity:0.4;"/>
   </g>
   <g id="patch_190">
    <path clip-path="url(#pd79249eeb7)" d="M 1147.249012 945 
L 1152.150198 945 
L 1152.150198 945 
L 1147.249012 945 
z
" style="fill:#0000ff;opacity:0.4;"/>
   </g>
   <g id="patch_191">
    <path clip-path="url(#pd79249eeb7)" d="M 1152.150198 945 
L 1157.051383 945 
L 1157.051383 945 
L 1152.150198 945 
z
" style="fill:#0000ff;opacity:0.4;"/>
   </g>
   <g id="patch_192">
    <path clip-path="url(#pd79249eeb7)" d="M 1157.051383 945 
L 1161.952569 945 
L 1161.952569 945 
L 1157.051383 945 
z
" style="fill:#0000ff;opacity:0.4;"/>
   </g>
   <g id="patch_193">
    <path clip-path="url(#pd79249eeb7)" d="M 1161.952569 945 
L 1166.853755 945 
L 1166.853755 945 
L 1161.952569 945 
z
" style="fill:#0000ff;opacity:0.4;"/>
   </g>
   <g id="patch_194">
    <path clip-path="url(#pd79249eeb7)" d="M 1166.853755 945 
L 1171.754941 945 
L 1171.754941 945 
L 1166.853755 945 
z
" style="fill:#0000ff;opacity:0.4;"/>
   </g>
   <g id="patch_195">
    <path clip-path="url(#pd79249eeb7)" d="M 1171.754941 945 
L 1176.656126 945 
L 1176.656126 945 
L 1171.754941 945 
z
" style="fill:#0000ff;opacity:0.4;"/>
   </g>
   <g id="patch_196">
    <path clip-path="url(#pd79249eeb7)" d="M 1176.656126 945 
L 1181.557312 945 
L 1181.557312 945 
L 1176.656126 945 
z
" style="fill:#0000ff;opacity:0.4;"/>
   </g>
   <g id="patch_197">
    <path clip-path="url(#pd79249eeb7)" d="M 1181.557312 945 
L 1186.458498 945 
L 1186.458498 945 
L 1181.557312 945 
z
" style="fill:#0000ff;opacity:0.4;"/>
   </g>
   <g id="patch_198">
    <path clip-path="url(#pd79249eeb7)" d="M 1186.458498 945 
L 1191.359684 945 
L 1191.359684 945 
L 1186.458498 945 
z
" style="fill:#0000ff;opacity:0.4;"/>
   </g>
   <g id="patch_199">
    <path clip-path="url(#pd79249eeb7)" d="M 1191.359684 945 
L 1196.26087 945 
L 1196.26087 945 
L 1191.359684 945 
z
" style="fill:#0000ff;opacity:0.4;"/>
   </g>
   <g id="patch_200">
    <path clip-path="url(#pd79249eeb7)" d="M 1196.26087 945 
L 1201.162055 945 
L 1201.162055 945 
L 1196.26087 945 
z
" style="fill:#0000ff;opacity:0.4;"/>
   </g>
   <g id="patch_201">
    <path clip-path="url(#pd79249eeb7)" d="M 1201.162055 945 
L 1206.063241 945 
L 1206.063241 945 
L 1201.162055 945 
z
" style="fill:#0000ff;opacity:0.4;"/>
   </g>
   <g id="patch_202">
    <path clip-path="url(#pd79249eeb7)" d="M 1206.063241 945 
L 1210.964427 945 
L 1210.964427 945 
L 1206.063241 945 
z
" style="fill:#0000ff;opacity:0.4;"/>
   </g>
   <g id="patch_203">
    <path clip-path="url(#pd79249eeb7)" d="M 1210.964427 945 
L 1215.865613 945 
L 1215.865613 945 
L 1210.964427 945 
z
" style="fill:#0000ff;opacity:0.4;"/>
   </g>
   <g id="patch_204">
    <path clip-path="url(#pd79249eeb7)" d="M 1215.865613 945 
L 1220.766798 945 
L 1220.766798 945 
L 1215.865613 945 
z
" style="fill:#0000ff;opacity:0.4;"/>
   </g>
   <g id="patch_205">
    <path clip-path="url(#pd79249eeb7)" d="M 1220.766798 945 
L 1225.667984 945 
L 1225.667984 945 
L 1220.766798 945 
z
" style="fill:#0000ff;opacity:0.4;"/>
   </g>
   <g id="patch_206">
    <path clip-path="url(#pd79249eeb7)" d="M 1225.667984 945 
L 1230.56917 945 
L 1230.56917 945 
L 1225.667984 945 
z
" style="fill:#0000ff;opacity:0.4;"/>
   </g>
   <g id="patch_207">
    <path clip-path="url(#pd79249eeb7)" d="M 1230.56917 945 
L 1235.470356 945 
L 1235.470356 945 
L 1230.56917 945 
z
" style="fill:#0000ff;opacity:0.4;"/>
   </g>
   <g id="patch_208">
    <path clip-path="url(#pd79249eeb7)" d="M 1235.470356 945 
L 1240.371542 945 
L 1240.371542 945 
L 1235.470356 945 
z
" style="fill:#0000ff;opacity:0.4;"/>
   </g>
   <g id="patch_209">
    <path clip-path="url(#pd79249eeb7)" d="M 1240.371542 945 
L 1245.272727 945 
L 1245.272727 168.428571 
L 1240.371542 168.428571 
z
" style="fill:#0000ff;opacity:0.4;"/>
   </g>
   <g id="matplotlib.axis_1">
    <g id="xtick_1">
     <g id="line2d_1">
      <defs>
       <path d="M 0 0 
L 0 3.5 
" id="m69e73d86ef" style="stroke:#000000;stroke-width:0.8;"/>
      </defs>
      <g>
       <use style="stroke:#000000;stroke-width:0.8;" x="228.761532" xlink:href="#m69e73d86ef" y="945"/>
      </g>
     </g>
     <g id="text_1">
      <!-- 0.0 -->
      <g transform="translate(209.276063 968.716563)scale(0.22 -0.22)">
       <defs>
        <path d="M 46 36.53125 
Q 46 50.203125 43.4375 55.78125 
Q 40.875 61.375 34.8125 61.375 
Q 28.765625 61.375 26.171875 55.78125 
Q 23.578125 50.203125 23.578125 36.53125 
Q 23.578125 22.703125 26.171875 17.03125 
Q 28.765625 11.375 34.8125 11.375 
Q 40.828125 11.375 43.40625 17.03125 
Q 46 22.703125 46 36.53125 
z
M 64.796875 36.375 
Q 64.796875 18.265625 56.984375 8.421875 
Q 49.171875 -1.421875 34.8125 -1.421875 
Q 20.40625 -1.421875 12.59375 8.421875 
Q 4.78125 18.265625 4.78125 36.375 
Q 4.78125 54.546875 12.59375 64.375 
Q 20.40625 74.21875 34.8125 74.21875 
Q 49.171875 74.21875 56.984375 64.375 
Q 64.796875 54.546875 64.796875 36.375 
z
" id="DejaVuSans-Bold-48"/>
        <path d="M 10.203125 18.890625 
L 27.78125 18.890625 
L 27.78125 0 
L 10.203125 0 
z
" id="DejaVuSans-Bold-46"/>
       </defs>
       <use xlink:href="#DejaVuSans-Bold-48"/>
       <use x="69.580078" xlink:href="#DejaVuSans-Bold-46"/>
       <use x="107.568359" xlink:href="#DejaVuSans-Bold-48"/>
      </g>
     </g>
    </g>
    <g id="xtick_2">
     <g id="line2d_2">
      <g>
       <use style="stroke:#000000;stroke-width:0.8;" x="432.063771" xlink:href="#m69e73d86ef" y="945"/>
      </g>
     </g>
     <g id="text_2">
      <!-- 0.2 -->
      <g transform="translate(412.578302 968.716563)scale(0.22 -0.22)">
       <defs>
        <path d="M 28.8125 13.8125 
L 60.890625 13.8125 
L 60.890625 0 
L 7.90625 0 
L 7.90625 13.8125 
L 34.515625 37.3125 
Q 38.09375 40.53125 39.796875 43.609375 
Q 41.5 46.6875 41.5 50 
Q 41.5 55.125 38.0625 58.25 
Q 34.625 61.375 28.90625 61.375 
Q 24.515625 61.375 19.28125 59.5 
Q 14.0625 57.625 8.109375 53.90625 
L 8.109375 69.921875 
Q 14.453125 72.015625 20.65625 73.109375 
Q 26.859375 74.21875 32.8125 74.21875 
Q 45.90625 74.21875 53.15625 68.453125 
Q 60.40625 62.703125 60.40625 52.390625 
Q 60.40625 46.4375 57.328125 41.28125 
Q 54.25 36.140625 44.390625 27.484375 
z
" id="DejaVuSans-Bold-50"/>
       </defs>
       <use xlink:href="#DejaVuSans-Bold-48"/>
       <use x="69.580078" xlink:href="#DejaVuSans-Bold-46"/>
       <use x="107.568359" xlink:href="#DejaVuSans-Bold-50"/>
      </g>
     </g>
    </g>
    <g id="xtick_3">
     <g id="line2d_3">
      <g>
       <use style="stroke:#000000;stroke-width:0.8;" x="635.36601" xlink:href="#m69e73d86ef" y="945"/>
      </g>
     </g>
     <g id="text_3">
      <!-- 0.4 -->
      <g transform="translate(615.880541 968.716563)scale(0.22 -0.22)">
       <defs>
        <path d="M 36.8125 57.421875 
L 16.21875 26.90625 
L 36.8125 26.90625 
z
M 33.6875 72.90625 
L 54.59375 72.90625 
L 54.59375 26.90625 
L 64.984375 26.90625 
L 64.984375 13.28125 
L 54.59375 13.28125 
L 54.59375 0 
L 36.8125 0 
L 36.8125 13.28125 
L 4.5 13.28125 
L 4.5 29.390625 
z
" id="DejaVuSans-Bold-52"/>
       </defs>
       <use xlink:href="#DejaVuSans-Bold-48"/>
       <use x="69.580078" xlink:href="#DejaVuSans-Bold-46"/>
       <use x="107.568359" xlink:href="#DejaVuSans-Bold-52"/>
      </g>
     </g>
    </g>
    <g id="xtick_4">
     <g id="line2d_4">
      <g>
       <use style="stroke:#000000;stroke-width:0.8;" x="838.668249" xlink:href="#m69e73d86ef" y="945"/>
      </g>
     </g>
     <g id="text_4">
      <!-- 0.6 -->
      <g transform="translate(819.18278 968.716563)scale(0.22 -0.22)">
       <defs>
        <path d="M 36.1875 35.984375 
Q 31.25 35.984375 28.78125 32.78125 
Q 26.3125 29.59375 26.3125 23.1875 
Q 26.3125 16.796875 28.78125 13.59375 
Q 31.25 10.40625 36.1875 10.40625 
Q 41.15625 10.40625 43.625 13.59375 
Q 46.09375 16.796875 46.09375 23.1875 
Q 46.09375 29.59375 43.625 32.78125 
Q 41.15625 35.984375 36.1875 35.984375 
z
M 59.421875 71 
L 59.421875 57.515625 
Q 54.78125 59.71875 50.671875 60.765625 
Q 46.578125 61.8125 42.671875 61.8125 
Q 34.28125 61.8125 29.59375 57.140625 
Q 24.90625 52.484375 24.125 43.3125 
Q 27.34375 45.703125 31.09375 46.890625 
Q 34.859375 48.09375 39.3125 48.09375 
Q 50.484375 48.09375 57.34375 41.546875 
Q 64.203125 35.015625 64.203125 24.421875 
Q 64.203125 12.703125 56.53125 5.640625 
Q 48.875 -1.421875 35.984375 -1.421875 
Q 21.78125 -1.421875 13.984375 8.171875 
Q 6.203125 17.78125 6.203125 35.40625 
Q 6.203125 53.46875 15.3125 63.796875 
Q 24.421875 74.125 40.28125 74.125 
Q 45.3125 74.125 50.046875 73.34375 
Q 54.78125 72.5625 59.421875 71 
z
" id="DejaVuSans-Bold-54"/>
       </defs>
       <use xlink:href="#DejaVuSans-Bold-48"/>
       <use x="69.580078" xlink:href="#DejaVuSans-Bold-46"/>
       <use x="107.568359" xlink:href="#DejaVuSans-Bold-54"/>
      </g>
     </g>
    </g>
    <g id="xtick_5">
     <g id="line2d_5">
      <g>
       <use style="stroke:#000000;stroke-width:0.8;" x="1041.970488" xlink:href="#m69e73d86ef" y="945"/>
      </g>
     </g>
     <g id="text_5">
      <!-- 0.8 -->
      <g transform="translate(1022.485019 968.716563)scale(0.22 -0.22)">
       <defs>
        <path d="M 34.8125 32.625 
Q 29.546875 32.625 26.703125 29.734375 
Q 23.875 26.859375 23.875 21.484375 
Q 23.875 16.109375 26.703125 13.25 
Q 29.546875 10.40625 34.8125 10.40625 
Q 40.046875 10.40625 42.828125 13.25 
Q 45.609375 16.109375 45.609375 21.484375 
Q 45.609375 26.90625 42.828125 29.765625 
Q 40.046875 32.625 34.8125 32.625 
z
M 21.09375 38.8125 
Q 14.453125 40.828125 11.078125 44.96875 
Q 7.71875 49.125 7.71875 55.328125 
Q 7.71875 64.546875 14.59375 69.375 
Q 21.484375 74.21875 34.8125 74.21875 
Q 48.046875 74.21875 54.921875 69.40625 
Q 61.8125 64.59375 61.8125 55.328125 
Q 61.8125 49.125 58.421875 44.96875 
Q 55.03125 40.828125 48.390625 38.8125 
Q 55.8125 36.765625 59.59375 32.15625 
Q 63.375 27.546875 63.375 20.515625 
Q 63.375 9.671875 56.171875 4.125 
Q 48.96875 -1.421875 34.8125 -1.421875 
Q 20.609375 -1.421875 13.359375 4.125 
Q 6.109375 9.671875 6.109375 20.515625 
Q 6.109375 27.546875 9.890625 32.15625 
Q 13.671875 36.765625 21.09375 38.8125 
z
M 25.484375 53.421875 
Q 25.484375 49.078125 27.90625 46.734375 
Q 30.328125 44.390625 34.8125 44.390625 
Q 39.203125 44.390625 41.59375 46.734375 
Q 44 49.078125 44 53.421875 
Q 44 57.765625 41.59375 60.078125 
Q 39.203125 62.40625 34.8125 62.40625 
Q 30.328125 62.40625 27.90625 60.0625 
Q 25.484375 57.71875 25.484375 53.421875 
z
" id="DejaVuSans-Bold-56"/>
       </defs>
       <use xlink:href="#DejaVuSans-Bold-48"/>
       <use x="69.580078" xlink:href="#DejaVuSans-Bold-46"/>
       <use x="107.568359" xlink:href="#DejaVuSans-Bold-56"/>
      </g>
     </g>
    </g>
    <g id="xtick_6">
     <g id="line2d_6">
      <g>
       <use style="stroke:#000000;stroke-width:0.8;" x="1245.272727" xlink:href="#m69e73d86ef" y="945"/>
      </g>
     </g>
     <g id="text_6">
      <!-- 1.0 -->
      <g transform="translate(1225.787259 968.716563)scale(0.22 -0.22)">
       <defs>
        <path d="M 11.71875 12.984375 
L 28.328125 12.984375 
L 28.328125 60.109375 
L 11.28125 56.59375 
L 11.28125 69.390625 
L 28.21875 72.90625 
L 46.09375 72.90625 
L 46.09375 12.984375 
L 62.703125 12.984375 
L 62.703125 0 
L 11.71875 0 
z
" id="DejaVuSans-Bold-49"/>
       </defs>
       <use xlink:href="#DejaVuSans-Bold-49"/>
       <use x="69.580078" xlink:href="#DejaVuSans-Bold-46"/>
       <use x="107.568359" xlink:href="#DejaVuSans-Bold-48"/>
      </g>
     </g>
    </g>
   </g>
   <g id="matplotlib.axis_2">
    <g id="ytick_1">
     <g id="line2d_7">
      <defs>
       <path d="M 0 0 
L -3.5 0 
" id="mc0b72921a6" style="stroke:#000000;stroke-width:0.8;"/>
      </defs>
      <g>
       <use style="stroke:#000000;stroke-width:0.8;" x="180" xlink:href="#mc0b72921a6" y="945"/>
      </g>
     </g>
     <g id="text_7">
      <!-- 0 -->
      <g transform="translate(157.692813 953.358281)scale(0.22 -0.22)">
       <use xlink:href="#DejaVuSans-Bold-48"/>
      </g>
     </g>
    </g>
    <g id="ytick_2">
     <g id="line2d_8">
      <g>
       <use style="stroke:#000000;stroke-width:0.8;" x="180" xlink:href="#mc0b72921a6" y="815.571429"/>
      </g>
     </g>
     <g id="text_8">
      <!-- 20 -->
      <g transform="translate(142.385625 823.92971)scale(0.22 -0.22)">
       <use xlink:href="#DejaVuSans-Bold-50"/>
       <use x="69.580078" xlink:href="#DejaVuSans-Bold-48"/>
      </g>
     </g>
    </g>
    <g id="ytick_3">
     <g id="line2d_9">
      <g>
       <use style="stroke:#000000;stroke-width:0.8;" x="180" xlink:href="#mc0b72921a6" y="686.142857"/>
      </g>
     </g>
     <g id="text_9">
      <!-- 40 -->
      <g transform="translate(142.385625 694.501138)scale(0.22 -0.22)">
       <use xlink:href="#DejaVuSans-Bold-52"/>
       <use x="69.580078" xlink:href="#DejaVuSans-Bold-48"/>
      </g>
     </g>
    </g>
    <g id="ytick_4">
     <g id="line2d_10">
      <g>
       <use style="stroke:#000000;stroke-width:0.8;" x="180" xlink:href="#mc0b72921a6" y="556.714286"/>
      </g>
     </g>
     <g id="text_10">
      <!-- 60 -->
      <g transform="translate(142.385625 565.072567)scale(0.22 -0.22)">
       <use xlink:href="#DejaVuSans-Bold-54"/>
       <use x="69.580078" xlink:href="#DejaVuSans-Bold-48"/>
      </g>
     </g>
    </g>
    <g id="ytick_5">
     <g id="line2d_11">
      <g>
       <use style="stroke:#000000;stroke-width:0.8;" x="180" xlink:href="#mc0b72921a6" y="427.285714"/>
      </g>
     </g>
     <g id="text_11">
      <!-- 80 -->
      <g transform="translate(142.385625 435.643996)scale(0.22 -0.22)">
       <use xlink:href="#DejaVuSans-Bold-56"/>
       <use x="69.580078" xlink:href="#DejaVuSans-Bold-48"/>
      </g>
     </g>
    </g>
    <g id="ytick_6">
     <g id="line2d_12">
      <g>
       <use style="stroke:#000000;stroke-width:0.8;" x="180" xlink:href="#mc0b72921a6" y="297.857143"/>
      </g>
     </g>
     <g id="text_12">
      <!-- 100 -->
      <g transform="translate(127.078438 306.215424)scale(0.22 -0.22)">
       <use xlink:href="#DejaVuSans-Bold-49"/>
       <use x="69.580078" xlink:href="#DejaVuSans-Bold-48"/>
       <use x="139.160156" xlink:href="#DejaVuSans-Bold-48"/>
      </g>
     </g>
    </g>
    <g id="ytick_7">
     <g id="line2d_13">
      <g>
       <use style="stroke:#000000;stroke-width:0.8;" x="180" xlink:href="#mc0b72921a6" y="168.428571"/>
      </g>
     </g>
     <g id="text_13">
      <!-- 120 -->
      <g transform="translate(127.078438 176.786853)scale(0.22 -0.22)">
       <use xlink:href="#DejaVuSans-Bold-49"/>
       <use x="69.580078" xlink:href="#DejaVuSans-Bold-50"/>
       <use x="139.160156" xlink:href="#DejaVuSans-Bold-48"/>
      </g>
     </g>
    </g>
   </g>
   <g id="patch_210">
    <path d="M 180 945 
L 180 129.6 
" style="fill:none;stroke:#000000;stroke-linecap:square;stroke-linejoin:miter;stroke-width:0.8;"/>
   </g>
   <g id="patch_211">
    <path d="M 1296 945 
L 1296 129.6 
" style="fill:none;stroke:#000000;stroke-linecap:square;stroke-linejoin:miter;stroke-width:0.8;"/>
   </g>
   <g id="patch_212">
    <path d="M 180 945 
L 1296 945 
" style="fill:none;stroke:#000000;stroke-linecap:square;stroke-linejoin:miter;stroke-width:0.8;"/>
   </g>
   <g id="patch_213">
    <path d="M 180 129.6 
L 1296 129.6 
" style="fill:none;stroke:#000000;stroke-linecap:square;stroke-linejoin:miter;stroke-width:0.8;"/>
   </g>
   <g id="text_14">
    <!-- Perturbation off-target score -->
    <g transform="translate(550.854938 123.6)scale(0.264 -0.264)">
     <defs>
      <path d="M 19.671875 64.796875 
L 19.671875 37.40625 
L 32.078125 37.40625 
Q 38.96875 37.40625 42.71875 40.96875 
Q 46.484375 44.53125 46.484375 51.125 
Q 46.484375 57.671875 42.71875 61.234375 
Q 38.96875 64.796875 32.078125 64.796875 
z
M 9.8125 72.90625 
L 32.078125 72.90625 
Q 44.34375 72.90625 50.609375 67.359375 
Q 56.890625 61.8125 56.890625 51.125 
Q 56.890625 40.328125 50.609375 34.8125 
Q 44.34375 29.296875 32.078125 29.296875 
L 19.671875 29.296875 
L 19.671875 0 
L 9.8125 0 
z
" id="DejaVuSans-80"/>
      <path d="M 56.203125 29.59375 
L 56.203125 25.203125 
L 14.890625 25.203125 
Q 15.484375 15.921875 20.484375 11.0625 
Q 25.484375 6.203125 34.421875 6.203125 
Q 39.59375 6.203125 44.453125 7.46875 
Q 49.3125 8.734375 54.109375 11.28125 
L 54.109375 2.78125 
Q 49.265625 0.734375 44.1875 -0.34375 
Q 39.109375 -1.421875 33.890625 -1.421875 
Q 20.796875 -1.421875 13.15625 6.1875 
Q 5.515625 13.8125 5.515625 26.8125 
Q 5.515625 40.234375 12.765625 48.109375 
Q 20.015625 56 32.328125 56 
Q 43.359375 56 49.78125 48.890625 
Q 56.203125 41.796875 56.203125 29.59375 
z
M 47.21875 32.234375 
Q 47.125 39.59375 43.09375 43.984375 
Q 39.0625 48.390625 32.421875 48.390625 
Q 24.90625 48.390625 20.390625 44.140625 
Q 15.875 39.890625 15.1875 32.171875 
z
" id="DejaVuSans-101"/>
      <path d="M 41.109375 46.296875 
Q 39.59375 47.171875 37.8125 47.578125 
Q 36.03125 48 33.890625 48 
Q 26.265625 48 22.1875 43.046875 
Q 18.109375 38.09375 18.109375 28.8125 
L 18.109375 0 
L 9.078125 0 
L 9.078125 54.6875 
L 18.109375 54.6875 
L 18.109375 46.1875 
Q 20.953125 51.171875 25.484375 53.578125 
Q 30.03125 56 36.53125 56 
Q 37.453125 56 38.578125 55.875 
Q 39.703125 55.765625 41.0625 55.515625 
z
" id="DejaVuSans-114"/>
      <path d="M 18.3125 70.21875 
L 18.3125 54.6875 
L 36.8125 54.6875 
L 36.8125 47.703125 
L 18.3125 47.703125 
L 18.3125 18.015625 
Q 18.3125 11.328125 20.140625 9.421875 
Q 21.96875 7.515625 27.59375 7.515625 
L 36.8125 7.515625 
L 36.8125 0 
L 27.59375 0 
Q 17.1875 0 13.234375 3.875 
Q 9.28125 7.765625 9.28125 18.015625 
L 9.28125 47.703125 
L 2.6875 47.703125 
L 2.6875 54.6875 
L 9.28125 54.6875 
L 9.28125 70.21875 
z
" id="DejaVuSans-116"/>
      <path d="M 8.5 21.578125 
L 8.5 54.6875 
L 17.484375 54.6875 
L 17.484375 21.921875 
Q 17.484375 14.15625 20.5 10.265625 
Q 23.53125 6.390625 29.59375 6.390625 
Q 36.859375 6.390625 41.078125 11.03125 
Q 45.3125 15.671875 45.3125 23.6875 
L 45.3125 54.6875 
L 54.296875 54.6875 
L 54.296875 0 
L 45.3125 0 
L 45.3125 8.40625 
Q 42.046875 3.421875 37.71875 1 
Q 33.40625 -1.421875 27.6875 -1.421875 
Q 18.265625 -1.421875 13.375 4.4375 
Q 8.5 10.296875 8.5 21.578125 
z
M 31.109375 56 
z
" id="DejaVuSans-117"/>
      <path d="M 48.6875 27.296875 
Q 48.6875 37.203125 44.609375 42.84375 
Q 40.53125 48.484375 33.40625 48.484375 
Q 26.265625 48.484375 22.1875 42.84375 
Q 18.109375 37.203125 18.109375 27.296875 
Q 18.109375 17.390625 22.1875 11.75 
Q 26.265625 6.109375 33.40625 6.109375 
Q 40.53125 6.109375 44.609375 11.75 
Q 48.6875 17.390625 48.6875 27.296875 
z
M 18.109375 46.390625 
Q 20.953125 51.265625 25.265625 53.625 
Q 29.59375 56 35.59375 56 
Q 45.5625 56 51.78125 48.09375 
Q 58.015625 40.1875 58.015625 27.296875 
Q 58.015625 14.40625 51.78125 6.484375 
Q 45.5625 -1.421875 35.59375 -1.421875 
Q 29.59375 -1.421875 25.265625 0.953125 
Q 20.953125 3.328125 18.109375 8.203125 
L 18.109375 0 
L 9.078125 0 
L 9.078125 75.984375 
L 18.109375 75.984375 
z
" id="DejaVuSans-98"/>
      <path d="M 34.28125 27.484375 
Q 23.390625 27.484375 19.1875 25 
Q 14.984375 22.515625 14.984375 16.5 
Q 14.984375 11.71875 18.140625 8.90625 
Q 21.296875 6.109375 26.703125 6.109375 
Q 34.1875 6.109375 38.703125 11.40625 
Q 43.21875 16.703125 43.21875 25.484375 
L 43.21875 27.484375 
z
M 52.203125 31.203125 
L 52.203125 0 
L 43.21875 0 
L 43.21875 8.296875 
Q 40.140625 3.328125 35.546875 0.953125 
Q 30.953125 -1.421875 24.3125 -1.421875 
Q 15.921875 -1.421875 10.953125 3.296875 
Q 6 8.015625 6 15.921875 
Q 6 25.140625 12.171875 29.828125 
Q 18.359375 34.515625 30.609375 34.515625 
L 43.21875 34.515625 
L 43.21875 35.40625 
Q 43.21875 41.609375 39.140625 45 
Q 35.0625 48.390625 27.6875 48.390625 
Q 23 48.390625 18.546875 47.265625 
Q 14.109375 46.140625 10.015625 43.890625 
L 10.015625 52.203125 
Q 14.9375 54.109375 19.578125 55.046875 
Q 24.21875 56 28.609375 56 
Q 40.484375 56 46.34375 49.84375 
Q 52.203125 43.703125 52.203125 31.203125 
z
" id="DejaVuSans-97"/>
      <path d="M 9.421875 54.6875 
L 18.40625 54.6875 
L 18.40625 0 
L 9.421875 0 
z
M 9.421875 75.984375 
L 18.40625 75.984375 
L 18.40625 64.59375 
L 9.421875 64.59375 
z
" id="DejaVuSans-105"/>
      <path d="M 30.609375 48.390625 
Q 23.390625 48.390625 19.1875 42.75 
Q 14.984375 37.109375 14.984375 27.296875 
Q 14.984375 17.484375 19.15625 11.84375 
Q 23.34375 6.203125 30.609375 6.203125 
Q 37.796875 6.203125 41.984375 11.859375 
Q 46.1875 17.53125 46.1875 27.296875 
Q 46.1875 37.015625 41.984375 42.703125 
Q 37.796875 48.390625 30.609375 48.390625 
z
M 30.609375 56 
Q 42.328125 56 49.015625 48.375 
Q 55.71875 40.765625 55.71875 27.296875 
Q 55.71875 13.875 49.015625 6.21875 
Q 42.328125 -1.421875 30.609375 -1.421875 
Q 18.84375 -1.421875 12.171875 6.21875 
Q 5.515625 13.875 5.515625 27.296875 
Q 5.515625 40.765625 12.171875 48.375 
Q 18.84375 56 30.609375 56 
z
" id="DejaVuSans-111"/>
      <path d="M 54.890625 33.015625 
L 54.890625 0 
L 45.90625 0 
L 45.90625 32.71875 
Q 45.90625 40.484375 42.875 44.328125 
Q 39.84375 48.1875 33.796875 48.1875 
Q 26.515625 48.1875 22.3125 43.546875 
Q 18.109375 38.921875 18.109375 30.90625 
L 18.109375 0 
L 9.078125 0 
L 9.078125 54.6875 
L 18.109375 54.6875 
L 18.109375 46.1875 
Q 21.34375 51.125 25.703125 53.5625 
Q 30.078125 56 35.796875 56 
Q 45.21875 56 50.046875 50.171875 
Q 54.890625 44.34375 54.890625 33.015625 
z
" id="DejaVuSans-110"/>
      <path id="DejaVuSans-32"/>
      <path d="M 37.109375 75.984375 
L 37.109375 68.5 
L 28.515625 68.5 
Q 23.6875 68.5 21.796875 66.546875 
Q 19.921875 64.59375 19.921875 59.515625 
L 19.921875 54.6875 
L 34.71875 54.6875 
L 34.71875 47.703125 
L 19.921875 47.703125 
L 19.921875 0 
L 10.890625 0 
L 10.890625 47.703125 
L 2.296875 47.703125 
L 2.296875 54.6875 
L 10.890625 54.6875 
L 10.890625 58.5 
Q 10.890625 67.625 15.140625 71.796875 
Q 19.390625 75.984375 28.609375 75.984375 
z
" id="DejaVuSans-102"/>
      <path d="M 4.890625 31.390625 
L 31.203125 31.390625 
L 31.203125 23.390625 
L 4.890625 23.390625 
z
" id="DejaVuSans-45"/>
      <path d="M 45.40625 27.984375 
Q 45.40625 37.75 41.375 43.109375 
Q 37.359375 48.484375 30.078125 48.484375 
Q 22.859375 48.484375 18.828125 43.109375 
Q 14.796875 37.75 14.796875 27.984375 
Q 14.796875 18.265625 18.828125 12.890625 
Q 22.859375 7.515625 30.078125 7.515625 
Q 37.359375 7.515625 41.375 12.890625 
Q 45.40625 18.265625 45.40625 27.984375 
z
M 54.390625 6.78125 
Q 54.390625 -7.171875 48.1875 -13.984375 
Q 42 -20.796875 29.203125 -20.796875 
Q 24.46875 -20.796875 20.265625 -20.09375 
Q 16.0625 -19.390625 12.109375 -17.921875 
L 12.109375 -9.1875 
Q 16.0625 -11.328125 19.921875 -12.34375 
Q 23.78125 -13.375 27.78125 -13.375 
Q 36.625 -13.375 41.015625 -8.765625 
Q 45.40625 -4.15625 45.40625 5.171875 
L 45.40625 9.625 
Q 42.625 4.78125 38.28125 2.390625 
Q 33.9375 0 27.875 0 
Q 17.828125 0 11.671875 7.65625 
Q 5.515625 15.328125 5.515625 27.984375 
Q 5.515625 40.671875 11.671875 48.328125 
Q 17.828125 56 27.875 56 
Q 33.9375 56 38.28125 53.609375 
Q 42.625 51.21875 45.40625 46.390625 
L 45.40625 54.6875 
L 54.390625 54.6875 
z
" id="DejaVuSans-103"/>
      <path d="M 44.28125 53.078125 
L 44.28125 44.578125 
Q 40.484375 46.53125 36.375 47.5 
Q 32.28125 48.484375 27.875 48.484375 
Q 21.1875 48.484375 17.84375 46.4375 
Q 14.5 44.390625 14.5 40.28125 
Q 14.5 37.15625 16.890625 35.375 
Q 19.28125 33.59375 26.515625 31.984375 
L 29.59375 31.296875 
Q 39.15625 29.25 43.1875 25.515625 
Q 47.21875 21.78125 47.21875 15.09375 
Q 47.21875 7.46875 41.1875 3.015625 
Q 35.15625 -1.421875 24.609375 -1.421875 
Q 20.21875 -1.421875 15.453125 -0.5625 
Q 10.6875 0.296875 5.421875 2 
L 5.421875 11.28125 
Q 10.40625 8.6875 15.234375 7.390625 
Q 20.0625 6.109375 24.8125 6.109375 
Q 31.15625 6.109375 34.5625 8.28125 
Q 37.984375 10.453125 37.984375 14.40625 
Q 37.984375 18.0625 35.515625 20.015625 
Q 33.0625 21.96875 24.703125 23.78125 
L 21.578125 24.515625 
Q 13.234375 26.265625 9.515625 29.90625 
Q 5.8125 33.546875 5.8125 39.890625 
Q 5.8125 47.609375 11.28125 51.796875 
Q 16.75 56 26.8125 56 
Q 31.78125 56 36.171875 55.265625 
Q 40.578125 54.546875 44.28125 53.078125 
z
" id="DejaVuSans-115"/>
      <path d="M 48.78125 52.59375 
L 48.78125 44.1875 
Q 44.96875 46.296875 41.140625 47.34375 
Q 37.3125 48.390625 33.40625 48.390625 
Q 24.65625 48.390625 19.8125 42.84375 
Q 14.984375 37.3125 14.984375 27.296875 
Q 14.984375 17.28125 19.8125 11.734375 
Q 24.65625 6.203125 33.40625 6.203125 
Q 37.3125 6.203125 41.140625 7.25 
Q 44.96875 8.296875 48.78125 10.40625 
L 48.78125 2.09375 
Q 45.015625 0.34375 40.984375 -0.53125 
Q 36.96875 -1.421875 32.421875 -1.421875 
Q 20.0625 -1.421875 12.78125 6.34375 
Q 5.515625 14.109375 5.515625 27.296875 
Q 5.515625 40.671875 12.859375 48.328125 
Q 20.21875 56 33.015625 56 
Q 37.15625 56 41.109375 55.140625 
Q 45.0625 54.296875 48.78125 52.59375 
z
" id="DejaVuSans-99"/>
     </defs>
     <use xlink:href="#DejaVuSans-80"/>
     <use x="56.677734" xlink:href="#DejaVuSans-101"/>
     <use x="118.201172" xlink:href="#DejaVuSans-114"/>
     <use x="159.314453" xlink:href="#DejaVuSans-116"/>
     <use x="198.523438" xlink:href="#DejaVuSans-117"/>
     <use x="261.902344" xlink:href="#DejaVuSans-114"/>
     <use x="303.015625" xlink:href="#DejaVuSans-98"/>
     <use x="366.492188" xlink:href="#DejaVuSans-97"/>
     <use x="427.771484" xlink:href="#DejaVuSans-116"/>
     <use x="466.980469" xlink:href="#DejaVuSans-105"/>
     <use x="494.763672" xlink:href="#DejaVuSans-111"/>
     <use x="555.945312" xlink:href="#DejaVuSans-110"/>
     <use x="619.324219" xlink:href="#DejaVuSans-32"/>
     <use x="651.111328" xlink:href="#DejaVuSans-111"/>
     <use x="712.292969" xlink:href="#DejaVuSans-102"/>
     <use x="747.498047" xlink:href="#DejaVuSans-102"/>
     <use x="777.203125" xlink:href="#DejaVuSans-45"/>
     <use x="813.287109" xlink:href="#DejaVuSans-116"/>
     <use x="852.496094" xlink:href="#DejaVuSans-97"/>
     <use x="913.775391" xlink:href="#DejaVuSans-114"/>
     <use x="953.138672" xlink:href="#DejaVuSans-103"/>
     <use x="1016.615234" xlink:href="#DejaVuSans-101"/>
     <use x="1078.138672" xlink:href="#DejaVuSans-116"/>
     <use x="1117.347656" xlink:href="#DejaVuSans-32"/>
     <use x="1149.134766" xlink:href="#DejaVuSans-115"/>
     <use x="1201.234375" xlink:href="#DejaVuSans-99"/>
     <use x="1256.214844" xlink:href="#DejaVuSans-111"/>
     <use x="1317.396484" xlink:href="#DejaVuSans-114"/>
     <use x="1356.259766" xlink:href="#DejaVuSans-101"/>
    </g>
   </g>
  </g>
 </g>
 <defs>
  <clipPath id="pd79249eeb7">
   <rect height="815.4" width="1116" x="180" y="129.6"/>
  </clipPath>
 </defs>
</svg>
